G04 EAGLE Gerber RS-274X export*
G75*
%MOMM*%
%FSLAX34Y34*%
%LPD*%
%INBottom Copper*%
%IPPOS*%
%AMOC8*
5,1,8,0,0,1.08239X$1,22.5*%
G01*
%ADD10C,0.203200*%
%ADD11C,0.099059*%
%ADD12C,1.000000*%
%ADD13C,0.736600*%
%ADD14C,0.254000*%
%ADD15C,0.705600*%
%ADD16C,0.508000*%

G36*
X522292Y11538D02*
X522292Y11538D01*
X522345Y11535D01*
X522450Y11555D01*
X522556Y11567D01*
X522605Y11585D01*
X522657Y11595D01*
X522754Y11641D01*
X522854Y11679D01*
X522897Y11709D01*
X522944Y11731D01*
X523026Y11800D01*
X523114Y11861D01*
X523148Y11901D01*
X523189Y11935D01*
X523251Y12021D01*
X523321Y12103D01*
X523344Y12150D01*
X523375Y12192D01*
X523414Y12292D01*
X523461Y12388D01*
X523472Y12439D01*
X523491Y12488D01*
X523504Y12595D01*
X523526Y12699D01*
X523524Y12752D01*
X523530Y12804D01*
X523517Y12910D01*
X523512Y13017D01*
X523497Y13067D01*
X523490Y13119D01*
X523440Y13272D01*
X455489Y183150D01*
X455477Y183171D01*
X455470Y183195D01*
X455400Y183310D01*
X455334Y183428D01*
X455318Y183446D01*
X455305Y183467D01*
X455209Y183561D01*
X455116Y183659D01*
X455095Y183672D01*
X455078Y183689D01*
X454961Y183757D01*
X454847Y183829D01*
X454823Y183836D01*
X454802Y183848D01*
X454673Y183885D01*
X454544Y183926D01*
X454520Y183927D01*
X454496Y183934D01*
X454361Y183937D01*
X454227Y183945D01*
X454203Y183940D01*
X454178Y183941D01*
X454047Y183910D01*
X453914Y183884D01*
X453892Y183874D01*
X453868Y183868D01*
X453721Y183803D01*
X453439Y183655D01*
X440687Y181055D01*
X427715Y182098D01*
X415542Y186701D01*
X405125Y194503D01*
X397284Y204891D01*
X392636Y217047D01*
X391544Y230015D01*
X394097Y242777D01*
X400092Y254328D01*
X409058Y263761D01*
X420291Y270333D01*
X432907Y273529D01*
X445914Y273096D01*
X458290Y269069D01*
X469061Y261765D01*
X469746Y260941D01*
X469820Y260872D01*
X469888Y260796D01*
X469936Y260763D01*
X469978Y260724D01*
X470067Y260675D01*
X470152Y260618D01*
X470207Y260599D01*
X470257Y260571D01*
X470356Y260546D01*
X470452Y260512D01*
X470509Y260507D01*
X470566Y260493D01*
X470667Y260493D01*
X470768Y260484D01*
X470826Y260493D01*
X470884Y260493D01*
X470982Y260519D01*
X471082Y260535D01*
X471135Y260559D01*
X471191Y260573D01*
X471280Y260622D01*
X471374Y260663D01*
X471451Y260717D01*
X471470Y260727D01*
X471480Y260736D01*
X471506Y260754D01*
X632328Y387114D01*
X632367Y387154D01*
X632412Y387186D01*
X632478Y387266D01*
X632551Y387340D01*
X632579Y387388D01*
X632615Y387431D01*
X632659Y387525D01*
X632711Y387615D01*
X632727Y387669D01*
X632750Y387719D01*
X632770Y387821D01*
X632798Y387921D01*
X632800Y387977D01*
X632810Y388032D01*
X632804Y388135D01*
X632806Y388239D01*
X632794Y388293D01*
X632790Y388349D01*
X632758Y388447D01*
X632735Y388549D01*
X632709Y388598D01*
X632692Y388651D01*
X632637Y388739D01*
X632589Y388831D01*
X632552Y388873D01*
X632522Y388920D01*
X632447Y388991D01*
X632378Y389069D01*
X632331Y389100D01*
X632291Y389138D01*
X632200Y389188D01*
X632114Y389246D01*
X632061Y389265D01*
X632012Y389292D01*
X631912Y389317D01*
X631814Y389352D01*
X631758Y389357D01*
X631704Y389371D01*
X631543Y389381D01*
X464577Y389381D01*
X464432Y389363D01*
X464285Y389347D01*
X464274Y389343D01*
X464262Y389341D01*
X464125Y389287D01*
X463987Y389236D01*
X463977Y389229D01*
X463966Y389224D01*
X463847Y389138D01*
X463726Y389054D01*
X463718Y389045D01*
X463709Y389038D01*
X463615Y388924D01*
X463519Y388813D01*
X463514Y388802D01*
X463506Y388793D01*
X463443Y388660D01*
X463378Y388528D01*
X463375Y388516D01*
X463370Y388505D01*
X463343Y388361D01*
X463312Y388216D01*
X463312Y388200D01*
X463311Y388193D01*
X463312Y388177D01*
X463309Y388055D01*
X463812Y376782D01*
X460951Y364707D01*
X454895Y353876D01*
X446105Y345116D01*
X435254Y339096D01*
X423170Y336274D01*
X410775Y336868D01*
X399015Y340831D01*
X388789Y347861D01*
X380878Y357421D01*
X375884Y368781D01*
X374190Y381074D01*
X375924Y393362D01*
X380956Y404705D01*
X388899Y414239D01*
X399148Y421235D01*
X399273Y421277D01*
X399284Y421282D01*
X399297Y421285D01*
X399427Y421351D01*
X399560Y421414D01*
X399569Y421422D01*
X399581Y421428D01*
X399691Y421524D01*
X399803Y421619D01*
X399810Y421629D01*
X399820Y421637D01*
X399903Y421758D01*
X399988Y421877D01*
X399993Y421889D01*
X400000Y421899D01*
X400050Y422037D01*
X400103Y422174D01*
X400105Y422186D01*
X400109Y422198D01*
X400123Y422344D01*
X400141Y422490D01*
X400139Y422502D01*
X400140Y422515D01*
X400118Y422660D01*
X400099Y422805D01*
X400094Y422817D01*
X400092Y422829D01*
X400038Y422981D01*
X338684Y566140D01*
X338663Y566176D01*
X338649Y566216D01*
X338583Y566313D01*
X338523Y566414D01*
X338494Y566444D01*
X338470Y566479D01*
X338382Y566557D01*
X338299Y566640D01*
X338263Y566661D01*
X338232Y566689D01*
X338127Y566743D01*
X338026Y566803D01*
X337986Y566815D01*
X337949Y566834D01*
X337834Y566860D01*
X337721Y566893D01*
X337679Y566894D01*
X337638Y566903D01*
X337521Y566900D01*
X337403Y566904D01*
X337362Y566895D01*
X337320Y566894D01*
X337207Y566861D01*
X337093Y566836D01*
X337055Y566817D01*
X337015Y566805D01*
X336914Y566746D01*
X336809Y566693D01*
X336777Y566665D01*
X336741Y566644D01*
X336620Y566537D01*
X334759Y564677D01*
X331801Y563451D01*
X328599Y563451D01*
X325641Y564677D01*
X323377Y566941D01*
X323002Y567846D01*
X322933Y567966D01*
X322869Y568088D01*
X322855Y568104D01*
X322844Y568123D01*
X322748Y568221D01*
X322656Y568324D01*
X322638Y568335D01*
X322623Y568351D01*
X322505Y568423D01*
X322390Y568499D01*
X322370Y568506D01*
X322352Y568517D01*
X322220Y568558D01*
X322090Y568603D01*
X322068Y568604D01*
X322048Y568611D01*
X321910Y568617D01*
X321773Y568629D01*
X321752Y568625D01*
X321730Y568626D01*
X321595Y568598D01*
X321459Y568575D01*
X321440Y568566D01*
X321419Y568562D01*
X321295Y568501D01*
X321169Y568445D01*
X321152Y568431D01*
X321133Y568422D01*
X321028Y568333D01*
X320920Y568247D01*
X320907Y568230D01*
X320891Y568216D01*
X320811Y568103D01*
X320729Y567993D01*
X320715Y567966D01*
X320708Y567956D01*
X320700Y567936D01*
X320657Y567849D01*
X260299Y422988D01*
X260297Y422982D01*
X260294Y422977D01*
X260255Y422829D01*
X260214Y422682D01*
X260214Y422676D01*
X260212Y422670D01*
X260211Y422517D01*
X260208Y422364D01*
X260210Y422358D01*
X260210Y422352D01*
X260247Y422203D01*
X260282Y422054D01*
X260285Y422049D01*
X260286Y422043D01*
X260359Y421909D01*
X260430Y421773D01*
X260434Y421768D01*
X260437Y421763D01*
X260540Y421651D01*
X260644Y421537D01*
X260649Y421534D01*
X260653Y421529D01*
X260782Y421446D01*
X260909Y421362D01*
X260915Y421360D01*
X260920Y421357D01*
X261069Y421296D01*
X261252Y421235D01*
X271501Y414239D01*
X279444Y404705D01*
X283955Y394536D01*
X283983Y394489D01*
X284003Y394439D01*
X284065Y394354D01*
X284119Y394263D01*
X284158Y394226D01*
X284189Y394182D01*
X284271Y394114D01*
X284346Y394041D01*
X284393Y394013D01*
X284434Y393979D01*
X284530Y393934D01*
X284621Y393881D01*
X284673Y393866D01*
X284722Y393843D01*
X284826Y393824D01*
X284927Y393795D01*
X284981Y393794D01*
X285035Y393784D01*
X285140Y393790D01*
X285245Y393788D01*
X285298Y393800D01*
X285352Y393803D01*
X285452Y393836D01*
X285555Y393860D01*
X285603Y393885D01*
X285654Y393901D01*
X285744Y393958D01*
X285837Y394006D01*
X285877Y394043D01*
X285923Y394072D01*
X285996Y394149D01*
X286074Y394219D01*
X286104Y394264D01*
X286141Y394303D01*
X286192Y394396D01*
X286251Y394483D01*
X286268Y394534D01*
X286295Y394582D01*
X286321Y394684D01*
X286356Y394783D01*
X286361Y394837D01*
X286374Y394890D01*
X286384Y395050D01*
X286384Y411195D01*
X287235Y413249D01*
X316822Y442835D01*
X316827Y442843D01*
X316835Y442848D01*
X316925Y442968D01*
X317017Y443087D01*
X317020Y443095D01*
X317026Y443102D01*
X317097Y443247D01*
X318143Y445773D01*
X320037Y447667D01*
X322511Y448692D01*
X325189Y448692D01*
X327663Y447667D01*
X329557Y445773D01*
X330582Y443299D01*
X330582Y440621D01*
X329557Y438147D01*
X327663Y436253D01*
X325137Y435207D01*
X325129Y435202D01*
X325120Y435200D01*
X324991Y435123D01*
X324861Y435049D01*
X324854Y435043D01*
X324846Y435038D01*
X324725Y434932D01*
X306362Y416568D01*
X306277Y416459D01*
X306188Y416352D01*
X306180Y416333D01*
X306167Y416317D01*
X306112Y416189D01*
X306053Y416064D01*
X306049Y416044D01*
X306041Y416025D01*
X306019Y415887D01*
X305993Y415751D01*
X305994Y415731D01*
X305991Y415711D01*
X306004Y415572D01*
X306013Y415434D01*
X306019Y415415D01*
X306021Y415395D01*
X306068Y415263D01*
X306111Y415132D01*
X306122Y415114D01*
X306128Y415095D01*
X306206Y414980D01*
X306281Y414863D01*
X306296Y414849D01*
X306307Y414832D01*
X306411Y414740D01*
X306512Y414645D01*
X306530Y414635D01*
X306545Y414622D01*
X306669Y414558D01*
X306791Y414491D01*
X306811Y414486D01*
X306829Y414477D01*
X306964Y414447D01*
X307099Y414412D01*
X307127Y414410D01*
X307139Y414407D01*
X307159Y414408D01*
X307260Y414402D01*
X307409Y414402D01*
X309883Y413377D01*
X311777Y411483D01*
X312802Y409009D01*
X312802Y407572D01*
X312814Y407473D01*
X312817Y407374D01*
X312834Y407316D01*
X312842Y407256D01*
X312878Y407164D01*
X312906Y407069D01*
X312936Y407017D01*
X312959Y406960D01*
X313017Y406880D01*
X313067Y406795D01*
X313133Y406720D01*
X313145Y406703D01*
X313155Y406695D01*
X313173Y406674D01*
X330709Y389139D01*
X330709Y307268D01*
X330717Y307198D01*
X330716Y307129D01*
X330737Y307041D01*
X330749Y306952D01*
X330774Y306887D01*
X330791Y306819D01*
X330833Y306740D01*
X330866Y306656D01*
X330907Y306600D01*
X330939Y306538D01*
X331000Y306472D01*
X331052Y306399D01*
X331106Y306354D01*
X331153Y306303D01*
X331228Y306254D01*
X331297Y306196D01*
X331361Y306166D01*
X331419Y306128D01*
X331504Y306099D01*
X331585Y306061D01*
X331654Y306048D01*
X331720Y306025D01*
X331809Y306018D01*
X331897Y306001D01*
X331967Y306005D01*
X332037Y306000D01*
X332125Y306015D01*
X332215Y306021D01*
X332281Y306042D01*
X332350Y306054D01*
X332432Y306091D01*
X332517Y306119D01*
X332576Y306156D01*
X332640Y306185D01*
X332710Y306241D01*
X332786Y306289D01*
X332834Y306340D01*
X332888Y306383D01*
X332942Y306455D01*
X333004Y306521D01*
X333038Y306582D01*
X333080Y306637D01*
X333151Y306782D01*
X333383Y307343D01*
X335277Y309237D01*
X337751Y310262D01*
X340429Y310262D01*
X342903Y309237D01*
X344797Y307343D01*
X345822Y304869D01*
X345822Y302191D01*
X344797Y299717D01*
X343780Y298700D01*
X343720Y298622D01*
X343652Y298550D01*
X343623Y298497D01*
X343586Y298449D01*
X343546Y298358D01*
X343498Y298271D01*
X343483Y298213D01*
X343459Y298157D01*
X343444Y298059D01*
X343419Y297964D01*
X343413Y297864D01*
X343409Y297843D01*
X343411Y297831D01*
X343409Y297803D01*
X343409Y278881D01*
X305553Y241026D01*
X305493Y240948D01*
X305425Y240875D01*
X305396Y240822D01*
X305359Y240775D01*
X305319Y240684D01*
X305271Y240597D01*
X305256Y240538D01*
X305232Y240483D01*
X305217Y240385D01*
X305192Y240289D01*
X305186Y240189D01*
X305182Y240169D01*
X305184Y240156D01*
X305182Y240128D01*
X305182Y238691D01*
X304157Y236217D01*
X303140Y235200D01*
X303080Y235122D01*
X303012Y235050D01*
X302983Y234997D01*
X302946Y234949D01*
X302906Y234858D01*
X302858Y234771D01*
X302843Y234713D01*
X302819Y234657D01*
X302804Y234559D01*
X302779Y234464D01*
X302773Y234364D01*
X302769Y234343D01*
X302771Y234331D01*
X302769Y234303D01*
X302769Y188711D01*
X300473Y186416D01*
X300413Y186338D01*
X300345Y186265D01*
X300316Y186212D01*
X300279Y186165D01*
X300239Y186074D01*
X300191Y185987D01*
X300176Y185928D01*
X300152Y185873D01*
X300137Y185775D01*
X300112Y185679D01*
X300106Y185579D01*
X300102Y185559D01*
X300104Y185546D01*
X300102Y185518D01*
X300102Y184081D01*
X299077Y181607D01*
X297183Y179713D01*
X294709Y178688D01*
X292031Y178688D01*
X289557Y179713D01*
X287663Y181607D01*
X286638Y184081D01*
X286638Y186759D01*
X287663Y189233D01*
X289557Y191127D01*
X292031Y192152D01*
X292862Y192152D01*
X292980Y192167D01*
X293099Y192174D01*
X293137Y192187D01*
X293178Y192192D01*
X293288Y192235D01*
X293401Y192272D01*
X293436Y192294D01*
X293473Y192309D01*
X293569Y192378D01*
X293670Y192442D01*
X293698Y192472D01*
X293731Y192495D01*
X293807Y192587D01*
X293888Y192674D01*
X293908Y192709D01*
X293933Y192740D01*
X293984Y192848D01*
X294042Y192952D01*
X294052Y192992D01*
X294069Y193028D01*
X294091Y193145D01*
X294121Y193260D01*
X294125Y193320D01*
X294129Y193340D01*
X294127Y193361D01*
X294131Y193421D01*
X294131Y234303D01*
X294119Y234401D01*
X294116Y234500D01*
X294099Y234558D01*
X294091Y234618D01*
X294055Y234710D01*
X294027Y234806D01*
X293997Y234858D01*
X293974Y234914D01*
X293916Y234994D01*
X293866Y235080D01*
X293800Y235155D01*
X293788Y235171D01*
X293778Y235179D01*
X293760Y235200D01*
X292743Y236217D01*
X291718Y238691D01*
X291718Y241369D01*
X292743Y243843D01*
X294637Y245737D01*
X297111Y246762D01*
X298548Y246762D01*
X298647Y246774D01*
X298746Y246777D01*
X298804Y246794D01*
X298864Y246802D01*
X298956Y246838D01*
X299051Y246866D01*
X299103Y246896D01*
X299160Y246919D01*
X299240Y246977D01*
X299325Y247027D01*
X299400Y247093D01*
X299417Y247105D01*
X299425Y247115D01*
X299446Y247133D01*
X326624Y274312D01*
X326709Y274421D01*
X326798Y274528D01*
X326806Y274547D01*
X326819Y274563D01*
X326874Y274691D01*
X326933Y274816D01*
X326937Y274836D01*
X326945Y274855D01*
X326967Y274993D01*
X326993Y275129D01*
X326992Y275149D01*
X326995Y275169D01*
X326982Y275308D01*
X326973Y275446D01*
X326967Y275465D01*
X326965Y275485D01*
X326918Y275616D01*
X326875Y275748D01*
X326865Y275766D01*
X326858Y275785D01*
X326780Y275900D01*
X326705Y276017D01*
X326690Y276031D01*
X326679Y276048D01*
X326575Y276140D01*
X326474Y276235D01*
X326456Y276245D01*
X326441Y276258D01*
X326317Y276321D01*
X326195Y276389D01*
X326175Y276394D01*
X326157Y276403D01*
X326022Y276433D01*
X325887Y276468D01*
X325859Y276470D01*
X325847Y276473D01*
X325827Y276472D01*
X325726Y276478D01*
X325051Y276478D01*
X322577Y277503D01*
X320683Y279397D01*
X319658Y281871D01*
X319658Y284549D01*
X320683Y287023D01*
X321700Y288040D01*
X321760Y288118D01*
X321828Y288190D01*
X321857Y288243D01*
X321894Y288291D01*
X321934Y288382D01*
X321982Y288469D01*
X321997Y288527D01*
X322021Y288583D01*
X322036Y288681D01*
X322061Y288776D01*
X322067Y288876D01*
X322071Y288897D01*
X322069Y288909D01*
X322071Y288937D01*
X322071Y330188D01*
X322054Y330325D01*
X322041Y330464D01*
X322034Y330483D01*
X322031Y330503D01*
X321980Y330632D01*
X321933Y330764D01*
X321922Y330780D01*
X321914Y330799D01*
X321833Y330912D01*
X321755Y331027D01*
X321739Y331040D01*
X321728Y331056D01*
X321620Y331145D01*
X321516Y331237D01*
X321498Y331246D01*
X321483Y331259D01*
X321357Y331319D01*
X321233Y331382D01*
X321213Y331386D01*
X321195Y331395D01*
X321058Y331421D01*
X320923Y331451D01*
X320902Y331451D01*
X320883Y331455D01*
X320744Y331446D01*
X320605Y331442D01*
X320585Y331436D01*
X320565Y331435D01*
X320433Y331392D01*
X320299Y331353D01*
X320282Y331343D01*
X320263Y331337D01*
X320145Y331262D01*
X320025Y331192D01*
X320004Y331173D01*
X319994Y331167D01*
X319980Y331152D01*
X319905Y331085D01*
X318392Y329573D01*
X315918Y328548D01*
X313240Y328548D01*
X310766Y329573D01*
X308872Y331467D01*
X307847Y333941D01*
X307847Y336626D01*
X307855Y336642D01*
X307884Y336769D01*
X307918Y336894D01*
X307918Y336923D01*
X307925Y336952D01*
X307921Y337082D01*
X307923Y337212D01*
X307916Y337241D01*
X307915Y337270D01*
X307879Y337395D01*
X307849Y337521D01*
X307835Y337547D01*
X307827Y337576D01*
X307761Y337687D01*
X307700Y337802D01*
X307680Y337824D01*
X307665Y337850D01*
X307559Y337970D01*
X306050Y339480D01*
X305972Y339540D01*
X305900Y339608D01*
X305846Y339637D01*
X305799Y339674D01*
X305708Y339714D01*
X305621Y339762D01*
X305562Y339777D01*
X305507Y339801D01*
X305409Y339816D01*
X305313Y339841D01*
X305213Y339847D01*
X305193Y339851D01*
X305180Y339849D01*
X305152Y339851D01*
X298831Y339851D01*
X298713Y339836D01*
X298594Y339829D01*
X298556Y339816D01*
X298515Y339811D01*
X298405Y339768D01*
X298292Y339731D01*
X298257Y339709D01*
X298220Y339694D01*
X298124Y339625D01*
X298023Y339561D01*
X297995Y339531D01*
X297962Y339508D01*
X297886Y339416D01*
X297805Y339329D01*
X297785Y339294D01*
X297760Y339263D01*
X297709Y339155D01*
X297651Y339051D01*
X297641Y339011D01*
X297624Y338975D01*
X297602Y338858D01*
X297572Y338743D01*
X297568Y338683D01*
X297564Y338663D01*
X297566Y338642D01*
X297562Y338582D01*
X297562Y322611D01*
X296711Y320557D01*
X286376Y310222D01*
X284322Y309371D01*
X281051Y309371D01*
X280933Y309356D01*
X280814Y309349D01*
X280776Y309336D01*
X280735Y309331D01*
X280625Y309288D01*
X280512Y309251D01*
X280477Y309229D01*
X280440Y309214D01*
X280344Y309145D01*
X280243Y309081D01*
X280215Y309051D01*
X280182Y309028D01*
X280106Y308936D01*
X280025Y308849D01*
X280005Y308814D01*
X279980Y308783D01*
X279929Y308675D01*
X279871Y308571D01*
X279861Y308531D01*
X279844Y308495D01*
X279822Y308378D01*
X279792Y308263D01*
X279788Y308203D01*
X279784Y308183D01*
X279786Y308162D01*
X279782Y308102D01*
X279782Y296451D01*
X279783Y296442D01*
X279782Y296433D01*
X279803Y296284D01*
X279822Y296135D01*
X279825Y296127D01*
X279826Y296118D01*
X279878Y295965D01*
X280925Y293439D01*
X280925Y290761D01*
X279878Y288235D01*
X279876Y288226D01*
X279871Y288218D01*
X279834Y288071D01*
X279794Y287928D01*
X279794Y287919D01*
X279792Y287910D01*
X279782Y287749D01*
X279782Y179611D01*
X279783Y179602D01*
X279782Y179593D01*
X279803Y179444D01*
X279822Y179295D01*
X279825Y179287D01*
X279826Y179278D01*
X279878Y179125D01*
X280925Y176599D01*
X280925Y173921D01*
X279878Y171395D01*
X279876Y171386D01*
X279871Y171378D01*
X279834Y171232D01*
X279794Y171088D01*
X279794Y171079D01*
X279792Y171070D01*
X279782Y170909D01*
X279782Y144713D01*
X279786Y144678D01*
X279784Y144644D01*
X279806Y144521D01*
X279822Y144397D01*
X279834Y144365D01*
X279841Y144331D01*
X279893Y144217D01*
X279939Y144101D01*
X279959Y144073D01*
X279973Y144042D01*
X280052Y143945D01*
X280125Y143844D01*
X280152Y143822D01*
X280174Y143795D01*
X280274Y143721D01*
X280370Y143641D01*
X280402Y143626D01*
X280430Y143606D01*
X280546Y143559D01*
X280658Y143506D01*
X280692Y143499D01*
X280724Y143486D01*
X280848Y143469D01*
X280970Y143446D01*
X281005Y143448D01*
X281039Y143443D01*
X281163Y143458D01*
X281288Y143466D01*
X281321Y143476D01*
X281355Y143480D01*
X281472Y143525D01*
X281590Y143564D01*
X281620Y143582D01*
X281652Y143595D01*
X281754Y143667D01*
X281859Y143734D01*
X281883Y143759D01*
X281911Y143779D01*
X281992Y143875D01*
X282077Y143966D01*
X282094Y143996D01*
X282116Y144022D01*
X282195Y144163D01*
X286063Y152211D01*
X294526Y161692D01*
X305284Y168458D01*
X317496Y171979D01*
X330204Y171979D01*
X342416Y168458D01*
X353174Y161692D01*
X361637Y152211D01*
X367142Y140757D01*
X369259Y128226D01*
X367821Y115599D01*
X362873Y103698D01*
X362870Y103689D01*
X362865Y103680D01*
X362858Y103652D01*
X362844Y103624D01*
X362827Y103540D01*
X362800Y103460D01*
X362797Y103423D01*
X362789Y103392D01*
X362789Y103382D01*
X362786Y103372D01*
X362783Y103332D01*
X362779Y103312D01*
X362781Y103286D01*
X362776Y103211D01*
X362780Y103179D01*
X362777Y103142D01*
X362784Y103106D01*
X362783Y103074D01*
X362792Y103038D01*
X362794Y102994D01*
X362810Y102942D01*
X362816Y102896D01*
X362827Y102867D01*
X362834Y102829D01*
X362850Y102795D01*
X362857Y102765D01*
X362874Y102732D01*
X362887Y102690D01*
X362915Y102643D01*
X362933Y102600D01*
X362951Y102575D01*
X362967Y102540D01*
X362991Y102510D01*
X363005Y102483D01*
X363029Y102457D01*
X363052Y102419D01*
X363092Y102380D01*
X363119Y102343D01*
X363143Y102323D01*
X363167Y102293D01*
X363198Y102270D01*
X363219Y102248D01*
X363249Y102228D01*
X363280Y102197D01*
X363353Y102149D01*
X363364Y102140D01*
X363375Y102135D01*
X363415Y102109D01*
X465898Y43547D01*
X465990Y43509D01*
X466078Y43462D01*
X466136Y43448D01*
X466191Y43425D01*
X466290Y43411D01*
X466387Y43387D01*
X466447Y43388D01*
X466506Y43380D01*
X466605Y43391D01*
X466705Y43392D01*
X466763Y43408D01*
X466822Y43414D01*
X466915Y43450D01*
X467012Y43476D01*
X467064Y43505D01*
X467120Y43526D01*
X467202Y43584D01*
X467288Y43633D01*
X467331Y43675D01*
X467380Y43709D01*
X467445Y43785D01*
X467517Y43854D01*
X467548Y43905D01*
X467587Y43951D01*
X467631Y44040D01*
X467683Y44125D01*
X467701Y44182D01*
X467727Y44236D01*
X467748Y44334D01*
X467777Y44429D01*
X467788Y44527D01*
X467792Y44547D01*
X467792Y44560D01*
X467795Y44589D01*
X467832Y45362D01*
X469257Y47964D01*
X469281Y48009D01*
X470681Y50566D01*
X471872Y51410D01*
X471973Y51502D01*
X472077Y51591D01*
X472097Y51616D01*
X472106Y51625D01*
X472118Y51642D01*
X472178Y51717D01*
X472403Y52039D01*
X472520Y52059D01*
X472634Y52095D01*
X472749Y52122D01*
X472785Y52141D01*
X472824Y52153D01*
X472925Y52215D01*
X473030Y52271D01*
X473077Y52309D01*
X473095Y52320D01*
X473109Y52334D01*
X473156Y52372D01*
X474193Y53319D01*
X478176Y53796D01*
X479697Y52963D01*
X479935Y52833D01*
X481694Y51870D01*
X483507Y48113D01*
X483508Y48104D01*
X483532Y48038D01*
X483546Y47969D01*
X483585Y47889D01*
X483616Y47805D01*
X483655Y47747D01*
X483686Y47684D01*
X483744Y47616D01*
X483795Y47542D01*
X483848Y47496D01*
X483893Y47442D01*
X483966Y47391D01*
X484034Y47332D01*
X484096Y47300D01*
X484154Y47260D01*
X484237Y47228D01*
X484317Y47188D01*
X484385Y47173D01*
X484451Y47148D01*
X484540Y47138D01*
X484627Y47119D01*
X484698Y47121D01*
X484767Y47113D01*
X484856Y47126D01*
X484945Y47129D01*
X485067Y47156D01*
X485082Y47158D01*
X485088Y47161D01*
X485102Y47164D01*
X486584Y47597D01*
X486597Y47603D01*
X486716Y47644D01*
X488033Y48193D01*
X488131Y48167D01*
X488160Y48166D01*
X488189Y48160D01*
X488319Y48164D01*
X488449Y48162D01*
X488461Y48165D01*
X489701Y47486D01*
X489715Y47481D01*
X489828Y47426D01*
X491147Y46883D01*
X491198Y46795D01*
X491218Y46774D01*
X491234Y46749D01*
X491329Y46660D01*
X491420Y46567D01*
X491430Y46560D01*
X491827Y45203D01*
X491833Y45190D01*
X491874Y45071D01*
X493337Y41561D01*
X493374Y41498D01*
X493402Y41429D01*
X493453Y41360D01*
X493496Y41285D01*
X493547Y41233D01*
X493591Y41173D01*
X493658Y41119D01*
X493717Y41058D01*
X493780Y41019D01*
X493838Y40973D01*
X493916Y40937D01*
X493989Y40892D01*
X494059Y40870D01*
X494126Y40840D01*
X494283Y40801D01*
X495626Y40558D01*
X496575Y39188D01*
X496595Y39166D01*
X496610Y39140D01*
X496701Y39047D01*
X496788Y38951D01*
X496813Y38935D01*
X496834Y38913D01*
X496945Y38847D01*
X497053Y38775D01*
X497081Y38765D01*
X497106Y38750D01*
X497230Y38713D01*
X497353Y38670D01*
X497382Y38667D01*
X497411Y38659D01*
X497571Y38642D01*
X499237Y38580D01*
X501528Y36112D01*
X501403Y32747D01*
X496341Y28050D01*
X496243Y27933D01*
X496144Y27818D01*
X496141Y27811D01*
X496137Y27806D01*
X496071Y27668D01*
X496004Y27532D01*
X496003Y27525D01*
X496000Y27519D01*
X495971Y27371D01*
X495939Y27221D01*
X495939Y27214D01*
X495938Y27207D01*
X495947Y27055D01*
X495954Y26903D01*
X495956Y26896D01*
X495956Y26889D01*
X496002Y26743D01*
X496047Y26599D01*
X496050Y26593D01*
X496052Y26586D01*
X496133Y26457D01*
X496212Y26328D01*
X496217Y26323D01*
X496221Y26317D01*
X496332Y26211D01*
X496440Y26106D01*
X496448Y26101D01*
X496452Y26097D01*
X496461Y26092D01*
X496575Y26017D01*
X521631Y11699D01*
X521680Y11679D01*
X521724Y11651D01*
X521826Y11618D01*
X521925Y11577D01*
X521977Y11570D01*
X522027Y11554D01*
X522134Y11547D01*
X522240Y11532D01*
X522292Y11538D01*
G37*
G36*
X125565Y11544D02*
X125565Y11544D01*
X125617Y11544D01*
X125720Y11573D01*
X125826Y11592D01*
X125873Y11614D01*
X125924Y11628D01*
X126069Y11699D01*
X235068Y73984D01*
X235079Y73993D01*
X235111Y74010D01*
X283458Y104227D01*
X283469Y104236D01*
X283483Y104243D01*
X283592Y104337D01*
X283704Y104428D01*
X283713Y104440D01*
X283724Y104449D01*
X283808Y104568D01*
X283893Y104684D01*
X283899Y104698D01*
X283907Y104710D01*
X283958Y104846D01*
X284012Y104979D01*
X284014Y104993D01*
X284019Y105007D01*
X284035Y105151D01*
X284054Y105294D01*
X284053Y105309D01*
X284054Y105323D01*
X284034Y105466D01*
X284017Y105610D01*
X284011Y105624D01*
X284009Y105638D01*
X283957Y105791D01*
X279879Y115599D01*
X279381Y119975D01*
X279365Y120040D01*
X279358Y120108D01*
X279327Y120194D01*
X279305Y120284D01*
X279274Y120343D01*
X279251Y120407D01*
X279199Y120483D01*
X279156Y120564D01*
X279110Y120614D01*
X279072Y120670D01*
X279003Y120731D01*
X278941Y120799D01*
X278884Y120836D01*
X278833Y120880D01*
X278752Y120922D01*
X278675Y120972D01*
X278610Y120994D01*
X278550Y121025D01*
X278461Y121045D01*
X278373Y121075D01*
X278306Y121080D01*
X278240Y121095D01*
X278148Y121092D01*
X278056Y121099D01*
X277990Y121087D01*
X277922Y121085D01*
X277834Y121059D01*
X277743Y121043D01*
X277681Y121015D01*
X277616Y120996D01*
X277537Y120950D01*
X277454Y120912D01*
X277401Y120869D01*
X277343Y120835D01*
X277222Y120728D01*
X277180Y120686D01*
X263516Y107022D01*
X261462Y106171D01*
X235491Y106171D01*
X235482Y106170D01*
X235473Y106171D01*
X235324Y106150D01*
X235175Y106131D01*
X235167Y106128D01*
X235158Y106127D01*
X235005Y106075D01*
X232479Y105028D01*
X229801Y105028D01*
X227327Y106053D01*
X225433Y107947D01*
X224408Y110421D01*
X224408Y113099D01*
X225433Y115573D01*
X227327Y117467D01*
X229801Y118492D01*
X232479Y118492D01*
X235005Y117445D01*
X235014Y117443D01*
X235022Y117438D01*
X235168Y117401D01*
X235312Y117361D01*
X235321Y117361D01*
X235330Y117359D01*
X235491Y117349D01*
X257509Y117349D01*
X257608Y117361D01*
X257707Y117364D01*
X257765Y117381D01*
X257825Y117389D01*
X257917Y117425D01*
X258012Y117453D01*
X258064Y117483D01*
X258121Y117506D01*
X258201Y117564D01*
X258286Y117614D01*
X258361Y117680D01*
X258378Y117692D01*
X258386Y117702D01*
X258407Y117720D01*
X268233Y127546D01*
X268293Y127624D01*
X268361Y127697D01*
X268390Y127750D01*
X268427Y127797D01*
X268467Y127888D01*
X268515Y127975D01*
X268530Y128034D01*
X268554Y128089D01*
X268569Y128187D01*
X268594Y128283D01*
X268600Y128383D01*
X268604Y128403D01*
X268602Y128416D01*
X268604Y128444D01*
X268604Y170909D01*
X268603Y170918D01*
X268604Y170927D01*
X268583Y171076D01*
X268564Y171225D01*
X268561Y171233D01*
X268560Y171242D01*
X268508Y171395D01*
X267461Y173921D01*
X267461Y176599D01*
X268508Y179125D01*
X268510Y179134D01*
X268515Y179142D01*
X268552Y179287D01*
X268592Y179432D01*
X268592Y179441D01*
X268594Y179450D01*
X268604Y179611D01*
X268604Y287749D01*
X268603Y287758D01*
X268604Y287767D01*
X268583Y287916D01*
X268564Y288065D01*
X268561Y288073D01*
X268560Y288082D01*
X268508Y288235D01*
X267461Y290761D01*
X267461Y293439D01*
X268508Y295965D01*
X268510Y295974D01*
X268515Y295982D01*
X268552Y296128D01*
X268592Y296272D01*
X268592Y296281D01*
X268594Y296290D01*
X268604Y296451D01*
X268604Y308102D01*
X268589Y308220D01*
X268582Y308339D01*
X268569Y308377D01*
X268564Y308418D01*
X268521Y308528D01*
X268484Y308641D01*
X268462Y308676D01*
X268447Y308713D01*
X268378Y308809D01*
X268314Y308910D01*
X268284Y308938D01*
X268261Y308971D01*
X268169Y309047D01*
X268082Y309128D01*
X268047Y309148D01*
X268016Y309173D01*
X267908Y309224D01*
X267804Y309282D01*
X267764Y309292D01*
X267728Y309309D01*
X267611Y309331D01*
X267496Y309361D01*
X267436Y309365D01*
X267416Y309369D01*
X267395Y309367D01*
X267335Y309371D01*
X250731Y309371D01*
X250722Y309370D01*
X250712Y309371D01*
X250564Y309350D01*
X250415Y309331D01*
X250407Y309328D01*
X250398Y309327D01*
X250245Y309275D01*
X247719Y308228D01*
X245041Y308228D01*
X242567Y309253D01*
X240673Y311147D01*
X239648Y313621D01*
X239648Y316299D01*
X240673Y318773D01*
X242567Y320667D01*
X245041Y321692D01*
X247719Y321692D01*
X250245Y320645D01*
X250254Y320643D01*
X250262Y320638D01*
X250408Y320601D01*
X250552Y320561D01*
X250561Y320561D01*
X250570Y320559D01*
X250731Y320549D01*
X280369Y320549D01*
X280468Y320561D01*
X280567Y320564D01*
X280625Y320581D01*
X280685Y320589D01*
X280777Y320625D01*
X280872Y320653D01*
X280924Y320683D01*
X280981Y320706D01*
X281061Y320764D01*
X281146Y320814D01*
X281221Y320880D01*
X281238Y320892D01*
X281246Y320902D01*
X281267Y320920D01*
X286013Y325666D01*
X286073Y325744D01*
X286141Y325817D01*
X286170Y325870D01*
X286207Y325917D01*
X286247Y326008D01*
X286295Y326095D01*
X286310Y326154D01*
X286334Y326209D01*
X286349Y326307D01*
X286374Y326403D01*
X286380Y326503D01*
X286384Y326523D01*
X286382Y326536D01*
X286384Y326564D01*
X286384Y340640D01*
X286372Y340738D01*
X286369Y340837D01*
X286352Y340895D01*
X286344Y340955D01*
X286308Y341047D01*
X286280Y341142D01*
X286250Y341194D01*
X286227Y341251D01*
X286169Y341331D01*
X286119Y341416D01*
X286053Y341492D01*
X286041Y341508D01*
X286031Y341516D01*
X286013Y341537D01*
X285622Y341927D01*
X285622Y356573D01*
X286013Y356963D01*
X286073Y357041D01*
X286141Y357113D01*
X286170Y357166D01*
X286207Y357214D01*
X286247Y357305D01*
X286295Y357392D01*
X286310Y357450D01*
X286334Y357506D01*
X286349Y357604D01*
X286374Y357700D01*
X286380Y357800D01*
X286384Y357820D01*
X286382Y357832D01*
X286384Y357860D01*
X286384Y366989D01*
X286377Y367045D01*
X286379Y367101D01*
X286357Y367202D01*
X286344Y367305D01*
X286324Y367357D01*
X286312Y367412D01*
X286265Y367504D01*
X286227Y367601D01*
X286194Y367646D01*
X286169Y367696D01*
X286101Y367774D01*
X286041Y367858D01*
X285997Y367894D01*
X285960Y367936D01*
X285875Y367995D01*
X285796Y368061D01*
X285745Y368085D01*
X285698Y368117D01*
X285601Y368152D01*
X285508Y368196D01*
X285453Y368207D01*
X285400Y368226D01*
X285297Y368237D01*
X285196Y368256D01*
X285139Y368253D01*
X285084Y368258D01*
X284981Y368243D01*
X284878Y368236D01*
X284825Y368219D01*
X284769Y368211D01*
X284674Y368170D01*
X284576Y368138D01*
X284528Y368108D01*
X284476Y368086D01*
X284394Y368023D01*
X284307Y367968D01*
X284268Y367927D01*
X284224Y367893D01*
X284160Y367812D01*
X284089Y367736D01*
X284062Y367687D01*
X284027Y367643D01*
X283953Y367500D01*
X279522Y357421D01*
X271611Y347861D01*
X261385Y340831D01*
X249625Y336868D01*
X237230Y336274D01*
X225146Y339096D01*
X214295Y345116D01*
X205505Y353876D01*
X199449Y364707D01*
X196588Y376782D01*
X197091Y388055D01*
X197079Y388203D01*
X197070Y388349D01*
X197066Y388360D01*
X197065Y388372D01*
X197017Y388512D01*
X196972Y388651D01*
X196965Y388662D01*
X196961Y388673D01*
X196880Y388796D01*
X196801Y388920D01*
X196793Y388928D01*
X196786Y388938D01*
X196677Y389037D01*
X196570Y389138D01*
X196559Y389144D01*
X196550Y389152D01*
X196420Y389221D01*
X196291Y389292D01*
X196280Y389295D01*
X196269Y389300D01*
X196126Y389334D01*
X195983Y389371D01*
X195967Y389372D01*
X195960Y389374D01*
X195944Y389374D01*
X195823Y389381D01*
X16157Y389381D01*
X16101Y389374D01*
X16045Y389376D01*
X15944Y389354D01*
X15841Y389341D01*
X15789Y389321D01*
X15735Y389309D01*
X15642Y389263D01*
X15545Y389224D01*
X15500Y389192D01*
X15450Y389167D01*
X15372Y389099D01*
X15288Y389038D01*
X15252Y388995D01*
X15210Y388958D01*
X15151Y388873D01*
X15085Y388793D01*
X15061Y388742D01*
X15030Y388696D01*
X14994Y388599D01*
X14950Y388505D01*
X14939Y388450D01*
X14920Y388398D01*
X14909Y388294D01*
X14890Y388193D01*
X14893Y388137D01*
X14888Y388081D01*
X14903Y387979D01*
X14910Y387875D01*
X14927Y387822D01*
X14935Y387767D01*
X14976Y387671D01*
X15008Y387573D01*
X15038Y387525D01*
X15059Y387474D01*
X15122Y387392D01*
X15178Y387304D01*
X15218Y387266D01*
X15252Y387221D01*
X15372Y387114D01*
X176194Y260754D01*
X176281Y260702D01*
X176363Y260642D01*
X176417Y260620D01*
X176467Y260591D01*
X176564Y260562D01*
X176658Y260524D01*
X176716Y260517D01*
X176771Y260500D01*
X176873Y260496D01*
X176974Y260483D01*
X177031Y260490D01*
X177089Y260488D01*
X177188Y260509D01*
X177289Y260522D01*
X177343Y260543D01*
X177400Y260555D01*
X177491Y260601D01*
X177585Y260638D01*
X177632Y260672D01*
X177684Y260698D01*
X177761Y260765D01*
X177843Y260824D01*
X177908Y260892D01*
X177924Y260906D01*
X177932Y260918D01*
X177954Y260941D01*
X178639Y261765D01*
X189410Y269069D01*
X201786Y273096D01*
X214793Y273529D01*
X227409Y270333D01*
X238642Y263761D01*
X247608Y254328D01*
X253603Y242777D01*
X256156Y230015D01*
X255064Y217047D01*
X250416Y204891D01*
X242575Y194503D01*
X232158Y186701D01*
X219985Y182098D01*
X207013Y181055D01*
X194261Y183655D01*
X193979Y183803D01*
X193956Y183811D01*
X193935Y183825D01*
X193807Y183867D01*
X193681Y183914D01*
X193656Y183917D01*
X193633Y183924D01*
X193498Y183933D01*
X193364Y183947D01*
X193340Y183944D01*
X193316Y183946D01*
X193183Y183921D01*
X193050Y183901D01*
X193027Y183892D01*
X193003Y183887D01*
X192881Y183830D01*
X192756Y183778D01*
X192737Y183764D01*
X192715Y183753D01*
X192611Y183668D01*
X192503Y183586D01*
X192488Y183567D01*
X192469Y183552D01*
X192389Y183443D01*
X192305Y183337D01*
X192295Y183315D01*
X192281Y183295D01*
X192211Y183150D01*
X138107Y47889D01*
X138097Y47849D01*
X138079Y47811D01*
X138057Y47696D01*
X138027Y47582D01*
X138027Y47540D01*
X138019Y47498D01*
X138026Y47381D01*
X138026Y47264D01*
X138036Y47223D01*
X138039Y47181D01*
X138075Y47069D01*
X138104Y46955D01*
X138124Y46918D01*
X138137Y46879D01*
X138200Y46779D01*
X138256Y46676D01*
X138284Y46645D01*
X138307Y46610D01*
X138393Y46529D01*
X138473Y46443D01*
X138508Y46421D01*
X138539Y46392D01*
X138642Y46335D01*
X138740Y46272D01*
X138780Y46259D01*
X138817Y46238D01*
X138931Y46209D01*
X139043Y46172D01*
X139084Y46169D01*
X139125Y46159D01*
X139286Y46149D01*
X141301Y46149D01*
X144259Y44923D01*
X146523Y42659D01*
X147749Y39701D01*
X147749Y36499D01*
X146523Y33541D01*
X144259Y31277D01*
X141301Y30051D01*
X138099Y30051D01*
X135141Y31277D01*
X133874Y32543D01*
X133829Y32578D01*
X133790Y32620D01*
X133704Y32675D01*
X133623Y32738D01*
X133570Y32761D01*
X133522Y32792D01*
X133425Y32824D01*
X133331Y32864D01*
X133274Y32873D01*
X133220Y32891D01*
X133118Y32898D01*
X133017Y32914D01*
X132960Y32909D01*
X132903Y32913D01*
X132802Y32894D01*
X132700Y32884D01*
X132646Y32865D01*
X132590Y32855D01*
X132497Y32811D01*
X132401Y32777D01*
X132354Y32745D01*
X132302Y32720D01*
X132223Y32656D01*
X132138Y32598D01*
X132100Y32555D01*
X132056Y32519D01*
X131995Y32437D01*
X131927Y32360D01*
X131901Y32309D01*
X131867Y32262D01*
X131798Y32117D01*
X124260Y13272D01*
X124247Y13222D01*
X124226Y13174D01*
X124207Y13068D01*
X124180Y12965D01*
X124180Y12912D01*
X124171Y12860D01*
X124179Y12753D01*
X124179Y12647D01*
X124192Y12596D01*
X124196Y12543D01*
X124231Y12442D01*
X124257Y12338D01*
X124282Y12292D01*
X124299Y12242D01*
X124358Y12153D01*
X124409Y12059D01*
X124445Y12021D01*
X124474Y11977D01*
X124553Y11905D01*
X124626Y11826D01*
X124670Y11798D01*
X124709Y11763D01*
X124804Y11713D01*
X124894Y11655D01*
X124943Y11638D01*
X124990Y11614D01*
X125094Y11589D01*
X125196Y11555D01*
X125248Y11552D01*
X125299Y11539D01*
X125406Y11541D01*
X125513Y11534D01*
X125565Y11544D01*
G37*
G36*
X304184Y347929D02*
X304184Y347929D01*
X304206Y347933D01*
X304213Y347948D01*
X304222Y347954D01*
X304221Y347964D01*
X304228Y347980D01*
X304228Y350520D01*
X304216Y350539D01*
X304212Y350561D01*
X304197Y350568D01*
X304191Y350577D01*
X304181Y350576D01*
X304165Y350583D01*
X295339Y350583D01*
X295320Y350571D01*
X295297Y350567D01*
X295290Y350552D01*
X295281Y350546D01*
X295283Y350536D01*
X295276Y350520D01*
X295276Y347980D01*
X295288Y347961D01*
X295291Y347939D01*
X295307Y347932D01*
X295313Y347923D01*
X295323Y347924D01*
X295339Y347917D01*
X304165Y347917D01*
X304184Y347929D01*
G37*
D10*
X497403Y34581D02*
X491909Y29481D01*
X493244Y36858D01*
X489469Y40276D02*
X488008Y43779D01*
X482885Y34421D01*
X485485Y32998D02*
X480286Y35844D01*
X478021Y43166D02*
X478120Y43352D01*
X478214Y43539D01*
X478303Y43729D01*
X478388Y43921D01*
X478469Y44115D01*
X478545Y44310D01*
X478616Y44508D01*
X478682Y44707D01*
X478744Y44908D01*
X478801Y45110D01*
X478853Y45313D01*
X478900Y45517D01*
X478942Y45723D01*
X478979Y45930D01*
X479012Y46137D01*
X479039Y46345D01*
X479061Y46554D01*
X479079Y46763D01*
X479091Y46972D01*
X479105Y47061D01*
X479115Y47151D01*
X479121Y47242D01*
X479123Y47333D01*
X479122Y47423D01*
X479116Y47514D01*
X479108Y47604D01*
X479095Y47694D01*
X479079Y47783D01*
X479059Y47871D01*
X479035Y47959D01*
X479008Y48045D01*
X478977Y48131D01*
X478943Y48215D01*
X478905Y48297D01*
X478864Y48378D01*
X478820Y48457D01*
X478772Y48534D01*
X478721Y48609D01*
X478667Y48682D01*
X478610Y48753D01*
X478551Y48821D01*
X478488Y48887D01*
X478423Y48950D01*
X478356Y49010D01*
X478285Y49068D01*
X478213Y49122D01*
X478138Y49174D01*
X478062Y49222D01*
X477983Y49268D01*
X477903Y49309D01*
X477821Y49348D01*
X477737Y49383D01*
X477652Y49415D01*
X477566Y49443D01*
X477479Y49467D01*
X477390Y49488D01*
X477301Y49505D01*
X477212Y49519D01*
X477121Y49529D01*
X477031Y49535D01*
X476940Y49537D01*
X476850Y49536D01*
X476759Y49530D01*
X476669Y49521D01*
X476579Y49509D01*
X476490Y49492D01*
X476401Y49472D01*
X476314Y49449D01*
X476227Y49421D01*
X476142Y49391D01*
X476058Y49356D01*
X475976Y49319D01*
X475895Y49277D01*
X475816Y49233D01*
X475739Y49185D01*
X475664Y49134D01*
X475591Y49081D01*
X475520Y49024D01*
X475452Y48964D01*
X475282Y48841D01*
X475116Y48714D01*
X474952Y48582D01*
X474791Y48447D01*
X474634Y48308D01*
X474480Y48166D01*
X474330Y48019D01*
X474183Y47869D01*
X474040Y47716D01*
X473900Y47559D01*
X473764Y47399D01*
X473632Y47236D01*
X473504Y47070D01*
X473380Y46901D01*
X473260Y46728D01*
X473144Y46553D01*
X473033Y46376D01*
X472926Y46195D01*
X472823Y46012D01*
X478021Y43165D02*
X477918Y42983D01*
X477811Y42802D01*
X477699Y42624D01*
X477583Y42449D01*
X477463Y42277D01*
X477339Y42108D01*
X477211Y41942D01*
X477079Y41778D01*
X476944Y41618D01*
X476804Y41462D01*
X476661Y41308D01*
X476514Y41158D01*
X476363Y41012D01*
X476209Y40869D01*
X476052Y40730D01*
X475892Y40595D01*
X475728Y40464D01*
X475561Y40337D01*
X475391Y40213D01*
X475391Y40214D02*
X475323Y40154D01*
X475252Y40097D01*
X475179Y40044D01*
X475104Y39993D01*
X475027Y39945D01*
X474948Y39901D01*
X474867Y39859D01*
X474785Y39822D01*
X474701Y39787D01*
X474616Y39757D01*
X474529Y39729D01*
X474441Y39706D01*
X474353Y39686D01*
X474264Y39669D01*
X474174Y39657D01*
X474084Y39648D01*
X473993Y39642D01*
X473903Y39641D01*
X473812Y39643D01*
X473722Y39649D01*
X473631Y39659D01*
X473542Y39673D01*
X473453Y39690D01*
X473364Y39711D01*
X473277Y39735D01*
X473191Y39763D01*
X473106Y39795D01*
X473022Y39830D01*
X472940Y39869D01*
X472860Y39910D01*
X471752Y42206D02*
X471764Y42416D01*
X471782Y42625D01*
X471804Y42834D01*
X471831Y43042D01*
X471864Y43249D01*
X471901Y43456D01*
X471943Y43661D01*
X471990Y43866D01*
X472042Y44069D01*
X472099Y44271D01*
X472161Y44472D01*
X472227Y44671D01*
X472298Y44868D01*
X472374Y45064D01*
X472455Y45258D01*
X472540Y45450D01*
X472629Y45640D01*
X472723Y45827D01*
X472822Y46012D01*
X471752Y42206D02*
X471738Y42117D01*
X471728Y42027D01*
X471722Y41936D01*
X471720Y41845D01*
X471721Y41755D01*
X471727Y41664D01*
X471735Y41574D01*
X471748Y41484D01*
X471764Y41395D01*
X471784Y41307D01*
X471808Y41219D01*
X471835Y41133D01*
X471866Y41047D01*
X471900Y40963D01*
X471938Y40881D01*
X471979Y40800D01*
X472023Y40721D01*
X472071Y40644D01*
X472122Y40569D01*
X472176Y40496D01*
X472233Y40425D01*
X472292Y40357D01*
X472355Y40291D01*
X472420Y40228D01*
X472487Y40168D01*
X472558Y40110D01*
X472630Y40055D01*
X472705Y40004D01*
X472781Y39956D01*
X472860Y39910D01*
X476078Y40851D02*
X474765Y48327D01*
D11*
X305194Y355105D02*
X299580Y355105D01*
X305194Y355105D02*
X305194Y343395D01*
X299580Y343395D01*
X299580Y355105D01*
X299580Y344336D02*
X305194Y344336D01*
X305194Y345277D02*
X299580Y345277D01*
X299580Y346218D02*
X305194Y346218D01*
X305194Y347159D02*
X299580Y347159D01*
X299580Y348100D02*
X305194Y348100D01*
X305194Y349041D02*
X299580Y349041D01*
X299580Y349982D02*
X305194Y349982D01*
X305194Y350923D02*
X299580Y350923D01*
X299580Y351864D02*
X305194Y351864D01*
X305194Y352805D02*
X299580Y352805D01*
X299580Y353746D02*
X305194Y353746D01*
X305194Y354687D02*
X299580Y354687D01*
X294780Y355105D02*
X289166Y355105D01*
X294780Y355105D02*
X294780Y343395D01*
X289166Y343395D01*
X289166Y355105D01*
X289166Y344336D02*
X294780Y344336D01*
X294780Y345277D02*
X289166Y345277D01*
X289166Y346218D02*
X294780Y346218D01*
X294780Y347159D02*
X289166Y347159D01*
X289166Y348100D02*
X294780Y348100D01*
X294780Y349041D02*
X289166Y349041D01*
X289166Y349982D02*
X294780Y349982D01*
X294780Y350923D02*
X289166Y350923D01*
X289166Y351864D02*
X294780Y351864D01*
X294780Y352805D02*
X289166Y352805D01*
X289166Y353746D02*
X294780Y353746D01*
X294780Y354687D02*
X289166Y354687D01*
D12*
X139700Y38100D03*
X330200Y571500D03*
D13*
X306070Y407670D03*
D14*
X326390Y387350D01*
X326390Y283210D01*
D13*
X326390Y283210D03*
X298450Y240030D03*
D14*
X339090Y280670D01*
X339090Y303530D01*
D13*
X339090Y303530D03*
X293370Y185420D03*
D14*
X298450Y190500D01*
X298450Y240030D01*
D13*
X152400Y355600D03*
X271780Y342900D03*
X342900Y482600D03*
X486410Y318770D03*
X419100Y101600D03*
X203200Y127000D03*
D15*
X546100Y355600D03*
X368300Y254000D03*
D13*
X246380Y314960D03*
D16*
X274193Y125603D02*
X260350Y111760D01*
X231140Y111760D01*
D13*
X231140Y111760D03*
D16*
X274193Y175260D02*
X274193Y292100D01*
X274193Y175260D02*
X274193Y125603D01*
D13*
X323850Y441960D03*
D16*
X291973Y410083D01*
D13*
X274193Y175260D03*
X274193Y292100D03*
D16*
X274193Y314960D02*
X246380Y314960D01*
X274193Y314960D02*
X274193Y292100D01*
X274193Y314960D02*
X283210Y314960D01*
X291973Y323723D02*
X291973Y349250D01*
X291973Y323723D02*
X283210Y314960D01*
X291973Y349250D02*
X291973Y410083D01*
D13*
X314579Y335280D03*
D14*
X314579Y337058D02*
X302387Y349250D01*
X314579Y337058D02*
X314579Y335280D01*
M02*
