G04 EAGLE Gerber RS-274X export*
G75*
%MOMM*%
%FSLAX34Y34*%
%LPD*%
%INTop Copper*%
%IPPOS*%
%AMOC8*
5,1,8,0,0,1.08239X$1,22.5*%
G01*
%ADD10C,0.096000*%
%ADD11C,0.102000*%
%ADD12C,0.300000*%
%ADD13C,0.100000*%
%ADD14C,1.000000*%
%ADD15C,0.254000*%
%ADD16C,0.736600*%
%ADD17C,0.705600*%
%ADD18C,0.508000*%

G36*
X125565Y11544D02*
X125565Y11544D01*
X125617Y11544D01*
X125720Y11573D01*
X125826Y11592D01*
X125873Y11614D01*
X125924Y11628D01*
X126069Y11699D01*
X235068Y73984D01*
X235079Y73993D01*
X235110Y74010D01*
X283458Y104227D01*
X283469Y104236D01*
X283483Y104243D01*
X283592Y104337D01*
X283704Y104428D01*
X283713Y104440D01*
X283724Y104449D01*
X283808Y104568D01*
X283893Y104684D01*
X283899Y104698D01*
X283907Y104710D01*
X283958Y104846D01*
X284012Y104979D01*
X284014Y104993D01*
X284019Y105007D01*
X284035Y105151D01*
X284054Y105294D01*
X284053Y105309D01*
X284054Y105323D01*
X284034Y105466D01*
X284017Y105610D01*
X284011Y105624D01*
X284009Y105638D01*
X283957Y105791D01*
X279879Y115599D01*
X278441Y128226D01*
X280558Y140757D01*
X286063Y152211D01*
X294526Y161692D01*
X303487Y167328D01*
X303581Y167405D01*
X303680Y167476D01*
X303704Y167505D01*
X303733Y167529D01*
X303805Y167628D01*
X303882Y167721D01*
X303899Y167756D01*
X303921Y167786D01*
X303966Y167899D01*
X304018Y168009D01*
X304025Y168046D01*
X304039Y168081D01*
X304055Y168202D01*
X304078Y168322D01*
X304075Y168359D01*
X304080Y168396D01*
X304066Y168517D01*
X304058Y168639D01*
X304046Y168675D01*
X304042Y168712D01*
X303998Y168825D01*
X303960Y168941D01*
X303940Y168973D01*
X303926Y169008D01*
X303855Y169107D01*
X303790Y169210D01*
X303762Y169236D01*
X303741Y169266D01*
X303647Y169345D01*
X303558Y169428D01*
X303525Y169446D01*
X303497Y169470D01*
X303386Y169523D01*
X303280Y169582D01*
X303243Y169591D01*
X303209Y169607D01*
X303090Y169631D01*
X302972Y169661D01*
X302917Y169665D01*
X302897Y169668D01*
X302876Y169667D01*
X302811Y169671D01*
X278544Y169671D01*
X278535Y169670D01*
X278526Y169671D01*
X278377Y169650D01*
X278228Y169631D01*
X278220Y169628D01*
X278211Y169627D01*
X278058Y169575D01*
X275532Y168528D01*
X272854Y168528D01*
X271504Y169088D01*
X271456Y169101D01*
X271411Y169122D01*
X271303Y169142D01*
X271197Y169172D01*
X271147Y169172D01*
X271098Y169182D01*
X270989Y169175D01*
X270879Y169177D01*
X270831Y169165D01*
X270781Y169162D01*
X270677Y169128D01*
X270570Y169102D01*
X270526Y169079D01*
X270479Y169064D01*
X270386Y169005D01*
X270289Y168954D01*
X270252Y168920D01*
X270210Y168894D01*
X270135Y168814D01*
X270053Y168740D01*
X270026Y168698D01*
X269992Y168662D01*
X269939Y168566D01*
X269879Y168474D01*
X269862Y168427D01*
X269838Y168384D01*
X269811Y168277D01*
X269775Y168173D01*
X269771Y168124D01*
X269759Y168076D01*
X269749Y167915D01*
X269749Y111241D01*
X249439Y90931D01*
X217675Y90931D01*
X217639Y90927D01*
X217603Y90929D01*
X217482Y90907D01*
X217360Y90891D01*
X217326Y90878D01*
X217290Y90871D01*
X217179Y90820D01*
X217064Y90774D01*
X217035Y90753D01*
X217002Y90738D01*
X216907Y90660D01*
X216807Y90588D01*
X216794Y90572D01*
X213936Y89353D01*
X210238Y90840D01*
X210236Y90840D01*
X210233Y90842D01*
X210084Y90880D01*
X209930Y90920D01*
X209928Y90920D01*
X209925Y90921D01*
X209827Y90927D01*
X209769Y90970D01*
X209656Y91058D01*
X209641Y91064D01*
X209628Y91074D01*
X209483Y91143D01*
X199622Y95107D01*
X198465Y97819D01*
X201422Y105175D01*
X201602Y105252D01*
X201705Y105312D01*
X201811Y105366D01*
X201842Y105392D01*
X201877Y105412D01*
X201962Y105496D01*
X202051Y105574D01*
X202074Y105608D01*
X202103Y105636D01*
X202164Y105738D01*
X202232Y105836D01*
X202245Y105874D01*
X202266Y105909D01*
X202300Y106023D01*
X202341Y106135D01*
X202345Y106175D01*
X202357Y106214D01*
X202361Y106333D01*
X202373Y106451D01*
X202367Y106491D01*
X202368Y106532D01*
X202343Y106648D01*
X202325Y106766D01*
X202305Y106823D01*
X202301Y106842D01*
X202292Y106861D01*
X202272Y106918D01*
X202195Y107098D01*
X205152Y114454D01*
X205332Y114530D01*
X205435Y114590D01*
X205541Y114644D01*
X205572Y114671D01*
X205607Y114691D01*
X205691Y114774D01*
X205781Y114853D01*
X205804Y114886D01*
X205833Y114915D01*
X205894Y115017D01*
X205961Y115115D01*
X205975Y115153D01*
X205996Y115187D01*
X206030Y115301D01*
X206071Y115413D01*
X206075Y115454D01*
X206087Y115492D01*
X206091Y115611D01*
X206103Y115730D01*
X206097Y115770D01*
X206098Y115810D01*
X206073Y115926D01*
X206055Y116044D01*
X206035Y116101D01*
X206031Y116121D01*
X206022Y116139D01*
X206002Y116196D01*
X205925Y116376D01*
X208882Y123732D01*
X209704Y124083D01*
X209801Y124139D01*
X209902Y124189D01*
X209938Y124219D01*
X209979Y124243D01*
X210058Y124322D01*
X210144Y124395D01*
X210171Y124434D01*
X210205Y124467D01*
X210263Y124563D01*
X210327Y124655D01*
X210344Y124699D01*
X210368Y124740D01*
X210400Y124847D01*
X210440Y124952D01*
X210445Y124999D01*
X210459Y125044D01*
X210463Y125157D01*
X210475Y125269D01*
X210470Y125341D01*
X210470Y125362D01*
X210467Y125380D01*
X210463Y125429D01*
X210430Y125662D01*
X210526Y126460D01*
X211045Y127752D01*
X219452Y124372D01*
X219567Y124342D01*
X219680Y124305D01*
X219688Y124304D01*
X219734Y124270D01*
X219788Y124244D01*
X219805Y124233D01*
X219825Y124227D01*
X219879Y124201D01*
X228286Y120821D01*
X227986Y120075D01*
X227952Y119947D01*
X227913Y119820D01*
X227912Y119793D01*
X227905Y119767D01*
X227904Y119635D01*
X227898Y119503D01*
X227904Y119476D01*
X227903Y119449D01*
X227936Y119321D01*
X227962Y119191D01*
X227974Y119167D01*
X227981Y119141D01*
X228044Y119025D01*
X228102Y118905D01*
X228120Y118885D01*
X228133Y118861D01*
X228222Y118765D01*
X228309Y118663D01*
X228331Y118648D01*
X228349Y118628D01*
X228460Y118557D01*
X228569Y118480D01*
X228594Y118471D01*
X228616Y118456D01*
X228742Y118415D01*
X228866Y118368D01*
X228893Y118365D01*
X228918Y118356D01*
X229050Y118347D01*
X229182Y118332D01*
X229209Y118336D01*
X229236Y118334D01*
X229366Y118358D01*
X229497Y118377D01*
X229533Y118389D01*
X229548Y118392D01*
X229568Y118401D01*
X229649Y118429D01*
X229801Y118492D01*
X232479Y118492D01*
X234953Y117467D01*
X236847Y115573D01*
X237872Y113099D01*
X237872Y110421D01*
X237260Y108944D01*
X237247Y108896D01*
X237226Y108851D01*
X237205Y108743D01*
X237176Y108637D01*
X237175Y108587D01*
X237166Y108538D01*
X237173Y108429D01*
X237171Y108319D01*
X237182Y108271D01*
X237186Y108221D01*
X237219Y108117D01*
X237245Y108010D01*
X237268Y107966D01*
X237284Y107919D01*
X237342Y107826D01*
X237394Y107729D01*
X237427Y107692D01*
X237454Y107650D01*
X237534Y107575D01*
X237608Y107493D01*
X237649Y107466D01*
X237685Y107432D01*
X237782Y107379D01*
X237873Y107319D01*
X237920Y107302D01*
X237964Y107278D01*
X238070Y107251D01*
X238174Y107215D01*
X238224Y107211D01*
X238272Y107199D01*
X238432Y107189D01*
X238985Y107189D01*
X239084Y107201D01*
X239183Y107204D01*
X239241Y107221D01*
X239301Y107229D01*
X239393Y107265D01*
X239488Y107293D01*
X239540Y107323D01*
X239597Y107346D01*
X239677Y107404D01*
X239762Y107454D01*
X239837Y107520D01*
X239854Y107532D01*
X239862Y107542D01*
X239883Y107560D01*
X251850Y119527D01*
X251910Y119605D01*
X251978Y119678D01*
X252007Y119731D01*
X252044Y119778D01*
X252084Y119869D01*
X252132Y119956D01*
X252147Y120015D01*
X252171Y120070D01*
X252186Y120168D01*
X252211Y120264D01*
X252217Y120364D01*
X252221Y120384D01*
X252219Y120397D01*
X252221Y120425D01*
X252221Y199909D01*
X291347Y239034D01*
X291407Y239112D01*
X291475Y239185D01*
X291504Y239238D01*
X291541Y239285D01*
X291581Y239376D01*
X291629Y239463D01*
X291644Y239522D01*
X291668Y239577D01*
X291683Y239675D01*
X291708Y239771D01*
X291714Y239871D01*
X291718Y239891D01*
X291716Y239904D01*
X291718Y239932D01*
X291718Y241369D01*
X292743Y243843D01*
X294637Y245737D01*
X297111Y246762D01*
X299789Y246762D01*
X302263Y245737D01*
X304157Y243843D01*
X305182Y241369D01*
X305182Y238691D01*
X304157Y236217D01*
X302263Y234323D01*
X299789Y233298D01*
X298352Y233298D01*
X298253Y233286D01*
X298154Y233283D01*
X298096Y233266D01*
X298036Y233258D01*
X297944Y233222D01*
X297849Y233194D01*
X297797Y233164D01*
X297740Y233141D01*
X297660Y233083D01*
X297575Y233033D01*
X297500Y232967D01*
X297483Y232955D01*
X297475Y232945D01*
X297454Y232927D01*
X261230Y196703D01*
X261170Y196625D01*
X261102Y196552D01*
X261073Y196499D01*
X261036Y196452D01*
X260996Y196361D01*
X260948Y196274D01*
X260933Y196215D01*
X260909Y196160D01*
X260894Y196062D01*
X260869Y195966D01*
X260863Y195866D01*
X260859Y195846D01*
X260861Y195833D01*
X260859Y195805D01*
X260859Y191291D01*
X260876Y191153D01*
X260889Y191014D01*
X260896Y190995D01*
X260899Y190975D01*
X260950Y190846D01*
X260997Y190715D01*
X261008Y190698D01*
X261016Y190679D01*
X261097Y190567D01*
X261175Y190452D01*
X261191Y190438D01*
X261202Y190422D01*
X261310Y190333D01*
X261414Y190241D01*
X261432Y190232D01*
X261447Y190219D01*
X261573Y190160D01*
X261697Y190097D01*
X261717Y190092D01*
X261735Y190084D01*
X261871Y190058D01*
X262007Y190027D01*
X262028Y190028D01*
X262047Y190024D01*
X262186Y190033D01*
X262325Y190037D01*
X262345Y190042D01*
X262365Y190044D01*
X262497Y190086D01*
X262631Y190125D01*
X262648Y190135D01*
X262667Y190142D01*
X262785Y190216D01*
X262905Y190287D01*
X262926Y190305D01*
X262936Y190312D01*
X262950Y190327D01*
X263025Y190393D01*
X301380Y228747D01*
X304281Y231649D01*
X320802Y231649D01*
X320920Y231664D01*
X321039Y231671D01*
X321077Y231684D01*
X321118Y231689D01*
X321228Y231732D01*
X321341Y231769D01*
X321376Y231791D01*
X321413Y231806D01*
X321509Y231875D01*
X321610Y231939D01*
X321638Y231969D01*
X321671Y231992D01*
X321747Y232084D01*
X321828Y232171D01*
X321848Y232206D01*
X321873Y232237D01*
X321924Y232345D01*
X321982Y232449D01*
X321992Y232489D01*
X322009Y232525D01*
X322031Y232642D01*
X322061Y232757D01*
X322065Y232817D01*
X322069Y232837D01*
X322067Y232858D01*
X322071Y232918D01*
X322071Y277483D01*
X322059Y277581D01*
X322056Y277680D01*
X322039Y277738D01*
X322031Y277798D01*
X321995Y277890D01*
X321967Y277986D01*
X321937Y278038D01*
X321914Y278094D01*
X321856Y278174D01*
X321806Y278260D01*
X321740Y278335D01*
X321728Y278351D01*
X321718Y278359D01*
X321700Y278380D01*
X321560Y278520D01*
X321482Y278580D01*
X321410Y278648D01*
X321357Y278677D01*
X321309Y278714D01*
X321218Y278754D01*
X321131Y278802D01*
X321073Y278817D01*
X321017Y278841D01*
X320919Y278856D01*
X320824Y278881D01*
X320724Y278887D01*
X320703Y278891D01*
X320691Y278889D01*
X320663Y278891D01*
X158231Y278891D01*
X117841Y319281D01*
X117841Y332930D01*
X117829Y333028D01*
X117826Y333127D01*
X117809Y333186D01*
X117801Y333246D01*
X117765Y333338D01*
X117737Y333433D01*
X117707Y333485D01*
X117684Y333541D01*
X117626Y333622D01*
X117576Y333707D01*
X117510Y333782D01*
X117498Y333799D01*
X117488Y333807D01*
X117470Y333828D01*
X116111Y335186D01*
X116111Y350614D01*
X118196Y352699D01*
X126124Y352699D01*
X126263Y352560D01*
X126357Y352487D01*
X126446Y352409D01*
X126482Y352390D01*
X126514Y352365D01*
X126623Y352318D01*
X126729Y352264D01*
X126769Y352255D01*
X126806Y352239D01*
X126923Y352220D01*
X127039Y352194D01*
X127080Y352196D01*
X127120Y352189D01*
X127239Y352200D01*
X127357Y352204D01*
X127396Y352215D01*
X127436Y352219D01*
X127549Y352259D01*
X127663Y352292D01*
X127698Y352313D01*
X127736Y352327D01*
X127834Y352393D01*
X127937Y352454D01*
X127982Y352494D01*
X127999Y352505D01*
X128012Y352520D01*
X128058Y352560D01*
X128196Y352699D01*
X136124Y352699D01*
X136263Y352560D01*
X136357Y352487D01*
X136446Y352409D01*
X136482Y352390D01*
X136514Y352365D01*
X136623Y352318D01*
X136729Y352264D01*
X136769Y352255D01*
X136806Y352239D01*
X136923Y352220D01*
X137039Y352194D01*
X137080Y352196D01*
X137120Y352189D01*
X137239Y352200D01*
X137357Y352204D01*
X137396Y352215D01*
X137436Y352219D01*
X137549Y352259D01*
X137663Y352292D01*
X137698Y352313D01*
X137736Y352327D01*
X137834Y352393D01*
X137937Y352454D01*
X137982Y352494D01*
X137999Y352505D01*
X138012Y352520D01*
X138058Y352560D01*
X138196Y352699D01*
X146124Y352699D01*
X146756Y352067D01*
X146845Y351998D01*
X146928Y351923D01*
X146970Y351901D01*
X147007Y351872D01*
X147110Y351827D01*
X147210Y351775D01*
X147256Y351764D01*
X147299Y351745D01*
X147410Y351728D01*
X147520Y351702D01*
X147567Y351703D01*
X147613Y351696D01*
X147725Y351706D01*
X147838Y351708D01*
X147883Y351721D01*
X147930Y351725D01*
X148036Y351763D01*
X148144Y351793D01*
X148209Y351826D01*
X148229Y351833D01*
X148244Y351843D01*
X148288Y351865D01*
X148492Y351983D01*
X149268Y352191D01*
X150661Y352191D01*
X150661Y343130D01*
X150676Y343012D01*
X150683Y342893D01*
X150685Y342886D01*
X150671Y342830D01*
X150667Y342770D01*
X150663Y342750D01*
X150665Y342730D01*
X150661Y342670D01*
X150661Y333609D01*
X149202Y333609D01*
X149098Y333629D01*
X149065Y333627D01*
X149031Y333632D01*
X148906Y333617D01*
X148781Y333609D01*
X148749Y333599D01*
X148716Y333595D01*
X148598Y333550D01*
X148479Y333511D01*
X148450Y333493D01*
X148419Y333481D01*
X148316Y333408D01*
X148210Y333341D01*
X148187Y333317D01*
X148159Y333297D01*
X148078Y333201D01*
X147992Y333109D01*
X147976Y333080D01*
X147954Y333054D01*
X147899Y332941D01*
X147838Y332831D01*
X147830Y332798D01*
X147815Y332768D01*
X147790Y332645D01*
X147759Y332523D01*
X147756Y332474D01*
X147752Y332456D01*
X147753Y332435D01*
X147749Y332362D01*
X147749Y329311D01*
X147761Y329212D01*
X147764Y329113D01*
X147781Y329055D01*
X147789Y328995D01*
X147825Y328903D01*
X147853Y328808D01*
X147883Y328756D01*
X147906Y328699D01*
X147964Y328619D01*
X148014Y328534D01*
X148080Y328459D01*
X148092Y328442D01*
X148102Y328434D01*
X148120Y328413D01*
X155613Y320920D01*
X155691Y320860D01*
X155764Y320792D01*
X155817Y320763D01*
X155864Y320726D01*
X155955Y320686D01*
X156042Y320638D01*
X156101Y320623D01*
X156156Y320599D01*
X156254Y320584D01*
X156350Y320559D01*
X156450Y320553D01*
X156470Y320549D01*
X156483Y320551D01*
X156511Y320549D01*
X242029Y320549D01*
X242038Y320550D01*
X242047Y320549D01*
X242196Y320570D01*
X242345Y320589D01*
X242353Y320592D01*
X242362Y320593D01*
X242515Y320645D01*
X245041Y321692D01*
X247719Y321692D01*
X250193Y320667D01*
X252087Y318773D01*
X253112Y316299D01*
X253112Y313621D01*
X252087Y311147D01*
X250956Y310015D01*
X250871Y309906D01*
X250782Y309799D01*
X250773Y309780D01*
X250761Y309764D01*
X250705Y309637D01*
X250646Y309511D01*
X250642Y309491D01*
X250634Y309472D01*
X250612Y309334D01*
X250586Y309198D01*
X250588Y309178D01*
X250584Y309158D01*
X250598Y309019D01*
X250606Y308881D01*
X250612Y308862D01*
X250614Y308842D01*
X250661Y308710D01*
X250704Y308579D01*
X250715Y308561D01*
X250722Y308542D01*
X250800Y308427D01*
X250874Y308310D01*
X250889Y308296D01*
X250900Y308279D01*
X251005Y308187D01*
X251106Y308092D01*
X251124Y308082D01*
X251139Y308069D01*
X251263Y308005D01*
X251384Y307938D01*
X251404Y307933D01*
X251422Y307924D01*
X251558Y307894D01*
X251692Y307859D01*
X251720Y307857D01*
X251732Y307854D01*
X251753Y307855D01*
X251853Y307849D01*
X333363Y307849D01*
X333461Y307861D01*
X333560Y307864D01*
X333618Y307881D01*
X333678Y307889D01*
X333770Y307925D01*
X333866Y307953D01*
X333918Y307983D01*
X333974Y308006D01*
X334054Y308064D01*
X334140Y308114D01*
X334215Y308180D01*
X334231Y308192D01*
X334239Y308202D01*
X334260Y308220D01*
X334400Y308360D01*
X334460Y308438D01*
X334528Y308510D01*
X334557Y308563D01*
X334594Y308611D01*
X334634Y308702D01*
X334682Y308789D01*
X334697Y308847D01*
X334721Y308903D01*
X334736Y309001D01*
X334761Y309096D01*
X334767Y309196D01*
X334771Y309217D01*
X334769Y309229D01*
X334771Y309257D01*
X334771Y382495D01*
X334759Y382594D01*
X334756Y382693D01*
X334739Y382751D01*
X334731Y382811D01*
X334695Y382903D01*
X334667Y382998D01*
X334637Y383050D01*
X334614Y383107D01*
X334556Y383187D01*
X334506Y383272D01*
X334440Y383347D01*
X334428Y383364D01*
X334418Y383372D01*
X334400Y383393D01*
X313752Y404040D01*
X313712Y404072D01*
X313677Y404110D01*
X313592Y404165D01*
X313567Y404187D01*
X313555Y404193D01*
X313501Y404235D01*
X313454Y404255D01*
X313410Y404284D01*
X313313Y404317D01*
X313284Y404332D01*
X313271Y404335D01*
X313209Y404361D01*
X313158Y404369D01*
X313109Y404386D01*
X313007Y404394D01*
X312974Y404401D01*
X312960Y404401D01*
X312895Y404411D01*
X312844Y404406D01*
X312792Y404410D01*
X312694Y404393D01*
X312656Y404392D01*
X312640Y404387D01*
X312579Y404381D01*
X312530Y404364D01*
X312479Y404355D01*
X312392Y404315D01*
X312350Y404303D01*
X312333Y404293D01*
X312279Y404274D01*
X312237Y404245D01*
X312189Y404223D01*
X312120Y404167D01*
X312076Y404142D01*
X312048Y404117D01*
X312016Y404095D01*
X311991Y404066D01*
X311955Y404035D01*
X311954Y404034D01*
X311942Y404024D01*
X311934Y404014D01*
X309883Y401963D01*
X307409Y400938D01*
X304731Y400938D01*
X302257Y401963D01*
X300363Y403857D01*
X299338Y406331D01*
X299338Y409009D01*
X300363Y411483D01*
X301380Y412500D01*
X301440Y412578D01*
X301508Y412650D01*
X301537Y412703D01*
X301574Y412751D01*
X301614Y412842D01*
X301662Y412929D01*
X301677Y412987D01*
X301701Y413043D01*
X301716Y413141D01*
X301741Y413236D01*
X301747Y413336D01*
X301751Y413357D01*
X301749Y413369D01*
X301751Y413397D01*
X301751Y450957D01*
X317779Y466985D01*
X317813Y467029D01*
X317853Y467066D01*
X317910Y467154D01*
X317974Y467236D01*
X317996Y467287D01*
X318026Y467333D01*
X318059Y467432D01*
X318100Y467528D01*
X318109Y467583D01*
X318126Y467635D01*
X318134Y467739D01*
X318150Y467842D01*
X318145Y467897D01*
X318149Y467952D01*
X318130Y468055D01*
X318120Y468159D01*
X318102Y468211D01*
X318092Y468265D01*
X318034Y468415D01*
X317160Y470305D01*
X318178Y473072D01*
X332184Y479543D01*
X334951Y478525D01*
X338276Y471328D01*
X338208Y471145D01*
X338182Y471029D01*
X338147Y470914D01*
X338146Y470874D01*
X338137Y470835D01*
X338140Y470715D01*
X338135Y470597D01*
X338144Y470557D01*
X338145Y470517D01*
X338177Y470402D01*
X338202Y470286D01*
X338220Y470250D01*
X338231Y470211D01*
X338291Y470108D01*
X338344Y470001D01*
X338371Y469971D01*
X338391Y469936D01*
X338475Y469851D01*
X338552Y469761D01*
X338586Y469738D01*
X338614Y469709D01*
X338716Y469648D01*
X338814Y469580D01*
X338869Y469556D01*
X338887Y469545D01*
X338906Y469539D01*
X338961Y469515D01*
X339145Y469447D01*
X342470Y462251D01*
X342403Y462067D01*
X342376Y461951D01*
X342342Y461837D01*
X342340Y461796D01*
X342331Y461757D01*
X342334Y461638D01*
X342330Y461519D01*
X342338Y461479D01*
X342339Y461439D01*
X342371Y461324D01*
X342396Y461208D01*
X342415Y461172D01*
X342426Y461133D01*
X342485Y461030D01*
X342539Y460923D01*
X342565Y460893D01*
X342585Y460858D01*
X342669Y460773D01*
X342747Y460683D01*
X342780Y460660D01*
X342809Y460631D01*
X342911Y460570D01*
X343009Y460502D01*
X343064Y460478D01*
X343081Y460467D01*
X343101Y460462D01*
X343156Y460437D01*
X343340Y460370D01*
X346665Y453173D01*
X346356Y452334D01*
X346331Y452224D01*
X346298Y452117D01*
X346295Y452070D01*
X346285Y452024D01*
X346287Y451911D01*
X346282Y451799D01*
X346291Y451753D01*
X346292Y451706D01*
X346323Y451598D01*
X346346Y451488D01*
X346366Y451445D01*
X346379Y451400D01*
X346435Y451303D01*
X346485Y451202D01*
X346515Y451166D01*
X346539Y451125D01*
X346618Y451045D01*
X346691Y450959D01*
X346747Y450914D01*
X346762Y450898D01*
X346778Y450889D01*
X346816Y450858D01*
X347009Y450722D01*
X347523Y450105D01*
X348107Y448841D01*
X339882Y445041D01*
X339781Y444978D01*
X339676Y444921D01*
X339646Y444894D01*
X339612Y444872D01*
X339530Y444786D01*
X339443Y444705D01*
X339421Y444671D01*
X339393Y444642D01*
X339335Y444538D01*
X339270Y444438D01*
X339257Y444400D01*
X339238Y444365D01*
X339207Y444249D01*
X339169Y444137D01*
X339167Y444096D01*
X339156Y444057D01*
X339156Y444009D01*
X339110Y443928D01*
X339045Y443827D01*
X339033Y443789D01*
X339013Y443754D01*
X338982Y443639D01*
X338945Y443526D01*
X338942Y443485D01*
X338931Y443446D01*
X338931Y443327D01*
X338922Y443208D01*
X338929Y443169D01*
X338929Y443128D01*
X338958Y443012D01*
X338979Y442896D01*
X339001Y442839D01*
X339006Y442820D01*
X339016Y442802D01*
X339037Y442745D01*
X341265Y437925D01*
X336597Y435768D01*
X335805Y435631D01*
X335005Y435704D01*
X334251Y435981D01*
X333595Y436444D01*
X333081Y437061D01*
X332201Y438965D01*
X332141Y439061D01*
X332088Y439162D01*
X332057Y439196D01*
X332033Y439234D01*
X331950Y439313D01*
X331874Y439397D01*
X331836Y439422D01*
X331802Y439454D01*
X331703Y439509D01*
X331608Y439572D01*
X331565Y439587D01*
X331525Y439609D01*
X331415Y439638D01*
X331307Y439675D01*
X331262Y439679D01*
X331217Y439690D01*
X331103Y439691D01*
X330990Y439700D01*
X330945Y439692D01*
X330899Y439693D01*
X330789Y439665D01*
X330677Y439646D01*
X330635Y439627D01*
X330591Y439616D01*
X330491Y439562D01*
X330387Y439515D01*
X330351Y439487D01*
X330311Y439465D01*
X330228Y439388D01*
X330139Y439317D01*
X330111Y439280D01*
X330077Y439249D01*
X330016Y439154D01*
X329947Y439063D01*
X329916Y439000D01*
X329905Y438982D01*
X329899Y438964D01*
X329876Y438918D01*
X329557Y438147D01*
X327663Y436253D01*
X325189Y435228D01*
X322511Y435228D01*
X322304Y435314D01*
X322256Y435327D01*
X322211Y435348D01*
X322103Y435369D01*
X321997Y435398D01*
X321947Y435399D01*
X321898Y435408D01*
X321789Y435401D01*
X321679Y435403D01*
X321631Y435392D01*
X321581Y435388D01*
X321477Y435355D01*
X321370Y435329D01*
X321326Y435306D01*
X321279Y435290D01*
X321186Y435232D01*
X321089Y435180D01*
X321052Y435147D01*
X321010Y435120D01*
X320935Y435040D01*
X320853Y434966D01*
X320826Y434925D01*
X320792Y434889D01*
X320739Y434792D01*
X320679Y434701D01*
X320662Y434654D01*
X320638Y434610D01*
X320611Y434504D01*
X320575Y434400D01*
X320571Y434350D01*
X320559Y434302D01*
X320549Y434141D01*
X320549Y409985D01*
X320561Y409886D01*
X320564Y409787D01*
X320581Y409729D01*
X320589Y409669D01*
X320625Y409577D01*
X320653Y409482D01*
X320683Y409430D01*
X320706Y409373D01*
X320764Y409293D01*
X320814Y409208D01*
X320880Y409133D01*
X320892Y409116D01*
X320902Y409108D01*
X320920Y409087D01*
X343409Y386599D01*
X343409Y309257D01*
X343421Y309159D01*
X343424Y309060D01*
X343441Y309002D01*
X343449Y308942D01*
X343485Y308850D01*
X343513Y308754D01*
X343543Y308702D01*
X343566Y308646D01*
X343624Y308566D01*
X343674Y308480D01*
X343740Y308405D01*
X343752Y308389D01*
X343762Y308381D01*
X343780Y308360D01*
X343920Y308220D01*
X343998Y308160D01*
X344070Y308092D01*
X344123Y308063D01*
X344171Y308026D01*
X344262Y307986D01*
X344349Y307938D01*
X344407Y307923D01*
X344463Y307899D01*
X344561Y307884D01*
X344656Y307859D01*
X344756Y307853D01*
X344777Y307849D01*
X344789Y307851D01*
X344817Y307849D01*
X410435Y307849D01*
X410534Y307861D01*
X410633Y307864D01*
X410691Y307881D01*
X410751Y307889D01*
X410843Y307925D01*
X410938Y307953D01*
X410990Y307983D01*
X411047Y308006D01*
X411127Y308064D01*
X411212Y308114D01*
X411287Y308180D01*
X411304Y308192D01*
X411312Y308202D01*
X411333Y308220D01*
X444480Y341367D01*
X444566Y341479D01*
X444656Y341588D01*
X444664Y341604D01*
X444674Y341618D01*
X444731Y341748D01*
X444791Y341877D01*
X444794Y341894D01*
X444801Y341910D01*
X444823Y342051D01*
X444849Y342189D01*
X444848Y342207D01*
X444851Y342224D01*
X444837Y342366D01*
X444828Y342507D01*
X444823Y342523D01*
X444821Y342541D01*
X444773Y342674D01*
X444729Y342809D01*
X444719Y342824D01*
X444713Y342840D01*
X444634Y342958D01*
X444557Y343077D01*
X444545Y343089D01*
X444535Y343103D01*
X444428Y343197D01*
X444325Y343294D01*
X444309Y343302D01*
X444296Y343314D01*
X444170Y343378D01*
X444046Y343446D01*
X444029Y343450D01*
X444013Y343458D01*
X443875Y343489D01*
X443738Y343524D01*
X443720Y343524D01*
X443703Y343528D01*
X443561Y343524D01*
X443420Y343523D01*
X443402Y343519D01*
X443385Y343518D01*
X443249Y343479D01*
X443112Y343444D01*
X443090Y343433D01*
X443079Y343430D01*
X443063Y343420D01*
X442966Y343375D01*
X435254Y339096D01*
X423170Y336274D01*
X410775Y336868D01*
X399015Y340831D01*
X388789Y347861D01*
X380878Y357421D01*
X375884Y368781D01*
X374190Y381074D01*
X375924Y393362D01*
X380956Y404705D01*
X388899Y414239D01*
X399148Y421235D01*
X399273Y421277D01*
X399284Y421282D01*
X399297Y421285D01*
X399428Y421351D01*
X399560Y421414D01*
X399569Y421422D01*
X399580Y421428D01*
X399691Y421525D01*
X399803Y421619D01*
X399810Y421629D01*
X399820Y421637D01*
X399903Y421758D01*
X399988Y421877D01*
X399993Y421889D01*
X400000Y421899D01*
X400050Y422037D01*
X400103Y422174D01*
X400105Y422186D01*
X400109Y422198D01*
X400123Y422344D01*
X400141Y422490D01*
X400139Y422502D01*
X400140Y422515D01*
X400118Y422659D01*
X400099Y422805D01*
X400094Y422817D01*
X400092Y422829D01*
X400038Y422981D01*
X391997Y441744D01*
X391928Y441862D01*
X391863Y441982D01*
X391847Y441999D01*
X391836Y442018D01*
X391740Y442115D01*
X391647Y442216D01*
X391628Y442228D01*
X391612Y442244D01*
X391495Y442314D01*
X391380Y442388D01*
X391358Y442395D01*
X391339Y442407D01*
X391208Y442445D01*
X391078Y442489D01*
X391056Y442490D01*
X391034Y442497D01*
X390897Y442502D01*
X390761Y442511D01*
X390739Y442507D01*
X390716Y442508D01*
X390582Y442479D01*
X390448Y442454D01*
X390418Y442443D01*
X390405Y442440D01*
X390386Y442430D01*
X390298Y442396D01*
X372942Y434377D01*
X370199Y435386D01*
X364342Y448062D01*
X365351Y450805D01*
X383231Y459067D01*
X383316Y459120D01*
X383407Y459166D01*
X383451Y459204D01*
X383500Y459235D01*
X383570Y459308D01*
X383647Y459375D01*
X383679Y459423D01*
X383720Y459465D01*
X383769Y459554D01*
X383826Y459637D01*
X383846Y459692D01*
X383875Y459743D01*
X383901Y459841D01*
X383936Y459936D01*
X383941Y459994D01*
X383956Y460050D01*
X383957Y460152D01*
X383967Y460253D01*
X383958Y460310D01*
X383959Y460368D01*
X383934Y460467D01*
X383919Y460567D01*
X383887Y460656D01*
X383882Y460677D01*
X383875Y460689D01*
X383865Y460719D01*
X369929Y493236D01*
X369860Y493354D01*
X369795Y493474D01*
X369779Y493491D01*
X369768Y493510D01*
X369672Y493607D01*
X369579Y493708D01*
X369560Y493720D01*
X369544Y493736D01*
X369427Y493806D01*
X369312Y493880D01*
X369290Y493887D01*
X369271Y493899D01*
X369139Y493938D01*
X369010Y493981D01*
X368987Y493983D01*
X368966Y493989D01*
X368829Y493994D01*
X368693Y494003D01*
X368670Y493999D01*
X368648Y494000D01*
X368514Y493971D01*
X368380Y493946D01*
X368350Y493935D01*
X368337Y493932D01*
X368318Y493923D01*
X368230Y493888D01*
X349453Y485212D01*
X346709Y486222D01*
X340852Y498897D01*
X341862Y501641D01*
X361162Y510559D01*
X361248Y510612D01*
X361339Y510658D01*
X361383Y510696D01*
X361432Y510727D01*
X361502Y510801D01*
X361578Y510867D01*
X361611Y510915D01*
X361651Y510958D01*
X361701Y511046D01*
X361758Y511130D01*
X361778Y511184D01*
X361807Y511235D01*
X361833Y511333D01*
X361867Y511428D01*
X361873Y511486D01*
X361888Y511543D01*
X361889Y511644D01*
X361899Y511745D01*
X361890Y511802D01*
X361890Y511861D01*
X361866Y511959D01*
X361851Y512059D01*
X361819Y512149D01*
X361814Y512169D01*
X361807Y512181D01*
X361797Y512211D01*
X338684Y566140D01*
X338663Y566176D01*
X338649Y566216D01*
X338583Y566313D01*
X338523Y566414D01*
X338494Y566444D01*
X338470Y566479D01*
X338382Y566557D01*
X338299Y566640D01*
X338263Y566661D01*
X338232Y566689D01*
X338127Y566743D01*
X338026Y566803D01*
X337986Y566815D01*
X337949Y566834D01*
X337834Y566860D01*
X337721Y566893D01*
X337679Y566894D01*
X337638Y566903D01*
X337521Y566900D01*
X337403Y566904D01*
X337362Y566895D01*
X337320Y566894D01*
X337207Y566861D01*
X337093Y566836D01*
X337055Y566817D01*
X337015Y566805D01*
X336914Y566746D01*
X336809Y566693D01*
X336777Y566665D01*
X336741Y566644D01*
X336620Y566537D01*
X334759Y564677D01*
X331801Y563451D01*
X328599Y563451D01*
X325641Y564677D01*
X323377Y566941D01*
X323002Y567846D01*
X322933Y567966D01*
X322869Y568088D01*
X322855Y568104D01*
X322844Y568123D01*
X322748Y568221D01*
X322656Y568324D01*
X322638Y568335D01*
X322623Y568351D01*
X322505Y568423D01*
X322390Y568499D01*
X322370Y568506D01*
X322352Y568517D01*
X322220Y568558D01*
X322090Y568603D01*
X322068Y568604D01*
X322048Y568611D01*
X321910Y568617D01*
X321773Y568629D01*
X321752Y568625D01*
X321730Y568626D01*
X321595Y568598D01*
X321459Y568575D01*
X321440Y568566D01*
X321419Y568562D01*
X321295Y568501D01*
X321169Y568445D01*
X321152Y568431D01*
X321133Y568422D01*
X321028Y568333D01*
X320920Y568247D01*
X320907Y568230D01*
X320891Y568216D01*
X320811Y568103D01*
X320729Y567993D01*
X320715Y567966D01*
X320708Y567956D01*
X320700Y567936D01*
X320657Y567849D01*
X260299Y422988D01*
X260297Y422982D01*
X260294Y422977D01*
X260255Y422829D01*
X260214Y422682D01*
X260214Y422676D01*
X260212Y422670D01*
X260211Y422517D01*
X260208Y422364D01*
X260210Y422358D01*
X260210Y422352D01*
X260247Y422202D01*
X260282Y422054D01*
X260285Y422049D01*
X260286Y422043D01*
X260360Y421906D01*
X260430Y421773D01*
X260434Y421768D01*
X260437Y421763D01*
X260541Y421651D01*
X260643Y421537D01*
X260649Y421534D01*
X260653Y421529D01*
X260782Y421446D01*
X260909Y421362D01*
X260915Y421360D01*
X260920Y421357D01*
X261069Y421296D01*
X261252Y421235D01*
X271501Y414239D01*
X279444Y404705D01*
X284476Y393362D01*
X286210Y381074D01*
X285233Y373981D01*
X285232Y373934D01*
X285223Y373888D01*
X285230Y373776D01*
X285229Y373663D01*
X285240Y373618D01*
X285243Y373571D01*
X285278Y373464D01*
X285305Y373354D01*
X285327Y373313D01*
X285341Y373269D01*
X285402Y373173D01*
X285455Y373074D01*
X285486Y373039D01*
X285511Y373000D01*
X285594Y372923D01*
X285670Y372840D01*
X285709Y372814D01*
X285743Y372782D01*
X285842Y372728D01*
X285936Y372666D01*
X285981Y372651D01*
X286022Y372628D01*
X286130Y372600D01*
X286237Y372564D01*
X286284Y372561D01*
X286329Y372549D01*
X286490Y372539D01*
X293794Y372539D01*
X296819Y369514D01*
X296918Y369437D01*
X297014Y369355D01*
X297044Y369340D01*
X297070Y369319D01*
X297186Y369269D01*
X297298Y369213D01*
X297331Y369206D01*
X297362Y369193D01*
X297487Y369173D01*
X297609Y369147D01*
X297643Y369148D01*
X297676Y369143D01*
X297802Y369155D01*
X297927Y369160D01*
X297959Y369169D01*
X297993Y369173D01*
X298112Y369215D01*
X298232Y369251D01*
X298260Y369269D01*
X298292Y369280D01*
X298396Y369351D01*
X298504Y369416D01*
X298527Y369440D01*
X298555Y369459D01*
X298638Y369553D01*
X298727Y369643D01*
X298754Y369683D01*
X298766Y369697D01*
X298776Y369716D01*
X298816Y369777D01*
X299217Y370471D01*
X299969Y371223D01*
X300890Y371755D01*
X301918Y372031D01*
X303451Y372031D01*
X303451Y365720D01*
X303466Y365602D01*
X303473Y365483D01*
X303485Y365445D01*
X303491Y365405D01*
X303534Y365294D01*
X303571Y365181D01*
X303593Y365147D01*
X303608Y365109D01*
X303677Y365013D01*
X303741Y364912D01*
X303771Y364884D01*
X303794Y364852D01*
X303886Y364776D01*
X303973Y364694D01*
X304008Y364675D01*
X304039Y364649D01*
X304147Y364598D01*
X304251Y364541D01*
X304291Y364531D01*
X304327Y364513D01*
X304444Y364491D01*
X304559Y364461D01*
X304619Y364457D01*
X304639Y364454D01*
X304660Y364455D01*
X304720Y364451D01*
X305911Y364451D01*
X305911Y363260D01*
X305926Y363142D01*
X305933Y363023D01*
X305946Y362985D01*
X305951Y362944D01*
X305995Y362834D01*
X306031Y362721D01*
X306053Y362686D01*
X306068Y362649D01*
X306138Y362552D01*
X306201Y362452D01*
X306231Y362424D01*
X306255Y362391D01*
X306346Y362315D01*
X306433Y362234D01*
X306468Y362214D01*
X306500Y362189D01*
X306607Y362138D01*
X306712Y362080D01*
X306751Y362070D01*
X306787Y362053D01*
X306904Y362031D01*
X307020Y362001D01*
X307080Y361997D01*
X307100Y361993D01*
X307120Y361995D01*
X307180Y361991D01*
X313491Y361991D01*
X313491Y360458D01*
X313215Y359430D01*
X312667Y358480D01*
X312636Y358441D01*
X312557Y358351D01*
X312539Y358315D01*
X312514Y358284D01*
X312467Y358174D01*
X312413Y358068D01*
X312404Y358029D01*
X312388Y357992D01*
X312369Y357874D01*
X312343Y357758D01*
X312344Y357717D01*
X312338Y357678D01*
X312349Y357559D01*
X312353Y357440D01*
X312364Y357401D01*
X312368Y357361D01*
X312408Y357249D01*
X312441Y357134D01*
X312462Y357100D01*
X312475Y357062D01*
X312542Y356963D01*
X312603Y356860D01*
X312642Y356815D01*
X312654Y356799D01*
X312669Y356785D01*
X312709Y356740D01*
X314229Y355220D01*
X314229Y347335D01*
X314241Y347236D01*
X314244Y347137D01*
X314261Y347079D01*
X314269Y347019D01*
X314305Y346927D01*
X314333Y346832D01*
X314363Y346780D01*
X314386Y346723D01*
X314444Y346643D01*
X314494Y346558D01*
X314560Y346483D01*
X314572Y346466D01*
X314582Y346458D01*
X314600Y346437D01*
X318898Y342140D01*
X318898Y341007D01*
X318910Y340909D01*
X318913Y340810D01*
X318930Y340752D01*
X318938Y340692D01*
X318974Y340600D01*
X319002Y340504D01*
X319032Y340452D01*
X319055Y340396D01*
X319113Y340316D01*
X319163Y340230D01*
X319229Y340155D01*
X319241Y340139D01*
X319251Y340131D01*
X319269Y340110D01*
X320286Y339093D01*
X321311Y336619D01*
X321311Y333941D01*
X320286Y331467D01*
X318392Y329573D01*
X315918Y328548D01*
X313240Y328548D01*
X310766Y329573D01*
X308872Y331467D01*
X307847Y333941D01*
X307847Y336619D01*
X308799Y338916D01*
X308806Y338944D01*
X308820Y338971D01*
X308848Y339098D01*
X308883Y339222D01*
X308883Y339252D01*
X308889Y339281D01*
X308886Y339410D01*
X308888Y339540D01*
X308881Y339569D01*
X308880Y339599D01*
X308844Y339723D01*
X308813Y339850D01*
X308800Y339876D01*
X308791Y339904D01*
X308725Y340016D01*
X308665Y340131D01*
X308645Y340153D01*
X308630Y340178D01*
X308523Y340299D01*
X307993Y340830D01*
X307915Y340890D01*
X307842Y340958D01*
X307789Y340987D01*
X307742Y341024D01*
X307651Y341064D01*
X307564Y341112D01*
X307505Y341127D01*
X307450Y341151D01*
X307352Y341166D01*
X307256Y341191D01*
X307156Y341197D01*
X307136Y341201D01*
X307123Y341199D01*
X307095Y341201D01*
X299210Y341201D01*
X298077Y342334D01*
X297983Y342407D01*
X297894Y342486D01*
X297858Y342504D01*
X297826Y342529D01*
X297717Y342576D01*
X297611Y342630D01*
X297572Y342639D01*
X297534Y342655D01*
X297417Y342674D01*
X297301Y342700D01*
X297260Y342699D01*
X297220Y342705D01*
X297102Y342694D01*
X296983Y342690D01*
X296944Y342679D01*
X296904Y342675D01*
X296792Y342635D01*
X296677Y342602D01*
X296642Y342581D01*
X296604Y342568D01*
X296506Y342501D01*
X296403Y342440D01*
X296358Y342400D01*
X296341Y342389D01*
X296328Y342374D01*
X296282Y342334D01*
X295150Y341201D01*
X282210Y341201D01*
X280131Y343280D01*
X280131Y354632D01*
X280126Y354671D01*
X280129Y354711D01*
X280106Y354829D01*
X280091Y354948D01*
X280077Y354984D01*
X280069Y355023D01*
X280018Y355132D01*
X279974Y355243D01*
X279951Y355275D01*
X279934Y355311D01*
X279858Y355404D01*
X279788Y355501D01*
X279757Y355526D01*
X279732Y355557D01*
X279635Y355627D01*
X279543Y355703D01*
X279507Y355720D01*
X279475Y355744D01*
X279363Y355788D01*
X279255Y355839D01*
X279216Y355846D01*
X279179Y355861D01*
X279060Y355876D01*
X278943Y355899D01*
X278903Y355896D01*
X278863Y355901D01*
X278744Y355886D01*
X278625Y355879D01*
X278587Y355867D01*
X278548Y355862D01*
X278436Y355818D01*
X278323Y355781D01*
X278289Y355760D01*
X278252Y355745D01*
X278155Y355675D01*
X278054Y355611D01*
X278027Y355582D01*
X277995Y355559D01*
X277884Y355441D01*
X271611Y347861D01*
X261385Y340831D01*
X249625Y336868D01*
X237230Y336274D01*
X225146Y339096D01*
X214295Y345116D01*
X205505Y353876D01*
X199449Y364707D01*
X196588Y376782D01*
X197091Y388055D01*
X197079Y388203D01*
X197070Y388349D01*
X197066Y388360D01*
X197065Y388372D01*
X197017Y388512D01*
X196972Y388651D01*
X196965Y388662D01*
X196961Y388673D01*
X196880Y388796D01*
X196801Y388920D01*
X196793Y388928D01*
X196786Y388938D01*
X196677Y389037D01*
X196570Y389138D01*
X196559Y389144D01*
X196550Y389152D01*
X196420Y389221D01*
X196291Y389292D01*
X196280Y389295D01*
X196269Y389300D01*
X196126Y389334D01*
X195983Y389371D01*
X195967Y389372D01*
X195960Y389374D01*
X195944Y389374D01*
X195823Y389381D01*
X175478Y389381D01*
X175360Y389366D01*
X175241Y389359D01*
X175203Y389346D01*
X175162Y389341D01*
X175052Y389298D01*
X174939Y389261D01*
X174904Y389239D01*
X174867Y389224D01*
X174771Y389155D01*
X174670Y389091D01*
X174642Y389061D01*
X174609Y389038D01*
X174533Y388946D01*
X174452Y388859D01*
X174432Y388824D01*
X174407Y388793D01*
X174356Y388685D01*
X174298Y388581D01*
X174288Y388541D01*
X174271Y388505D01*
X174249Y388388D01*
X174219Y388273D01*
X174215Y388213D01*
X174211Y388193D01*
X174213Y388172D01*
X174209Y388112D01*
X174209Y368668D01*
X172142Y366601D01*
X158178Y366601D01*
X156111Y368668D01*
X156111Y388112D01*
X156096Y388230D01*
X156089Y388349D01*
X156076Y388387D01*
X156071Y388428D01*
X156028Y388538D01*
X155991Y388651D01*
X155969Y388686D01*
X155954Y388723D01*
X155885Y388819D01*
X155821Y388920D01*
X155791Y388948D01*
X155768Y388981D01*
X155676Y389057D01*
X155589Y389138D01*
X155554Y389158D01*
X155523Y389183D01*
X155415Y389234D01*
X155311Y389292D01*
X155271Y389302D01*
X155235Y389319D01*
X155118Y389341D01*
X155003Y389371D01*
X154943Y389375D01*
X154923Y389379D01*
X154902Y389377D01*
X154842Y389381D01*
X119478Y389381D01*
X119360Y389366D01*
X119241Y389359D01*
X119203Y389346D01*
X119162Y389341D01*
X119052Y389298D01*
X118939Y389261D01*
X118904Y389239D01*
X118867Y389224D01*
X118771Y389155D01*
X118670Y389091D01*
X118642Y389061D01*
X118609Y389038D01*
X118533Y388946D01*
X118452Y388859D01*
X118432Y388824D01*
X118407Y388793D01*
X118356Y388685D01*
X118298Y388581D01*
X118288Y388541D01*
X118271Y388505D01*
X118249Y388388D01*
X118219Y388273D01*
X118215Y388213D01*
X118211Y388193D01*
X118213Y388172D01*
X118209Y388112D01*
X118209Y368668D01*
X116142Y366601D01*
X102178Y366601D01*
X100111Y368668D01*
X100111Y388112D01*
X100096Y388230D01*
X100089Y388349D01*
X100076Y388387D01*
X100071Y388428D01*
X100028Y388538D01*
X99991Y388651D01*
X99969Y388686D01*
X99954Y388723D01*
X99885Y388819D01*
X99821Y388920D01*
X99791Y388948D01*
X99768Y388981D01*
X99676Y389057D01*
X99589Y389138D01*
X99554Y389158D01*
X99523Y389183D01*
X99415Y389234D01*
X99311Y389292D01*
X99271Y389302D01*
X99235Y389319D01*
X99118Y389341D01*
X99003Y389371D01*
X98943Y389375D01*
X98923Y389379D01*
X98902Y389377D01*
X98842Y389381D01*
X16157Y389381D01*
X16101Y389374D01*
X16045Y389376D01*
X15944Y389354D01*
X15841Y389341D01*
X15789Y389321D01*
X15735Y389309D01*
X15642Y389263D01*
X15545Y389224D01*
X15500Y389192D01*
X15450Y389167D01*
X15372Y389099D01*
X15288Y389038D01*
X15252Y388995D01*
X15210Y388958D01*
X15151Y388873D01*
X15085Y388793D01*
X15061Y388742D01*
X15030Y388696D01*
X14994Y388599D01*
X14950Y388505D01*
X14939Y388450D01*
X14920Y388398D01*
X14909Y388294D01*
X14890Y388193D01*
X14893Y388137D01*
X14888Y388081D01*
X14903Y387979D01*
X14910Y387875D01*
X14927Y387822D01*
X14935Y387767D01*
X14976Y387671D01*
X15008Y387573D01*
X15038Y387525D01*
X15059Y387474D01*
X15122Y387392D01*
X15178Y387304D01*
X15218Y387266D01*
X15252Y387221D01*
X15372Y387114D01*
X176194Y260754D01*
X176281Y260702D01*
X176363Y260642D01*
X176417Y260620D01*
X176467Y260591D01*
X176564Y260562D01*
X176658Y260524D01*
X176716Y260517D01*
X176771Y260500D01*
X176873Y260496D01*
X176974Y260483D01*
X177031Y260490D01*
X177089Y260488D01*
X177188Y260509D01*
X177289Y260522D01*
X177343Y260543D01*
X177400Y260555D01*
X177491Y260601D01*
X177585Y260638D01*
X177632Y260672D01*
X177684Y260698D01*
X177761Y260765D01*
X177843Y260824D01*
X177908Y260892D01*
X177924Y260906D01*
X177932Y260918D01*
X177954Y260941D01*
X178639Y261765D01*
X189410Y269069D01*
X201786Y273096D01*
X214793Y273529D01*
X227409Y270333D01*
X238642Y263761D01*
X247608Y254328D01*
X253603Y242777D01*
X256156Y230015D01*
X255064Y217047D01*
X250416Y204891D01*
X242575Y194503D01*
X232158Y186701D01*
X219985Y182098D01*
X207013Y181055D01*
X194261Y183655D01*
X193979Y183803D01*
X193956Y183811D01*
X193935Y183825D01*
X193807Y183867D01*
X193681Y183914D01*
X193656Y183917D01*
X193633Y183924D01*
X193499Y183933D01*
X193365Y183948D01*
X193340Y183944D01*
X193316Y183946D01*
X193183Y183921D01*
X193050Y183901D01*
X193027Y183892D01*
X193003Y183887D01*
X192881Y183831D01*
X192757Y183778D01*
X192737Y183764D01*
X192715Y183753D01*
X192611Y183668D01*
X192503Y183587D01*
X192488Y183567D01*
X192469Y183552D01*
X192389Y183443D01*
X192305Y183338D01*
X192295Y183315D01*
X192281Y183295D01*
X192211Y183150D01*
X184947Y164988D01*
X184917Y164874D01*
X184880Y164762D01*
X184877Y164721D01*
X184867Y164681D01*
X184866Y164563D01*
X184858Y164445D01*
X184866Y164404D01*
X184865Y164363D01*
X184894Y164248D01*
X184916Y164132D01*
X184933Y164095D01*
X184943Y164054D01*
X185000Y163951D01*
X185049Y163844D01*
X185076Y163811D01*
X185095Y163775D01*
X185176Y163689D01*
X185250Y163597D01*
X185284Y163573D01*
X185312Y163542D01*
X185412Y163479D01*
X185507Y163409D01*
X185563Y163382D01*
X185580Y163371D01*
X185599Y163365D01*
X185652Y163339D01*
X204540Y155746D01*
X205687Y153057D01*
X200479Y140102D01*
X197790Y138955D01*
X178935Y146535D01*
X178818Y146565D01*
X178704Y146603D01*
X178665Y146605D01*
X178627Y146615D01*
X178507Y146616D01*
X178387Y146624D01*
X178348Y146617D01*
X178309Y146617D01*
X178193Y146588D01*
X178074Y146566D01*
X178039Y146549D01*
X178001Y146540D01*
X177895Y146482D01*
X177786Y146432D01*
X177756Y146407D01*
X177721Y146388D01*
X177633Y146306D01*
X177540Y146230D01*
X177517Y146198D01*
X177488Y146172D01*
X177423Y146071D01*
X177352Y145974D01*
X177327Y145921D01*
X177316Y145904D01*
X177309Y145885D01*
X177283Y145828D01*
X164149Y112994D01*
X164119Y112879D01*
X164082Y112768D01*
X164079Y112726D01*
X164069Y112686D01*
X164068Y112568D01*
X164060Y112450D01*
X164068Y112409D01*
X164068Y112368D01*
X164096Y112254D01*
X164118Y112137D01*
X164135Y112100D01*
X164145Y112060D01*
X164202Y111956D01*
X164251Y111849D01*
X164278Y111817D01*
X164298Y111780D01*
X164378Y111694D01*
X164453Y111603D01*
X164486Y111578D01*
X164514Y111548D01*
X164614Y111484D01*
X164709Y111414D01*
X164765Y111387D01*
X164782Y111376D01*
X164801Y111370D01*
X164854Y111345D01*
X183653Y103788D01*
X184799Y101099D01*
X179591Y88143D01*
X176902Y86996D01*
X158137Y94540D01*
X158021Y94570D01*
X157906Y94608D01*
X157867Y94611D01*
X157829Y94621D01*
X157709Y94621D01*
X157589Y94629D01*
X157550Y94622D01*
X157511Y94622D01*
X157395Y94593D01*
X157277Y94571D01*
X157241Y94555D01*
X157203Y94545D01*
X157097Y94488D01*
X156988Y94437D01*
X156958Y94412D01*
X156923Y94393D01*
X156835Y94311D01*
X156742Y94235D01*
X156719Y94204D01*
X156690Y94177D01*
X156625Y94076D01*
X156554Y93979D01*
X156529Y93926D01*
X156518Y93909D01*
X156512Y93890D01*
X156485Y93834D01*
X138107Y47889D01*
X138097Y47849D01*
X138079Y47811D01*
X138057Y47696D01*
X138027Y47582D01*
X138027Y47540D01*
X138019Y47498D01*
X138026Y47381D01*
X138026Y47264D01*
X138036Y47223D01*
X138039Y47181D01*
X138075Y47069D01*
X138104Y46955D01*
X138124Y46918D01*
X138137Y46879D01*
X138200Y46779D01*
X138256Y46676D01*
X138284Y46645D01*
X138307Y46610D01*
X138393Y46529D01*
X138473Y46443D01*
X138508Y46421D01*
X138539Y46392D01*
X138642Y46335D01*
X138740Y46272D01*
X138780Y46259D01*
X138817Y46238D01*
X138931Y46209D01*
X139043Y46172D01*
X139084Y46169D01*
X139125Y46159D01*
X139286Y46149D01*
X141301Y46149D01*
X144259Y44923D01*
X146523Y42659D01*
X147749Y39701D01*
X147749Y36499D01*
X146523Y33541D01*
X144259Y31277D01*
X141301Y30051D01*
X138099Y30051D01*
X135141Y31277D01*
X133874Y32543D01*
X133829Y32578D01*
X133790Y32620D01*
X133704Y32675D01*
X133623Y32738D01*
X133570Y32761D01*
X133522Y32792D01*
X133425Y32824D01*
X133331Y32864D01*
X133274Y32873D01*
X133220Y32891D01*
X133118Y32898D01*
X133017Y32914D01*
X132960Y32909D01*
X132903Y32913D01*
X132802Y32894D01*
X132700Y32884D01*
X132646Y32865D01*
X132590Y32855D01*
X132497Y32811D01*
X132401Y32777D01*
X132354Y32745D01*
X132302Y32720D01*
X132223Y32656D01*
X132138Y32598D01*
X132100Y32555D01*
X132056Y32519D01*
X131995Y32437D01*
X131927Y32360D01*
X131901Y32309D01*
X131867Y32262D01*
X131798Y32117D01*
X124260Y13272D01*
X124247Y13222D01*
X124226Y13174D01*
X124207Y13068D01*
X124180Y12965D01*
X124180Y12912D01*
X124171Y12860D01*
X124179Y12753D01*
X124179Y12647D01*
X124192Y12596D01*
X124196Y12543D01*
X124231Y12442D01*
X124257Y12338D01*
X124282Y12292D01*
X124299Y12242D01*
X124358Y12153D01*
X124409Y12059D01*
X124445Y12021D01*
X124474Y11977D01*
X124553Y11905D01*
X124626Y11826D01*
X124670Y11798D01*
X124709Y11763D01*
X124804Y11713D01*
X124894Y11655D01*
X124943Y11638D01*
X124990Y11614D01*
X125094Y11589D01*
X125196Y11555D01*
X125248Y11552D01*
X125299Y11539D01*
X125406Y11541D01*
X125513Y11534D01*
X125565Y11544D01*
G37*
G36*
X522292Y11538D02*
X522292Y11538D01*
X522345Y11535D01*
X522450Y11555D01*
X522556Y11567D01*
X522605Y11585D01*
X522657Y11595D01*
X522754Y11641D01*
X522854Y11679D01*
X522897Y11709D01*
X522944Y11731D01*
X523026Y11800D01*
X523114Y11861D01*
X523148Y11901D01*
X523189Y11935D01*
X523251Y12021D01*
X523321Y12103D01*
X523344Y12150D01*
X523375Y12192D01*
X523414Y12292D01*
X523461Y12388D01*
X523472Y12439D01*
X523491Y12488D01*
X523504Y12595D01*
X523526Y12699D01*
X523524Y12752D01*
X523530Y12804D01*
X523517Y12910D01*
X523512Y13017D01*
X523497Y13067D01*
X523490Y13119D01*
X523440Y13272D01*
X455489Y183150D01*
X455477Y183171D01*
X455470Y183195D01*
X455400Y183310D01*
X455334Y183428D01*
X455318Y183446D01*
X455305Y183467D01*
X455209Y183561D01*
X455116Y183659D01*
X455095Y183672D01*
X455078Y183689D01*
X454961Y183757D01*
X454847Y183829D01*
X454823Y183836D01*
X454802Y183849D01*
X454673Y183885D01*
X454544Y183926D01*
X454520Y183927D01*
X454496Y183934D01*
X454361Y183937D01*
X454227Y183945D01*
X454203Y183940D01*
X454178Y183941D01*
X454047Y183910D01*
X453914Y183885D01*
X453892Y183874D01*
X453868Y183868D01*
X453721Y183803D01*
X453439Y183655D01*
X440687Y181055D01*
X427715Y182098D01*
X422289Y184150D01*
X422240Y184161D01*
X422194Y184181D01*
X422086Y184199D01*
X421980Y184224D01*
X421930Y184223D01*
X421880Y184231D01*
X421771Y184221D01*
X421662Y184219D01*
X421614Y184206D01*
X421564Y184201D01*
X421460Y184164D01*
X421355Y184135D01*
X421312Y184111D01*
X421264Y184094D01*
X421174Y184032D01*
X421079Y183978D01*
X421043Y183943D01*
X421001Y183915D01*
X420929Y183833D01*
X420850Y183757D01*
X420824Y183714D01*
X420791Y183677D01*
X420741Y183579D01*
X420684Y183486D01*
X420669Y183438D01*
X420646Y183394D01*
X420622Y183287D01*
X420590Y183182D01*
X420588Y183132D01*
X420577Y183083D01*
X420580Y182974D01*
X420575Y182864D01*
X420585Y182815D01*
X420586Y182765D01*
X420617Y182660D01*
X420639Y182553D01*
X420661Y182508D01*
X420675Y182460D01*
X420730Y182365D01*
X420778Y182267D01*
X420811Y182229D01*
X420836Y182186D01*
X420943Y182065D01*
X466599Y136409D01*
X466599Y104619D01*
X465972Y103992D01*
X465927Y103934D01*
X465874Y103882D01*
X465782Y103750D01*
X458539Y91742D01*
X455677Y91034D01*
X448888Y95129D01*
X448841Y95319D01*
X448798Y95431D01*
X448763Y95544D01*
X448741Y95578D01*
X448727Y95616D01*
X448658Y95713D01*
X448595Y95814D01*
X448566Y95842D01*
X448542Y95875D01*
X448451Y95952D01*
X448365Y96034D01*
X448330Y96054D01*
X448299Y96080D01*
X448192Y96131D01*
X448088Y96190D01*
X448049Y96200D01*
X448013Y96218D01*
X447896Y96241D01*
X447781Y96272D01*
X447740Y96272D01*
X447701Y96280D01*
X447582Y96274D01*
X447463Y96275D01*
X447403Y96264D01*
X447383Y96263D01*
X447364Y96257D01*
X447304Y96246D01*
X447114Y96199D01*
X440326Y100295D01*
X440279Y100485D01*
X440236Y100596D01*
X440200Y100709D01*
X440179Y100744D01*
X440164Y100781D01*
X440095Y100878D01*
X440032Y100979D01*
X440003Y101007D01*
X439980Y101040D01*
X439888Y101117D01*
X439802Y101199D01*
X439767Y101219D01*
X439736Y101245D01*
X439629Y101297D01*
X439525Y101355D01*
X439486Y101366D01*
X439450Y101383D01*
X439333Y101407D01*
X439218Y101437D01*
X439178Y101438D01*
X439138Y101446D01*
X439019Y101439D01*
X438900Y101441D01*
X438841Y101430D01*
X438820Y101429D01*
X438801Y101423D01*
X438742Y101412D01*
X438552Y101365D01*
X431763Y105460D01*
X431548Y106328D01*
X431508Y106433D01*
X431475Y106540D01*
X431451Y106580D01*
X431434Y106624D01*
X431368Y106716D01*
X431310Y106812D01*
X431277Y106845D01*
X431249Y106883D01*
X431163Y106956D01*
X431083Y107034D01*
X431042Y107058D01*
X431006Y107088D01*
X430905Y107137D01*
X430807Y107193D01*
X430762Y107206D01*
X430719Y107226D01*
X430609Y107248D01*
X430501Y107278D01*
X430429Y107284D01*
X430408Y107289D01*
X430389Y107288D01*
X430340Y107292D01*
X430105Y107296D01*
X429333Y107519D01*
X428141Y108238D01*
X432821Y115996D01*
X432869Y116105D01*
X432924Y116211D01*
X432933Y116250D01*
X432950Y116287D01*
X432969Y116405D01*
X432996Y116520D01*
X432996Y116561D01*
X433002Y116601D01*
X432992Y116719D01*
X432990Y116838D01*
X432979Y116877D01*
X432975Y116918D01*
X432936Y117030D01*
X432904Y117145D01*
X432883Y117180D01*
X432870Y117218D01*
X432844Y117257D01*
X432836Y117351D01*
X432833Y117470D01*
X432822Y117509D01*
X432819Y117549D01*
X432780Y117662D01*
X432747Y117776D01*
X432727Y117811D01*
X432714Y117850D01*
X432648Y117949D01*
X432588Y118052D01*
X432560Y118081D01*
X432538Y118114D01*
X432449Y118194D01*
X432366Y118279D01*
X432316Y118313D01*
X432301Y118327D01*
X432283Y118336D01*
X432233Y118371D01*
X427686Y121114D01*
X430342Y125517D01*
X430921Y126074D01*
X431624Y126462D01*
X432404Y126655D01*
X433207Y126640D01*
X433979Y126417D01*
X435716Y125369D01*
X435849Y125310D01*
X435979Y125249D01*
X435994Y125246D01*
X436007Y125240D01*
X436150Y125216D01*
X436292Y125189D01*
X436306Y125190D01*
X436321Y125187D01*
X436465Y125200D01*
X436609Y125209D01*
X436623Y125213D01*
X436638Y125214D01*
X436774Y125262D01*
X436911Y125307D01*
X436924Y125315D01*
X436938Y125319D01*
X437058Y125400D01*
X437180Y125477D01*
X437190Y125488D01*
X437203Y125496D01*
X437299Y125603D01*
X437398Y125708D01*
X437405Y125721D01*
X437415Y125732D01*
X437482Y125861D01*
X437552Y125987D01*
X437555Y126001D01*
X437562Y126014D01*
X437595Y126155D01*
X437631Y126295D01*
X437632Y126315D01*
X437634Y126324D01*
X437634Y126342D01*
X437641Y126456D01*
X437641Y126699D01*
X437629Y126798D01*
X437626Y126897D01*
X437609Y126955D01*
X437601Y127015D01*
X437565Y127107D01*
X437537Y127202D01*
X437507Y127254D01*
X437484Y127311D01*
X437426Y127391D01*
X437376Y127476D01*
X437310Y127551D01*
X437298Y127568D01*
X437288Y127576D01*
X437270Y127597D01*
X395567Y169300D01*
X395489Y169360D01*
X395416Y169428D01*
X395363Y169457D01*
X395316Y169494D01*
X395225Y169534D01*
X395138Y169582D01*
X395079Y169597D01*
X395024Y169621D01*
X394926Y169636D01*
X394830Y169661D01*
X394730Y169667D01*
X394710Y169671D01*
X394697Y169669D01*
X394669Y169671D01*
X344889Y169671D01*
X344768Y169656D01*
X344646Y169648D01*
X344611Y169636D01*
X344573Y169631D01*
X344460Y169587D01*
X344344Y169548D01*
X344312Y169528D01*
X344278Y169514D01*
X344179Y169443D01*
X344076Y169377D01*
X344051Y169350D01*
X344020Y169328D01*
X343942Y169234D01*
X343859Y169144D01*
X343841Y169112D01*
X343818Y169083D01*
X343766Y168972D01*
X343707Y168865D01*
X343698Y168829D01*
X343682Y168795D01*
X343659Y168675D01*
X343629Y168557D01*
X343629Y168519D01*
X343622Y168483D01*
X343630Y168361D01*
X343630Y168239D01*
X343640Y168203D01*
X343642Y168165D01*
X343680Y168049D01*
X343710Y167931D01*
X343728Y167898D01*
X343740Y167863D01*
X343805Y167760D01*
X343864Y167653D01*
X343890Y167626D01*
X343910Y167594D01*
X343999Y167510D01*
X344083Y167422D01*
X344127Y167389D01*
X344142Y167376D01*
X344160Y167366D01*
X344213Y167328D01*
X353174Y161692D01*
X361637Y152211D01*
X367142Y140757D01*
X369259Y128226D01*
X367821Y115599D01*
X362873Y103698D01*
X362870Y103689D01*
X362865Y103680D01*
X362858Y103652D01*
X362844Y103623D01*
X362824Y103525D01*
X362794Y103428D01*
X362793Y103408D01*
X362789Y103392D01*
X362789Y103382D01*
X362786Y103372D01*
X362783Y103332D01*
X362779Y103312D01*
X362781Y103286D01*
X362776Y103211D01*
X362782Y103164D01*
X362779Y103110D01*
X362783Y103090D01*
X362783Y103074D01*
X362792Y103038D01*
X362794Y102994D01*
X362810Y102942D01*
X362816Y102896D01*
X362833Y102852D01*
X362844Y102799D01*
X362853Y102779D01*
X362857Y102765D01*
X362874Y102732D01*
X362887Y102690D01*
X362915Y102643D01*
X362933Y102600D01*
X362960Y102563D01*
X362984Y102513D01*
X362998Y102497D01*
X363005Y102483D01*
X363029Y102457D01*
X363052Y102419D01*
X363092Y102380D01*
X363119Y102343D01*
X363155Y102313D01*
X363190Y102272D01*
X363209Y102259D01*
X363219Y102248D01*
X363249Y102228D01*
X363280Y102197D01*
X363353Y102149D01*
X363364Y102140D01*
X363375Y102135D01*
X363415Y102108D01*
X387272Y88476D01*
X387368Y88436D01*
X387460Y88388D01*
X387514Y88375D01*
X387565Y88354D01*
X387668Y88339D01*
X387770Y88316D01*
X387825Y88317D01*
X387880Y88309D01*
X387983Y88320D01*
X388088Y88323D01*
X388141Y88338D01*
X388196Y88344D01*
X388293Y88380D01*
X388394Y88408D01*
X388442Y88436D01*
X388494Y88456D01*
X388579Y88515D01*
X388669Y88568D01*
X388709Y88606D01*
X388754Y88638D01*
X388822Y88717D01*
X388896Y88790D01*
X388947Y88863D01*
X388961Y88880D01*
X388968Y88893D01*
X388988Y88923D01*
X399466Y106292D01*
X402304Y106995D01*
X414260Y99782D01*
X414962Y96944D01*
X404736Y79993D01*
X404682Y79870D01*
X404623Y79750D01*
X404618Y79725D01*
X404608Y79702D01*
X404585Y79570D01*
X404558Y79439D01*
X404559Y79413D01*
X404555Y79388D01*
X404566Y79255D01*
X404573Y79121D01*
X404580Y79097D01*
X404582Y79071D01*
X404626Y78945D01*
X404666Y78817D01*
X404679Y78795D01*
X404687Y78771D01*
X404762Y78659D01*
X404831Y78545D01*
X404849Y78528D01*
X404863Y78506D01*
X404963Y78417D01*
X405059Y78324D01*
X405089Y78304D01*
X405100Y78294D01*
X405119Y78284D01*
X405194Y78235D01*
X435907Y60685D01*
X436003Y60645D01*
X436095Y60596D01*
X436149Y60584D01*
X436200Y60563D01*
X436304Y60548D01*
X436405Y60524D01*
X436460Y60525D01*
X436515Y60518D01*
X436619Y60529D01*
X436723Y60531D01*
X436776Y60546D01*
X436831Y60552D01*
X436929Y60589D01*
X437029Y60617D01*
X437077Y60645D01*
X437129Y60664D01*
X437214Y60724D01*
X437304Y60776D01*
X437344Y60815D01*
X437389Y60847D01*
X437457Y60926D01*
X437532Y60999D01*
X437582Y61072D01*
X437596Y61088D01*
X437603Y61102D01*
X437623Y61131D01*
X447417Y77366D01*
X450255Y78069D01*
X462211Y70856D01*
X462913Y68018D01*
X453372Y52201D01*
X453317Y52078D01*
X453258Y51958D01*
X453253Y51934D01*
X453243Y51910D01*
X453221Y51778D01*
X453193Y51647D01*
X453194Y51622D01*
X453190Y51597D01*
X453202Y51463D01*
X453208Y51329D01*
X453215Y51305D01*
X453217Y51280D01*
X453262Y51153D01*
X453301Y51025D01*
X453314Y51003D01*
X453322Y50980D01*
X453397Y50868D01*
X453466Y50754D01*
X453485Y50736D01*
X453499Y50715D01*
X453598Y50625D01*
X453694Y50532D01*
X453724Y50512D01*
X453735Y50502D01*
X453754Y50492D01*
X453829Y50443D01*
X521631Y11699D01*
X521680Y11679D01*
X521724Y11651D01*
X521826Y11618D01*
X521925Y11577D01*
X521977Y11570D01*
X522027Y11554D01*
X522134Y11547D01*
X522240Y11532D01*
X522292Y11538D01*
G37*
G36*
X503012Y285817D02*
X503012Y285817D01*
X503014Y285817D01*
X503170Y285843D01*
X503324Y285868D01*
X503326Y285869D01*
X503328Y285869D01*
X503469Y285932D01*
X503615Y285996D01*
X503618Y285998D01*
X503619Y285998D01*
X503621Y286000D01*
X503748Y286087D01*
X531606Y307976D01*
X531663Y308033D01*
X531727Y308083D01*
X531774Y308146D01*
X531830Y308202D01*
X531870Y308272D01*
X531919Y308336D01*
X531950Y308409D01*
X531990Y308477D01*
X532012Y308555D01*
X532043Y308629D01*
X532055Y308707D01*
X532077Y308783D01*
X532079Y308863D01*
X532091Y308944D01*
X532083Y309022D01*
X532085Y309100D01*
X532067Y309179D01*
X532058Y309260D01*
X532031Y309334D01*
X532014Y309410D01*
X531977Y309482D01*
X531948Y309558D01*
X531869Y309690D01*
X531868Y309693D01*
X531867Y309694D01*
X531865Y309696D01*
X520470Y326153D01*
X520993Y329029D01*
X532473Y336978D01*
X535349Y336456D01*
X546034Y321024D01*
X546140Y320907D01*
X546244Y320790D01*
X546245Y320788D01*
X546247Y320787D01*
X546382Y320697D01*
X546508Y320612D01*
X546510Y320612D01*
X546511Y320611D01*
X546662Y320558D01*
X546808Y320506D01*
X546810Y320506D01*
X546811Y320505D01*
X546968Y320492D01*
X547124Y320478D01*
X547126Y320478D01*
X547128Y320478D01*
X547284Y320504D01*
X547438Y320529D01*
X547440Y320530D01*
X547442Y320530D01*
X547583Y320593D01*
X547729Y320657D01*
X547732Y320659D01*
X547733Y320659D01*
X547735Y320661D01*
X547862Y320748D01*
X632328Y387114D01*
X632367Y387154D01*
X632412Y387186D01*
X632478Y387266D01*
X632551Y387340D01*
X632579Y387388D01*
X632615Y387431D01*
X632659Y387525D01*
X632711Y387615D01*
X632727Y387669D01*
X632750Y387719D01*
X632770Y387821D01*
X632798Y387921D01*
X632800Y387977D01*
X632810Y388032D01*
X632804Y388135D01*
X632806Y388239D01*
X632794Y388293D01*
X632790Y388349D01*
X632758Y388447D01*
X632735Y388549D01*
X632709Y388598D01*
X632692Y388651D01*
X632637Y388739D01*
X632589Y388831D01*
X632552Y388873D01*
X632522Y388920D01*
X632447Y388991D01*
X632378Y389069D01*
X632331Y389100D01*
X632291Y389138D01*
X632200Y389188D01*
X632114Y389246D01*
X632061Y389265D01*
X632012Y389292D01*
X631912Y389317D01*
X631814Y389352D01*
X631758Y389357D01*
X631704Y389371D01*
X631543Y389381D01*
X464577Y389381D01*
X464432Y389363D01*
X464285Y389347D01*
X464274Y389343D01*
X464262Y389341D01*
X464125Y389287D01*
X463987Y389236D01*
X463977Y389229D01*
X463966Y389224D01*
X463847Y389138D01*
X463726Y389054D01*
X463718Y389045D01*
X463709Y389038D01*
X463615Y388924D01*
X463519Y388813D01*
X463514Y388802D01*
X463506Y388793D01*
X463443Y388660D01*
X463378Y388528D01*
X463375Y388516D01*
X463370Y388505D01*
X463343Y388361D01*
X463312Y388216D01*
X463312Y388200D01*
X463311Y388193D01*
X463312Y388177D01*
X463309Y388055D01*
X463812Y376782D01*
X460951Y364707D01*
X456706Y357116D01*
X456652Y356983D01*
X456595Y356851D01*
X456592Y356835D01*
X456587Y356821D01*
X456568Y356679D01*
X456545Y356536D01*
X456546Y356521D01*
X456544Y356506D01*
X456561Y356363D01*
X456575Y356220D01*
X456580Y356205D01*
X456582Y356190D01*
X456634Y356056D01*
X456682Y355921D01*
X456691Y355908D01*
X456697Y355893D01*
X456780Y355777D01*
X456861Y355657D01*
X456873Y355647D01*
X456882Y355635D01*
X456992Y355542D01*
X457099Y355447D01*
X457113Y355440D01*
X457125Y355430D01*
X457255Y355368D01*
X457383Y355302D01*
X457398Y355299D01*
X457412Y355292D01*
X457553Y355264D01*
X457693Y355233D01*
X457708Y355233D01*
X457724Y355230D01*
X457867Y355238D01*
X458011Y355242D01*
X458026Y355247D01*
X458041Y355248D01*
X458178Y355291D01*
X458316Y355331D01*
X458330Y355339D01*
X458345Y355343D01*
X458466Y355419D01*
X458590Y355492D01*
X458606Y355506D01*
X458614Y355512D01*
X458627Y355525D01*
X458711Y355599D01*
X459221Y356109D01*
X483726Y356109D01*
X490148Y349687D01*
X490152Y349683D01*
X490155Y349679D01*
X490277Y349587D01*
X490399Y349492D01*
X490404Y349490D01*
X490408Y349486D01*
X490548Y349427D01*
X490691Y349365D01*
X490696Y349364D01*
X490701Y349362D01*
X490852Y349340D01*
X491005Y349315D01*
X491010Y349316D01*
X491016Y349315D01*
X491169Y349331D01*
X491322Y349345D01*
X491327Y349347D01*
X491332Y349347D01*
X491476Y349400D01*
X491621Y349453D01*
X491626Y349456D01*
X491630Y349457D01*
X491768Y349541D01*
X492012Y349709D01*
X492204Y349674D01*
X492323Y349668D01*
X492441Y349654D01*
X492481Y349659D01*
X492522Y349657D01*
X492638Y349680D01*
X492756Y349696D01*
X492794Y349711D01*
X492834Y349719D01*
X492941Y349771D01*
X493051Y349815D01*
X493084Y349839D01*
X493120Y349857D01*
X493212Y349934D01*
X493307Y350004D01*
X493332Y350035D01*
X493364Y350062D01*
X493433Y350159D01*
X493508Y350251D01*
X493525Y350287D01*
X493548Y350320D01*
X493591Y350431D01*
X493641Y350540D01*
X493656Y350598D01*
X493663Y350617D01*
X493665Y350637D01*
X493680Y350696D01*
X493715Y350889D01*
X500233Y355402D01*
X503134Y354875D01*
X511981Y342097D01*
X512005Y342016D01*
X512025Y341912D01*
X512049Y341864D01*
X512064Y341812D01*
X512117Y341721D01*
X512163Y341626D01*
X512198Y341584D01*
X512225Y341538D01*
X512332Y341417D01*
X514859Y338890D01*
X514859Y323331D01*
X493152Y301624D01*
X493076Y301594D01*
X493056Y301579D01*
X493033Y301569D01*
X492927Y301486D01*
X492819Y301408D01*
X492803Y301388D01*
X492783Y301372D01*
X492702Y301266D01*
X492616Y301163D01*
X492605Y301140D01*
X492590Y301119D01*
X492538Y300996D01*
X492481Y300875D01*
X492476Y300850D01*
X492466Y300827D01*
X492446Y300694D01*
X492421Y300563D01*
X492422Y300537D01*
X492419Y300512D01*
X492432Y300378D01*
X492440Y300245D01*
X492448Y300221D01*
X492451Y300196D01*
X492497Y300070D01*
X492539Y299943D01*
X492552Y299921D01*
X492561Y299897D01*
X492644Y299759D01*
X501920Y286363D01*
X502025Y286245D01*
X502130Y286129D01*
X502131Y286127D01*
X502133Y286126D01*
X502261Y286040D01*
X502394Y285951D01*
X502396Y285951D01*
X502397Y285949D01*
X502546Y285897D01*
X502693Y285845D01*
X502695Y285845D01*
X502697Y285844D01*
X502854Y285831D01*
X503010Y285817D01*
X503012Y285817D01*
G37*
G36*
X393469Y210082D02*
X393469Y210082D01*
X393521Y210078D01*
X393626Y210097D01*
X393733Y210107D01*
X393783Y210125D01*
X393834Y210134D01*
X393931Y210178D01*
X394032Y210215D01*
X394076Y210244D01*
X394123Y210266D01*
X394207Y210333D01*
X394296Y210393D01*
X394330Y210432D01*
X394371Y210465D01*
X394435Y210551D01*
X394506Y210632D01*
X394530Y210678D01*
X394561Y210720D01*
X394602Y210819D01*
X394651Y210915D01*
X394662Y210966D01*
X394682Y211014D01*
X394697Y211121D01*
X394720Y211225D01*
X394719Y211277D01*
X394726Y211329D01*
X394714Y211436D01*
X394711Y211543D01*
X394696Y211593D01*
X394690Y211645D01*
X394642Y211799D01*
X392636Y217047D01*
X391544Y230015D01*
X394097Y242777D01*
X400092Y254328D01*
X409058Y263761D01*
X420291Y270333D01*
X432907Y273529D01*
X445914Y273096D01*
X458290Y269069D01*
X469061Y261765D01*
X469746Y260941D01*
X469820Y260871D01*
X469888Y260796D01*
X469936Y260763D01*
X469978Y260724D01*
X470068Y260675D01*
X470152Y260618D01*
X470206Y260599D01*
X470257Y260571D01*
X470356Y260546D01*
X470452Y260512D01*
X470509Y260507D01*
X470566Y260493D01*
X470667Y260493D01*
X470768Y260484D01*
X470826Y260493D01*
X470884Y260493D01*
X470982Y260519D01*
X471082Y260535D01*
X471135Y260559D01*
X471191Y260573D01*
X471281Y260622D01*
X471374Y260663D01*
X471451Y260717D01*
X471470Y260727D01*
X471480Y260736D01*
X471506Y260754D01*
X488169Y273846D01*
X488240Y273918D01*
X488317Y273983D01*
X488351Y274031D01*
X488392Y274073D01*
X488443Y274160D01*
X488502Y274242D01*
X488523Y274297D01*
X488553Y274347D01*
X488580Y274445D01*
X488617Y274539D01*
X488624Y274597D01*
X488640Y274653D01*
X488642Y274754D01*
X488654Y274855D01*
X488646Y274913D01*
X488648Y274971D01*
X488625Y275070D01*
X488612Y275170D01*
X488590Y275224D01*
X488577Y275281D01*
X488530Y275371D01*
X488492Y275465D01*
X488457Y275512D01*
X488431Y275564D01*
X488363Y275639D01*
X488303Y275720D01*
X488258Y275757D01*
X488219Y275801D01*
X488135Y275858D01*
X488057Y275921D01*
X488004Y275946D01*
X487955Y275979D01*
X487860Y276012D01*
X487768Y276055D01*
X487675Y276078D01*
X487655Y276085D01*
X487642Y276086D01*
X487612Y276093D01*
X486933Y276217D01*
X474430Y294274D01*
X474953Y297150D01*
X478258Y299439D01*
X478328Y299501D01*
X478404Y299556D01*
X478446Y299607D01*
X478495Y299651D01*
X478547Y299729D01*
X478607Y299801D01*
X478635Y299861D01*
X478671Y299915D01*
X478702Y300004D01*
X478742Y300089D01*
X478755Y300153D01*
X478776Y300216D01*
X478785Y300309D01*
X478802Y300402D01*
X478798Y300467D01*
X478804Y300532D01*
X478788Y300625D01*
X478782Y300719D01*
X478762Y300781D01*
X478751Y300846D01*
X478713Y300932D01*
X478684Y301021D01*
X478649Y301077D01*
X478623Y301137D01*
X478565Y301211D01*
X478514Y301290D01*
X478466Y301335D01*
X478426Y301387D01*
X478351Y301444D01*
X478283Y301508D01*
X478225Y301540D01*
X478173Y301580D01*
X478086Y301616D01*
X478004Y301662D01*
X477941Y301678D01*
X477880Y301704D01*
X477787Y301718D01*
X477696Y301741D01*
X477584Y301748D01*
X477566Y301751D01*
X477556Y301750D01*
X477535Y301751D01*
X440465Y301751D01*
X440366Y301739D01*
X440267Y301736D01*
X440209Y301719D01*
X440149Y301711D01*
X440057Y301675D01*
X439962Y301647D01*
X439910Y301617D01*
X439853Y301594D01*
X439773Y301536D01*
X439688Y301486D01*
X439613Y301420D01*
X439596Y301408D01*
X439588Y301398D01*
X439567Y301380D01*
X417079Y278891D01*
X332117Y278891D01*
X332019Y278879D01*
X331920Y278876D01*
X331862Y278859D01*
X331802Y278851D01*
X331710Y278815D01*
X331614Y278787D01*
X331562Y278757D01*
X331506Y278734D01*
X331426Y278676D01*
X331340Y278626D01*
X331265Y278560D01*
X331249Y278548D01*
X331241Y278538D01*
X331220Y278520D01*
X331080Y278380D01*
X331020Y278302D01*
X330952Y278230D01*
X330923Y278177D01*
X330886Y278129D01*
X330846Y278038D01*
X330798Y277951D01*
X330783Y277893D01*
X330759Y277837D01*
X330744Y277739D01*
X330719Y277644D01*
X330713Y277544D01*
X330709Y277523D01*
X330711Y277511D01*
X330709Y277483D01*
X330709Y232918D01*
X330724Y232800D01*
X330731Y232681D01*
X330744Y232643D01*
X330749Y232602D01*
X330792Y232492D01*
X330829Y232379D01*
X330851Y232344D01*
X330866Y232307D01*
X330935Y232211D01*
X330999Y232110D01*
X331029Y232082D01*
X331052Y232049D01*
X331144Y231973D01*
X331231Y231892D01*
X331266Y231872D01*
X331297Y231847D01*
X331405Y231796D01*
X331509Y231738D01*
X331549Y231728D01*
X331585Y231711D01*
X331702Y231689D01*
X331817Y231659D01*
X331877Y231655D01*
X331897Y231651D01*
X331918Y231653D01*
X331978Y231649D01*
X371359Y231649D01*
X392559Y210448D01*
X392601Y210416D01*
X392636Y210378D01*
X392726Y210319D01*
X392811Y210253D01*
X392859Y210233D01*
X392903Y210204D01*
X393004Y210170D01*
X393102Y210127D01*
X393154Y210119D01*
X393204Y210102D01*
X393310Y210094D01*
X393416Y210077D01*
X393469Y210082D01*
G37*
G36*
X489274Y310401D02*
X489274Y310401D01*
X489373Y310404D01*
X489431Y310421D01*
X489491Y310429D01*
X489583Y310465D01*
X489678Y310493D01*
X489730Y310523D01*
X489787Y310546D01*
X489867Y310604D01*
X489952Y310654D01*
X490027Y310720D01*
X490044Y310732D01*
X490052Y310742D01*
X490073Y310760D01*
X505850Y326537D01*
X505910Y326615D01*
X505978Y326688D01*
X506007Y326741D01*
X506044Y326788D01*
X506084Y326879D01*
X506132Y326966D01*
X506147Y327025D01*
X506171Y327080D01*
X506186Y327178D01*
X506211Y327274D01*
X506217Y327374D01*
X506221Y327394D01*
X506219Y327407D01*
X506221Y327435D01*
X506221Y333472D01*
X506221Y333477D01*
X506221Y333482D01*
X506201Y333633D01*
X506181Y333787D01*
X506180Y333792D01*
X506179Y333797D01*
X506121Y333940D01*
X506064Y334083D01*
X506061Y334087D01*
X506060Y334092D01*
X505968Y334216D01*
X505878Y334340D01*
X505874Y334344D01*
X505871Y334348D01*
X505752Y334444D01*
X505633Y334543D01*
X505628Y334545D01*
X505624Y334549D01*
X505483Y334614D01*
X505345Y334679D01*
X505340Y334680D01*
X505335Y334682D01*
X505179Y334721D01*
X504679Y334812D01*
X504560Y334818D01*
X504442Y334832D01*
X504402Y334827D01*
X504361Y334829D01*
X504244Y334805D01*
X504126Y334790D01*
X504089Y334775D01*
X504049Y334767D01*
X503942Y334715D01*
X503832Y334670D01*
X503799Y334646D01*
X503763Y334629D01*
X503672Y334552D01*
X503576Y334481D01*
X503550Y334450D01*
X503519Y334424D01*
X503450Y334327D01*
X503375Y334235D01*
X503358Y334198D01*
X503335Y334165D01*
X503292Y334054D01*
X503242Y333946D01*
X503227Y333888D01*
X503220Y333869D01*
X503217Y333848D01*
X503203Y333790D01*
X503168Y333597D01*
X496650Y329084D01*
X496457Y329119D01*
X496339Y329125D01*
X496220Y329139D01*
X496180Y329134D01*
X496140Y329136D01*
X496023Y329113D01*
X495905Y329097D01*
X495867Y329082D01*
X495828Y329074D01*
X495721Y329022D01*
X495610Y328977D01*
X495578Y328953D01*
X495541Y328936D01*
X495450Y328859D01*
X495354Y328789D01*
X495329Y328757D01*
X495298Y328731D01*
X495229Y328634D01*
X495154Y328542D01*
X495137Y328505D01*
X495113Y328472D01*
X495070Y328361D01*
X495020Y328253D01*
X495006Y328195D01*
X494998Y328176D01*
X494996Y328156D01*
X494981Y328097D01*
X494946Y327904D01*
X488428Y323391D01*
X487549Y323551D01*
X487437Y323557D01*
X487325Y323571D01*
X487278Y323565D01*
X487231Y323568D01*
X487121Y323546D01*
X487010Y323532D01*
X486966Y323515D01*
X486920Y323506D01*
X486818Y323457D01*
X486714Y323416D01*
X486675Y323388D01*
X486633Y323368D01*
X486547Y323296D01*
X486456Y323230D01*
X486426Y323194D01*
X486390Y323163D01*
X486324Y323072D01*
X486252Y322985D01*
X486217Y322922D01*
X486205Y322904D01*
X486198Y322887D01*
X486174Y322844D01*
X486074Y322631D01*
X485554Y322019D01*
X484409Y321226D01*
X479251Y328675D01*
X479172Y328764D01*
X479098Y328857D01*
X479066Y328882D01*
X479039Y328912D01*
X478940Y328978D01*
X478845Y329050D01*
X478808Y329066D01*
X478775Y329088D01*
X478662Y329128D01*
X478552Y329174D01*
X478513Y329180D01*
X478474Y329193D01*
X478356Y329204D01*
X478238Y329221D01*
X478198Y329217D01*
X478158Y329221D01*
X478111Y329213D01*
X478022Y329244D01*
X477912Y329290D01*
X477872Y329296D01*
X477834Y329310D01*
X477716Y329320D01*
X477598Y329338D01*
X477557Y329334D01*
X477517Y329337D01*
X477400Y329318D01*
X477281Y329305D01*
X477243Y329291D01*
X477203Y329285D01*
X477095Y329237D01*
X476983Y329195D01*
X476931Y329164D01*
X476913Y329156D01*
X476897Y329143D01*
X476845Y329112D01*
X472479Y326089D01*
X469552Y330317D01*
X469281Y331073D01*
X469215Y331874D01*
X469359Y332664D01*
X469702Y333390D01*
X470177Y333951D01*
X470225Y334024D01*
X470281Y334091D01*
X470312Y334157D01*
X470351Y334217D01*
X470379Y334300D01*
X470416Y334379D01*
X470430Y334450D01*
X470453Y334519D01*
X470460Y334606D01*
X470476Y334692D01*
X470472Y334764D01*
X470477Y334836D01*
X470462Y334922D01*
X470456Y335009D01*
X470434Y335078D01*
X470421Y335149D01*
X470385Y335228D01*
X470358Y335311D01*
X470320Y335373D01*
X470290Y335438D01*
X470235Y335506D01*
X470188Y335580D01*
X470136Y335630D01*
X470090Y335686D01*
X470020Y335738D01*
X469957Y335798D01*
X469893Y335833D01*
X469835Y335876D01*
X469755Y335909D01*
X469678Y335952D01*
X469608Y335970D01*
X469541Y335997D01*
X469455Y336009D01*
X469370Y336031D01*
X469239Y336039D01*
X469226Y336041D01*
X469221Y336041D01*
X469209Y336041D01*
X465121Y336041D01*
X465022Y336029D01*
X464923Y336026D01*
X464865Y336009D01*
X464805Y336001D01*
X464713Y335965D01*
X464618Y335937D01*
X464566Y335907D01*
X464509Y335884D01*
X464429Y335826D01*
X464344Y335776D01*
X464269Y335710D01*
X464252Y335698D01*
X464244Y335688D01*
X464223Y335670D01*
X441109Y312555D01*
X441024Y312446D01*
X440935Y312339D01*
X440927Y312320D01*
X440914Y312304D01*
X440859Y312176D01*
X440800Y312051D01*
X440796Y312031D01*
X440788Y312012D01*
X440766Y311874D01*
X440740Y311738D01*
X440741Y311718D01*
X440738Y311698D01*
X440751Y311559D01*
X440760Y311421D01*
X440766Y311402D01*
X440768Y311382D01*
X440815Y311250D01*
X440858Y311119D01*
X440869Y311101D01*
X440875Y311082D01*
X440953Y310967D01*
X441028Y310850D01*
X441043Y310836D01*
X441054Y310819D01*
X441158Y310727D01*
X441259Y310632D01*
X441277Y310622D01*
X441292Y310609D01*
X441416Y310545D01*
X441538Y310478D01*
X441558Y310473D01*
X441576Y310464D01*
X441711Y310434D01*
X441846Y310399D01*
X441874Y310397D01*
X441886Y310394D01*
X441906Y310395D01*
X442007Y310389D01*
X489175Y310389D01*
X489274Y310401D01*
G37*
%LPC*%
G36*
X342292Y442851D02*
X342292Y442851D01*
X349365Y446119D01*
X349949Y444855D01*
X350085Y444064D01*
X350012Y443264D01*
X349735Y442510D01*
X349272Y441854D01*
X348655Y441339D01*
X343987Y439182D01*
X342292Y442851D01*
G37*
%LPD*%
%LPC*%
G36*
X212164Y130534D02*
X212164Y130534D01*
X212683Y131826D01*
X213165Y132468D01*
X213798Y132964D01*
X214536Y133279D01*
X215332Y133392D01*
X216129Y133296D01*
X220900Y131378D01*
X219393Y127628D01*
X212164Y130534D01*
G37*
%LPD*%
%LPC*%
G36*
X222175Y126509D02*
X222175Y126509D01*
X223682Y130259D01*
X228454Y128341D01*
X229096Y127859D01*
X229592Y127227D01*
X229907Y126488D01*
X230020Y125693D01*
X229924Y124895D01*
X229404Y123603D01*
X222175Y126509D01*
G37*
%LPD*%
%LPC*%
G36*
X153659Y344399D02*
X153659Y344399D01*
X153659Y352191D01*
X155052Y352191D01*
X155828Y351983D01*
X156523Y351581D01*
X157091Y351013D01*
X157493Y350318D01*
X157701Y349542D01*
X157701Y344399D01*
X153659Y344399D01*
G37*
%LPD*%
%LPC*%
G36*
X153659Y333609D02*
X153659Y333609D01*
X153659Y341401D01*
X157701Y341401D01*
X157701Y336258D01*
X157493Y335482D01*
X157091Y334787D01*
X156523Y334219D01*
X155828Y333817D01*
X155052Y333609D01*
X153659Y333609D01*
G37*
%LPD*%
%LPC*%
G36*
X478452Y318533D02*
X478452Y318533D01*
X477726Y318877D01*
X477113Y319396D01*
X474186Y323624D01*
X477509Y325925D01*
X481944Y319519D01*
X480800Y318726D01*
X480043Y318456D01*
X479243Y318390D01*
X478452Y318533D01*
G37*
%LPD*%
%LPC*%
G36*
X424381Y110506D02*
X424381Y110506D01*
X423824Y111085D01*
X423436Y111788D01*
X423243Y112568D01*
X423258Y113371D01*
X423481Y114143D01*
X426137Y118546D01*
X429598Y116459D01*
X425573Y109787D01*
X424381Y110506D01*
G37*
%LPD*%
%LPC*%
G36*
X308449Y366989D02*
X308449Y366989D01*
X308449Y372031D01*
X309982Y372031D01*
X311010Y371755D01*
X311931Y371223D01*
X312683Y370471D01*
X313215Y369550D01*
X313491Y368522D01*
X313491Y366989D01*
X308449Y366989D01*
G37*
%LPD*%
D10*
X180085Y149877D02*
X184202Y160119D01*
X201867Y153017D01*
X197750Y142775D01*
X180085Y149877D01*
X195482Y143687D02*
X198117Y143687D01*
X198483Y144599D02*
X193213Y144599D01*
X190945Y145511D02*
X198850Y145511D01*
X199216Y146423D02*
X188676Y146423D01*
X186408Y147335D02*
X199583Y147335D01*
X199950Y148247D02*
X184139Y148247D01*
X181871Y149159D02*
X200316Y149159D01*
X200683Y150071D02*
X180163Y150071D01*
X180530Y150983D02*
X201049Y150983D01*
X201416Y151895D02*
X180896Y151895D01*
X181263Y152807D02*
X201783Y152807D01*
X200121Y153719D02*
X181629Y153719D01*
X181996Y154631D02*
X197852Y154631D01*
X195584Y155543D02*
X182363Y155543D01*
X182729Y156455D02*
X193316Y156455D01*
X191047Y157367D02*
X183096Y157367D01*
X183462Y158279D02*
X188779Y158279D01*
X186510Y159191D02*
X183829Y159191D01*
X184196Y160103D02*
X184242Y160103D01*
X163314Y108160D02*
X159197Y97918D01*
X163314Y108160D02*
X180979Y101058D01*
X176862Y90816D01*
X159197Y97918D01*
X174594Y91728D02*
X177229Y91728D01*
X177595Y92640D02*
X172325Y92640D01*
X170057Y93552D02*
X177962Y93552D01*
X178328Y94464D02*
X167788Y94464D01*
X165520Y95376D02*
X178695Y95376D01*
X179062Y96288D02*
X163251Y96288D01*
X160983Y97200D02*
X179428Y97200D01*
X179795Y98112D02*
X159275Y98112D01*
X159642Y99024D02*
X180161Y99024D01*
X180528Y99936D02*
X160008Y99936D01*
X160375Y100848D02*
X180895Y100848D01*
X179233Y101760D02*
X160741Y101760D01*
X161108Y102672D02*
X176964Y102672D01*
X174696Y103584D02*
X161475Y103584D01*
X161841Y104496D02*
X172428Y104496D01*
X170159Y105408D02*
X162208Y105408D01*
X162574Y106320D02*
X167891Y106320D01*
X165622Y107232D02*
X162941Y107232D01*
X163308Y108144D02*
X163354Y108144D01*
D11*
X213507Y125695D02*
X215365Y130315D01*
X226943Y125661D01*
X225085Y121041D01*
X213507Y125695D01*
X222674Y122010D02*
X225475Y122010D01*
X225864Y122979D02*
X220264Y122979D01*
X217853Y123948D02*
X226254Y123948D01*
X226644Y124917D02*
X215442Y124917D01*
X213584Y125886D02*
X226383Y125886D01*
X223973Y126855D02*
X213974Y126855D01*
X214363Y127824D02*
X221562Y127824D01*
X219151Y128793D02*
X214753Y128793D01*
X215143Y129762D02*
X216741Y129762D01*
X211635Y121036D02*
X209777Y116416D01*
X211635Y121036D02*
X223213Y116382D01*
X221355Y111762D01*
X209777Y116416D01*
X218944Y112731D02*
X221745Y112731D01*
X222134Y113700D02*
X216534Y113700D01*
X214123Y114669D02*
X222524Y114669D01*
X222914Y115638D02*
X211712Y115638D01*
X209854Y116607D02*
X222653Y116607D01*
X220243Y117576D02*
X210244Y117576D01*
X210633Y118545D02*
X217832Y118545D01*
X215421Y119514D02*
X211023Y119514D01*
X211413Y120483D02*
X213011Y120483D01*
X207905Y111758D02*
X206047Y107138D01*
X207905Y111758D02*
X219483Y107104D01*
X217625Y102484D01*
X206047Y107138D01*
X215214Y103453D02*
X218015Y103453D01*
X218404Y104422D02*
X212804Y104422D01*
X210393Y105391D02*
X218794Y105391D01*
X219184Y106360D02*
X207982Y106360D01*
X206124Y107329D02*
X218923Y107329D01*
X216513Y108298D02*
X206514Y108298D01*
X206903Y109267D02*
X214102Y109267D01*
X211691Y110236D02*
X207293Y110236D01*
X207683Y111205D02*
X209281Y111205D01*
X204175Y102479D02*
X202317Y97859D01*
X204175Y102479D02*
X215753Y97825D01*
X213895Y93205D01*
X202317Y97859D01*
X211484Y94174D02*
X214285Y94174D01*
X214674Y95143D02*
X209074Y95143D01*
X206663Y96112D02*
X215064Y96112D01*
X215454Y97081D02*
X204252Y97081D01*
X202394Y98050D02*
X215193Y98050D01*
X212783Y99019D02*
X202784Y99019D01*
X203173Y99988D02*
X210372Y99988D01*
X207961Y100957D02*
X203563Y100957D01*
X203953Y101926D02*
X205551Y101926D01*
D10*
X391899Y86915D02*
X401352Y81213D01*
X391899Y86915D02*
X401732Y103217D01*
X411185Y97515D01*
X401352Y81213D01*
X401902Y82125D02*
X399840Y82125D01*
X398328Y83037D02*
X402452Y83037D01*
X403002Y83949D02*
X396816Y83949D01*
X395304Y84861D02*
X403552Y84861D01*
X404102Y85773D02*
X393792Y85773D01*
X392280Y86685D02*
X404653Y86685D01*
X405203Y87597D02*
X392310Y87597D01*
X392860Y88509D02*
X405753Y88509D01*
X406303Y89421D02*
X393411Y89421D01*
X393961Y90333D02*
X406853Y90333D01*
X407403Y91245D02*
X394511Y91245D01*
X395061Y92157D02*
X407953Y92157D01*
X408503Y93069D02*
X395611Y93069D01*
X396161Y93981D02*
X409053Y93981D01*
X409603Y94893D02*
X396711Y94893D01*
X397261Y95805D02*
X410154Y95805D01*
X410704Y96717D02*
X397811Y96717D01*
X398361Y97629D02*
X410996Y97629D01*
X409484Y98541D02*
X398912Y98541D01*
X399462Y99453D02*
X407972Y99453D01*
X406460Y100365D02*
X400012Y100365D01*
X400562Y101277D02*
X404948Y101277D01*
X403436Y102189D02*
X401112Y102189D01*
X401662Y103101D02*
X401924Y103101D01*
X439850Y57989D02*
X449303Y52287D01*
X439850Y57989D02*
X449683Y74291D01*
X459136Y68589D01*
X449303Y52287D01*
X449853Y53199D02*
X447791Y53199D01*
X446279Y54111D02*
X450403Y54111D01*
X450953Y55023D02*
X444767Y55023D01*
X443255Y55935D02*
X451503Y55935D01*
X452053Y56847D02*
X441743Y56847D01*
X440231Y57759D02*
X452604Y57759D01*
X453154Y58671D02*
X440261Y58671D01*
X440811Y59583D02*
X453704Y59583D01*
X454254Y60495D02*
X441362Y60495D01*
X441912Y61407D02*
X454804Y61407D01*
X455354Y62319D02*
X442462Y62319D01*
X443012Y63231D02*
X455904Y63231D01*
X456454Y64143D02*
X443562Y64143D01*
X444112Y65055D02*
X457004Y65055D01*
X457554Y65967D02*
X444662Y65967D01*
X445212Y66879D02*
X458105Y66879D01*
X458655Y67791D02*
X445762Y67791D01*
X446312Y68703D02*
X458947Y68703D01*
X457435Y69615D02*
X446863Y69615D01*
X447413Y70527D02*
X455923Y70527D01*
X454411Y71439D02*
X447963Y71439D01*
X448513Y72351D02*
X452899Y72351D01*
X451387Y73263D02*
X449063Y73263D01*
X449613Y74175D02*
X449875Y74175D01*
D11*
X430565Y110339D02*
X426301Y112912D01*
X432747Y123597D01*
X437011Y121024D01*
X430565Y110339D01*
X431150Y111308D02*
X428959Y111308D01*
X427353Y112277D02*
X431734Y112277D01*
X432319Y113246D02*
X426502Y113246D01*
X427087Y114215D02*
X432903Y114215D01*
X433488Y115184D02*
X427672Y115184D01*
X428256Y116153D02*
X434072Y116153D01*
X434657Y117122D02*
X428841Y117122D01*
X429425Y118091D02*
X435242Y118091D01*
X435826Y119060D02*
X430010Y119060D01*
X430595Y120029D02*
X436411Y120029D01*
X436995Y120998D02*
X431179Y120998D01*
X431764Y121967D02*
X435448Y121967D01*
X433842Y122936D02*
X432348Y122936D01*
X434864Y107747D02*
X439128Y105174D01*
X434864Y107747D02*
X441310Y118432D01*
X445574Y115859D01*
X439128Y105174D01*
X439713Y106143D02*
X437522Y106143D01*
X435916Y107112D02*
X440297Y107112D01*
X440882Y108081D02*
X435065Y108081D01*
X435650Y109050D02*
X441466Y109050D01*
X442051Y110019D02*
X436235Y110019D01*
X436819Y110988D02*
X442635Y110988D01*
X443220Y111957D02*
X437404Y111957D01*
X437988Y112926D02*
X443805Y112926D01*
X444389Y113895D02*
X438573Y113895D01*
X439158Y114864D02*
X444974Y114864D01*
X445558Y115833D02*
X439742Y115833D01*
X440327Y116802D02*
X444011Y116802D01*
X442405Y117771D02*
X440911Y117771D01*
X443426Y102581D02*
X447690Y100008D01*
X443426Y102581D02*
X449872Y113266D01*
X454136Y110693D01*
X447690Y100008D01*
X448275Y100977D02*
X446084Y100977D01*
X444478Y101946D02*
X448859Y101946D01*
X449444Y102915D02*
X443627Y102915D01*
X444212Y103884D02*
X450028Y103884D01*
X450613Y104853D02*
X444797Y104853D01*
X445381Y105822D02*
X451197Y105822D01*
X451782Y106791D02*
X445966Y106791D01*
X446550Y107760D02*
X452367Y107760D01*
X452951Y108729D02*
X447135Y108729D01*
X447720Y109698D02*
X453536Y109698D01*
X454120Y110667D02*
X448304Y110667D01*
X448889Y111636D02*
X452573Y111636D01*
X450967Y112605D02*
X449473Y112605D01*
X451989Y97416D02*
X456253Y94843D01*
X451989Y97416D02*
X458435Y108101D01*
X462699Y105528D01*
X456253Y94843D01*
X456838Y95812D02*
X454647Y95812D01*
X453041Y96781D02*
X457422Y96781D01*
X458007Y97750D02*
X452190Y97750D01*
X452775Y98719D02*
X458591Y98719D01*
X459176Y99688D02*
X453360Y99688D01*
X453944Y100657D02*
X459760Y100657D01*
X460345Y101626D02*
X454529Y101626D01*
X455113Y102595D02*
X460930Y102595D01*
X461514Y103564D02*
X455698Y103564D01*
X456283Y104533D02*
X462099Y104533D01*
X462683Y105502D02*
X456867Y105502D01*
X457452Y106471D02*
X461136Y106471D01*
X459530Y107440D02*
X458036Y107440D01*
D10*
X489002Y279427D02*
X498078Y285712D01*
X489002Y279427D02*
X478164Y295080D01*
X487240Y301365D01*
X498078Y285712D01*
X490319Y280339D02*
X488371Y280339D01*
X487739Y281251D02*
X491636Y281251D01*
X492953Y282163D02*
X487108Y282163D01*
X486476Y283075D02*
X494270Y283075D01*
X495587Y283987D02*
X485845Y283987D01*
X485213Y284899D02*
X496904Y284899D01*
X498009Y285811D02*
X484582Y285811D01*
X483950Y286723D02*
X497378Y286723D01*
X496747Y287635D02*
X483319Y287635D01*
X482687Y288547D02*
X496115Y288547D01*
X495484Y289459D02*
X482056Y289459D01*
X481424Y290371D02*
X494852Y290371D01*
X494221Y291283D02*
X480793Y291283D01*
X480162Y292195D02*
X493589Y292195D01*
X492958Y293107D02*
X479530Y293107D01*
X478899Y294019D02*
X492326Y294019D01*
X491695Y294931D02*
X478267Y294931D01*
X479266Y295843D02*
X491063Y295843D01*
X490432Y296755D02*
X480583Y296755D01*
X481900Y297667D02*
X489800Y297667D01*
X489169Y298579D02*
X483217Y298579D01*
X484534Y299491D02*
X488538Y299491D01*
X487906Y300403D02*
X485851Y300403D01*
X487168Y301315D02*
X487275Y301315D01*
X535042Y311307D02*
X544118Y317592D01*
X535042Y311307D02*
X524204Y326960D01*
X533280Y333245D01*
X544118Y317592D01*
X536359Y312219D02*
X534411Y312219D01*
X533779Y313131D02*
X537676Y313131D01*
X538993Y314043D02*
X533148Y314043D01*
X532516Y314955D02*
X540310Y314955D01*
X541627Y315867D02*
X531885Y315867D01*
X531253Y316779D02*
X542944Y316779D01*
X544049Y317691D02*
X530622Y317691D01*
X529990Y318603D02*
X543418Y318603D01*
X542787Y319515D02*
X529359Y319515D01*
X528727Y320427D02*
X542155Y320427D01*
X541524Y321339D02*
X528096Y321339D01*
X527464Y322251D02*
X540892Y322251D01*
X540261Y323163D02*
X526833Y323163D01*
X526202Y324075D02*
X539629Y324075D01*
X538998Y324987D02*
X525570Y324987D01*
X524939Y325899D02*
X538366Y325899D01*
X537735Y326811D02*
X524307Y326811D01*
X525306Y327723D02*
X537103Y327723D01*
X536472Y328635D02*
X526623Y328635D01*
X527940Y329547D02*
X535840Y329547D01*
X535209Y330459D02*
X529257Y330459D01*
X530574Y331371D02*
X534578Y331371D01*
X533946Y332283D02*
X531891Y332283D01*
X533208Y333195D02*
X533315Y333195D01*
D11*
X483487Y324299D02*
X479393Y321464D01*
X472289Y331723D01*
X476383Y334558D01*
X483487Y324299D01*
X480792Y322433D02*
X478722Y322433D01*
X478051Y323402D02*
X482192Y323402D01*
X483437Y324371D02*
X477380Y324371D01*
X476709Y325340D02*
X482766Y325340D01*
X482095Y326309D02*
X476038Y326309D01*
X475367Y327278D02*
X481424Y327278D01*
X480753Y328247D02*
X474696Y328247D01*
X474025Y329216D02*
X480082Y329216D01*
X479411Y330185D02*
X473354Y330185D01*
X472683Y331154D02*
X478740Y331154D01*
X478069Y332123D02*
X472867Y332123D01*
X474266Y333092D02*
X477398Y333092D01*
X476727Y334061D02*
X475665Y334061D01*
X487614Y327157D02*
X491708Y329992D01*
X487614Y327157D02*
X480510Y337416D01*
X484604Y340251D01*
X491708Y329992D01*
X489013Y328126D02*
X486943Y328126D01*
X486272Y329095D02*
X490413Y329095D01*
X491658Y330064D02*
X485601Y330064D01*
X484930Y331033D02*
X490987Y331033D01*
X490316Y332002D02*
X484259Y332002D01*
X483588Y332971D02*
X489645Y332971D01*
X488974Y333940D02*
X482917Y333940D01*
X482246Y334909D02*
X488303Y334909D01*
X487632Y335878D02*
X481575Y335878D01*
X480904Y336847D02*
X486961Y336847D01*
X486290Y337816D02*
X481088Y337816D01*
X482487Y338785D02*
X485619Y338785D01*
X484948Y339754D02*
X483886Y339754D01*
X495836Y332849D02*
X499930Y335684D01*
X495836Y332849D02*
X488732Y343108D01*
X492826Y345943D01*
X499930Y335684D01*
X497235Y333818D02*
X495165Y333818D01*
X494494Y334787D02*
X498635Y334787D01*
X499880Y335756D02*
X493823Y335756D01*
X493152Y336725D02*
X499209Y336725D01*
X498538Y337694D02*
X492481Y337694D01*
X491810Y338663D02*
X497867Y338663D01*
X497196Y339632D02*
X491139Y339632D01*
X490468Y340601D02*
X496525Y340601D01*
X495854Y341570D02*
X489797Y341570D01*
X489126Y342539D02*
X495183Y342539D01*
X494512Y343508D02*
X489310Y343508D01*
X490709Y344477D02*
X493841Y344477D01*
X493170Y345446D02*
X492108Y345446D01*
X504057Y338542D02*
X508151Y341377D01*
X504057Y338542D02*
X496953Y348801D01*
X501047Y351636D01*
X508151Y341377D01*
X505456Y339511D02*
X503386Y339511D01*
X502715Y340480D02*
X506856Y340480D01*
X508101Y341449D02*
X502044Y341449D01*
X501373Y342418D02*
X507430Y342418D01*
X506759Y343387D02*
X500702Y343387D01*
X500031Y344356D02*
X506088Y344356D01*
X505417Y345325D02*
X499360Y345325D01*
X498689Y346294D02*
X504746Y346294D01*
X504075Y347263D02*
X498018Y347263D01*
X497347Y348232D02*
X503404Y348232D01*
X502733Y349201D02*
X497531Y349201D01*
X498930Y350170D02*
X502062Y350170D01*
X501391Y351139D02*
X500329Y351139D01*
D10*
X170680Y389170D02*
X159640Y389170D01*
X170680Y389170D02*
X170680Y370130D01*
X159640Y370130D01*
X159640Y389170D01*
X159640Y371042D02*
X170680Y371042D01*
X170680Y371954D02*
X159640Y371954D01*
X159640Y372866D02*
X170680Y372866D01*
X170680Y373778D02*
X159640Y373778D01*
X159640Y374690D02*
X170680Y374690D01*
X170680Y375602D02*
X159640Y375602D01*
X159640Y376514D02*
X170680Y376514D01*
X170680Y377426D02*
X159640Y377426D01*
X159640Y378338D02*
X170680Y378338D01*
X170680Y379250D02*
X159640Y379250D01*
X159640Y380162D02*
X170680Y380162D01*
X170680Y381074D02*
X159640Y381074D01*
X159640Y381986D02*
X170680Y381986D01*
X170680Y382898D02*
X159640Y382898D01*
X159640Y383810D02*
X170680Y383810D01*
X170680Y384722D02*
X159640Y384722D01*
X159640Y385634D02*
X170680Y385634D01*
X170680Y386546D02*
X159640Y386546D01*
X159640Y387458D02*
X170680Y387458D01*
X170680Y388370D02*
X159640Y388370D01*
X114680Y389170D02*
X103640Y389170D01*
X114680Y389170D02*
X114680Y370130D01*
X103640Y370130D01*
X103640Y389170D01*
X103640Y371042D02*
X114680Y371042D01*
X114680Y371954D02*
X103640Y371954D01*
X103640Y372866D02*
X114680Y372866D01*
X114680Y373778D02*
X103640Y373778D01*
X103640Y374690D02*
X114680Y374690D01*
X114680Y375602D02*
X103640Y375602D01*
X103640Y376514D02*
X114680Y376514D01*
X114680Y377426D02*
X103640Y377426D01*
X103640Y378338D02*
X114680Y378338D01*
X114680Y379250D02*
X103640Y379250D01*
X103640Y380162D02*
X114680Y380162D01*
X114680Y381074D02*
X103640Y381074D01*
X103640Y381986D02*
X114680Y381986D01*
X114680Y382898D02*
X103640Y382898D01*
X103640Y383810D02*
X114680Y383810D01*
X114680Y384722D02*
X103640Y384722D01*
X103640Y385634D02*
X114680Y385634D01*
X114680Y386546D02*
X103640Y386546D01*
X103640Y387458D02*
X114680Y387458D01*
X114680Y388370D02*
X103640Y388370D01*
D11*
X149670Y349140D02*
X154650Y349140D01*
X154650Y336660D01*
X149670Y336660D01*
X149670Y349140D01*
X149670Y337629D02*
X154650Y337629D01*
X154650Y338598D02*
X149670Y338598D01*
X149670Y339567D02*
X154650Y339567D01*
X154650Y340536D02*
X149670Y340536D01*
X149670Y341505D02*
X154650Y341505D01*
X154650Y342474D02*
X149670Y342474D01*
X149670Y343443D02*
X154650Y343443D01*
X154650Y344412D02*
X149670Y344412D01*
X149670Y345381D02*
X154650Y345381D01*
X154650Y346350D02*
X149670Y346350D01*
X149670Y347319D02*
X154650Y347319D01*
X154650Y348288D02*
X149670Y348288D01*
X144650Y349140D02*
X139670Y349140D01*
X144650Y349140D02*
X144650Y336660D01*
X139670Y336660D01*
X139670Y349140D01*
X139670Y337629D02*
X144650Y337629D01*
X144650Y338598D02*
X139670Y338598D01*
X139670Y339567D02*
X144650Y339567D01*
X144650Y340536D02*
X139670Y340536D01*
X139670Y341505D02*
X144650Y341505D01*
X144650Y342474D02*
X139670Y342474D01*
X139670Y343443D02*
X144650Y343443D01*
X144650Y344412D02*
X139670Y344412D01*
X139670Y345381D02*
X144650Y345381D01*
X144650Y346350D02*
X139670Y346350D01*
X139670Y347319D02*
X144650Y347319D01*
X144650Y348288D02*
X139670Y348288D01*
X134650Y349140D02*
X129670Y349140D01*
X134650Y349140D02*
X134650Y336660D01*
X129670Y336660D01*
X129670Y349140D01*
X129670Y337629D02*
X134650Y337629D01*
X134650Y338598D02*
X129670Y338598D01*
X129670Y339567D02*
X134650Y339567D01*
X134650Y340536D02*
X129670Y340536D01*
X129670Y341505D02*
X134650Y341505D01*
X134650Y342474D02*
X129670Y342474D01*
X129670Y343443D02*
X134650Y343443D01*
X134650Y344412D02*
X129670Y344412D01*
X129670Y345381D02*
X134650Y345381D01*
X134650Y346350D02*
X129670Y346350D01*
X129670Y347319D02*
X134650Y347319D01*
X134650Y348288D02*
X129670Y348288D01*
X124650Y349140D02*
X119670Y349140D01*
X124650Y349140D02*
X124650Y336660D01*
X119670Y336660D01*
X119670Y349140D01*
X119670Y337629D02*
X124650Y337629D01*
X124650Y338598D02*
X119670Y338598D01*
X119670Y339567D02*
X124650Y339567D01*
X124650Y340536D02*
X119670Y340536D01*
X119670Y341505D02*
X124650Y341505D01*
X124650Y342474D02*
X119670Y342474D01*
X119670Y343443D02*
X124650Y343443D01*
X124650Y344412D02*
X119670Y344412D01*
X119670Y345381D02*
X124650Y345381D01*
X124650Y346350D02*
X119670Y346350D01*
X119670Y347319D02*
X124650Y347319D01*
X124650Y348288D02*
X119670Y348288D01*
D12*
X302450Y360990D02*
X302450Y367990D01*
X309450Y367990D01*
X309450Y360990D01*
X302450Y360990D01*
X302450Y363840D02*
X309450Y363840D01*
X309450Y366690D02*
X302450Y366690D01*
X284910Y367990D02*
X284910Y360990D01*
X284910Y367990D02*
X291910Y367990D01*
X291910Y360990D01*
X284910Y360990D01*
X284910Y363840D02*
X291910Y363840D01*
X291910Y366690D02*
X284910Y366690D01*
D13*
X283680Y344750D02*
X293680Y344750D01*
X283680Y344750D02*
X283680Y353750D01*
X293680Y353750D01*
X293680Y344750D01*
X293680Y345700D02*
X283680Y345700D01*
X283680Y346650D02*
X293680Y346650D01*
X293680Y347600D02*
X283680Y347600D01*
X283680Y348550D02*
X293680Y348550D01*
X293680Y349500D02*
X283680Y349500D01*
X283680Y350450D02*
X293680Y350450D01*
X293680Y351400D02*
X283680Y351400D01*
X283680Y352350D02*
X293680Y352350D01*
X293680Y353300D02*
X283680Y353300D01*
X300680Y344750D02*
X310680Y344750D01*
X300680Y344750D02*
X300680Y353750D01*
X310680Y353750D01*
X310680Y344750D01*
X310680Y345700D02*
X300680Y345700D01*
X300680Y346650D02*
X310680Y346650D01*
X310680Y347600D02*
X300680Y347600D01*
X300680Y348550D02*
X310680Y348550D01*
X310680Y349500D02*
X300680Y349500D01*
X300680Y350450D02*
X310680Y350450D01*
X310680Y351400D02*
X300680Y351400D01*
X300680Y352350D02*
X310680Y352350D01*
X310680Y353300D02*
X300680Y353300D01*
D14*
X139700Y38100D03*
X330200Y571500D03*
D10*
X385441Y456201D02*
X390072Y446180D01*
X372789Y438193D01*
X368158Y448214D01*
X385441Y456201D01*
X374762Y439105D02*
X372368Y439105D01*
X371946Y440017D02*
X376736Y440017D01*
X378709Y440929D02*
X371525Y440929D01*
X371103Y441841D02*
X380683Y441841D01*
X382656Y442753D02*
X370682Y442753D01*
X370260Y443665D02*
X384630Y443665D01*
X386603Y444577D02*
X369839Y444577D01*
X369417Y445489D02*
X388577Y445489D01*
X389970Y446401D02*
X368996Y446401D01*
X368574Y447313D02*
X389548Y447313D01*
X389127Y448225D02*
X368182Y448225D01*
X370155Y449137D02*
X388705Y449137D01*
X388284Y450049D02*
X372129Y450049D01*
X374102Y450961D02*
X387863Y450961D01*
X387441Y451873D02*
X376076Y451873D01*
X378049Y452785D02*
X387020Y452785D01*
X386598Y453697D02*
X380023Y453697D01*
X381996Y454609D02*
X386177Y454609D01*
X385755Y455521D02*
X383970Y455521D01*
X366583Y497016D02*
X361952Y507037D01*
X366583Y497016D02*
X349300Y489029D01*
X344669Y499050D01*
X361952Y507037D01*
X351273Y489941D02*
X348879Y489941D01*
X348457Y490853D02*
X353247Y490853D01*
X355220Y491765D02*
X348036Y491765D01*
X347614Y492677D02*
X357194Y492677D01*
X359167Y493589D02*
X347193Y493589D01*
X346771Y494501D02*
X361141Y494501D01*
X363114Y495413D02*
X346350Y495413D01*
X345928Y496325D02*
X365088Y496325D01*
X366481Y497237D02*
X345507Y497237D01*
X345085Y498149D02*
X366059Y498149D01*
X365638Y499061D02*
X344693Y499061D01*
X346666Y499973D02*
X365216Y499973D01*
X364795Y500885D02*
X348640Y500885D01*
X350613Y501797D02*
X364374Y501797D01*
X363952Y502709D02*
X352587Y502709D01*
X354560Y503621D02*
X363531Y503621D01*
X363109Y504533D02*
X356534Y504533D01*
X358507Y505445D02*
X362688Y505445D01*
X362266Y506357D02*
X360481Y506357D01*
D11*
X344922Y448460D02*
X347010Y443940D01*
X335682Y438706D01*
X333594Y443226D01*
X344922Y448460D01*
X337779Y439675D02*
X335234Y439675D01*
X334787Y440644D02*
X339876Y440644D01*
X341974Y441613D02*
X334339Y441613D01*
X333891Y442582D02*
X344071Y442582D01*
X346168Y443551D02*
X334297Y443551D01*
X336395Y444520D02*
X346742Y444520D01*
X346294Y445489D02*
X338492Y445489D01*
X340589Y446458D02*
X345847Y446458D01*
X345399Y447427D02*
X342686Y447427D01*
X344783Y448396D02*
X344952Y448396D01*
X342815Y453018D02*
X340727Y457538D01*
X342815Y453018D02*
X331487Y447784D01*
X329399Y452304D01*
X340727Y457538D01*
X333584Y448753D02*
X331039Y448753D01*
X330592Y449722D02*
X335681Y449722D01*
X337779Y450691D02*
X330144Y450691D01*
X329696Y451660D02*
X339876Y451660D01*
X341973Y452629D02*
X330102Y452629D01*
X332200Y453598D02*
X342547Y453598D01*
X342099Y454567D02*
X334297Y454567D01*
X336394Y455536D02*
X341652Y455536D01*
X341204Y456505D02*
X338491Y456505D01*
X340588Y457474D02*
X340757Y457474D01*
X338621Y462096D02*
X336533Y466616D01*
X338621Y462096D02*
X327293Y456862D01*
X325205Y461382D01*
X336533Y466616D01*
X329390Y457831D02*
X326845Y457831D01*
X326398Y458800D02*
X331487Y458800D01*
X333585Y459769D02*
X325950Y459769D01*
X325502Y460738D02*
X335682Y460738D01*
X337779Y461707D02*
X325908Y461707D01*
X328006Y462676D02*
X338353Y462676D01*
X337905Y463645D02*
X330103Y463645D01*
X332200Y464614D02*
X337458Y464614D01*
X337010Y465583D02*
X334297Y465583D01*
X336394Y466552D02*
X336563Y466552D01*
X334426Y471174D02*
X332338Y475694D01*
X334426Y471174D02*
X323098Y465940D01*
X321010Y470460D01*
X332338Y475694D01*
X325195Y466909D02*
X322650Y466909D01*
X322203Y467878D02*
X327292Y467878D01*
X329390Y468847D02*
X321755Y468847D01*
X321307Y469816D02*
X331487Y469816D01*
X333584Y470785D02*
X321713Y470785D01*
X323811Y471754D02*
X334158Y471754D01*
X333710Y472723D02*
X325908Y472723D01*
X328005Y473692D02*
X333263Y473692D01*
X332815Y474661D02*
X330102Y474661D01*
X332199Y475630D02*
X332368Y475630D01*
D15*
X502552Y345089D02*
X510540Y337101D01*
X510540Y325120D01*
X491490Y306070D01*
X122160Y321070D02*
X122160Y342900D01*
X438150Y306070D02*
X491490Y306070D01*
X438150Y306070D02*
X415290Y283210D01*
X326390Y283210D01*
X160020Y283210D01*
X122160Y321070D01*
X306070Y449168D02*
X327718Y470817D01*
X306070Y449168D02*
X306070Y407670D01*
D16*
X306070Y407670D03*
X326390Y283210D03*
D15*
X209035Y97842D02*
X211628Y95250D01*
X326390Y227330D02*
X326390Y283210D01*
X247650Y95250D02*
X211628Y95250D01*
X247650Y95250D02*
X265430Y113030D01*
X265430Y186690D01*
X306070Y227330D01*
X457344Y101472D02*
X462280Y106408D01*
X369570Y227330D02*
X326390Y227330D01*
X306070Y227330D01*
X462280Y134620D02*
X462280Y106408D01*
X462280Y134620D02*
X369570Y227330D01*
X132160Y327580D02*
X132160Y342900D01*
X132160Y327580D02*
X156210Y303530D01*
X412750Y303530D02*
X461010Y351790D01*
X481937Y351790D01*
X494331Y339396D01*
X339090Y303530D02*
X156210Y303530D01*
X339090Y303530D02*
X412750Y303530D01*
X212765Y107121D02*
X217016Y102870D01*
X241300Y102870D01*
X256540Y118110D01*
X256540Y198120D01*
X298450Y240030D01*
D16*
X298450Y240030D03*
X339090Y303530D03*
D15*
X453390Y111246D02*
X448781Y106637D01*
X453390Y111246D02*
X453390Y133350D01*
X402590Y184150D01*
X294640Y184150D02*
X293370Y185420D01*
D16*
X293370Y185420D03*
D15*
X294640Y184150D02*
X402590Y184150D01*
X316230Y407670D02*
X316230Y449580D01*
X339090Y384810D02*
X339090Y303530D01*
X339090Y384810D02*
X316230Y407670D01*
X325849Y459199D02*
X329373Y459199D01*
X331913Y461739D01*
X325849Y459199D02*
X316230Y449580D01*
D16*
X152400Y355600D03*
X271780Y342900D03*
X342900Y482600D03*
X486410Y318770D03*
X419100Y101600D03*
X203200Y127000D03*
D17*
X546100Y355600D03*
X368300Y254000D03*
D18*
X142160Y326470D02*
X142160Y342900D01*
X153670Y314960D02*
X246380Y314960D01*
D16*
X246380Y314960D03*
X231140Y111760D03*
D18*
X223674Y111760D02*
X219035Y116399D01*
X216495Y116399D01*
X153670Y314960D02*
X142160Y326470D01*
X223674Y111760D02*
X231140Y111760D01*
D16*
X323850Y441960D03*
D18*
X324796Y441960D02*
X335497Y452661D01*
X336107Y452661D01*
X324796Y441960D02*
X323850Y441960D01*
X443230Y114814D02*
X440219Y111803D01*
X443230Y114814D02*
X443230Y129540D01*
X397510Y175260D01*
X274193Y175260D01*
D16*
X274193Y175260D03*
D18*
X478183Y341630D02*
X486109Y333704D01*
D16*
X274193Y292100D03*
D18*
X462280Y341630D02*
X478183Y341630D01*
X462280Y341630D02*
X412750Y292100D01*
X274193Y292100D01*
D15*
X288680Y364220D02*
X288410Y364490D01*
X288680Y364220D02*
X288680Y349250D01*
X305680Y349250D02*
X314579Y340351D01*
X314579Y335280D01*
D16*
X314579Y335280D03*
M02*
