G04 EAGLE Gerber RS-274X export*
G75*
%MOMM*%
%FSLAX34Y34*%
%LPD*%
%INSoldermask Top*%
%IPPOS*%
%AMOC8*
5,1,8,0,0,1.08239X$1,22.5*%
G01*
%ADD10C,0.243431*%
%ADD11C,0.255816*%
%ADD12C,0.449434*%
%ADD13C,0.253525*%
%ADD14C,1.152400*%


D10*
X180052Y149863D02*
X184189Y160152D01*
X201900Y153031D01*
X197763Y142742D01*
X180052Y149863D01*
X192013Y145054D02*
X198693Y145054D01*
X199622Y147366D02*
X186262Y147366D01*
X180512Y149678D02*
X200552Y149678D01*
X201481Y151990D02*
X180907Y151990D01*
X181837Y154302D02*
X198739Y154302D01*
X192989Y156614D02*
X182766Y156614D01*
X183696Y158926D02*
X187238Y158926D01*
X163301Y108193D02*
X159164Y97904D01*
X163301Y108193D02*
X181012Y101072D01*
X176875Y90783D01*
X159164Y97904D01*
X171125Y93095D02*
X177805Y93095D01*
X178734Y95407D02*
X165374Y95407D01*
X159624Y97719D02*
X179664Y97719D01*
X180593Y100031D02*
X160019Y100031D01*
X160949Y102343D02*
X177851Y102343D01*
X172101Y104655D02*
X161878Y104655D01*
X162808Y106967D02*
X166350Y106967D01*
D11*
X213516Y125699D02*
X215368Y130306D01*
X226934Y125657D01*
X225082Y121050D01*
X213516Y125699D01*
X219037Y123480D02*
X226059Y123480D01*
X226305Y125910D02*
X213601Y125910D01*
X214578Y128340D02*
X220259Y128340D01*
X211638Y121027D02*
X209786Y116420D01*
X211638Y121027D02*
X223204Y116378D01*
X221352Y111771D01*
X209786Y116420D01*
X215307Y114201D02*
X222329Y114201D01*
X222575Y116631D02*
X209871Y116631D01*
X210848Y119061D02*
X216529Y119061D01*
X207908Y111749D02*
X206056Y107142D01*
X207908Y111749D02*
X219474Y107100D01*
X217622Y102493D01*
X206056Y107142D01*
X211577Y104923D02*
X218599Y104923D01*
X218845Y107353D02*
X206141Y107353D01*
X207118Y109783D02*
X212799Y109783D01*
X204178Y102470D02*
X202326Y97863D01*
X204178Y102470D02*
X215744Y97821D01*
X213892Y93214D01*
X202326Y97863D01*
X207847Y95644D02*
X214869Y95644D01*
X215115Y98074D02*
X202411Y98074D01*
X203388Y100504D02*
X209069Y100504D01*
D10*
X391864Y86907D02*
X401360Y81178D01*
X391864Y86907D02*
X401724Y103252D01*
X411220Y97523D01*
X401360Y81178D01*
X402755Y83490D02*
X397528Y83490D01*
X393696Y85802D02*
X404149Y85802D01*
X405544Y88114D02*
X392592Y88114D01*
X393987Y90426D02*
X406939Y90426D01*
X408333Y92738D02*
X395382Y92738D01*
X396776Y95050D02*
X409728Y95050D01*
X411123Y97362D02*
X398171Y97362D01*
X399566Y99674D02*
X407655Y99674D01*
X403822Y101986D02*
X400960Y101986D01*
X439815Y57981D02*
X449311Y52252D01*
X439815Y57981D02*
X449675Y74326D01*
X459171Y68597D01*
X449311Y52252D01*
X450706Y54564D02*
X445479Y54564D01*
X441647Y56876D02*
X452100Y56876D01*
X453495Y59188D02*
X440543Y59188D01*
X441938Y61500D02*
X454890Y61500D01*
X456284Y63812D02*
X443333Y63812D01*
X444727Y66124D02*
X457679Y66124D01*
X459074Y68436D02*
X446122Y68436D01*
X447517Y70748D02*
X455606Y70748D01*
X451773Y73060D02*
X448911Y73060D01*
D11*
X430563Y110349D02*
X426311Y112914D01*
X432749Y123587D01*
X437001Y121022D01*
X430563Y110349D01*
X432029Y112779D02*
X426535Y112779D01*
X427695Y115209D02*
X433495Y115209D01*
X434960Y117639D02*
X429161Y117639D01*
X430627Y120069D02*
X436426Y120069D01*
X434553Y122499D02*
X432093Y122499D01*
X434874Y107749D02*
X439126Y105184D01*
X434874Y107749D02*
X441312Y118422D01*
X445564Y115857D01*
X439126Y105184D01*
X440592Y107614D02*
X435098Y107614D01*
X436258Y110044D02*
X442058Y110044D01*
X443523Y112474D02*
X437724Y112474D01*
X439190Y114904D02*
X444989Y114904D01*
X443116Y117334D02*
X440656Y117334D01*
X443436Y102583D02*
X447688Y100018D01*
X443436Y102583D02*
X449874Y113256D01*
X454126Y110691D01*
X447688Y100018D01*
X449154Y102448D02*
X443660Y102448D01*
X444820Y104878D02*
X450620Y104878D01*
X452085Y107308D02*
X446286Y107308D01*
X447752Y109738D02*
X453551Y109738D01*
X451678Y112168D02*
X449218Y112168D01*
X451999Y97418D02*
X456251Y94853D01*
X451999Y97418D02*
X458437Y108091D01*
X462689Y105526D01*
X456251Y94853D01*
X457717Y97283D02*
X452223Y97283D01*
X453383Y99713D02*
X459183Y99713D01*
X460648Y102143D02*
X454849Y102143D01*
X456315Y104573D02*
X462114Y104573D01*
X460241Y107003D02*
X457781Y107003D01*
D10*
X488995Y279392D02*
X498113Y285706D01*
X488995Y279392D02*
X478129Y295086D01*
X487247Y301400D01*
X498113Y285706D01*
X492334Y281704D02*
X487394Y281704D01*
X485793Y284016D02*
X495672Y284016D01*
X497682Y286328D02*
X484193Y286328D01*
X482592Y288640D02*
X496082Y288640D01*
X494481Y290952D02*
X480991Y290952D01*
X479390Y293264D02*
X492880Y293264D01*
X491279Y295576D02*
X478837Y295576D01*
X482175Y297888D02*
X489679Y297888D01*
X488078Y300200D02*
X485514Y300200D01*
X535035Y311272D02*
X544153Y317586D01*
X535035Y311272D02*
X524169Y326966D01*
X533287Y333280D01*
X544153Y317586D01*
X538374Y313584D02*
X533434Y313584D01*
X531833Y315896D02*
X541712Y315896D01*
X543722Y318208D02*
X530233Y318208D01*
X528632Y320520D02*
X542122Y320520D01*
X540521Y322832D02*
X527031Y322832D01*
X525430Y325144D02*
X538920Y325144D01*
X537319Y327456D02*
X524877Y327456D01*
X528215Y329768D02*
X535719Y329768D01*
X534118Y332080D02*
X531554Y332080D01*
D11*
X483477Y324301D02*
X479394Y321474D01*
X472299Y331721D01*
X476382Y334548D01*
X483477Y324301D01*
X482904Y323904D02*
X477711Y323904D01*
X476029Y326334D02*
X482069Y326334D01*
X480387Y328764D02*
X474346Y328764D01*
X472664Y331194D02*
X478704Y331194D01*
X477022Y333624D02*
X475047Y333624D01*
X487615Y327167D02*
X491698Y329994D01*
X487615Y327167D02*
X480520Y337414D01*
X484603Y340241D01*
X491698Y329994D01*
X491125Y329597D02*
X485932Y329597D01*
X484250Y332027D02*
X490290Y332027D01*
X488608Y334457D02*
X482567Y334457D01*
X480885Y336887D02*
X486925Y336887D01*
X485243Y339317D02*
X483268Y339317D01*
X495837Y332859D02*
X499920Y335686D01*
X495837Y332859D02*
X488742Y343106D01*
X492825Y345933D01*
X499920Y335686D01*
X499347Y335289D02*
X494154Y335289D01*
X492472Y337719D02*
X498512Y337719D01*
X496830Y340149D02*
X490789Y340149D01*
X489107Y342579D02*
X495147Y342579D01*
X493465Y345009D02*
X491490Y345009D01*
X504058Y338552D02*
X508141Y341379D01*
X504058Y338552D02*
X496963Y348799D01*
X501046Y351626D01*
X508141Y341379D01*
X507568Y340982D02*
X502375Y340982D01*
X500693Y343412D02*
X506733Y343412D01*
X505051Y345842D02*
X499010Y345842D01*
X497328Y348272D02*
X503368Y348272D01*
X501686Y350702D02*
X499711Y350702D01*
D10*
X170705Y389195D02*
X159615Y389195D01*
X170705Y389195D02*
X170705Y370105D01*
X159615Y370105D01*
X159615Y389195D01*
X159615Y372417D02*
X170705Y372417D01*
X170705Y374729D02*
X159615Y374729D01*
X159615Y377041D02*
X170705Y377041D01*
X170705Y379353D02*
X159615Y379353D01*
X159615Y381665D02*
X170705Y381665D01*
X170705Y383977D02*
X159615Y383977D01*
X159615Y386289D02*
X170705Y386289D01*
X170705Y388601D02*
X159615Y388601D01*
X114705Y389195D02*
X103615Y389195D01*
X114705Y389195D02*
X114705Y370105D01*
X103615Y370105D01*
X103615Y389195D01*
X103615Y372417D02*
X114705Y372417D01*
X114705Y374729D02*
X103615Y374729D01*
X103615Y377041D02*
X114705Y377041D01*
X114705Y379353D02*
X103615Y379353D01*
X103615Y381665D02*
X114705Y381665D01*
X114705Y383977D02*
X103615Y383977D01*
X103615Y386289D02*
X114705Y386289D01*
X114705Y388601D02*
X103615Y388601D01*
D11*
X149677Y349133D02*
X154643Y349133D01*
X154643Y336667D01*
X149677Y336667D01*
X149677Y349133D01*
X149677Y339097D02*
X154643Y339097D01*
X154643Y341527D02*
X149677Y341527D01*
X149677Y343957D02*
X154643Y343957D01*
X154643Y346387D02*
X149677Y346387D01*
X149677Y348817D02*
X154643Y348817D01*
X144643Y349133D02*
X139677Y349133D01*
X144643Y349133D02*
X144643Y336667D01*
X139677Y336667D01*
X139677Y349133D01*
X139677Y339097D02*
X144643Y339097D01*
X144643Y341527D02*
X139677Y341527D01*
X139677Y343957D02*
X144643Y343957D01*
X144643Y346387D02*
X139677Y346387D01*
X139677Y348817D02*
X144643Y348817D01*
X134643Y349133D02*
X129677Y349133D01*
X134643Y349133D02*
X134643Y336667D01*
X129677Y336667D01*
X129677Y349133D01*
X129677Y339097D02*
X134643Y339097D01*
X134643Y341527D02*
X129677Y341527D01*
X129677Y343957D02*
X134643Y343957D01*
X134643Y346387D02*
X129677Y346387D01*
X129677Y348817D02*
X134643Y348817D01*
X124643Y349133D02*
X119677Y349133D01*
X124643Y349133D02*
X124643Y336667D01*
X119677Y336667D01*
X119677Y349133D01*
X119677Y339097D02*
X124643Y339097D01*
X124643Y341527D02*
X119677Y341527D01*
X119677Y343957D02*
X124643Y343957D01*
X124643Y346387D02*
X119677Y346387D01*
X119677Y348817D02*
X124643Y348817D01*
D12*
X302435Y360975D02*
X302435Y368005D01*
X309465Y368005D01*
X309465Y360975D01*
X302435Y360975D01*
X302435Y365244D02*
X309465Y365244D01*
X284895Y368005D02*
X284895Y360975D01*
X284895Y368005D02*
X291925Y368005D01*
X291925Y360975D01*
X284895Y360975D01*
X284895Y365244D02*
X291925Y365244D01*
D13*
X293675Y344755D02*
X283685Y344755D01*
X283685Y353745D01*
X293675Y353745D01*
X293675Y344755D01*
X293675Y347163D02*
X283685Y347163D01*
X283685Y349571D02*
X293675Y349571D01*
X293675Y351979D02*
X283685Y351979D01*
X300685Y344755D02*
X310675Y344755D01*
X300685Y344755D02*
X300685Y353745D01*
X310675Y353745D01*
X310675Y344755D01*
X310675Y347163D02*
X300685Y347163D01*
X300685Y349571D02*
X310675Y349571D01*
X310675Y351979D02*
X300685Y351979D01*
D14*
X139700Y38100D03*
X330200Y571500D03*
D10*
X385453Y456234D02*
X390105Y446168D01*
X372777Y438160D01*
X368125Y448226D01*
X385453Y456234D01*
X377780Y440472D02*
X371709Y440472D01*
X370640Y442784D02*
X382783Y442784D01*
X387785Y445096D02*
X369572Y445096D01*
X368503Y447408D02*
X389532Y447408D01*
X388463Y449720D02*
X371358Y449720D01*
X376361Y452032D02*
X387395Y452032D01*
X386326Y454344D02*
X381363Y454344D01*
X366616Y497004D02*
X361964Y507070D01*
X366616Y497004D02*
X349288Y488996D01*
X344636Y499062D01*
X361964Y507070D01*
X354291Y491308D02*
X348220Y491308D01*
X347151Y493620D02*
X359294Y493620D01*
X364296Y495932D02*
X346083Y495932D01*
X345014Y498244D02*
X366043Y498244D01*
X364974Y500556D02*
X347869Y500556D01*
X352872Y502868D02*
X363906Y502868D01*
X362837Y505180D02*
X357874Y505180D01*
D11*
X344918Y448451D02*
X347001Y443943D01*
X335686Y438715D01*
X333603Y443223D01*
X344918Y448451D01*
X340945Y441145D02*
X334563Y441145D01*
X334365Y443575D02*
X346205Y443575D01*
X346048Y446005D02*
X339624Y446005D01*
X344883Y448435D02*
X344925Y448435D01*
X342806Y453021D02*
X340723Y457529D01*
X342806Y453021D02*
X331491Y447793D01*
X329408Y452301D01*
X340723Y457529D01*
X336750Y450223D02*
X330368Y450223D01*
X330170Y452653D02*
X342010Y452653D01*
X341853Y455083D02*
X335429Y455083D01*
X340688Y457513D02*
X340730Y457513D01*
X338612Y462099D02*
X336529Y466607D01*
X338612Y462099D02*
X327297Y456871D01*
X325214Y461379D01*
X336529Y466607D01*
X332556Y459301D02*
X326174Y459301D01*
X325976Y461731D02*
X337816Y461731D01*
X337659Y464161D02*
X331235Y464161D01*
X336494Y466591D02*
X336536Y466591D01*
X334417Y471177D02*
X332334Y475685D01*
X334417Y471177D02*
X323102Y465949D01*
X321019Y470457D01*
X332334Y475685D01*
X328361Y468379D02*
X321979Y468379D01*
X321781Y470809D02*
X333621Y470809D01*
X333464Y473239D02*
X327040Y473239D01*
X332299Y475669D02*
X332341Y475669D01*
M02*
