M48
;GenerationSoftware,Autodesk,EAGLE,9.6.2*%
;CreationDate,2021-02-18T16:54:07Z*%
FMAT,2
ICI,OFF
METRIC,TZ,000.000
T2C0.381
T1C3.048
%
G90
M71
T1
X138430Y86614
X16510Y16510
X8890Y8890
X42418Y16510
X34798Y8890
X68326Y16510
X60706Y8890
X94234Y16510
X86614Y8890
X120142Y16510
X112522Y8890
X146050Y16510
X138430Y8890
X16510Y42418
X8890Y34798
X42418Y42418
X34798Y34798
X68326Y42418
X60706Y34798
X94234Y42418
X86614Y34798
X120142Y42418
X112522Y34798
X146050Y42418
X138430Y34798
X16510Y68326
X8890Y60706
X42418Y68326
X34798Y60706
X68326Y68326
X60706Y60706
X94234Y68326
X86614Y60706
X120142Y68326
X112522Y60706
X146050Y68326
X138430Y60706
X16510Y94234
X8890Y86614
X42418Y94234
X34798Y86614
X68326Y94234
X60706Y86614
X94234Y94234
X86614Y86614
X120142Y94234
X112522Y86614
X146050Y94234
T2
X91948Y21717
X99441Y11176
X86233Y15240
X89916Y13208
X89916Y9525
X90932Y21971
X93472Y12192
X90386Y16002
X116840Y12192
X116840Y10414
X118999Y13208
X115824Y19050
X114808Y3683
X107188Y14224
X117856Y21717
X125349Y11176
X112141Y15240
X115824Y13208
X115824Y9525
X116840Y21971
X119380Y12192
X116294Y16002
X142748Y12192
X142748Y10414
X144907Y13208
X141732Y19050
X140716Y3683
X133096Y14224
X143764Y21717
X151257Y11176
X138049Y15240
X141732Y13208
X141732Y9525
X142748Y21971
X145288Y12192
X142202Y16002
X13208Y38100
X13208Y36322
X15367Y39116
X12192Y44958
X11176Y29591
X3556Y40132
X14224Y47625
X21717Y37084
X8509Y41148
X12192Y39116
X12192Y35433
X13208Y47879
X15748Y38100
X12662Y41910
X39116Y38100
X39116Y36322
X41275Y39116
X38100Y44958
X37084Y29591
X29464Y40132
X40132Y47625
X47625Y37084
X34417Y41148
X38100Y39116
X38100Y35433
X39116Y47879
X41656Y38100
X38570Y41910
X65024Y38100
X65024Y36322
X67183Y39116
X64008Y44958
X62992Y29591
X55372Y40132
X66040Y47625
X73533Y37084
X60325Y41148
X64008Y39116
X64008Y35433
X65024Y47879
X67564Y38100
X64478Y41910
X90932Y38100
X90932Y36322
X93091Y39116
X89916Y44958
X88900Y29591
X81280Y40132
X91948Y47625
X99441Y37084
X86233Y41148
X89916Y39116
X89916Y35433
X90932Y47879
X93472Y38100
X90386Y41910
X116840Y38100
X116840Y36322
X118999Y39116
X115824Y44958
X114808Y29591
X107188Y40132
X117856Y47625
X125349Y37084
X112141Y41148
X115824Y39116
X115824Y35433
X116840Y47879
X119380Y38100
X116294Y41910
X142748Y38100
X142748Y36322
X144907Y39116
X141732Y44958
X140716Y29591
X133096Y40132
X143764Y47625
X151257Y37084
X138049Y41148
X141732Y39116
X141732Y35433
X142748Y47879
X145288Y38100
X142202Y41910
X13208Y64008
X13208Y62230
X15367Y65024
X12192Y70866
X11176Y55499
X3556Y66040
X14224Y73533
X21717Y62992
X8509Y67056
X12192Y65024
X12192Y61341
X13208Y73787
X15748Y64008
X12662Y67818
X39116Y64008
X39116Y62230
X41275Y65024
X38100Y70866
X37084Y55499
X29464Y66040
X40132Y73533
X47625Y62992
X34417Y67056
X38100Y65024
X38100Y61341
X39116Y73787
X41656Y64008
X38570Y67818
X65024Y64008
X65024Y62230
X67183Y65024
X64008Y70866
X62992Y55499
X55372Y66040
X66040Y73533
X73533Y62992
X60325Y67056
X64008Y65024
X64008Y61341
X65024Y73787
X67564Y64008
X64478Y67818
X90932Y64008
X90932Y62230
X93091Y65024
X89916Y70866
X88900Y55499
X81280Y66040
X91948Y73533
X99441Y62992
X86233Y67056
X89916Y65024
X89916Y61341
X90932Y73787
X93472Y64008
X90386Y67818
X116840Y64008
X116840Y62230
X118999Y65024
X115824Y70866
X114808Y55499
X107188Y66040
X117856Y73533
X125349Y62992
X112141Y67056
X115824Y65024
X115824Y61341
X116840Y73787
X119380Y64008
X116294Y67818
X142748Y64008
X142748Y62230
X144907Y65024
X141732Y70866
X140716Y55499
X133096Y66040
X143764Y73533
X151257Y62992
X138049Y67056
X141732Y65024
X141732Y61341
X142748Y73787
X145288Y64008
X142202Y67818
X13208Y89916
X13208Y88138
X15367Y90932
X12192Y96774
X11176Y81407
X3556Y91948
X14224Y99441
X21717Y88900
X8509Y92964
X12192Y90932
X12192Y87249
X13208Y99695
X15748Y89916
X12662Y93726
X39116Y89916
X39116Y88138
X41275Y90932
X38100Y96774
X37084Y81407
X29464Y91948
X40132Y99441
X47625Y88900
X34417Y92964
X38100Y90932
X38100Y87249
X39116Y99695
X41656Y89916
X38570Y93726
X65024Y89916
X65024Y88138
X67183Y90932
X64008Y96774
X62992Y81407
X55372Y91948
X66040Y99441
X13208Y12192
X60325Y92964
X64008Y90932
X64008Y87249
X65024Y99695
X67564Y89916
X64478Y93726
X90932Y89916
X90932Y88138
X93091Y90932
X89916Y96774
X88900Y81407
X81280Y91948
X91948Y99441
X99441Y88900
X86233Y92964
X89916Y90932
X89916Y87249
X90932Y99695
X93472Y89916
X90386Y93726
X116840Y89916
X116840Y88138
X118999Y90932
X115824Y96774
X114808Y81407
X107188Y91948
X117856Y99441
X125349Y88900
X112141Y92964
X115824Y90932
X115824Y87249
X116840Y99695
X119380Y89916
X116294Y93726
X142748Y89916
X142748Y88138
X144907Y90932
X141732Y96774
X140716Y81407
X133096Y91948
X143764Y99441
X151257Y88900
X138049Y92964
X141732Y90932
X141732Y87249
X142748Y99695
X145288Y89916
X73533Y88900
X13208Y10414
X15367Y13208
X12192Y19050
X11176Y3683
X3556Y14224
X14224Y21717
X21717Y11176
X8509Y15240
X12192Y13208
X12192Y9525
X13208Y21971
X15748Y12192
X12662Y16002
X39116Y12192
X39116Y10414
X41275Y13208
X38100Y19050
X37084Y3683
X29464Y14224
X40132Y21717
X47625Y11176
X34417Y15240
X38100Y13208
X38100Y9525
X39116Y21971
X41656Y12192
X38570Y16002
X65024Y12192
X65024Y10414
X67183Y13208
X64008Y19050
X62992Y3683
X55372Y14224
X66040Y21717
X73533Y11176
X60325Y15240
X64008Y13208
X64008Y9525
X65024Y21971
X67564Y12192
X64478Y16002
X90932Y12192
X90932Y10414
X93091Y13208
X89916Y19050
X88900Y3683
X81280Y14224
X142202Y93726
M30