G04 EAGLE Gerber RS-274X export*
G75*
%MOMM*%
%FSLAX34Y34*%
%LPD*%
%INSoldermask Bottom*%
%IPPOS*%
%AMOC8*
5,1,8,0,0,1.08239X$1,22.5*%
G01*
%ADD10C,3.200400*%
%ADD11C,0.787400*%
%ADD12C,0.251966*%
%ADD13C,1.152400*%
%ADD14C,1.270000*%
%ADD15C,1.652400*%

G36*
X885890Y964577D02*
X885890Y964577D01*
X885956Y964579D01*
X885999Y964597D01*
X886046Y964605D01*
X886103Y964639D01*
X886163Y964664D01*
X886198Y964695D01*
X886239Y964720D01*
X886281Y964771D01*
X886329Y964815D01*
X886351Y964857D01*
X886380Y964894D01*
X886401Y964956D01*
X886432Y965015D01*
X886440Y965069D01*
X886452Y965106D01*
X886451Y965146D01*
X886459Y965200D01*
X886459Y967740D01*
X886448Y967805D01*
X886446Y967871D01*
X886428Y967914D01*
X886420Y967961D01*
X886386Y968018D01*
X886361Y968078D01*
X886330Y968113D01*
X886305Y968154D01*
X886254Y968196D01*
X886210Y968244D01*
X886168Y968266D01*
X886131Y968295D01*
X886069Y968316D01*
X886010Y968347D01*
X885956Y968355D01*
X885919Y968367D01*
X885879Y968366D01*
X885825Y968374D01*
X882015Y968374D01*
X881950Y968363D01*
X881884Y968361D01*
X881841Y968343D01*
X881794Y968335D01*
X881737Y968301D01*
X881677Y968276D01*
X881642Y968245D01*
X881601Y968220D01*
X881560Y968169D01*
X881511Y968125D01*
X881489Y968083D01*
X881460Y968046D01*
X881439Y967984D01*
X881408Y967925D01*
X881400Y967871D01*
X881388Y967834D01*
X881388Y967831D01*
X881389Y967794D01*
X881381Y967740D01*
X881381Y965200D01*
X881392Y965135D01*
X881394Y965069D01*
X881412Y965026D01*
X881420Y964979D01*
X881454Y964922D01*
X881479Y964862D01*
X881510Y964827D01*
X881535Y964786D01*
X881586Y964745D01*
X881630Y964696D01*
X881672Y964674D01*
X881709Y964645D01*
X881771Y964624D01*
X881830Y964593D01*
X881884Y964585D01*
X881921Y964573D01*
X881961Y964574D01*
X882015Y964566D01*
X885825Y964566D01*
X885890Y964577D01*
G37*
G36*
X1144970Y964577D02*
X1144970Y964577D01*
X1145036Y964579D01*
X1145079Y964597D01*
X1145126Y964605D01*
X1145183Y964639D01*
X1145243Y964664D01*
X1145278Y964695D01*
X1145319Y964720D01*
X1145361Y964771D01*
X1145409Y964815D01*
X1145431Y964857D01*
X1145460Y964894D01*
X1145481Y964956D01*
X1145512Y965015D01*
X1145520Y965069D01*
X1145532Y965106D01*
X1145531Y965146D01*
X1145539Y965200D01*
X1145539Y967740D01*
X1145528Y967805D01*
X1145526Y967871D01*
X1145508Y967914D01*
X1145500Y967961D01*
X1145466Y968018D01*
X1145441Y968078D01*
X1145410Y968113D01*
X1145385Y968154D01*
X1145334Y968196D01*
X1145290Y968244D01*
X1145248Y968266D01*
X1145211Y968295D01*
X1145149Y968316D01*
X1145090Y968347D01*
X1145036Y968355D01*
X1144999Y968367D01*
X1144959Y968366D01*
X1144905Y968374D01*
X1141095Y968374D01*
X1141030Y968363D01*
X1140964Y968361D01*
X1140921Y968343D01*
X1140874Y968335D01*
X1140817Y968301D01*
X1140757Y968276D01*
X1140722Y968245D01*
X1140681Y968220D01*
X1140640Y968169D01*
X1140591Y968125D01*
X1140569Y968083D01*
X1140540Y968046D01*
X1140519Y967984D01*
X1140488Y967925D01*
X1140480Y967871D01*
X1140468Y967834D01*
X1140468Y967831D01*
X1140469Y967794D01*
X1140461Y967740D01*
X1140461Y965200D01*
X1140472Y965135D01*
X1140474Y965069D01*
X1140492Y965026D01*
X1140500Y964979D01*
X1140534Y964922D01*
X1140559Y964862D01*
X1140590Y964827D01*
X1140615Y964786D01*
X1140666Y964745D01*
X1140710Y964696D01*
X1140752Y964674D01*
X1140789Y964645D01*
X1140851Y964624D01*
X1140910Y964593D01*
X1140964Y964585D01*
X1141001Y964573D01*
X1141041Y964574D01*
X1141095Y964566D01*
X1144905Y964566D01*
X1144970Y964577D01*
G37*
G36*
X626810Y964577D02*
X626810Y964577D01*
X626876Y964579D01*
X626919Y964597D01*
X626966Y964605D01*
X627023Y964639D01*
X627083Y964664D01*
X627118Y964695D01*
X627159Y964720D01*
X627201Y964771D01*
X627249Y964815D01*
X627271Y964857D01*
X627300Y964894D01*
X627321Y964956D01*
X627352Y965015D01*
X627360Y965069D01*
X627372Y965106D01*
X627371Y965146D01*
X627379Y965200D01*
X627379Y967740D01*
X627368Y967805D01*
X627366Y967871D01*
X627348Y967914D01*
X627340Y967961D01*
X627306Y968018D01*
X627281Y968078D01*
X627250Y968113D01*
X627225Y968154D01*
X627174Y968196D01*
X627130Y968244D01*
X627088Y968266D01*
X627051Y968295D01*
X626989Y968316D01*
X626930Y968347D01*
X626876Y968355D01*
X626839Y968367D01*
X626799Y968366D01*
X626745Y968374D01*
X622935Y968374D01*
X622870Y968363D01*
X622804Y968361D01*
X622761Y968343D01*
X622714Y968335D01*
X622657Y968301D01*
X622597Y968276D01*
X622562Y968245D01*
X622521Y968220D01*
X622480Y968169D01*
X622431Y968125D01*
X622409Y968083D01*
X622380Y968046D01*
X622359Y967984D01*
X622328Y967925D01*
X622320Y967871D01*
X622308Y967834D01*
X622308Y967831D01*
X622309Y967794D01*
X622301Y967740D01*
X622301Y965200D01*
X622312Y965135D01*
X622314Y965069D01*
X622332Y965026D01*
X622340Y964979D01*
X622374Y964922D01*
X622399Y964862D01*
X622430Y964827D01*
X622455Y964786D01*
X622506Y964745D01*
X622550Y964696D01*
X622592Y964674D01*
X622629Y964645D01*
X622691Y964624D01*
X622750Y964593D01*
X622804Y964585D01*
X622841Y964573D01*
X622881Y964574D01*
X622935Y964566D01*
X626745Y964566D01*
X626810Y964577D01*
G37*
G36*
X367730Y964577D02*
X367730Y964577D01*
X367796Y964579D01*
X367839Y964597D01*
X367886Y964605D01*
X367943Y964639D01*
X368003Y964664D01*
X368038Y964695D01*
X368079Y964720D01*
X368121Y964771D01*
X368169Y964815D01*
X368191Y964857D01*
X368220Y964894D01*
X368241Y964956D01*
X368272Y965015D01*
X368280Y965069D01*
X368292Y965106D01*
X368291Y965146D01*
X368299Y965200D01*
X368299Y967740D01*
X368288Y967805D01*
X368286Y967871D01*
X368268Y967914D01*
X368260Y967961D01*
X368226Y968018D01*
X368201Y968078D01*
X368170Y968113D01*
X368145Y968154D01*
X368094Y968196D01*
X368050Y968244D01*
X368008Y968266D01*
X367971Y968295D01*
X367909Y968316D01*
X367850Y968347D01*
X367796Y968355D01*
X367759Y968367D01*
X367719Y968366D01*
X367665Y968374D01*
X363855Y968374D01*
X363790Y968363D01*
X363724Y968361D01*
X363681Y968343D01*
X363634Y968335D01*
X363577Y968301D01*
X363517Y968276D01*
X363482Y968245D01*
X363441Y968220D01*
X363400Y968169D01*
X363351Y968125D01*
X363329Y968083D01*
X363300Y968046D01*
X363279Y967984D01*
X363248Y967925D01*
X363240Y967871D01*
X363228Y967834D01*
X363228Y967831D01*
X363229Y967794D01*
X363221Y967740D01*
X363221Y965200D01*
X363232Y965135D01*
X363234Y965069D01*
X363252Y965026D01*
X363260Y964979D01*
X363294Y964922D01*
X363319Y964862D01*
X363350Y964827D01*
X363375Y964786D01*
X363426Y964745D01*
X363470Y964696D01*
X363512Y964674D01*
X363549Y964645D01*
X363611Y964624D01*
X363670Y964593D01*
X363724Y964585D01*
X363761Y964573D01*
X363801Y964574D01*
X363855Y964566D01*
X367665Y964566D01*
X367730Y964577D01*
G37*
G36*
X108650Y964577D02*
X108650Y964577D01*
X108716Y964579D01*
X108759Y964597D01*
X108806Y964605D01*
X108863Y964639D01*
X108923Y964664D01*
X108958Y964695D01*
X108999Y964720D01*
X109041Y964771D01*
X109089Y964815D01*
X109111Y964857D01*
X109140Y964894D01*
X109161Y964956D01*
X109192Y965015D01*
X109200Y965069D01*
X109212Y965106D01*
X109211Y965146D01*
X109219Y965200D01*
X109219Y967740D01*
X109208Y967805D01*
X109206Y967871D01*
X109188Y967914D01*
X109180Y967961D01*
X109146Y968018D01*
X109121Y968078D01*
X109090Y968113D01*
X109065Y968154D01*
X109014Y968196D01*
X108970Y968244D01*
X108928Y968266D01*
X108891Y968295D01*
X108829Y968316D01*
X108770Y968347D01*
X108716Y968355D01*
X108679Y968367D01*
X108639Y968366D01*
X108585Y968374D01*
X104775Y968374D01*
X104710Y968363D01*
X104644Y968361D01*
X104601Y968343D01*
X104554Y968335D01*
X104497Y968301D01*
X104437Y968276D01*
X104402Y968245D01*
X104361Y968220D01*
X104320Y968169D01*
X104271Y968125D01*
X104249Y968083D01*
X104220Y968046D01*
X104199Y967984D01*
X104168Y967925D01*
X104160Y967871D01*
X104148Y967834D01*
X104148Y967831D01*
X104149Y967794D01*
X104141Y967740D01*
X104141Y965200D01*
X104152Y965135D01*
X104154Y965069D01*
X104172Y965026D01*
X104180Y964979D01*
X104214Y964922D01*
X104239Y964862D01*
X104270Y964827D01*
X104295Y964786D01*
X104346Y964745D01*
X104390Y964696D01*
X104432Y964674D01*
X104469Y964645D01*
X104531Y964624D01*
X104590Y964593D01*
X104644Y964585D01*
X104681Y964573D01*
X104721Y964574D01*
X104775Y964566D01*
X108585Y964566D01*
X108650Y964577D01*
G37*
G36*
X1404050Y964577D02*
X1404050Y964577D01*
X1404116Y964579D01*
X1404159Y964597D01*
X1404206Y964605D01*
X1404263Y964639D01*
X1404323Y964664D01*
X1404358Y964695D01*
X1404399Y964720D01*
X1404441Y964771D01*
X1404489Y964815D01*
X1404511Y964857D01*
X1404540Y964894D01*
X1404561Y964956D01*
X1404592Y965015D01*
X1404600Y965069D01*
X1404612Y965106D01*
X1404611Y965146D01*
X1404619Y965200D01*
X1404619Y967740D01*
X1404608Y967805D01*
X1404606Y967871D01*
X1404588Y967914D01*
X1404580Y967961D01*
X1404546Y968018D01*
X1404521Y968078D01*
X1404490Y968113D01*
X1404465Y968154D01*
X1404414Y968196D01*
X1404370Y968244D01*
X1404328Y968266D01*
X1404291Y968295D01*
X1404229Y968316D01*
X1404170Y968347D01*
X1404116Y968355D01*
X1404079Y968367D01*
X1404039Y968366D01*
X1403985Y968374D01*
X1400175Y968374D01*
X1400110Y968363D01*
X1400044Y968361D01*
X1400001Y968343D01*
X1399954Y968335D01*
X1399897Y968301D01*
X1399837Y968276D01*
X1399802Y968245D01*
X1399761Y968220D01*
X1399720Y968169D01*
X1399671Y968125D01*
X1399649Y968083D01*
X1399620Y968046D01*
X1399599Y967984D01*
X1399568Y967925D01*
X1399560Y967871D01*
X1399548Y967834D01*
X1399548Y967831D01*
X1399549Y967794D01*
X1399541Y967740D01*
X1399541Y965200D01*
X1399552Y965135D01*
X1399554Y965069D01*
X1399572Y965026D01*
X1399580Y964979D01*
X1399614Y964922D01*
X1399639Y964862D01*
X1399670Y964827D01*
X1399695Y964786D01*
X1399746Y964745D01*
X1399790Y964696D01*
X1399832Y964674D01*
X1399869Y964645D01*
X1399931Y964624D01*
X1399990Y964593D01*
X1400044Y964585D01*
X1400081Y964573D01*
X1400121Y964574D01*
X1400175Y964566D01*
X1403985Y964566D01*
X1404050Y964577D01*
G37*
G36*
X1144970Y705497D02*
X1144970Y705497D01*
X1145036Y705499D01*
X1145079Y705517D01*
X1145126Y705525D01*
X1145183Y705559D01*
X1145243Y705584D01*
X1145278Y705615D01*
X1145319Y705640D01*
X1145361Y705691D01*
X1145409Y705735D01*
X1145431Y705777D01*
X1145460Y705814D01*
X1145481Y705876D01*
X1145512Y705935D01*
X1145520Y705989D01*
X1145532Y706026D01*
X1145531Y706066D01*
X1145539Y706120D01*
X1145539Y708660D01*
X1145528Y708725D01*
X1145526Y708791D01*
X1145508Y708834D01*
X1145500Y708881D01*
X1145466Y708938D01*
X1145441Y708998D01*
X1145410Y709033D01*
X1145385Y709074D01*
X1145334Y709116D01*
X1145290Y709164D01*
X1145248Y709186D01*
X1145211Y709215D01*
X1145149Y709236D01*
X1145090Y709267D01*
X1145036Y709275D01*
X1144999Y709287D01*
X1144959Y709286D01*
X1144905Y709294D01*
X1141095Y709294D01*
X1141030Y709283D01*
X1140964Y709281D01*
X1140921Y709263D01*
X1140874Y709255D01*
X1140817Y709221D01*
X1140757Y709196D01*
X1140722Y709165D01*
X1140681Y709140D01*
X1140640Y709089D01*
X1140591Y709045D01*
X1140569Y709003D01*
X1140540Y708966D01*
X1140519Y708904D01*
X1140488Y708845D01*
X1140480Y708791D01*
X1140468Y708754D01*
X1140468Y708751D01*
X1140469Y708714D01*
X1140461Y708660D01*
X1140461Y706120D01*
X1140472Y706055D01*
X1140474Y705989D01*
X1140492Y705946D01*
X1140500Y705899D01*
X1140534Y705842D01*
X1140559Y705782D01*
X1140590Y705747D01*
X1140615Y705706D01*
X1140666Y705665D01*
X1140710Y705616D01*
X1140752Y705594D01*
X1140789Y705565D01*
X1140851Y705544D01*
X1140910Y705513D01*
X1140964Y705505D01*
X1141001Y705493D01*
X1141041Y705494D01*
X1141095Y705486D01*
X1144905Y705486D01*
X1144970Y705497D01*
G37*
G36*
X367730Y705497D02*
X367730Y705497D01*
X367796Y705499D01*
X367839Y705517D01*
X367886Y705525D01*
X367943Y705559D01*
X368003Y705584D01*
X368038Y705615D01*
X368079Y705640D01*
X368121Y705691D01*
X368169Y705735D01*
X368191Y705777D01*
X368220Y705814D01*
X368241Y705876D01*
X368272Y705935D01*
X368280Y705989D01*
X368292Y706026D01*
X368291Y706066D01*
X368299Y706120D01*
X368299Y708660D01*
X368288Y708725D01*
X368286Y708791D01*
X368268Y708834D01*
X368260Y708881D01*
X368226Y708938D01*
X368201Y708998D01*
X368170Y709033D01*
X368145Y709074D01*
X368094Y709116D01*
X368050Y709164D01*
X368008Y709186D01*
X367971Y709215D01*
X367909Y709236D01*
X367850Y709267D01*
X367796Y709275D01*
X367759Y709287D01*
X367719Y709286D01*
X367665Y709294D01*
X363855Y709294D01*
X363790Y709283D01*
X363724Y709281D01*
X363681Y709263D01*
X363634Y709255D01*
X363577Y709221D01*
X363517Y709196D01*
X363482Y709165D01*
X363441Y709140D01*
X363400Y709089D01*
X363351Y709045D01*
X363329Y709003D01*
X363300Y708966D01*
X363279Y708904D01*
X363248Y708845D01*
X363240Y708791D01*
X363228Y708754D01*
X363228Y708751D01*
X363229Y708714D01*
X363221Y708660D01*
X363221Y706120D01*
X363232Y706055D01*
X363234Y705989D01*
X363252Y705946D01*
X363260Y705899D01*
X363294Y705842D01*
X363319Y705782D01*
X363350Y705747D01*
X363375Y705706D01*
X363426Y705665D01*
X363470Y705616D01*
X363512Y705594D01*
X363549Y705565D01*
X363611Y705544D01*
X363670Y705513D01*
X363724Y705505D01*
X363761Y705493D01*
X363801Y705494D01*
X363855Y705486D01*
X367665Y705486D01*
X367730Y705497D01*
G37*
G36*
X1404050Y705497D02*
X1404050Y705497D01*
X1404116Y705499D01*
X1404159Y705517D01*
X1404206Y705525D01*
X1404263Y705559D01*
X1404323Y705584D01*
X1404358Y705615D01*
X1404399Y705640D01*
X1404441Y705691D01*
X1404489Y705735D01*
X1404511Y705777D01*
X1404540Y705814D01*
X1404561Y705876D01*
X1404592Y705935D01*
X1404600Y705989D01*
X1404612Y706026D01*
X1404611Y706066D01*
X1404619Y706120D01*
X1404619Y708660D01*
X1404608Y708725D01*
X1404606Y708791D01*
X1404588Y708834D01*
X1404580Y708881D01*
X1404546Y708938D01*
X1404521Y708998D01*
X1404490Y709033D01*
X1404465Y709074D01*
X1404414Y709116D01*
X1404370Y709164D01*
X1404328Y709186D01*
X1404291Y709215D01*
X1404229Y709236D01*
X1404170Y709267D01*
X1404116Y709275D01*
X1404079Y709287D01*
X1404039Y709286D01*
X1403985Y709294D01*
X1400175Y709294D01*
X1400110Y709283D01*
X1400044Y709281D01*
X1400001Y709263D01*
X1399954Y709255D01*
X1399897Y709221D01*
X1399837Y709196D01*
X1399802Y709165D01*
X1399761Y709140D01*
X1399720Y709089D01*
X1399671Y709045D01*
X1399649Y709003D01*
X1399620Y708966D01*
X1399599Y708904D01*
X1399568Y708845D01*
X1399560Y708791D01*
X1399548Y708754D01*
X1399548Y708751D01*
X1399549Y708714D01*
X1399541Y708660D01*
X1399541Y706120D01*
X1399552Y706055D01*
X1399554Y705989D01*
X1399572Y705946D01*
X1399580Y705899D01*
X1399614Y705842D01*
X1399639Y705782D01*
X1399670Y705747D01*
X1399695Y705706D01*
X1399746Y705665D01*
X1399790Y705616D01*
X1399832Y705594D01*
X1399869Y705565D01*
X1399931Y705544D01*
X1399990Y705513D01*
X1400044Y705505D01*
X1400081Y705493D01*
X1400121Y705494D01*
X1400175Y705486D01*
X1403985Y705486D01*
X1404050Y705497D01*
G37*
G36*
X108650Y705497D02*
X108650Y705497D01*
X108716Y705499D01*
X108759Y705517D01*
X108806Y705525D01*
X108863Y705559D01*
X108923Y705584D01*
X108958Y705615D01*
X108999Y705640D01*
X109041Y705691D01*
X109089Y705735D01*
X109111Y705777D01*
X109140Y705814D01*
X109161Y705876D01*
X109192Y705935D01*
X109200Y705989D01*
X109212Y706026D01*
X109211Y706066D01*
X109219Y706120D01*
X109219Y708660D01*
X109208Y708725D01*
X109206Y708791D01*
X109188Y708834D01*
X109180Y708881D01*
X109146Y708938D01*
X109121Y708998D01*
X109090Y709033D01*
X109065Y709074D01*
X109014Y709116D01*
X108970Y709164D01*
X108928Y709186D01*
X108891Y709215D01*
X108829Y709236D01*
X108770Y709267D01*
X108716Y709275D01*
X108679Y709287D01*
X108639Y709286D01*
X108585Y709294D01*
X104775Y709294D01*
X104710Y709283D01*
X104644Y709281D01*
X104601Y709263D01*
X104554Y709255D01*
X104497Y709221D01*
X104437Y709196D01*
X104402Y709165D01*
X104361Y709140D01*
X104320Y709089D01*
X104271Y709045D01*
X104249Y709003D01*
X104220Y708966D01*
X104199Y708904D01*
X104168Y708845D01*
X104160Y708791D01*
X104148Y708754D01*
X104148Y708751D01*
X104149Y708714D01*
X104141Y708660D01*
X104141Y706120D01*
X104152Y706055D01*
X104154Y705989D01*
X104172Y705946D01*
X104180Y705899D01*
X104214Y705842D01*
X104239Y705782D01*
X104270Y705747D01*
X104295Y705706D01*
X104346Y705665D01*
X104390Y705616D01*
X104432Y705594D01*
X104469Y705565D01*
X104531Y705544D01*
X104590Y705513D01*
X104644Y705505D01*
X104681Y705493D01*
X104721Y705494D01*
X104775Y705486D01*
X108585Y705486D01*
X108650Y705497D01*
G37*
G36*
X885890Y705497D02*
X885890Y705497D01*
X885956Y705499D01*
X885999Y705517D01*
X886046Y705525D01*
X886103Y705559D01*
X886163Y705584D01*
X886198Y705615D01*
X886239Y705640D01*
X886281Y705691D01*
X886329Y705735D01*
X886351Y705777D01*
X886380Y705814D01*
X886401Y705876D01*
X886432Y705935D01*
X886440Y705989D01*
X886452Y706026D01*
X886451Y706066D01*
X886459Y706120D01*
X886459Y708660D01*
X886448Y708725D01*
X886446Y708791D01*
X886428Y708834D01*
X886420Y708881D01*
X886386Y708938D01*
X886361Y708998D01*
X886330Y709033D01*
X886305Y709074D01*
X886254Y709116D01*
X886210Y709164D01*
X886168Y709186D01*
X886131Y709215D01*
X886069Y709236D01*
X886010Y709267D01*
X885956Y709275D01*
X885919Y709287D01*
X885879Y709286D01*
X885825Y709294D01*
X882015Y709294D01*
X881950Y709283D01*
X881884Y709281D01*
X881841Y709263D01*
X881794Y709255D01*
X881737Y709221D01*
X881677Y709196D01*
X881642Y709165D01*
X881601Y709140D01*
X881560Y709089D01*
X881511Y709045D01*
X881489Y709003D01*
X881460Y708966D01*
X881439Y708904D01*
X881408Y708845D01*
X881400Y708791D01*
X881388Y708754D01*
X881388Y708751D01*
X881389Y708714D01*
X881381Y708660D01*
X881381Y706120D01*
X881392Y706055D01*
X881394Y705989D01*
X881412Y705946D01*
X881420Y705899D01*
X881454Y705842D01*
X881479Y705782D01*
X881510Y705747D01*
X881535Y705706D01*
X881586Y705665D01*
X881630Y705616D01*
X881672Y705594D01*
X881709Y705565D01*
X881771Y705544D01*
X881830Y705513D01*
X881884Y705505D01*
X881921Y705493D01*
X881961Y705494D01*
X882015Y705486D01*
X885825Y705486D01*
X885890Y705497D01*
G37*
G36*
X626810Y705497D02*
X626810Y705497D01*
X626876Y705499D01*
X626919Y705517D01*
X626966Y705525D01*
X627023Y705559D01*
X627083Y705584D01*
X627118Y705615D01*
X627159Y705640D01*
X627201Y705691D01*
X627249Y705735D01*
X627271Y705777D01*
X627300Y705814D01*
X627321Y705876D01*
X627352Y705935D01*
X627360Y705989D01*
X627372Y706026D01*
X627371Y706066D01*
X627379Y706120D01*
X627379Y708660D01*
X627368Y708725D01*
X627366Y708791D01*
X627348Y708834D01*
X627340Y708881D01*
X627306Y708938D01*
X627281Y708998D01*
X627250Y709033D01*
X627225Y709074D01*
X627174Y709116D01*
X627130Y709164D01*
X627088Y709186D01*
X627051Y709215D01*
X626989Y709236D01*
X626930Y709267D01*
X626876Y709275D01*
X626839Y709287D01*
X626799Y709286D01*
X626745Y709294D01*
X622935Y709294D01*
X622870Y709283D01*
X622804Y709281D01*
X622761Y709263D01*
X622714Y709255D01*
X622657Y709221D01*
X622597Y709196D01*
X622562Y709165D01*
X622521Y709140D01*
X622480Y709089D01*
X622431Y709045D01*
X622409Y709003D01*
X622380Y708966D01*
X622359Y708904D01*
X622328Y708845D01*
X622320Y708791D01*
X622308Y708754D01*
X622308Y708751D01*
X622309Y708714D01*
X622301Y708660D01*
X622301Y706120D01*
X622312Y706055D01*
X622314Y705989D01*
X622332Y705946D01*
X622340Y705899D01*
X622374Y705842D01*
X622399Y705782D01*
X622430Y705747D01*
X622455Y705706D01*
X622506Y705665D01*
X622550Y705616D01*
X622592Y705594D01*
X622629Y705565D01*
X622691Y705544D01*
X622750Y705513D01*
X622804Y705505D01*
X622841Y705493D01*
X622881Y705494D01*
X622935Y705486D01*
X626745Y705486D01*
X626810Y705497D01*
G37*
G36*
X1144970Y446417D02*
X1144970Y446417D01*
X1145036Y446419D01*
X1145079Y446437D01*
X1145126Y446445D01*
X1145183Y446479D01*
X1145243Y446504D01*
X1145278Y446535D01*
X1145319Y446560D01*
X1145361Y446611D01*
X1145409Y446655D01*
X1145431Y446697D01*
X1145460Y446734D01*
X1145481Y446796D01*
X1145512Y446855D01*
X1145520Y446909D01*
X1145532Y446946D01*
X1145531Y446986D01*
X1145539Y447040D01*
X1145539Y449580D01*
X1145528Y449645D01*
X1145526Y449711D01*
X1145508Y449754D01*
X1145500Y449801D01*
X1145466Y449858D01*
X1145441Y449918D01*
X1145410Y449953D01*
X1145385Y449994D01*
X1145334Y450036D01*
X1145290Y450084D01*
X1145248Y450106D01*
X1145211Y450135D01*
X1145149Y450156D01*
X1145090Y450187D01*
X1145036Y450195D01*
X1144999Y450207D01*
X1144959Y450206D01*
X1144905Y450214D01*
X1141095Y450214D01*
X1141030Y450203D01*
X1140964Y450201D01*
X1140921Y450183D01*
X1140874Y450175D01*
X1140817Y450141D01*
X1140757Y450116D01*
X1140722Y450085D01*
X1140681Y450060D01*
X1140640Y450009D01*
X1140591Y449965D01*
X1140569Y449923D01*
X1140540Y449886D01*
X1140519Y449824D01*
X1140488Y449765D01*
X1140480Y449711D01*
X1140468Y449674D01*
X1140468Y449671D01*
X1140469Y449634D01*
X1140461Y449580D01*
X1140461Y447040D01*
X1140472Y446975D01*
X1140474Y446909D01*
X1140492Y446866D01*
X1140500Y446819D01*
X1140534Y446762D01*
X1140559Y446702D01*
X1140590Y446667D01*
X1140615Y446626D01*
X1140666Y446585D01*
X1140710Y446536D01*
X1140752Y446514D01*
X1140789Y446485D01*
X1140851Y446464D01*
X1140910Y446433D01*
X1140964Y446425D01*
X1141001Y446413D01*
X1141041Y446414D01*
X1141095Y446406D01*
X1144905Y446406D01*
X1144970Y446417D01*
G37*
G36*
X885890Y446417D02*
X885890Y446417D01*
X885956Y446419D01*
X885999Y446437D01*
X886046Y446445D01*
X886103Y446479D01*
X886163Y446504D01*
X886198Y446535D01*
X886239Y446560D01*
X886281Y446611D01*
X886329Y446655D01*
X886351Y446697D01*
X886380Y446734D01*
X886401Y446796D01*
X886432Y446855D01*
X886440Y446909D01*
X886452Y446946D01*
X886451Y446986D01*
X886459Y447040D01*
X886459Y449580D01*
X886448Y449645D01*
X886446Y449711D01*
X886428Y449754D01*
X886420Y449801D01*
X886386Y449858D01*
X886361Y449918D01*
X886330Y449953D01*
X886305Y449994D01*
X886254Y450036D01*
X886210Y450084D01*
X886168Y450106D01*
X886131Y450135D01*
X886069Y450156D01*
X886010Y450187D01*
X885956Y450195D01*
X885919Y450207D01*
X885879Y450206D01*
X885825Y450214D01*
X882015Y450214D01*
X881950Y450203D01*
X881884Y450201D01*
X881841Y450183D01*
X881794Y450175D01*
X881737Y450141D01*
X881677Y450116D01*
X881642Y450085D01*
X881601Y450060D01*
X881560Y450009D01*
X881511Y449965D01*
X881489Y449923D01*
X881460Y449886D01*
X881439Y449824D01*
X881408Y449765D01*
X881400Y449711D01*
X881388Y449674D01*
X881388Y449671D01*
X881389Y449634D01*
X881381Y449580D01*
X881381Y447040D01*
X881392Y446975D01*
X881394Y446909D01*
X881412Y446866D01*
X881420Y446819D01*
X881454Y446762D01*
X881479Y446702D01*
X881510Y446667D01*
X881535Y446626D01*
X881586Y446585D01*
X881630Y446536D01*
X881672Y446514D01*
X881709Y446485D01*
X881771Y446464D01*
X881830Y446433D01*
X881884Y446425D01*
X881921Y446413D01*
X881961Y446414D01*
X882015Y446406D01*
X885825Y446406D01*
X885890Y446417D01*
G37*
G36*
X1404050Y446417D02*
X1404050Y446417D01*
X1404116Y446419D01*
X1404159Y446437D01*
X1404206Y446445D01*
X1404263Y446479D01*
X1404323Y446504D01*
X1404358Y446535D01*
X1404399Y446560D01*
X1404441Y446611D01*
X1404489Y446655D01*
X1404511Y446697D01*
X1404540Y446734D01*
X1404561Y446796D01*
X1404592Y446855D01*
X1404600Y446909D01*
X1404612Y446946D01*
X1404611Y446986D01*
X1404619Y447040D01*
X1404619Y449580D01*
X1404608Y449645D01*
X1404606Y449711D01*
X1404588Y449754D01*
X1404580Y449801D01*
X1404546Y449858D01*
X1404521Y449918D01*
X1404490Y449953D01*
X1404465Y449994D01*
X1404414Y450036D01*
X1404370Y450084D01*
X1404328Y450106D01*
X1404291Y450135D01*
X1404229Y450156D01*
X1404170Y450187D01*
X1404116Y450195D01*
X1404079Y450207D01*
X1404039Y450206D01*
X1403985Y450214D01*
X1400175Y450214D01*
X1400110Y450203D01*
X1400044Y450201D01*
X1400001Y450183D01*
X1399954Y450175D01*
X1399897Y450141D01*
X1399837Y450116D01*
X1399802Y450085D01*
X1399761Y450060D01*
X1399720Y450009D01*
X1399671Y449965D01*
X1399649Y449923D01*
X1399620Y449886D01*
X1399599Y449824D01*
X1399568Y449765D01*
X1399560Y449711D01*
X1399548Y449674D01*
X1399548Y449671D01*
X1399549Y449634D01*
X1399541Y449580D01*
X1399541Y447040D01*
X1399552Y446975D01*
X1399554Y446909D01*
X1399572Y446866D01*
X1399580Y446819D01*
X1399614Y446762D01*
X1399639Y446702D01*
X1399670Y446667D01*
X1399695Y446626D01*
X1399746Y446585D01*
X1399790Y446536D01*
X1399832Y446514D01*
X1399869Y446485D01*
X1399931Y446464D01*
X1399990Y446433D01*
X1400044Y446425D01*
X1400081Y446413D01*
X1400121Y446414D01*
X1400175Y446406D01*
X1403985Y446406D01*
X1404050Y446417D01*
G37*
G36*
X367730Y446417D02*
X367730Y446417D01*
X367796Y446419D01*
X367839Y446437D01*
X367886Y446445D01*
X367943Y446479D01*
X368003Y446504D01*
X368038Y446535D01*
X368079Y446560D01*
X368121Y446611D01*
X368169Y446655D01*
X368191Y446697D01*
X368220Y446734D01*
X368241Y446796D01*
X368272Y446855D01*
X368280Y446909D01*
X368292Y446946D01*
X368291Y446986D01*
X368299Y447040D01*
X368299Y449580D01*
X368288Y449645D01*
X368286Y449711D01*
X368268Y449754D01*
X368260Y449801D01*
X368226Y449858D01*
X368201Y449918D01*
X368170Y449953D01*
X368145Y449994D01*
X368094Y450036D01*
X368050Y450084D01*
X368008Y450106D01*
X367971Y450135D01*
X367909Y450156D01*
X367850Y450187D01*
X367796Y450195D01*
X367759Y450207D01*
X367719Y450206D01*
X367665Y450214D01*
X363855Y450214D01*
X363790Y450203D01*
X363724Y450201D01*
X363681Y450183D01*
X363634Y450175D01*
X363577Y450141D01*
X363517Y450116D01*
X363482Y450085D01*
X363441Y450060D01*
X363400Y450009D01*
X363351Y449965D01*
X363329Y449923D01*
X363300Y449886D01*
X363279Y449824D01*
X363248Y449765D01*
X363240Y449711D01*
X363228Y449674D01*
X363228Y449671D01*
X363229Y449634D01*
X363221Y449580D01*
X363221Y447040D01*
X363232Y446975D01*
X363234Y446909D01*
X363252Y446866D01*
X363260Y446819D01*
X363294Y446762D01*
X363319Y446702D01*
X363350Y446667D01*
X363375Y446626D01*
X363426Y446585D01*
X363470Y446536D01*
X363512Y446514D01*
X363549Y446485D01*
X363611Y446464D01*
X363670Y446433D01*
X363724Y446425D01*
X363761Y446413D01*
X363801Y446414D01*
X363855Y446406D01*
X367665Y446406D01*
X367730Y446417D01*
G37*
G36*
X108650Y446417D02*
X108650Y446417D01*
X108716Y446419D01*
X108759Y446437D01*
X108806Y446445D01*
X108863Y446479D01*
X108923Y446504D01*
X108958Y446535D01*
X108999Y446560D01*
X109041Y446611D01*
X109089Y446655D01*
X109111Y446697D01*
X109140Y446734D01*
X109161Y446796D01*
X109192Y446855D01*
X109200Y446909D01*
X109212Y446946D01*
X109211Y446986D01*
X109219Y447040D01*
X109219Y449580D01*
X109208Y449645D01*
X109206Y449711D01*
X109188Y449754D01*
X109180Y449801D01*
X109146Y449858D01*
X109121Y449918D01*
X109090Y449953D01*
X109065Y449994D01*
X109014Y450036D01*
X108970Y450084D01*
X108928Y450106D01*
X108891Y450135D01*
X108829Y450156D01*
X108770Y450187D01*
X108716Y450195D01*
X108679Y450207D01*
X108639Y450206D01*
X108585Y450214D01*
X104775Y450214D01*
X104710Y450203D01*
X104644Y450201D01*
X104601Y450183D01*
X104554Y450175D01*
X104497Y450141D01*
X104437Y450116D01*
X104402Y450085D01*
X104361Y450060D01*
X104320Y450009D01*
X104271Y449965D01*
X104249Y449923D01*
X104220Y449886D01*
X104199Y449824D01*
X104168Y449765D01*
X104160Y449711D01*
X104148Y449674D01*
X104148Y449671D01*
X104149Y449634D01*
X104141Y449580D01*
X104141Y447040D01*
X104152Y446975D01*
X104154Y446909D01*
X104172Y446866D01*
X104180Y446819D01*
X104214Y446762D01*
X104239Y446702D01*
X104270Y446667D01*
X104295Y446626D01*
X104346Y446585D01*
X104390Y446536D01*
X104432Y446514D01*
X104469Y446485D01*
X104531Y446464D01*
X104590Y446433D01*
X104644Y446425D01*
X104681Y446413D01*
X104721Y446414D01*
X104775Y446406D01*
X108585Y446406D01*
X108650Y446417D01*
G37*
G36*
X626810Y446417D02*
X626810Y446417D01*
X626876Y446419D01*
X626919Y446437D01*
X626966Y446445D01*
X627023Y446479D01*
X627083Y446504D01*
X627118Y446535D01*
X627159Y446560D01*
X627201Y446611D01*
X627249Y446655D01*
X627271Y446697D01*
X627300Y446734D01*
X627321Y446796D01*
X627352Y446855D01*
X627360Y446909D01*
X627372Y446946D01*
X627371Y446986D01*
X627379Y447040D01*
X627379Y449580D01*
X627368Y449645D01*
X627366Y449711D01*
X627348Y449754D01*
X627340Y449801D01*
X627306Y449858D01*
X627281Y449918D01*
X627250Y449953D01*
X627225Y449994D01*
X627174Y450036D01*
X627130Y450084D01*
X627088Y450106D01*
X627051Y450135D01*
X626989Y450156D01*
X626930Y450187D01*
X626876Y450195D01*
X626839Y450207D01*
X626799Y450206D01*
X626745Y450214D01*
X622935Y450214D01*
X622870Y450203D01*
X622804Y450201D01*
X622761Y450183D01*
X622714Y450175D01*
X622657Y450141D01*
X622597Y450116D01*
X622562Y450085D01*
X622521Y450060D01*
X622480Y450009D01*
X622431Y449965D01*
X622409Y449923D01*
X622380Y449886D01*
X622359Y449824D01*
X622328Y449765D01*
X622320Y449711D01*
X622308Y449674D01*
X622308Y449671D01*
X622309Y449634D01*
X622301Y449580D01*
X622301Y447040D01*
X622312Y446975D01*
X622314Y446909D01*
X622332Y446866D01*
X622340Y446819D01*
X622374Y446762D01*
X622399Y446702D01*
X622430Y446667D01*
X622455Y446626D01*
X622506Y446585D01*
X622550Y446536D01*
X622592Y446514D01*
X622629Y446485D01*
X622691Y446464D01*
X622750Y446433D01*
X622804Y446425D01*
X622841Y446413D01*
X622881Y446414D01*
X622935Y446406D01*
X626745Y446406D01*
X626810Y446417D01*
G37*
G36*
X1404050Y187337D02*
X1404050Y187337D01*
X1404116Y187339D01*
X1404159Y187357D01*
X1404206Y187365D01*
X1404263Y187399D01*
X1404323Y187424D01*
X1404358Y187455D01*
X1404399Y187480D01*
X1404441Y187531D01*
X1404489Y187575D01*
X1404511Y187617D01*
X1404540Y187654D01*
X1404561Y187716D01*
X1404592Y187775D01*
X1404600Y187829D01*
X1404612Y187866D01*
X1404611Y187906D01*
X1404619Y187960D01*
X1404619Y190500D01*
X1404608Y190565D01*
X1404606Y190631D01*
X1404588Y190674D01*
X1404580Y190721D01*
X1404546Y190778D01*
X1404521Y190838D01*
X1404490Y190873D01*
X1404465Y190914D01*
X1404414Y190956D01*
X1404370Y191004D01*
X1404328Y191026D01*
X1404291Y191055D01*
X1404229Y191076D01*
X1404170Y191107D01*
X1404116Y191115D01*
X1404079Y191127D01*
X1404039Y191126D01*
X1403985Y191134D01*
X1400175Y191134D01*
X1400110Y191123D01*
X1400044Y191121D01*
X1400001Y191103D01*
X1399954Y191095D01*
X1399897Y191061D01*
X1399837Y191036D01*
X1399802Y191005D01*
X1399761Y190980D01*
X1399720Y190929D01*
X1399671Y190885D01*
X1399649Y190843D01*
X1399620Y190806D01*
X1399599Y190744D01*
X1399568Y190685D01*
X1399560Y190631D01*
X1399548Y190594D01*
X1399548Y190591D01*
X1399549Y190554D01*
X1399541Y190500D01*
X1399541Y187960D01*
X1399552Y187895D01*
X1399554Y187829D01*
X1399572Y187786D01*
X1399580Y187739D01*
X1399614Y187682D01*
X1399639Y187622D01*
X1399670Y187587D01*
X1399695Y187546D01*
X1399746Y187505D01*
X1399790Y187456D01*
X1399832Y187434D01*
X1399869Y187405D01*
X1399931Y187384D01*
X1399990Y187353D01*
X1400044Y187345D01*
X1400081Y187333D01*
X1400121Y187334D01*
X1400175Y187326D01*
X1403985Y187326D01*
X1404050Y187337D01*
G37*
G36*
X1144970Y187337D02*
X1144970Y187337D01*
X1145036Y187339D01*
X1145079Y187357D01*
X1145126Y187365D01*
X1145183Y187399D01*
X1145243Y187424D01*
X1145278Y187455D01*
X1145319Y187480D01*
X1145361Y187531D01*
X1145409Y187575D01*
X1145431Y187617D01*
X1145460Y187654D01*
X1145481Y187716D01*
X1145512Y187775D01*
X1145520Y187829D01*
X1145532Y187866D01*
X1145531Y187906D01*
X1145539Y187960D01*
X1145539Y190500D01*
X1145528Y190565D01*
X1145526Y190631D01*
X1145508Y190674D01*
X1145500Y190721D01*
X1145466Y190778D01*
X1145441Y190838D01*
X1145410Y190873D01*
X1145385Y190914D01*
X1145334Y190956D01*
X1145290Y191004D01*
X1145248Y191026D01*
X1145211Y191055D01*
X1145149Y191076D01*
X1145090Y191107D01*
X1145036Y191115D01*
X1144999Y191127D01*
X1144959Y191126D01*
X1144905Y191134D01*
X1141095Y191134D01*
X1141030Y191123D01*
X1140964Y191121D01*
X1140921Y191103D01*
X1140874Y191095D01*
X1140817Y191061D01*
X1140757Y191036D01*
X1140722Y191005D01*
X1140681Y190980D01*
X1140640Y190929D01*
X1140591Y190885D01*
X1140569Y190843D01*
X1140540Y190806D01*
X1140519Y190744D01*
X1140488Y190685D01*
X1140480Y190631D01*
X1140468Y190594D01*
X1140468Y190591D01*
X1140469Y190554D01*
X1140461Y190500D01*
X1140461Y187960D01*
X1140472Y187895D01*
X1140474Y187829D01*
X1140492Y187786D01*
X1140500Y187739D01*
X1140534Y187682D01*
X1140559Y187622D01*
X1140590Y187587D01*
X1140615Y187546D01*
X1140666Y187505D01*
X1140710Y187456D01*
X1140752Y187434D01*
X1140789Y187405D01*
X1140851Y187384D01*
X1140910Y187353D01*
X1140964Y187345D01*
X1141001Y187333D01*
X1141041Y187334D01*
X1141095Y187326D01*
X1144905Y187326D01*
X1144970Y187337D01*
G37*
G36*
X885890Y187337D02*
X885890Y187337D01*
X885956Y187339D01*
X885999Y187357D01*
X886046Y187365D01*
X886103Y187399D01*
X886163Y187424D01*
X886198Y187455D01*
X886239Y187480D01*
X886281Y187531D01*
X886329Y187575D01*
X886351Y187617D01*
X886380Y187654D01*
X886401Y187716D01*
X886432Y187775D01*
X886440Y187829D01*
X886452Y187866D01*
X886451Y187906D01*
X886459Y187960D01*
X886459Y190500D01*
X886448Y190565D01*
X886446Y190631D01*
X886428Y190674D01*
X886420Y190721D01*
X886386Y190778D01*
X886361Y190838D01*
X886330Y190873D01*
X886305Y190914D01*
X886254Y190956D01*
X886210Y191004D01*
X886168Y191026D01*
X886131Y191055D01*
X886069Y191076D01*
X886010Y191107D01*
X885956Y191115D01*
X885919Y191127D01*
X885879Y191126D01*
X885825Y191134D01*
X882015Y191134D01*
X881950Y191123D01*
X881884Y191121D01*
X881841Y191103D01*
X881794Y191095D01*
X881737Y191061D01*
X881677Y191036D01*
X881642Y191005D01*
X881601Y190980D01*
X881560Y190929D01*
X881511Y190885D01*
X881489Y190843D01*
X881460Y190806D01*
X881439Y190744D01*
X881408Y190685D01*
X881400Y190631D01*
X881388Y190594D01*
X881388Y190591D01*
X881389Y190554D01*
X881381Y190500D01*
X881381Y187960D01*
X881392Y187895D01*
X881394Y187829D01*
X881412Y187786D01*
X881420Y187739D01*
X881454Y187682D01*
X881479Y187622D01*
X881510Y187587D01*
X881535Y187546D01*
X881586Y187505D01*
X881630Y187456D01*
X881672Y187434D01*
X881709Y187405D01*
X881771Y187384D01*
X881830Y187353D01*
X881884Y187345D01*
X881921Y187333D01*
X881961Y187334D01*
X882015Y187326D01*
X885825Y187326D01*
X885890Y187337D01*
G37*
G36*
X626810Y187337D02*
X626810Y187337D01*
X626876Y187339D01*
X626919Y187357D01*
X626966Y187365D01*
X627023Y187399D01*
X627083Y187424D01*
X627118Y187455D01*
X627159Y187480D01*
X627201Y187531D01*
X627249Y187575D01*
X627271Y187617D01*
X627300Y187654D01*
X627321Y187716D01*
X627352Y187775D01*
X627360Y187829D01*
X627372Y187866D01*
X627371Y187906D01*
X627379Y187960D01*
X627379Y190500D01*
X627368Y190565D01*
X627366Y190631D01*
X627348Y190674D01*
X627340Y190721D01*
X627306Y190778D01*
X627281Y190838D01*
X627250Y190873D01*
X627225Y190914D01*
X627174Y190956D01*
X627130Y191004D01*
X627088Y191026D01*
X627051Y191055D01*
X626989Y191076D01*
X626930Y191107D01*
X626876Y191115D01*
X626839Y191127D01*
X626799Y191126D01*
X626745Y191134D01*
X622935Y191134D01*
X622870Y191123D01*
X622804Y191121D01*
X622761Y191103D01*
X622714Y191095D01*
X622657Y191061D01*
X622597Y191036D01*
X622562Y191005D01*
X622521Y190980D01*
X622480Y190929D01*
X622431Y190885D01*
X622409Y190843D01*
X622380Y190806D01*
X622359Y190744D01*
X622328Y190685D01*
X622320Y190631D01*
X622308Y190594D01*
X622308Y190591D01*
X622309Y190554D01*
X622301Y190500D01*
X622301Y187960D01*
X622312Y187895D01*
X622314Y187829D01*
X622332Y187786D01*
X622340Y187739D01*
X622374Y187682D01*
X622399Y187622D01*
X622430Y187587D01*
X622455Y187546D01*
X622506Y187505D01*
X622550Y187456D01*
X622592Y187434D01*
X622629Y187405D01*
X622691Y187384D01*
X622750Y187353D01*
X622804Y187345D01*
X622841Y187333D01*
X622881Y187334D01*
X622935Y187326D01*
X626745Y187326D01*
X626810Y187337D01*
G37*
G36*
X367730Y187337D02*
X367730Y187337D01*
X367796Y187339D01*
X367839Y187357D01*
X367886Y187365D01*
X367943Y187399D01*
X368003Y187424D01*
X368038Y187455D01*
X368079Y187480D01*
X368121Y187531D01*
X368169Y187575D01*
X368191Y187617D01*
X368220Y187654D01*
X368241Y187716D01*
X368272Y187775D01*
X368280Y187829D01*
X368292Y187866D01*
X368291Y187906D01*
X368299Y187960D01*
X368299Y190500D01*
X368288Y190565D01*
X368286Y190631D01*
X368268Y190674D01*
X368260Y190721D01*
X368226Y190778D01*
X368201Y190838D01*
X368170Y190873D01*
X368145Y190914D01*
X368094Y190956D01*
X368050Y191004D01*
X368008Y191026D01*
X367971Y191055D01*
X367909Y191076D01*
X367850Y191107D01*
X367796Y191115D01*
X367759Y191127D01*
X367719Y191126D01*
X367665Y191134D01*
X363855Y191134D01*
X363790Y191123D01*
X363724Y191121D01*
X363681Y191103D01*
X363634Y191095D01*
X363577Y191061D01*
X363517Y191036D01*
X363482Y191005D01*
X363441Y190980D01*
X363400Y190929D01*
X363351Y190885D01*
X363329Y190843D01*
X363300Y190806D01*
X363279Y190744D01*
X363248Y190685D01*
X363240Y190631D01*
X363228Y190594D01*
X363228Y190591D01*
X363229Y190554D01*
X363221Y190500D01*
X363221Y187960D01*
X363232Y187895D01*
X363234Y187829D01*
X363252Y187786D01*
X363260Y187739D01*
X363294Y187682D01*
X363319Y187622D01*
X363350Y187587D01*
X363375Y187546D01*
X363426Y187505D01*
X363470Y187456D01*
X363512Y187434D01*
X363549Y187405D01*
X363611Y187384D01*
X363670Y187353D01*
X363724Y187345D01*
X363761Y187333D01*
X363801Y187334D01*
X363855Y187326D01*
X367665Y187326D01*
X367730Y187337D01*
G37*
G36*
X108650Y187337D02*
X108650Y187337D01*
X108716Y187339D01*
X108759Y187357D01*
X108806Y187365D01*
X108863Y187399D01*
X108923Y187424D01*
X108958Y187455D01*
X108999Y187480D01*
X109041Y187531D01*
X109089Y187575D01*
X109111Y187617D01*
X109140Y187654D01*
X109161Y187716D01*
X109192Y187775D01*
X109200Y187829D01*
X109212Y187866D01*
X109211Y187906D01*
X109219Y187960D01*
X109219Y190500D01*
X109208Y190565D01*
X109206Y190631D01*
X109188Y190674D01*
X109180Y190721D01*
X109146Y190778D01*
X109121Y190838D01*
X109090Y190873D01*
X109065Y190914D01*
X109014Y190956D01*
X108970Y191004D01*
X108928Y191026D01*
X108891Y191055D01*
X108829Y191076D01*
X108770Y191107D01*
X108716Y191115D01*
X108679Y191127D01*
X108639Y191126D01*
X108585Y191134D01*
X104775Y191134D01*
X104710Y191123D01*
X104644Y191121D01*
X104601Y191103D01*
X104554Y191095D01*
X104497Y191061D01*
X104437Y191036D01*
X104402Y191005D01*
X104361Y190980D01*
X104320Y190929D01*
X104271Y190885D01*
X104249Y190843D01*
X104220Y190806D01*
X104199Y190744D01*
X104168Y190685D01*
X104160Y190631D01*
X104148Y190594D01*
X104148Y190591D01*
X104149Y190554D01*
X104141Y190500D01*
X104141Y187960D01*
X104152Y187895D01*
X104154Y187829D01*
X104172Y187786D01*
X104180Y187739D01*
X104214Y187682D01*
X104239Y187622D01*
X104270Y187587D01*
X104295Y187546D01*
X104346Y187505D01*
X104390Y187456D01*
X104432Y187434D01*
X104469Y187405D01*
X104531Y187384D01*
X104590Y187353D01*
X104644Y187345D01*
X104681Y187333D01*
X104721Y187334D01*
X104775Y187326D01*
X108585Y187326D01*
X108650Y187337D01*
G37*
D10*
X165100Y165100D03*
X88900Y88900D03*
D11*
X63500Y152400D03*
X190500Y101600D03*
D12*
X114691Y195082D02*
X109083Y195082D01*
X114691Y195082D02*
X114691Y183378D01*
X109083Y183378D01*
X109083Y195082D01*
X109083Y185772D02*
X114691Y185772D01*
X114691Y188166D02*
X109083Y188166D01*
X109083Y190560D02*
X114691Y190560D01*
X114691Y192954D02*
X109083Y192954D01*
X104277Y195082D02*
X98669Y195082D01*
X104277Y195082D02*
X104277Y183378D01*
X98669Y183378D01*
X98669Y195082D01*
X98669Y185772D02*
X104277Y185772D01*
X104277Y188166D02*
X98669Y188166D01*
X98669Y190560D02*
X104277Y190560D01*
X104277Y192954D02*
X98669Y192954D01*
D10*
X424180Y165100D03*
X347980Y88900D03*
D11*
X322580Y152400D03*
X449580Y101600D03*
D12*
X373771Y195082D02*
X368163Y195082D01*
X373771Y195082D02*
X373771Y183378D01*
X368163Y183378D01*
X368163Y195082D01*
X368163Y185772D02*
X373771Y185772D01*
X373771Y188166D02*
X368163Y188166D01*
X368163Y190560D02*
X373771Y190560D01*
X373771Y192954D02*
X368163Y192954D01*
X363357Y195082D02*
X357749Y195082D01*
X363357Y195082D02*
X363357Y183378D01*
X357749Y183378D01*
X357749Y195082D01*
X357749Y185772D02*
X363357Y185772D01*
X363357Y188166D02*
X357749Y188166D01*
X357749Y190560D02*
X363357Y190560D01*
X363357Y192954D02*
X357749Y192954D01*
D10*
X683260Y165100D03*
X607060Y88900D03*
D11*
X581660Y152400D03*
X708660Y101600D03*
D12*
X632851Y195082D02*
X627243Y195082D01*
X632851Y195082D02*
X632851Y183378D01*
X627243Y183378D01*
X627243Y195082D01*
X627243Y185772D02*
X632851Y185772D01*
X632851Y188166D02*
X627243Y188166D01*
X627243Y190560D02*
X632851Y190560D01*
X632851Y192954D02*
X627243Y192954D01*
X622437Y195082D02*
X616829Y195082D01*
X622437Y195082D02*
X622437Y183378D01*
X616829Y183378D01*
X616829Y195082D01*
X616829Y185772D02*
X622437Y185772D01*
X622437Y188166D02*
X616829Y188166D01*
X616829Y190560D02*
X622437Y190560D01*
X622437Y192954D02*
X616829Y192954D01*
D10*
X942340Y165100D03*
X866140Y88900D03*
D11*
X840740Y152400D03*
X967740Y101600D03*
D12*
X891931Y195082D02*
X886323Y195082D01*
X891931Y195082D02*
X891931Y183378D01*
X886323Y183378D01*
X886323Y195082D01*
X886323Y185772D02*
X891931Y185772D01*
X891931Y188166D02*
X886323Y188166D01*
X886323Y190560D02*
X891931Y190560D01*
X891931Y192954D02*
X886323Y192954D01*
X881517Y195082D02*
X875909Y195082D01*
X881517Y195082D02*
X881517Y183378D01*
X875909Y183378D01*
X875909Y195082D01*
X875909Y185772D02*
X881517Y185772D01*
X881517Y188166D02*
X875909Y188166D01*
X875909Y190560D02*
X881517Y190560D01*
X881517Y192954D02*
X875909Y192954D01*
D10*
X1201420Y165100D03*
X1125220Y88900D03*
D11*
X1099820Y152400D03*
X1226820Y101600D03*
D12*
X1151011Y195082D02*
X1145403Y195082D01*
X1151011Y195082D02*
X1151011Y183378D01*
X1145403Y183378D01*
X1145403Y195082D01*
X1145403Y185772D02*
X1151011Y185772D01*
X1151011Y188166D02*
X1145403Y188166D01*
X1145403Y190560D02*
X1151011Y190560D01*
X1151011Y192954D02*
X1145403Y192954D01*
X1140597Y195082D02*
X1134989Y195082D01*
X1140597Y195082D02*
X1140597Y183378D01*
X1134989Y183378D01*
X1134989Y195082D01*
X1134989Y185772D02*
X1140597Y185772D01*
X1140597Y188166D02*
X1134989Y188166D01*
X1134989Y190560D02*
X1140597Y190560D01*
X1140597Y192954D02*
X1134989Y192954D01*
D10*
X1460500Y165100D03*
X1384300Y88900D03*
D11*
X1358900Y152400D03*
X1485900Y101600D03*
D12*
X1410091Y195082D02*
X1404483Y195082D01*
X1410091Y195082D02*
X1410091Y183378D01*
X1404483Y183378D01*
X1404483Y195082D01*
X1404483Y185772D02*
X1410091Y185772D01*
X1410091Y188166D02*
X1404483Y188166D01*
X1404483Y190560D02*
X1410091Y190560D01*
X1410091Y192954D02*
X1404483Y192954D01*
X1399677Y195082D02*
X1394069Y195082D01*
X1399677Y195082D02*
X1399677Y183378D01*
X1394069Y183378D01*
X1394069Y195082D01*
X1394069Y185772D02*
X1399677Y185772D01*
X1399677Y188166D02*
X1394069Y188166D01*
X1394069Y190560D02*
X1399677Y190560D01*
X1399677Y192954D02*
X1394069Y192954D01*
D10*
X165100Y424180D03*
X88900Y347980D03*
D11*
X63500Y411480D03*
X190500Y360680D03*
D12*
X114691Y454162D02*
X109083Y454162D01*
X114691Y454162D02*
X114691Y442458D01*
X109083Y442458D01*
X109083Y454162D01*
X109083Y444852D02*
X114691Y444852D01*
X114691Y447246D02*
X109083Y447246D01*
X109083Y449640D02*
X114691Y449640D01*
X114691Y452034D02*
X109083Y452034D01*
X104277Y454162D02*
X98669Y454162D01*
X104277Y454162D02*
X104277Y442458D01*
X98669Y442458D01*
X98669Y454162D01*
X98669Y444852D02*
X104277Y444852D01*
X104277Y447246D02*
X98669Y447246D01*
X98669Y449640D02*
X104277Y449640D01*
X104277Y452034D02*
X98669Y452034D01*
D10*
X424180Y424180D03*
X347980Y347980D03*
D11*
X322580Y411480D03*
X449580Y360680D03*
D12*
X373771Y454162D02*
X368163Y454162D01*
X373771Y454162D02*
X373771Y442458D01*
X368163Y442458D01*
X368163Y454162D01*
X368163Y444852D02*
X373771Y444852D01*
X373771Y447246D02*
X368163Y447246D01*
X368163Y449640D02*
X373771Y449640D01*
X373771Y452034D02*
X368163Y452034D01*
X363357Y454162D02*
X357749Y454162D01*
X363357Y454162D02*
X363357Y442458D01*
X357749Y442458D01*
X357749Y454162D01*
X357749Y444852D02*
X363357Y444852D01*
X363357Y447246D02*
X357749Y447246D01*
X357749Y449640D02*
X363357Y449640D01*
X363357Y452034D02*
X357749Y452034D01*
D10*
X683260Y424180D03*
X607060Y347980D03*
D11*
X581660Y411480D03*
X708660Y360680D03*
D12*
X632851Y454162D02*
X627243Y454162D01*
X632851Y454162D02*
X632851Y442458D01*
X627243Y442458D01*
X627243Y454162D01*
X627243Y444852D02*
X632851Y444852D01*
X632851Y447246D02*
X627243Y447246D01*
X627243Y449640D02*
X632851Y449640D01*
X632851Y452034D02*
X627243Y452034D01*
X622437Y454162D02*
X616829Y454162D01*
X622437Y454162D02*
X622437Y442458D01*
X616829Y442458D01*
X616829Y454162D01*
X616829Y444852D02*
X622437Y444852D01*
X622437Y447246D02*
X616829Y447246D01*
X616829Y449640D02*
X622437Y449640D01*
X622437Y452034D02*
X616829Y452034D01*
D10*
X942340Y424180D03*
X866140Y347980D03*
D11*
X840740Y411480D03*
X967740Y360680D03*
D12*
X891931Y454162D02*
X886323Y454162D01*
X891931Y454162D02*
X891931Y442458D01*
X886323Y442458D01*
X886323Y454162D01*
X886323Y444852D02*
X891931Y444852D01*
X891931Y447246D02*
X886323Y447246D01*
X886323Y449640D02*
X891931Y449640D01*
X891931Y452034D02*
X886323Y452034D01*
X881517Y454162D02*
X875909Y454162D01*
X881517Y454162D02*
X881517Y442458D01*
X875909Y442458D01*
X875909Y454162D01*
X875909Y444852D02*
X881517Y444852D01*
X881517Y447246D02*
X875909Y447246D01*
X875909Y449640D02*
X881517Y449640D01*
X881517Y452034D02*
X875909Y452034D01*
D10*
X1201420Y424180D03*
X1125220Y347980D03*
D11*
X1099820Y411480D03*
X1226820Y360680D03*
D12*
X1151011Y454162D02*
X1145403Y454162D01*
X1151011Y454162D02*
X1151011Y442458D01*
X1145403Y442458D01*
X1145403Y454162D01*
X1145403Y444852D02*
X1151011Y444852D01*
X1151011Y447246D02*
X1145403Y447246D01*
X1145403Y449640D02*
X1151011Y449640D01*
X1151011Y452034D02*
X1145403Y452034D01*
X1140597Y454162D02*
X1134989Y454162D01*
X1140597Y454162D02*
X1140597Y442458D01*
X1134989Y442458D01*
X1134989Y454162D01*
X1134989Y444852D02*
X1140597Y444852D01*
X1140597Y447246D02*
X1134989Y447246D01*
X1134989Y449640D02*
X1140597Y449640D01*
X1140597Y452034D02*
X1134989Y452034D01*
D10*
X1460500Y424180D03*
X1384300Y347980D03*
D11*
X1358900Y411480D03*
X1485900Y360680D03*
D12*
X1410091Y454162D02*
X1404483Y454162D01*
X1410091Y454162D02*
X1410091Y442458D01*
X1404483Y442458D01*
X1404483Y454162D01*
X1404483Y444852D02*
X1410091Y444852D01*
X1410091Y447246D02*
X1404483Y447246D01*
X1404483Y449640D02*
X1410091Y449640D01*
X1410091Y452034D02*
X1404483Y452034D01*
X1399677Y454162D02*
X1394069Y454162D01*
X1399677Y454162D02*
X1399677Y442458D01*
X1394069Y442458D01*
X1394069Y454162D01*
X1394069Y444852D02*
X1399677Y444852D01*
X1399677Y447246D02*
X1394069Y447246D01*
X1394069Y449640D02*
X1399677Y449640D01*
X1399677Y452034D02*
X1394069Y452034D01*
D10*
X165100Y683260D03*
X88900Y607060D03*
D11*
X63500Y670560D03*
X190500Y619760D03*
D12*
X114691Y713242D02*
X109083Y713242D01*
X114691Y713242D02*
X114691Y701538D01*
X109083Y701538D01*
X109083Y713242D01*
X109083Y703932D02*
X114691Y703932D01*
X114691Y706326D02*
X109083Y706326D01*
X109083Y708720D02*
X114691Y708720D01*
X114691Y711114D02*
X109083Y711114D01*
X104277Y713242D02*
X98669Y713242D01*
X104277Y713242D02*
X104277Y701538D01*
X98669Y701538D01*
X98669Y713242D01*
X98669Y703932D02*
X104277Y703932D01*
X104277Y706326D02*
X98669Y706326D01*
X98669Y708720D02*
X104277Y708720D01*
X104277Y711114D02*
X98669Y711114D01*
D10*
X424180Y683260D03*
X347980Y607060D03*
D11*
X322580Y670560D03*
X449580Y619760D03*
D12*
X373771Y713242D02*
X368163Y713242D01*
X373771Y713242D02*
X373771Y701538D01*
X368163Y701538D01*
X368163Y713242D01*
X368163Y703932D02*
X373771Y703932D01*
X373771Y706326D02*
X368163Y706326D01*
X368163Y708720D02*
X373771Y708720D01*
X373771Y711114D02*
X368163Y711114D01*
X363357Y713242D02*
X357749Y713242D01*
X363357Y713242D02*
X363357Y701538D01*
X357749Y701538D01*
X357749Y713242D01*
X357749Y703932D02*
X363357Y703932D01*
X363357Y706326D02*
X357749Y706326D01*
X357749Y708720D02*
X363357Y708720D01*
X363357Y711114D02*
X357749Y711114D01*
D10*
X683260Y683260D03*
X607060Y607060D03*
D11*
X581660Y670560D03*
X708660Y619760D03*
D12*
X632851Y713242D02*
X627243Y713242D01*
X632851Y713242D02*
X632851Y701538D01*
X627243Y701538D01*
X627243Y713242D01*
X627243Y703932D02*
X632851Y703932D01*
X632851Y706326D02*
X627243Y706326D01*
X627243Y708720D02*
X632851Y708720D01*
X632851Y711114D02*
X627243Y711114D01*
X622437Y713242D02*
X616829Y713242D01*
X622437Y713242D02*
X622437Y701538D01*
X616829Y701538D01*
X616829Y713242D01*
X616829Y703932D02*
X622437Y703932D01*
X622437Y706326D02*
X616829Y706326D01*
X616829Y708720D02*
X622437Y708720D01*
X622437Y711114D02*
X616829Y711114D01*
D10*
X942340Y683260D03*
X866140Y607060D03*
D11*
X840740Y670560D03*
X967740Y619760D03*
D12*
X891931Y713242D02*
X886323Y713242D01*
X891931Y713242D02*
X891931Y701538D01*
X886323Y701538D01*
X886323Y713242D01*
X886323Y703932D02*
X891931Y703932D01*
X891931Y706326D02*
X886323Y706326D01*
X886323Y708720D02*
X891931Y708720D01*
X891931Y711114D02*
X886323Y711114D01*
X881517Y713242D02*
X875909Y713242D01*
X881517Y713242D02*
X881517Y701538D01*
X875909Y701538D01*
X875909Y713242D01*
X875909Y703932D02*
X881517Y703932D01*
X881517Y706326D02*
X875909Y706326D01*
X875909Y708720D02*
X881517Y708720D01*
X881517Y711114D02*
X875909Y711114D01*
D10*
X1201420Y683260D03*
X1125220Y607060D03*
D11*
X1099820Y670560D03*
X1226820Y619760D03*
D12*
X1151011Y713242D02*
X1145403Y713242D01*
X1151011Y713242D02*
X1151011Y701538D01*
X1145403Y701538D01*
X1145403Y713242D01*
X1145403Y703932D02*
X1151011Y703932D01*
X1151011Y706326D02*
X1145403Y706326D01*
X1145403Y708720D02*
X1151011Y708720D01*
X1151011Y711114D02*
X1145403Y711114D01*
X1140597Y713242D02*
X1134989Y713242D01*
X1140597Y713242D02*
X1140597Y701538D01*
X1134989Y701538D01*
X1134989Y713242D01*
X1134989Y703932D02*
X1140597Y703932D01*
X1140597Y706326D02*
X1134989Y706326D01*
X1134989Y708720D02*
X1140597Y708720D01*
X1140597Y711114D02*
X1134989Y711114D01*
D10*
X1460500Y683260D03*
X1384300Y607060D03*
D11*
X1358900Y670560D03*
X1485900Y619760D03*
D12*
X1410091Y713242D02*
X1404483Y713242D01*
X1410091Y713242D02*
X1410091Y701538D01*
X1404483Y701538D01*
X1404483Y713242D01*
X1404483Y703932D02*
X1410091Y703932D01*
X1410091Y706326D02*
X1404483Y706326D01*
X1404483Y708720D02*
X1410091Y708720D01*
X1410091Y711114D02*
X1404483Y711114D01*
X1399677Y713242D02*
X1394069Y713242D01*
X1399677Y713242D02*
X1399677Y701538D01*
X1394069Y701538D01*
X1394069Y713242D01*
X1394069Y703932D02*
X1399677Y703932D01*
X1399677Y706326D02*
X1394069Y706326D01*
X1394069Y708720D02*
X1399677Y708720D01*
X1399677Y711114D02*
X1394069Y711114D01*
D10*
X165100Y942340D03*
X88900Y866140D03*
D11*
X63500Y929640D03*
X190500Y878840D03*
D12*
X114691Y972322D02*
X109083Y972322D01*
X114691Y972322D02*
X114691Y960618D01*
X109083Y960618D01*
X109083Y972322D01*
X109083Y963012D02*
X114691Y963012D01*
X114691Y965406D02*
X109083Y965406D01*
X109083Y967800D02*
X114691Y967800D01*
X114691Y970194D02*
X109083Y970194D01*
X104277Y972322D02*
X98669Y972322D01*
X104277Y972322D02*
X104277Y960618D01*
X98669Y960618D01*
X98669Y972322D01*
X98669Y963012D02*
X104277Y963012D01*
X104277Y965406D02*
X98669Y965406D01*
X98669Y967800D02*
X104277Y967800D01*
X104277Y970194D02*
X98669Y970194D01*
D10*
X424180Y942340D03*
X347980Y866140D03*
D11*
X322580Y929640D03*
X449580Y878840D03*
D12*
X373771Y972322D02*
X368163Y972322D01*
X373771Y972322D02*
X373771Y960618D01*
X368163Y960618D01*
X368163Y972322D01*
X368163Y963012D02*
X373771Y963012D01*
X373771Y965406D02*
X368163Y965406D01*
X368163Y967800D02*
X373771Y967800D01*
X373771Y970194D02*
X368163Y970194D01*
X363357Y972322D02*
X357749Y972322D01*
X363357Y972322D02*
X363357Y960618D01*
X357749Y960618D01*
X357749Y972322D01*
X357749Y963012D02*
X363357Y963012D01*
X363357Y965406D02*
X357749Y965406D01*
X357749Y967800D02*
X363357Y967800D01*
X363357Y970194D02*
X357749Y970194D01*
D10*
X683260Y942340D03*
X607060Y866140D03*
D11*
X581660Y929640D03*
X708660Y878840D03*
D12*
X632851Y972322D02*
X627243Y972322D01*
X632851Y972322D02*
X632851Y960618D01*
X627243Y960618D01*
X627243Y972322D01*
X627243Y963012D02*
X632851Y963012D01*
X632851Y965406D02*
X627243Y965406D01*
X627243Y967800D02*
X632851Y967800D01*
X632851Y970194D02*
X627243Y970194D01*
X622437Y972322D02*
X616829Y972322D01*
X622437Y972322D02*
X622437Y960618D01*
X616829Y960618D01*
X616829Y972322D01*
X616829Y963012D02*
X622437Y963012D01*
X622437Y965406D02*
X616829Y965406D01*
X616829Y967800D02*
X622437Y967800D01*
X622437Y970194D02*
X616829Y970194D01*
D10*
X942340Y942340D03*
X866140Y866140D03*
D11*
X840740Y929640D03*
X967740Y878840D03*
D12*
X891931Y972322D02*
X886323Y972322D01*
X891931Y972322D02*
X891931Y960618D01*
X886323Y960618D01*
X886323Y972322D01*
X886323Y963012D02*
X891931Y963012D01*
X891931Y965406D02*
X886323Y965406D01*
X886323Y967800D02*
X891931Y967800D01*
X891931Y970194D02*
X886323Y970194D01*
X881517Y972322D02*
X875909Y972322D01*
X881517Y972322D02*
X881517Y960618D01*
X875909Y960618D01*
X875909Y972322D01*
X875909Y963012D02*
X881517Y963012D01*
X881517Y965406D02*
X875909Y965406D01*
X875909Y967800D02*
X881517Y967800D01*
X881517Y970194D02*
X875909Y970194D01*
D10*
X1201420Y942340D03*
X1125220Y866140D03*
D11*
X1099820Y929640D03*
X1226820Y878840D03*
D12*
X1151011Y972322D02*
X1145403Y972322D01*
X1151011Y972322D02*
X1151011Y960618D01*
X1145403Y960618D01*
X1145403Y972322D01*
X1145403Y963012D02*
X1151011Y963012D01*
X1151011Y965406D02*
X1145403Y965406D01*
X1145403Y967800D02*
X1151011Y967800D01*
X1151011Y970194D02*
X1145403Y970194D01*
X1140597Y972322D02*
X1134989Y972322D01*
X1140597Y972322D02*
X1140597Y960618D01*
X1134989Y960618D01*
X1134989Y972322D01*
X1134989Y963012D02*
X1140597Y963012D01*
X1140597Y965406D02*
X1134989Y965406D01*
X1134989Y967800D02*
X1140597Y967800D01*
X1140597Y970194D02*
X1134989Y970194D01*
D10*
X1460500Y942340D03*
X1384300Y866140D03*
D11*
X1358900Y929640D03*
X1485900Y878840D03*
D12*
X1410091Y972322D02*
X1404483Y972322D01*
X1410091Y972322D02*
X1410091Y960618D01*
X1404483Y960618D01*
X1404483Y972322D01*
X1404483Y963012D02*
X1410091Y963012D01*
X1410091Y965406D02*
X1404483Y965406D01*
X1404483Y967800D02*
X1410091Y967800D01*
X1410091Y970194D02*
X1404483Y970194D01*
X1399677Y972322D02*
X1394069Y972322D01*
X1399677Y972322D02*
X1399677Y960618D01*
X1394069Y960618D01*
X1394069Y972322D01*
X1394069Y963012D02*
X1399677Y963012D01*
X1399677Y965406D02*
X1394069Y965406D01*
X1394069Y967800D02*
X1399677Y967800D01*
X1399677Y970194D02*
X1394069Y970194D01*
D13*
X-26238Y1004570D03*
X1575638Y1004570D03*
D14*
X-35293Y63500D02*
X-35290Y63722D01*
X-35282Y63944D01*
X-35268Y64166D01*
X-35249Y64388D01*
X-35225Y64608D01*
X-35195Y64829D01*
X-35160Y65048D01*
X-35119Y65267D01*
X-35073Y65484D01*
X-35022Y65700D01*
X-34965Y65915D01*
X-34903Y66129D01*
X-34836Y66340D01*
X-34764Y66551D01*
X-34686Y66759D01*
X-34604Y66965D01*
X-34516Y67169D01*
X-34424Y67372D01*
X-34326Y67571D01*
X-34224Y67768D01*
X-34117Y67963D01*
X-34005Y68155D01*
X-33888Y68344D01*
X-33767Y68531D01*
X-33641Y68714D01*
X-33511Y68894D01*
X-33376Y69071D01*
X-33238Y69244D01*
X-33095Y69414D01*
X-32947Y69581D01*
X-32796Y69744D01*
X-32641Y69903D01*
X-32482Y70058D01*
X-32319Y70209D01*
X-32152Y70357D01*
X-31982Y70500D01*
X-31809Y70638D01*
X-31632Y70773D01*
X-31452Y70903D01*
X-31269Y71029D01*
X-31082Y71150D01*
X-30893Y71267D01*
X-30701Y71379D01*
X-30506Y71486D01*
X-30309Y71588D01*
X-30110Y71686D01*
X-29907Y71778D01*
X-29703Y71866D01*
X-29497Y71948D01*
X-29289Y72026D01*
X-29078Y72098D01*
X-28867Y72165D01*
X-28653Y72227D01*
X-28438Y72284D01*
X-28222Y72335D01*
X-28005Y72381D01*
X-27786Y72422D01*
X-27567Y72457D01*
X-27346Y72487D01*
X-27126Y72511D01*
X-26904Y72530D01*
X-26682Y72544D01*
X-26460Y72552D01*
X-26238Y72555D01*
X-26016Y72552D01*
X-25794Y72544D01*
X-25572Y72530D01*
X-25350Y72511D01*
X-25130Y72487D01*
X-24909Y72457D01*
X-24690Y72422D01*
X-24471Y72381D01*
X-24254Y72335D01*
X-24038Y72284D01*
X-23823Y72227D01*
X-23609Y72165D01*
X-23398Y72098D01*
X-23187Y72026D01*
X-22979Y71948D01*
X-22773Y71866D01*
X-22569Y71778D01*
X-22366Y71686D01*
X-22167Y71588D01*
X-21970Y71486D01*
X-21775Y71379D01*
X-21583Y71267D01*
X-21394Y71150D01*
X-21207Y71029D01*
X-21024Y70903D01*
X-20844Y70773D01*
X-20667Y70638D01*
X-20494Y70500D01*
X-20324Y70357D01*
X-20157Y70209D01*
X-19994Y70058D01*
X-19835Y69903D01*
X-19680Y69744D01*
X-19529Y69581D01*
X-19381Y69414D01*
X-19238Y69244D01*
X-19100Y69071D01*
X-18965Y68894D01*
X-18835Y68714D01*
X-18709Y68531D01*
X-18588Y68344D01*
X-18471Y68155D01*
X-18359Y67963D01*
X-18252Y67768D01*
X-18150Y67571D01*
X-18052Y67372D01*
X-17960Y67169D01*
X-17872Y66965D01*
X-17790Y66759D01*
X-17712Y66551D01*
X-17640Y66340D01*
X-17573Y66129D01*
X-17511Y65915D01*
X-17454Y65700D01*
X-17403Y65484D01*
X-17357Y65267D01*
X-17316Y65048D01*
X-17281Y64829D01*
X-17251Y64608D01*
X-17227Y64388D01*
X-17208Y64166D01*
X-17194Y63944D01*
X-17186Y63722D01*
X-17183Y63500D01*
X-17186Y63278D01*
X-17194Y63056D01*
X-17208Y62834D01*
X-17227Y62612D01*
X-17251Y62392D01*
X-17281Y62171D01*
X-17316Y61952D01*
X-17357Y61733D01*
X-17403Y61516D01*
X-17454Y61300D01*
X-17511Y61085D01*
X-17573Y60871D01*
X-17640Y60660D01*
X-17712Y60449D01*
X-17790Y60241D01*
X-17872Y60035D01*
X-17960Y59831D01*
X-18052Y59628D01*
X-18150Y59429D01*
X-18252Y59232D01*
X-18359Y59037D01*
X-18471Y58845D01*
X-18588Y58656D01*
X-18709Y58469D01*
X-18835Y58286D01*
X-18965Y58106D01*
X-19100Y57929D01*
X-19238Y57756D01*
X-19381Y57586D01*
X-19529Y57419D01*
X-19680Y57256D01*
X-19835Y57097D01*
X-19994Y56942D01*
X-20157Y56791D01*
X-20324Y56643D01*
X-20494Y56500D01*
X-20667Y56362D01*
X-20844Y56227D01*
X-21024Y56097D01*
X-21207Y55971D01*
X-21394Y55850D01*
X-21583Y55733D01*
X-21775Y55621D01*
X-21970Y55514D01*
X-22167Y55412D01*
X-22366Y55314D01*
X-22569Y55222D01*
X-22773Y55134D01*
X-22979Y55052D01*
X-23187Y54974D01*
X-23398Y54902D01*
X-23609Y54835D01*
X-23823Y54773D01*
X-24038Y54716D01*
X-24254Y54665D01*
X-24471Y54619D01*
X-24690Y54578D01*
X-24909Y54543D01*
X-25130Y54513D01*
X-25350Y54489D01*
X-25572Y54470D01*
X-25794Y54456D01*
X-26016Y54448D01*
X-26238Y54445D01*
X-26460Y54448D01*
X-26682Y54456D01*
X-26904Y54470D01*
X-27126Y54489D01*
X-27346Y54513D01*
X-27567Y54543D01*
X-27786Y54578D01*
X-28005Y54619D01*
X-28222Y54665D01*
X-28438Y54716D01*
X-28653Y54773D01*
X-28867Y54835D01*
X-29078Y54902D01*
X-29289Y54974D01*
X-29497Y55052D01*
X-29703Y55134D01*
X-29907Y55222D01*
X-30110Y55314D01*
X-30309Y55412D01*
X-30506Y55514D01*
X-30701Y55621D01*
X-30893Y55733D01*
X-31082Y55850D01*
X-31269Y55971D01*
X-31452Y56097D01*
X-31632Y56227D01*
X-31809Y56362D01*
X-31982Y56500D01*
X-32152Y56643D01*
X-32319Y56791D01*
X-32482Y56942D01*
X-32641Y57097D01*
X-32796Y57256D01*
X-32947Y57419D01*
X-33095Y57586D01*
X-33238Y57756D01*
X-33376Y57929D01*
X-33511Y58106D01*
X-33641Y58286D01*
X-33767Y58469D01*
X-33888Y58656D01*
X-34005Y58845D01*
X-34117Y59037D01*
X-34224Y59232D01*
X-34326Y59429D01*
X-34424Y59628D01*
X-34516Y59831D01*
X-34604Y60035D01*
X-34686Y60241D01*
X-34764Y60449D01*
X-34836Y60660D01*
X-34903Y60871D01*
X-34965Y61085D01*
X-35022Y61300D01*
X-35073Y61516D01*
X-35119Y61733D01*
X-35160Y61952D01*
X-35195Y62171D01*
X-35225Y62392D01*
X-35249Y62612D01*
X-35268Y62834D01*
X-35282Y63056D01*
X-35290Y63278D01*
X-35293Y63500D01*
D15*
X-26238Y63500D03*
M02*
