M48
;GenerationSoftware,Autodesk,EAGLE,9.6.2*%
;CreationDate,2021-02-16T22:12:39Z*%
FMAT,2
ICI,OFF
METRIC,TZ,000.000
T2C0.381
T1C3.048
%
G90
M71
T1
X112522Y112522
X16510Y16510
X8890Y8890
X42418Y16510
X34798Y8890
X68326Y16510
X60706Y8890
X94234Y16510
X86614Y8890
X120142Y16510
X112522Y8890
X16510Y42418
X8890Y34798
X42418Y42418
X34798Y34798
X68326Y42418
X60706Y34798
X94234Y42418
X86614Y34798
X120142Y42418
X112522Y34798
X16510Y68326
X8890Y60706
X42418Y68326
X34798Y60706
X68326Y68326
X60706Y60706
X94234Y68326
X86614Y60706
X120142Y68326
X112522Y60706
X16510Y94234
X8890Y86614
X42418Y94234
X34798Y86614
X68326Y94234
X60706Y86614
X94234Y94234
X86614Y86614
X120142Y94234
X112522Y86614
X16510Y120142
X8890Y112522
X42418Y120142
X34798Y112522
X68326Y120142
X60706Y112522
X94234Y120142
X86614Y112522
X120142Y120142
T2
X63500Y13208
X69977Y12192
X65786Y18796
X63500Y14770
X84544Y11303
X93726Y10541
X89916Y10922
X91948Y7747
X90575Y14097
X85598Y12065
X94774Y12097
X89631Y8794
X90932Y7493
X88900Y3683
X81280Y14224
X91948Y21717
X99441Y11176
X86233Y15240
X89408Y13208
X95885Y12192
X91694Y18796
X89408Y14770
X110452Y11303
X119634Y10541
X115824Y10922
X117856Y7747
X116483Y14097
X111506Y12065
X120682Y12097
X115539Y8794
X116840Y7493
X114808Y3683
X107188Y14224
X117856Y21717
X125349Y11176
X112141Y15240
X115316Y13208
X121793Y12192
X117602Y18796
X115316Y14770
X6820Y37211
X16002Y36449
X12192Y36830
X14224Y33655
X12851Y40005
X7874Y37973
X17050Y38005
X11907Y34702
X13208Y33401
X11176Y29591
X3556Y40132
X14224Y47625
X21717Y37084
X8509Y41148
X11684Y39116
X18161Y38100
X13970Y44704
X11684Y40678
X32728Y37211
X41910Y36449
X38100Y36830
X40132Y33655
X38759Y40005
X33782Y37973
X42958Y38005
X37815Y34702
X39116Y33401
X37084Y29591
X29464Y40132
X40132Y47625
X47625Y37084
X34417Y41148
X37592Y39116
X44069Y38100
X39878Y44704
X37592Y40678
X58636Y37211
X67818Y36449
X64008Y36830
X66040Y33655
X64667Y40005
X59690Y37973
X68866Y38005
X63723Y34702
X65024Y33401
X62992Y29591
X55372Y40132
X66040Y47625
X73533Y37084
X60325Y41148
X63500Y39116
X69977Y38100
X65786Y44704
X63500Y40678
X84544Y37211
X93726Y36449
X89916Y36830
X91948Y33655
X90575Y40005
X85598Y37973
X94774Y38005
X89631Y34702
X90932Y33401
X88900Y29591
X81280Y40132
X91948Y47625
X99441Y37084
X86233Y41148
X89408Y39116
X95885Y38100
X91694Y44704
X89408Y40678
X110452Y37211
X119634Y36449
X115824Y36830
X117856Y33655
X116483Y40005
X111506Y37973
X120682Y38005
X115539Y34702
X116840Y33401
X114808Y29591
X107188Y40132
X117856Y47625
X125349Y37084
X112141Y41148
X115316Y39116
X121793Y38100
X117602Y44704
X115316Y40678
X6820Y63119
X16002Y62357
X12192Y62738
X14224Y59563
X12851Y65913
X7874Y63881
X17050Y63913
X11907Y60610
X13208Y59309
X11176Y55499
X3556Y66040
X14224Y73533
X21717Y62992
X8509Y67056
X11684Y65024
X18161Y64008
X13970Y70612
X11684Y66586
X32728Y63119
X41910Y62357
X38100Y62738
X40132Y59563
X38759Y65913
X33782Y63881
X42958Y63913
X37815Y60610
X39116Y59309
X37084Y55499
X29464Y66040
X40132Y73533
X47625Y62992
X34417Y67056
X37592Y65024
X44069Y64008
X39878Y70612
X37592Y66586
X58636Y63119
X67818Y62357
X64008Y62738
X66040Y59563
X64667Y65913
X59690Y63881
X68866Y63913
X63723Y60610
X65024Y59309
X62992Y55499
X55372Y66040
X66040Y73533
X73533Y62992
X60325Y67056
X63500Y65024
X69977Y64008
X65786Y70612
X63500Y66586
X84544Y63119
X93726Y62357
X89916Y62738
X91948Y59563
X90575Y65913
X85598Y63881
X94774Y63913
X89631Y60610
X90932Y59309
X88900Y55499
X81280Y66040
X91948Y73533
X99441Y62992
X86233Y67056
X89408Y65024
X95885Y64008
X91694Y70612
X89408Y66586
X110452Y63119
X119634Y62357
X115824Y62738
X117856Y59563
X116483Y65913
X111506Y63881
X120682Y63913
X115539Y60610
X116840Y59309
X114808Y55499
X107188Y66040
X117856Y73533
X125349Y62992
X112141Y67056
X115316Y65024
X121793Y64008
X117602Y70612
X115316Y66586
X6820Y89027
X16002Y88265
X12192Y88646
X14224Y85471
X12851Y91821
X7874Y89789
X17050Y89821
X11907Y86518
X13208Y85217
X11176Y81407
X3556Y91948
X14224Y99441
X21717Y88900
X8509Y92964
X11684Y90932
X18161Y89916
X13970Y96520
X11684Y92494
X32728Y89027
X41910Y88265
X38100Y88646
X40132Y85471
X38759Y91821
X33782Y89789
X42958Y89821
X37815Y86518
X39116Y85217
X37084Y81407
X29464Y91948
X40132Y99441
X47625Y88900
X34417Y92964
X37592Y90932
X44069Y89916
X39878Y96520
X37592Y92494
X58636Y89027
X67818Y88265
X64008Y88646
X66040Y85471
X64667Y91821
X59690Y89789
X68866Y89821
X63723Y86518
X65024Y85217
X62992Y81407
X55372Y91948
X66040Y99441
X73533Y88900
X60325Y92964
X63500Y90932
X69977Y89916
X65786Y96520
X63500Y92494
X84544Y89027
X93726Y88265
X89916Y88646
X91948Y85471
X90575Y91821
X85598Y89789
X94774Y89821
X89631Y86518
X90932Y85217
X88900Y81407
X81280Y91948
X91948Y99441
X99441Y88900
X86233Y92964
X89408Y90932
X95885Y89916
X91694Y96520
X89408Y92494
X110452Y89027
X119634Y88265
X115824Y88646
X117856Y85471
X116483Y91821
X111506Y89789
X120682Y89821
X115539Y86518
X116840Y85217
X114808Y81407
X107188Y91948
X117856Y99441
X125349Y88900
X112141Y92964
X115316Y90932
X121793Y89916
X117602Y96520
X115316Y92494
X6820Y114935
X16002Y114173
X12192Y114554
X14224Y111379
X12851Y117729
X7874Y115697
X17050Y115729
X11907Y112426
X13208Y111125
X11176Y107315
X3556Y117856
X14224Y125349
X21717Y114808
X8509Y118872
X11684Y116840
X6820Y11303
X13970Y122428
X11684Y118402
X32728Y114935
X41910Y114173
X38100Y114554
X40132Y111379
X38759Y117729
X33782Y115697
X42958Y115729
X37815Y112426
X39116Y111125
X37084Y107315
X29464Y117856
X40132Y125349
X47625Y114808
X34417Y118872
X37592Y116840
X44069Y115824
X39878Y122428
X37592Y118402
X58636Y114935
X67818Y114173
X64008Y114554
X66040Y111379
X64667Y117729
X59690Y115697
X68866Y115729
X63723Y112426
X65024Y111125
X62992Y107315
X55372Y117856
X66040Y125349
X73533Y114808
X60325Y118872
X63500Y116840
X69977Y115824
X65786Y122428
X63500Y118402
X84544Y114935
X93726Y114173
X89916Y114554
X91948Y111379
X90575Y117729
X85598Y115697
X94774Y115729
X89631Y112426
X90932Y111125
X88900Y107315
X81280Y117856
X91948Y125349
X99441Y114808
X86233Y118872
X89408Y116840
X95885Y115824
X91694Y122428
X89408Y118402
X110452Y114935
X119634Y114173
X115824Y114554
X117856Y111379
X116483Y117729
X18161Y115824
X120682Y115729
X115539Y112426
X116840Y111125
X114808Y107315
X107188Y117856
X117856Y125349
X125349Y114808
X112141Y118872
X115316Y116840
X121793Y115824
X117602Y122428
X115316Y118402
X16002Y10541
X12192Y10922
X14224Y7747
X12851Y14097
X7874Y12065
X17050Y12097
X11907Y8794
X13208Y7493
X11176Y3683
X3556Y14224
X14224Y21717
X21717Y11176
X8509Y15240
X11684Y13208
X18161Y12192
X13970Y18796
X11684Y14770
X32728Y11303
X41910Y10541
X38100Y10922
X40132Y7747
X38759Y14097
X33782Y12065
X42958Y12097
X37815Y8794
X39116Y7493
X37084Y3683
X29464Y14224
X40132Y21717
X47625Y11176
X34417Y15240
X37592Y13208
X44069Y12192
X39878Y18796
X37592Y14770
X58636Y11303
X67818Y10541
X64008Y10922
X66040Y7747
X64667Y14097
X59690Y12065
X68866Y12097
X63723Y8794
X65024Y7493
X62992Y3683
X55372Y14224
X66040Y21717
X73533Y11176
X60325Y15240
X111506Y115697
M30