G04 EAGLE Gerber RS-274X export*
G75*
%MOMM*%
%FSLAX34Y34*%
%LPD*%
%INSolderpaste Top*%
%IPPOS*%
%AMOC8*
5,1,8,0,0,1.08239X$1,22.5*%
G01*
%ADD10C,0.096000*%
%ADD11C,0.102000*%
%ADD12C,0.300000*%
%ADD13C,0.100000*%


D10*
X180085Y149877D02*
X184202Y160119D01*
X201867Y153017D01*
X197750Y142775D01*
X180085Y149877D01*
X195482Y143687D02*
X198117Y143687D01*
X198483Y144599D02*
X193213Y144599D01*
X190945Y145511D02*
X198850Y145511D01*
X199216Y146423D02*
X188676Y146423D01*
X186408Y147335D02*
X199583Y147335D01*
X199950Y148247D02*
X184139Y148247D01*
X181871Y149159D02*
X200316Y149159D01*
X200683Y150071D02*
X180163Y150071D01*
X180530Y150983D02*
X201049Y150983D01*
X201416Y151895D02*
X180896Y151895D01*
X181263Y152807D02*
X201783Y152807D01*
X200121Y153719D02*
X181629Y153719D01*
X181996Y154631D02*
X197852Y154631D01*
X195584Y155543D02*
X182363Y155543D01*
X182729Y156455D02*
X193316Y156455D01*
X191047Y157367D02*
X183096Y157367D01*
X183462Y158279D02*
X188779Y158279D01*
X186510Y159191D02*
X183829Y159191D01*
X184196Y160103D02*
X184242Y160103D01*
X163314Y108160D02*
X159197Y97918D01*
X163314Y108160D02*
X180979Y101058D01*
X176862Y90816D01*
X159197Y97918D01*
X174594Y91728D02*
X177229Y91728D01*
X177595Y92640D02*
X172325Y92640D01*
X170057Y93552D02*
X177962Y93552D01*
X178328Y94464D02*
X167788Y94464D01*
X165520Y95376D02*
X178695Y95376D01*
X179062Y96288D02*
X163251Y96288D01*
X160983Y97200D02*
X179428Y97200D01*
X179795Y98112D02*
X159275Y98112D01*
X159642Y99024D02*
X180161Y99024D01*
X180528Y99936D02*
X160008Y99936D01*
X160375Y100848D02*
X180895Y100848D01*
X179233Y101760D02*
X160741Y101760D01*
X161108Y102672D02*
X176964Y102672D01*
X174696Y103584D02*
X161475Y103584D01*
X161841Y104496D02*
X172428Y104496D01*
X170159Y105408D02*
X162208Y105408D01*
X162574Y106320D02*
X167891Y106320D01*
X165622Y107232D02*
X162941Y107232D01*
X163308Y108144D02*
X163354Y108144D01*
D11*
X213507Y125695D02*
X215365Y130315D01*
X226943Y125661D01*
X225085Y121041D01*
X213507Y125695D01*
X222674Y122010D02*
X225475Y122010D01*
X225864Y122979D02*
X220264Y122979D01*
X217853Y123948D02*
X226254Y123948D01*
X226644Y124917D02*
X215442Y124917D01*
X213584Y125886D02*
X226383Y125886D01*
X223973Y126855D02*
X213974Y126855D01*
X214363Y127824D02*
X221562Y127824D01*
X219151Y128793D02*
X214753Y128793D01*
X215143Y129762D02*
X216741Y129762D01*
X211635Y121036D02*
X209777Y116416D01*
X211635Y121036D02*
X223213Y116382D01*
X221355Y111762D01*
X209777Y116416D01*
X218944Y112731D02*
X221745Y112731D01*
X222134Y113700D02*
X216534Y113700D01*
X214123Y114669D02*
X222524Y114669D01*
X222914Y115638D02*
X211712Y115638D01*
X209854Y116607D02*
X222653Y116607D01*
X220243Y117576D02*
X210244Y117576D01*
X210633Y118545D02*
X217832Y118545D01*
X215421Y119514D02*
X211023Y119514D01*
X211413Y120483D02*
X213011Y120483D01*
X207905Y111758D02*
X206047Y107138D01*
X207905Y111758D02*
X219483Y107104D01*
X217625Y102484D01*
X206047Y107138D01*
X215214Y103453D02*
X218015Y103453D01*
X218404Y104422D02*
X212804Y104422D01*
X210393Y105391D02*
X218794Y105391D01*
X219184Y106360D02*
X207982Y106360D01*
X206124Y107329D02*
X218923Y107329D01*
X216513Y108298D02*
X206514Y108298D01*
X206903Y109267D02*
X214102Y109267D01*
X211691Y110236D02*
X207293Y110236D01*
X207683Y111205D02*
X209281Y111205D01*
X204175Y102479D02*
X202317Y97859D01*
X204175Y102479D02*
X215753Y97825D01*
X213895Y93205D01*
X202317Y97859D01*
X211484Y94174D02*
X214285Y94174D01*
X214674Y95143D02*
X209074Y95143D01*
X206663Y96112D02*
X215064Y96112D01*
X215454Y97081D02*
X204252Y97081D01*
X202394Y98050D02*
X215193Y98050D01*
X212783Y99019D02*
X202784Y99019D01*
X203173Y99988D02*
X210372Y99988D01*
X207961Y100957D02*
X203563Y100957D01*
X203953Y101926D02*
X205551Y101926D01*
D10*
X391899Y86915D02*
X401352Y81213D01*
X391899Y86915D02*
X401732Y103217D01*
X411185Y97515D01*
X401352Y81213D01*
X401902Y82125D02*
X399840Y82125D01*
X398328Y83037D02*
X402452Y83037D01*
X403002Y83949D02*
X396816Y83949D01*
X395304Y84861D02*
X403552Y84861D01*
X404102Y85773D02*
X393792Y85773D01*
X392280Y86685D02*
X404653Y86685D01*
X405203Y87597D02*
X392310Y87597D01*
X392860Y88509D02*
X405753Y88509D01*
X406303Y89421D02*
X393411Y89421D01*
X393961Y90333D02*
X406853Y90333D01*
X407403Y91245D02*
X394511Y91245D01*
X395061Y92157D02*
X407953Y92157D01*
X408503Y93069D02*
X395611Y93069D01*
X396161Y93981D02*
X409053Y93981D01*
X409603Y94893D02*
X396711Y94893D01*
X397261Y95805D02*
X410154Y95805D01*
X410704Y96717D02*
X397811Y96717D01*
X398361Y97629D02*
X410996Y97629D01*
X409484Y98541D02*
X398912Y98541D01*
X399462Y99453D02*
X407972Y99453D01*
X406460Y100365D02*
X400012Y100365D01*
X400562Y101277D02*
X404948Y101277D01*
X403436Y102189D02*
X401112Y102189D01*
X401662Y103101D02*
X401924Y103101D01*
X439850Y57989D02*
X449303Y52287D01*
X439850Y57989D02*
X449683Y74291D01*
X459136Y68589D01*
X449303Y52287D01*
X449853Y53199D02*
X447791Y53199D01*
X446279Y54111D02*
X450403Y54111D01*
X450953Y55023D02*
X444767Y55023D01*
X443255Y55935D02*
X451503Y55935D01*
X452053Y56847D02*
X441743Y56847D01*
X440231Y57759D02*
X452604Y57759D01*
X453154Y58671D02*
X440261Y58671D01*
X440811Y59583D02*
X453704Y59583D01*
X454254Y60495D02*
X441362Y60495D01*
X441912Y61407D02*
X454804Y61407D01*
X455354Y62319D02*
X442462Y62319D01*
X443012Y63231D02*
X455904Y63231D01*
X456454Y64143D02*
X443562Y64143D01*
X444112Y65055D02*
X457004Y65055D01*
X457554Y65967D02*
X444662Y65967D01*
X445212Y66879D02*
X458105Y66879D01*
X458655Y67791D02*
X445762Y67791D01*
X446312Y68703D02*
X458947Y68703D01*
X457435Y69615D02*
X446863Y69615D01*
X447413Y70527D02*
X455923Y70527D01*
X454411Y71439D02*
X447963Y71439D01*
X448513Y72351D02*
X452899Y72351D01*
X451387Y73263D02*
X449063Y73263D01*
X449613Y74175D02*
X449875Y74175D01*
D11*
X430565Y110339D02*
X426301Y112912D01*
X432747Y123597D01*
X437011Y121024D01*
X430565Y110339D01*
X431150Y111308D02*
X428959Y111308D01*
X427353Y112277D02*
X431734Y112277D01*
X432319Y113246D02*
X426502Y113246D01*
X427087Y114215D02*
X432903Y114215D01*
X433488Y115184D02*
X427672Y115184D01*
X428256Y116153D02*
X434072Y116153D01*
X434657Y117122D02*
X428841Y117122D01*
X429425Y118091D02*
X435242Y118091D01*
X435826Y119060D02*
X430010Y119060D01*
X430595Y120029D02*
X436411Y120029D01*
X436995Y120998D02*
X431179Y120998D01*
X431764Y121967D02*
X435448Y121967D01*
X433842Y122936D02*
X432348Y122936D01*
X434864Y107747D02*
X439128Y105174D01*
X434864Y107747D02*
X441310Y118432D01*
X445574Y115859D01*
X439128Y105174D01*
X439713Y106143D02*
X437522Y106143D01*
X435916Y107112D02*
X440297Y107112D01*
X440882Y108081D02*
X435065Y108081D01*
X435650Y109050D02*
X441466Y109050D01*
X442051Y110019D02*
X436235Y110019D01*
X436819Y110988D02*
X442635Y110988D01*
X443220Y111957D02*
X437404Y111957D01*
X437988Y112926D02*
X443805Y112926D01*
X444389Y113895D02*
X438573Y113895D01*
X439158Y114864D02*
X444974Y114864D01*
X445558Y115833D02*
X439742Y115833D01*
X440327Y116802D02*
X444011Y116802D01*
X442405Y117771D02*
X440911Y117771D01*
X443426Y102581D02*
X447690Y100008D01*
X443426Y102581D02*
X449872Y113266D01*
X454136Y110693D01*
X447690Y100008D01*
X448275Y100977D02*
X446084Y100977D01*
X444478Y101946D02*
X448859Y101946D01*
X449444Y102915D02*
X443627Y102915D01*
X444212Y103884D02*
X450028Y103884D01*
X450613Y104853D02*
X444797Y104853D01*
X445381Y105822D02*
X451197Y105822D01*
X451782Y106791D02*
X445966Y106791D01*
X446550Y107760D02*
X452367Y107760D01*
X452951Y108729D02*
X447135Y108729D01*
X447720Y109698D02*
X453536Y109698D01*
X454120Y110667D02*
X448304Y110667D01*
X448889Y111636D02*
X452573Y111636D01*
X450967Y112605D02*
X449473Y112605D01*
X451989Y97416D02*
X456253Y94843D01*
X451989Y97416D02*
X458435Y108101D01*
X462699Y105528D01*
X456253Y94843D01*
X456838Y95812D02*
X454647Y95812D01*
X453041Y96781D02*
X457422Y96781D01*
X458007Y97750D02*
X452190Y97750D01*
X452775Y98719D02*
X458591Y98719D01*
X459176Y99688D02*
X453360Y99688D01*
X453944Y100657D02*
X459760Y100657D01*
X460345Y101626D02*
X454529Y101626D01*
X455113Y102595D02*
X460930Y102595D01*
X461514Y103564D02*
X455698Y103564D01*
X456283Y104533D02*
X462099Y104533D01*
X462683Y105502D02*
X456867Y105502D01*
X457452Y106471D02*
X461136Y106471D01*
X459530Y107440D02*
X458036Y107440D01*
D10*
X489002Y279427D02*
X498078Y285712D01*
X489002Y279427D02*
X478164Y295080D01*
X487240Y301365D01*
X498078Y285712D01*
X490319Y280339D02*
X488371Y280339D01*
X487739Y281251D02*
X491636Y281251D01*
X492953Y282163D02*
X487108Y282163D01*
X486476Y283075D02*
X494270Y283075D01*
X495587Y283987D02*
X485845Y283987D01*
X485213Y284899D02*
X496904Y284899D01*
X498009Y285811D02*
X484582Y285811D01*
X483950Y286723D02*
X497378Y286723D01*
X496747Y287635D02*
X483319Y287635D01*
X482687Y288547D02*
X496115Y288547D01*
X495484Y289459D02*
X482056Y289459D01*
X481424Y290371D02*
X494852Y290371D01*
X494221Y291283D02*
X480793Y291283D01*
X480162Y292195D02*
X493589Y292195D01*
X492958Y293107D02*
X479530Y293107D01*
X478899Y294019D02*
X492326Y294019D01*
X491695Y294931D02*
X478267Y294931D01*
X479266Y295843D02*
X491063Y295843D01*
X490432Y296755D02*
X480583Y296755D01*
X481900Y297667D02*
X489800Y297667D01*
X489169Y298579D02*
X483217Y298579D01*
X484534Y299491D02*
X488538Y299491D01*
X487906Y300403D02*
X485851Y300403D01*
X487168Y301315D02*
X487275Y301315D01*
X535042Y311307D02*
X544118Y317592D01*
X535042Y311307D02*
X524204Y326960D01*
X533280Y333245D01*
X544118Y317592D01*
X536359Y312219D02*
X534411Y312219D01*
X533779Y313131D02*
X537676Y313131D01*
X538993Y314043D02*
X533148Y314043D01*
X532516Y314955D02*
X540310Y314955D01*
X541627Y315867D02*
X531885Y315867D01*
X531253Y316779D02*
X542944Y316779D01*
X544049Y317691D02*
X530622Y317691D01*
X529990Y318603D02*
X543418Y318603D01*
X542787Y319515D02*
X529359Y319515D01*
X528727Y320427D02*
X542155Y320427D01*
X541524Y321339D02*
X528096Y321339D01*
X527464Y322251D02*
X540892Y322251D01*
X540261Y323163D02*
X526833Y323163D01*
X526202Y324075D02*
X539629Y324075D01*
X538998Y324987D02*
X525570Y324987D01*
X524939Y325899D02*
X538366Y325899D01*
X537735Y326811D02*
X524307Y326811D01*
X525306Y327723D02*
X537103Y327723D01*
X536472Y328635D02*
X526623Y328635D01*
X527940Y329547D02*
X535840Y329547D01*
X535209Y330459D02*
X529257Y330459D01*
X530574Y331371D02*
X534578Y331371D01*
X533946Y332283D02*
X531891Y332283D01*
X533208Y333195D02*
X533315Y333195D01*
D11*
X483487Y324299D02*
X479393Y321464D01*
X472289Y331723D01*
X476383Y334558D01*
X483487Y324299D01*
X480792Y322433D02*
X478722Y322433D01*
X478051Y323402D02*
X482192Y323402D01*
X483437Y324371D02*
X477380Y324371D01*
X476709Y325340D02*
X482766Y325340D01*
X482095Y326309D02*
X476038Y326309D01*
X475367Y327278D02*
X481424Y327278D01*
X480753Y328247D02*
X474696Y328247D01*
X474025Y329216D02*
X480082Y329216D01*
X479411Y330185D02*
X473354Y330185D01*
X472683Y331154D02*
X478740Y331154D01*
X478069Y332123D02*
X472867Y332123D01*
X474266Y333092D02*
X477398Y333092D01*
X476727Y334061D02*
X475665Y334061D01*
X487614Y327157D02*
X491708Y329992D01*
X487614Y327157D02*
X480510Y337416D01*
X484604Y340251D01*
X491708Y329992D01*
X489013Y328126D02*
X486943Y328126D01*
X486272Y329095D02*
X490413Y329095D01*
X491658Y330064D02*
X485601Y330064D01*
X484930Y331033D02*
X490987Y331033D01*
X490316Y332002D02*
X484259Y332002D01*
X483588Y332971D02*
X489645Y332971D01*
X488974Y333940D02*
X482917Y333940D01*
X482246Y334909D02*
X488303Y334909D01*
X487632Y335878D02*
X481575Y335878D01*
X480904Y336847D02*
X486961Y336847D01*
X486290Y337816D02*
X481088Y337816D01*
X482487Y338785D02*
X485619Y338785D01*
X484948Y339754D02*
X483886Y339754D01*
X495836Y332849D02*
X499930Y335684D01*
X495836Y332849D02*
X488732Y343108D01*
X492826Y345943D01*
X499930Y335684D01*
X497235Y333818D02*
X495165Y333818D01*
X494494Y334787D02*
X498635Y334787D01*
X499880Y335756D02*
X493823Y335756D01*
X493152Y336725D02*
X499209Y336725D01*
X498538Y337694D02*
X492481Y337694D01*
X491810Y338663D02*
X497867Y338663D01*
X497196Y339632D02*
X491139Y339632D01*
X490468Y340601D02*
X496525Y340601D01*
X495854Y341570D02*
X489797Y341570D01*
X489126Y342539D02*
X495183Y342539D01*
X494512Y343508D02*
X489310Y343508D01*
X490709Y344477D02*
X493841Y344477D01*
X493170Y345446D02*
X492108Y345446D01*
X504057Y338542D02*
X508151Y341377D01*
X504057Y338542D02*
X496953Y348801D01*
X501047Y351636D01*
X508151Y341377D01*
X505456Y339511D02*
X503386Y339511D01*
X502715Y340480D02*
X506856Y340480D01*
X508101Y341449D02*
X502044Y341449D01*
X501373Y342418D02*
X507430Y342418D01*
X506759Y343387D02*
X500702Y343387D01*
X500031Y344356D02*
X506088Y344356D01*
X505417Y345325D02*
X499360Y345325D01*
X498689Y346294D02*
X504746Y346294D01*
X504075Y347263D02*
X498018Y347263D01*
X497347Y348232D02*
X503404Y348232D01*
X502733Y349201D02*
X497531Y349201D01*
X498930Y350170D02*
X502062Y350170D01*
X501391Y351139D02*
X500329Y351139D01*
D10*
X170680Y389170D02*
X159640Y389170D01*
X170680Y389170D02*
X170680Y370130D01*
X159640Y370130D01*
X159640Y389170D01*
X159640Y371042D02*
X170680Y371042D01*
X170680Y371954D02*
X159640Y371954D01*
X159640Y372866D02*
X170680Y372866D01*
X170680Y373778D02*
X159640Y373778D01*
X159640Y374690D02*
X170680Y374690D01*
X170680Y375602D02*
X159640Y375602D01*
X159640Y376514D02*
X170680Y376514D01*
X170680Y377426D02*
X159640Y377426D01*
X159640Y378338D02*
X170680Y378338D01*
X170680Y379250D02*
X159640Y379250D01*
X159640Y380162D02*
X170680Y380162D01*
X170680Y381074D02*
X159640Y381074D01*
X159640Y381986D02*
X170680Y381986D01*
X170680Y382898D02*
X159640Y382898D01*
X159640Y383810D02*
X170680Y383810D01*
X170680Y384722D02*
X159640Y384722D01*
X159640Y385634D02*
X170680Y385634D01*
X170680Y386546D02*
X159640Y386546D01*
X159640Y387458D02*
X170680Y387458D01*
X170680Y388370D02*
X159640Y388370D01*
X114680Y389170D02*
X103640Y389170D01*
X114680Y389170D02*
X114680Y370130D01*
X103640Y370130D01*
X103640Y389170D01*
X103640Y371042D02*
X114680Y371042D01*
X114680Y371954D02*
X103640Y371954D01*
X103640Y372866D02*
X114680Y372866D01*
X114680Y373778D02*
X103640Y373778D01*
X103640Y374690D02*
X114680Y374690D01*
X114680Y375602D02*
X103640Y375602D01*
X103640Y376514D02*
X114680Y376514D01*
X114680Y377426D02*
X103640Y377426D01*
X103640Y378338D02*
X114680Y378338D01*
X114680Y379250D02*
X103640Y379250D01*
X103640Y380162D02*
X114680Y380162D01*
X114680Y381074D02*
X103640Y381074D01*
X103640Y381986D02*
X114680Y381986D01*
X114680Y382898D02*
X103640Y382898D01*
X103640Y383810D02*
X114680Y383810D01*
X114680Y384722D02*
X103640Y384722D01*
X103640Y385634D02*
X114680Y385634D01*
X114680Y386546D02*
X103640Y386546D01*
X103640Y387458D02*
X114680Y387458D01*
X114680Y388370D02*
X103640Y388370D01*
D11*
X149670Y349140D02*
X154650Y349140D01*
X154650Y336660D01*
X149670Y336660D01*
X149670Y349140D01*
X149670Y337629D02*
X154650Y337629D01*
X154650Y338598D02*
X149670Y338598D01*
X149670Y339567D02*
X154650Y339567D01*
X154650Y340536D02*
X149670Y340536D01*
X149670Y341505D02*
X154650Y341505D01*
X154650Y342474D02*
X149670Y342474D01*
X149670Y343443D02*
X154650Y343443D01*
X154650Y344412D02*
X149670Y344412D01*
X149670Y345381D02*
X154650Y345381D01*
X154650Y346350D02*
X149670Y346350D01*
X149670Y347319D02*
X154650Y347319D01*
X154650Y348288D02*
X149670Y348288D01*
X144650Y349140D02*
X139670Y349140D01*
X144650Y349140D02*
X144650Y336660D01*
X139670Y336660D01*
X139670Y349140D01*
X139670Y337629D02*
X144650Y337629D01*
X144650Y338598D02*
X139670Y338598D01*
X139670Y339567D02*
X144650Y339567D01*
X144650Y340536D02*
X139670Y340536D01*
X139670Y341505D02*
X144650Y341505D01*
X144650Y342474D02*
X139670Y342474D01*
X139670Y343443D02*
X144650Y343443D01*
X144650Y344412D02*
X139670Y344412D01*
X139670Y345381D02*
X144650Y345381D01*
X144650Y346350D02*
X139670Y346350D01*
X139670Y347319D02*
X144650Y347319D01*
X144650Y348288D02*
X139670Y348288D01*
X134650Y349140D02*
X129670Y349140D01*
X134650Y349140D02*
X134650Y336660D01*
X129670Y336660D01*
X129670Y349140D01*
X129670Y337629D02*
X134650Y337629D01*
X134650Y338598D02*
X129670Y338598D01*
X129670Y339567D02*
X134650Y339567D01*
X134650Y340536D02*
X129670Y340536D01*
X129670Y341505D02*
X134650Y341505D01*
X134650Y342474D02*
X129670Y342474D01*
X129670Y343443D02*
X134650Y343443D01*
X134650Y344412D02*
X129670Y344412D01*
X129670Y345381D02*
X134650Y345381D01*
X134650Y346350D02*
X129670Y346350D01*
X129670Y347319D02*
X134650Y347319D01*
X134650Y348288D02*
X129670Y348288D01*
X124650Y349140D02*
X119670Y349140D01*
X124650Y349140D02*
X124650Y336660D01*
X119670Y336660D01*
X119670Y349140D01*
X119670Y337629D02*
X124650Y337629D01*
X124650Y338598D02*
X119670Y338598D01*
X119670Y339567D02*
X124650Y339567D01*
X124650Y340536D02*
X119670Y340536D01*
X119670Y341505D02*
X124650Y341505D01*
X124650Y342474D02*
X119670Y342474D01*
X119670Y343443D02*
X124650Y343443D01*
X124650Y344412D02*
X119670Y344412D01*
X119670Y345381D02*
X124650Y345381D01*
X124650Y346350D02*
X119670Y346350D01*
X119670Y347319D02*
X124650Y347319D01*
X124650Y348288D02*
X119670Y348288D01*
D12*
X302450Y360990D02*
X302450Y367990D01*
X309450Y367990D01*
X309450Y360990D01*
X302450Y360990D01*
X302450Y363840D02*
X309450Y363840D01*
X309450Y366690D02*
X302450Y366690D01*
X284910Y367990D02*
X284910Y360990D01*
X284910Y367990D02*
X291910Y367990D01*
X291910Y360990D01*
X284910Y360990D01*
X284910Y363840D02*
X291910Y363840D01*
X291910Y366690D02*
X284910Y366690D01*
D13*
X283680Y344750D02*
X293680Y344750D01*
X283680Y344750D02*
X283680Y353750D01*
X293680Y353750D01*
X293680Y344750D01*
X293680Y345700D02*
X283680Y345700D01*
X283680Y346650D02*
X293680Y346650D01*
X293680Y347600D02*
X283680Y347600D01*
X283680Y348550D02*
X293680Y348550D01*
X293680Y349500D02*
X283680Y349500D01*
X283680Y350450D02*
X293680Y350450D01*
X293680Y351400D02*
X283680Y351400D01*
X283680Y352350D02*
X293680Y352350D01*
X293680Y353300D02*
X283680Y353300D01*
X300680Y344750D02*
X310680Y344750D01*
X300680Y344750D02*
X300680Y353750D01*
X310680Y353750D01*
X310680Y344750D01*
X310680Y345700D02*
X300680Y345700D01*
X300680Y346650D02*
X310680Y346650D01*
X310680Y347600D02*
X300680Y347600D01*
X300680Y348550D02*
X310680Y348550D01*
X310680Y349500D02*
X300680Y349500D01*
X300680Y350450D02*
X310680Y350450D01*
X310680Y351400D02*
X300680Y351400D01*
X300680Y352350D02*
X310680Y352350D01*
X310680Y353300D02*
X300680Y353300D01*
D10*
X390072Y446180D02*
X385441Y456201D01*
X390072Y446180D02*
X372789Y438193D01*
X368158Y448214D01*
X385441Y456201D01*
X374762Y439105D02*
X372368Y439105D01*
X371946Y440017D02*
X376736Y440017D01*
X378709Y440929D02*
X371525Y440929D01*
X371103Y441841D02*
X380683Y441841D01*
X382656Y442753D02*
X370682Y442753D01*
X370260Y443665D02*
X384630Y443665D01*
X386603Y444577D02*
X369839Y444577D01*
X369417Y445489D02*
X388577Y445489D01*
X389970Y446401D02*
X368996Y446401D01*
X368574Y447313D02*
X389548Y447313D01*
X389127Y448225D02*
X368182Y448225D01*
X370155Y449137D02*
X388705Y449137D01*
X388284Y450049D02*
X372129Y450049D01*
X374102Y450961D02*
X387863Y450961D01*
X387441Y451873D02*
X376076Y451873D01*
X378049Y452785D02*
X387020Y452785D01*
X386598Y453697D02*
X380023Y453697D01*
X381996Y454609D02*
X386177Y454609D01*
X385755Y455521D02*
X383970Y455521D01*
X366583Y497016D02*
X361952Y507037D01*
X366583Y497016D02*
X349300Y489029D01*
X344669Y499050D01*
X361952Y507037D01*
X351273Y489941D02*
X348879Y489941D01*
X348457Y490853D02*
X353247Y490853D01*
X355220Y491765D02*
X348036Y491765D01*
X347614Y492677D02*
X357194Y492677D01*
X359167Y493589D02*
X347193Y493589D01*
X346771Y494501D02*
X361141Y494501D01*
X363114Y495413D02*
X346350Y495413D01*
X345928Y496325D02*
X365088Y496325D01*
X366481Y497237D02*
X345507Y497237D01*
X345085Y498149D02*
X366059Y498149D01*
X365638Y499061D02*
X344693Y499061D01*
X346666Y499973D02*
X365216Y499973D01*
X364795Y500885D02*
X348640Y500885D01*
X350613Y501797D02*
X364374Y501797D01*
X363952Y502709D02*
X352587Y502709D01*
X354560Y503621D02*
X363531Y503621D01*
X363109Y504533D02*
X356534Y504533D01*
X358507Y505445D02*
X362688Y505445D01*
X362266Y506357D02*
X360481Y506357D01*
D11*
X344922Y448460D02*
X347010Y443940D01*
X335682Y438706D01*
X333594Y443226D01*
X344922Y448460D01*
X337779Y439675D02*
X335234Y439675D01*
X334787Y440644D02*
X339876Y440644D01*
X341974Y441613D02*
X334339Y441613D01*
X333891Y442582D02*
X344071Y442582D01*
X346168Y443551D02*
X334297Y443551D01*
X336395Y444520D02*
X346742Y444520D01*
X346294Y445489D02*
X338492Y445489D01*
X340589Y446458D02*
X345847Y446458D01*
X345399Y447427D02*
X342686Y447427D01*
X344783Y448396D02*
X344952Y448396D01*
X342815Y453018D02*
X340727Y457538D01*
X342815Y453018D02*
X331487Y447784D01*
X329399Y452304D01*
X340727Y457538D01*
X333584Y448753D02*
X331039Y448753D01*
X330592Y449722D02*
X335681Y449722D01*
X337779Y450691D02*
X330144Y450691D01*
X329696Y451660D02*
X339876Y451660D01*
X341973Y452629D02*
X330102Y452629D01*
X332200Y453598D02*
X342547Y453598D01*
X342099Y454567D02*
X334297Y454567D01*
X336394Y455536D02*
X341652Y455536D01*
X341204Y456505D02*
X338491Y456505D01*
X340588Y457474D02*
X340757Y457474D01*
X338621Y462096D02*
X336533Y466616D01*
X338621Y462096D02*
X327293Y456862D01*
X325205Y461382D01*
X336533Y466616D01*
X329390Y457831D02*
X326845Y457831D01*
X326398Y458800D02*
X331487Y458800D01*
X333585Y459769D02*
X325950Y459769D01*
X325502Y460738D02*
X335682Y460738D01*
X337779Y461707D02*
X325908Y461707D01*
X328006Y462676D02*
X338353Y462676D01*
X337905Y463645D02*
X330103Y463645D01*
X332200Y464614D02*
X337458Y464614D01*
X337010Y465583D02*
X334297Y465583D01*
X336394Y466552D02*
X336563Y466552D01*
X334426Y471174D02*
X332338Y475694D01*
X334426Y471174D02*
X323098Y465940D01*
X321010Y470460D01*
X332338Y475694D01*
X325195Y466909D02*
X322650Y466909D01*
X322203Y467878D02*
X327292Y467878D01*
X329390Y468847D02*
X321755Y468847D01*
X321307Y469816D02*
X331487Y469816D01*
X333584Y470785D02*
X321713Y470785D01*
X323811Y471754D02*
X334158Y471754D01*
X333710Y472723D02*
X325908Y472723D01*
X328005Y473692D02*
X333263Y473692D01*
X332815Y474661D02*
X330102Y474661D01*
X332199Y475630D02*
X332368Y475630D01*
M02*
