G04 EAGLE Gerber RS-274X export*
G75*
%MOMM*%
%FSLAX34Y34*%
%LPD*%
%INSilkscreen Bottom*%
%IPPOS*%
%AMOC8*
5,1,8,0,0,1.08239X$1,22.5*%
G01*
%ADD10C,0.203200*%

G36*
X402359Y263791D02*
X402359Y263791D01*
X402421Y263793D01*
X402443Y263806D01*
X402469Y263810D01*
X402540Y263858D01*
X402573Y263876D01*
X402579Y263884D01*
X402589Y263891D01*
X403474Y264776D01*
X404458Y265563D01*
X404464Y265571D01*
X404474Y265577D01*
X405474Y266477D01*
X405480Y266485D01*
X405489Y266491D01*
X406374Y267376D01*
X407358Y268163D01*
X407364Y268171D01*
X407374Y268177D01*
X408366Y269070D01*
X409358Y269863D01*
X409369Y269878D01*
X409389Y269891D01*
X410289Y270791D01*
X410329Y270856D01*
X410373Y270918D01*
X410375Y270930D01*
X410380Y270938D01*
X410384Y270975D01*
X410400Y271060D01*
X410400Y307960D01*
X410398Y307969D01*
X410400Y307979D01*
X410378Y308053D01*
X410361Y308129D01*
X410355Y308136D01*
X410352Y308145D01*
X410300Y308203D01*
X410251Y308262D01*
X410242Y308266D01*
X410235Y308273D01*
X410103Y308331D01*
X408303Y308731D01*
X408284Y308731D01*
X408262Y308738D01*
X407378Y308836D01*
X406395Y309033D01*
X406380Y309032D01*
X406362Y309038D01*
X405482Y309136D01*
X403703Y309531D01*
X403683Y309531D01*
X403658Y309538D01*
X402658Y309638D01*
X402589Y309629D01*
X402519Y309627D01*
X402504Y309618D01*
X402486Y309616D01*
X402428Y309577D01*
X402367Y309544D01*
X402357Y309529D01*
X402342Y309520D01*
X402307Y309459D01*
X402267Y309402D01*
X402264Y309383D01*
X402256Y309369D01*
X402253Y309330D01*
X402240Y309260D01*
X402240Y306829D01*
X402128Y306984D01*
X402117Y306993D01*
X402113Y307001D01*
X402110Y307003D01*
X402104Y307013D01*
X401777Y307381D01*
X401439Y307761D01*
X401304Y307913D01*
X401275Y307933D01*
X401238Y307972D01*
X399238Y309372D01*
X399203Y309386D01*
X399150Y309417D01*
X398050Y309817D01*
X398033Y309819D01*
X398012Y309829D01*
X396812Y310129D01*
X396798Y310129D01*
X396783Y310135D01*
X395583Y310335D01*
X395567Y310334D01*
X395549Y310339D01*
X394249Y310439D01*
X394221Y310435D01*
X394183Y310438D01*
X391083Y310138D01*
X391051Y310127D01*
X391000Y310121D01*
X388300Y309221D01*
X388267Y309200D01*
X388206Y309174D01*
X386006Y307674D01*
X385983Y307650D01*
X385944Y307622D01*
X384144Y305722D01*
X384126Y305690D01*
X384089Y305647D01*
X382789Y303347D01*
X382783Y303326D01*
X382767Y303301D01*
X381767Y300801D01*
X381763Y300774D01*
X381748Y300740D01*
X381148Y297940D01*
X381149Y297916D01*
X381141Y297885D01*
X380941Y294885D01*
X380944Y294863D01*
X380941Y294833D01*
X381141Y292033D01*
X381148Y292010D01*
X381149Y291978D01*
X381749Y289278D01*
X381761Y289252D01*
X381769Y289214D01*
X382769Y286814D01*
X382782Y286795D01*
X382793Y286767D01*
X384093Y284567D01*
X384117Y284542D01*
X384144Y284499D01*
X385944Y282599D01*
X385973Y282580D01*
X386009Y282544D01*
X388109Y281144D01*
X388143Y281131D01*
X388191Y281102D01*
X390691Y280202D01*
X390727Y280198D01*
X390781Y280182D01*
X393681Y279882D01*
X393710Y279885D01*
X393749Y279881D01*
X395049Y279981D01*
X395062Y279985D01*
X395078Y279984D01*
X396378Y280184D01*
X396396Y280191D01*
X396420Y280193D01*
X397520Y280493D01*
X397539Y280503D01*
X397566Y280509D01*
X398766Y281009D01*
X398786Y281023D01*
X398816Y281034D01*
X399816Y281634D01*
X399824Y281642D01*
X399838Y281649D01*
X400838Y282349D01*
X400862Y282375D01*
X400904Y282407D01*
X401704Y283307D01*
X401708Y283315D01*
X401717Y283322D01*
X401940Y283601D01*
X401940Y264160D01*
X401946Y264135D01*
X401943Y264109D01*
X401965Y264052D01*
X401979Y263991D01*
X401996Y263971D01*
X402005Y263947D01*
X402050Y263905D01*
X402089Y263858D01*
X402113Y263847D01*
X402132Y263830D01*
X402191Y263812D01*
X402248Y263787D01*
X402273Y263788D01*
X402298Y263780D01*
X402359Y263791D01*
G37*
G36*
X582568Y372678D02*
X582568Y372678D01*
X582591Y372681D01*
X582598Y372696D01*
X582606Y372702D01*
X582605Y372712D01*
X582612Y372728D01*
X582612Y385368D01*
X585557Y385368D01*
X585561Y385315D01*
X585561Y384260D01*
X585567Y384251D01*
X585565Y384240D01*
X585584Y384224D01*
X585598Y384203D01*
X585609Y384205D01*
X585618Y384198D01*
X585661Y384212D01*
X585665Y384213D01*
X585666Y384214D01*
X585667Y384214D01*
X585982Y384509D01*
X586383Y384842D01*
X586825Y385111D01*
X587307Y385301D01*
X587813Y385416D01*
X588330Y385465D01*
X589371Y385385D01*
X589868Y385234D01*
X590352Y385046D01*
X590806Y384793D01*
X591209Y384468D01*
X591581Y384107D01*
X591887Y383687D01*
X592141Y383232D01*
X592357Y382759D01*
X592490Y382254D01*
X592605Y381745D01*
X592670Y380701D01*
X592571Y379659D01*
X592446Y379152D01*
X592286Y378657D01*
X592071Y378182D01*
X591794Y377742D01*
X591486Y377323D01*
X591099Y376977D01*
X590682Y376669D01*
X590229Y376415D01*
X589738Y376245D01*
X589236Y376108D01*
X588717Y376059D01*
X588196Y376038D01*
X587680Y376095D01*
X587178Y376221D01*
X586706Y376434D01*
X586273Y376718D01*
X585892Y377072D01*
X585670Y377311D01*
X585657Y377314D01*
X585650Y377325D01*
X585627Y377322D01*
X585604Y377327D01*
X585596Y377317D01*
X585583Y377315D01*
X585568Y377282D01*
X585562Y377274D01*
X585563Y377271D01*
X585561Y377268D01*
X585561Y372885D01*
X585560Y372736D01*
X585572Y372717D01*
X585575Y372694D01*
X585590Y372687D01*
X585596Y372679D01*
X585606Y372680D01*
X585622Y372673D01*
X588119Y372673D01*
X588121Y372674D01*
X588125Y372673D01*
X589703Y372831D01*
X589708Y372834D01*
X589715Y372833D01*
X591233Y373290D01*
X591237Y373295D01*
X591244Y373295D01*
X592644Y374039D01*
X592647Y374043D01*
X592654Y374045D01*
X593884Y375046D01*
X593886Y375052D01*
X593893Y375055D01*
X594904Y376277D01*
X594905Y376282D01*
X594911Y376287D01*
X595662Y377683D01*
X595662Y377689D01*
X595667Y377695D01*
X596133Y379211D01*
X596131Y379216D01*
X596135Y379223D01*
X596295Y380801D01*
X596292Y380806D01*
X596295Y380814D01*
X596142Y382392D01*
X596139Y382396D01*
X596140Y382403D01*
X596001Y382911D01*
X596000Y382912D01*
X596000Y382913D01*
X595687Y383923D01*
X595683Y383926D01*
X595683Y383933D01*
X595448Y384405D01*
X595447Y384405D01*
X595447Y384407D01*
X594942Y385336D01*
X594937Y385339D01*
X594936Y385346D01*
X593938Y386577D01*
X593933Y386579D01*
X593929Y386586D01*
X592712Y387602D01*
X592706Y387602D01*
X592701Y387609D01*
X591308Y388366D01*
X591302Y388365D01*
X591296Y388371D01*
X589781Y388841D01*
X589776Y388839D01*
X589769Y388843D01*
X588190Y389002D01*
X588188Y389001D01*
X588185Y389003D01*
X587656Y389008D01*
X554340Y389008D01*
X554338Y389006D01*
X554334Y389008D01*
X554093Y388983D01*
X553041Y388877D01*
X553039Y388876D01*
X553036Y388877D01*
X552518Y388787D01*
X552515Y388784D01*
X552510Y388785D01*
X551500Y388471D01*
X551498Y388470D01*
X551496Y388470D01*
X551004Y388281D01*
X551002Y388278D01*
X550997Y388277D01*
X550068Y387773D01*
X550066Y387771D01*
X550064Y387770D01*
X549620Y387486D01*
X549619Y387483D01*
X549614Y387482D01*
X548799Y386809D01*
X548798Y386806D01*
X548795Y386805D01*
X548418Y386437D01*
X548417Y386434D01*
X548413Y386432D01*
X547740Y385617D01*
X547740Y385614D01*
X547737Y385612D01*
X547442Y385176D01*
X547442Y385173D01*
X547439Y385170D01*
X546934Y384241D01*
X546935Y384239D01*
X546933Y384238D01*
X546933Y384236D01*
X546932Y384235D01*
X546730Y383749D01*
X546731Y383746D01*
X546729Y383743D01*
X546415Y382733D01*
X546416Y382730D01*
X546413Y382727D01*
X546311Y382211D01*
X546312Y382208D01*
X546310Y382205D01*
X546204Y381153D01*
X546205Y381150D01*
X546204Y381147D01*
X546195Y380621D01*
X546197Y380618D01*
X546195Y380614D01*
X546301Y379562D01*
X546302Y379560D01*
X546302Y379558D01*
X546387Y379038D01*
X546390Y379035D01*
X546389Y379030D01*
X546703Y378020D01*
X546704Y378018D01*
X546704Y378016D01*
X546890Y377523D01*
X546893Y377521D01*
X546893Y377515D01*
X547398Y376586D01*
X547400Y376585D01*
X547400Y376582D01*
X547681Y376137D01*
X547684Y376135D01*
X547686Y376130D01*
X548359Y375315D01*
X548361Y375314D01*
X548362Y375311D01*
X548727Y374932D01*
X548730Y374931D01*
X548732Y374927D01*
X549548Y374254D01*
X549551Y374253D01*
X549552Y374250D01*
X549986Y373952D01*
X549989Y373952D01*
X549992Y373949D01*
X550921Y373444D01*
X550924Y373445D01*
X550927Y373442D01*
X551412Y373237D01*
X551415Y373237D01*
X551417Y373235D01*
X552428Y372921D01*
X552430Y372922D01*
X552433Y372920D01*
X552949Y372813D01*
X552952Y372814D01*
X552955Y372812D01*
X554007Y372706D01*
X554008Y372706D01*
X554010Y372706D01*
X554537Y372673D01*
X554539Y372674D01*
X554541Y372673D01*
X582038Y372673D01*
X582549Y372666D01*
X582568Y372678D01*
G37*
G36*
X370436Y279784D02*
X370436Y279784D01*
X370458Y279782D01*
X371458Y279882D01*
X371477Y279888D01*
X371503Y279889D01*
X373303Y280289D01*
X373318Y280296D01*
X373340Y280299D01*
X374240Y280599D01*
X374260Y280612D01*
X374290Y280620D01*
X374970Y280960D01*
X375090Y281020D01*
X375097Y281026D01*
X375109Y281030D01*
X375809Y281430D01*
X375821Y281442D01*
X375841Y281451D01*
X376541Y281951D01*
X376550Y281960D01*
X376563Y281968D01*
X377163Y282468D01*
X377180Y282490D01*
X377209Y282513D01*
X377809Y283213D01*
X377823Y283239D01*
X377850Y283271D01*
X378650Y284671D01*
X378659Y284701D01*
X378681Y284740D01*
X379281Y286540D01*
X379284Y286573D01*
X379298Y286618D01*
X379398Y287518D01*
X379398Y287522D01*
X379399Y287526D01*
X379499Y288626D01*
X379494Y288660D01*
X379497Y288711D01*
X379197Y290911D01*
X379186Y290939D01*
X379181Y290980D01*
X378581Y292780D01*
X378561Y292812D01*
X378540Y292866D01*
X377640Y294266D01*
X377612Y294293D01*
X377563Y294352D01*
X376363Y295352D01*
X376341Y295364D01*
X376316Y295386D01*
X374816Y296286D01*
X374788Y296295D01*
X374754Y296316D01*
X373154Y296916D01*
X373132Y296919D01*
X373107Y296930D01*
X371407Y297330D01*
X371396Y297330D01*
X371383Y297335D01*
X369583Y297635D01*
X369573Y297634D01*
X369562Y297638D01*
X367763Y297838D01*
X366066Y298037D01*
X364598Y298233D01*
X363233Y298623D01*
X362074Y299010D01*
X361276Y299453D01*
X360789Y300102D01*
X360700Y301077D01*
X360700Y301529D01*
X360793Y302082D01*
X360883Y302443D01*
X361058Y302882D01*
X361416Y303418D01*
X361645Y303648D01*
X361900Y303775D01*
X361990Y303820D01*
X362006Y303833D01*
X362031Y303844D01*
X362311Y304031D01*
X362561Y304155D01*
X362653Y304201D01*
X363003Y304289D01*
X363458Y304380D01*
X363820Y304380D01*
X363850Y304387D01*
X363895Y304387D01*
X364358Y304480D01*
X365882Y304480D01*
X366837Y304289D01*
X367228Y304191D01*
X367236Y304191D01*
X367245Y304187D01*
X367696Y304097D01*
X368429Y303731D01*
X368678Y303565D01*
X369225Y303018D01*
X369391Y302769D01*
X369573Y302404D01*
X369767Y301919D01*
X369775Y301907D01*
X369780Y301890D01*
X369957Y301536D01*
X370040Y301122D01*
X370040Y300560D01*
X370051Y300510D01*
X370053Y300459D01*
X370071Y300427D01*
X370079Y300391D01*
X370112Y300352D01*
X370136Y300307D01*
X370166Y300286D01*
X370189Y300258D01*
X370236Y300237D01*
X370278Y300207D01*
X370320Y300199D01*
X370348Y300187D01*
X370378Y300188D01*
X370420Y300180D01*
X378220Y300180D01*
X378297Y300198D01*
X378375Y300213D01*
X378381Y300217D01*
X378389Y300219D01*
X378450Y300270D01*
X378513Y300318D01*
X378517Y300325D01*
X378522Y300329D01*
X378555Y300402D01*
X378590Y300473D01*
X378590Y300481D01*
X378593Y300488D01*
X378592Y300521D01*
X378596Y300618D01*
X378396Y301918D01*
X378395Y301920D01*
X378395Y301923D01*
X378195Y303123D01*
X378184Y303150D01*
X378177Y303190D01*
X377777Y304290D01*
X377758Y304320D01*
X377736Y304371D01*
X376536Y306171D01*
X376520Y306186D01*
X376506Y306210D01*
X375806Y307010D01*
X375788Y307023D01*
X375787Y307025D01*
X375784Y307030D01*
X375781Y307032D01*
X375770Y307046D01*
X374970Y307746D01*
X374941Y307762D01*
X374905Y307792D01*
X374010Y308289D01*
X373016Y308886D01*
X372991Y308894D01*
X372961Y308913D01*
X371961Y309313D01*
X371942Y309316D01*
X371920Y309327D01*
X369720Y309927D01*
X369705Y309927D01*
X369688Y309934D01*
X368588Y310134D01*
X368585Y310134D01*
X368583Y310135D01*
X367383Y310335D01*
X367356Y310333D01*
X367320Y310340D01*
X362820Y310340D01*
X362805Y310337D01*
X362786Y310339D01*
X361686Y310239D01*
X361671Y310234D01*
X361652Y310234D01*
X359452Y309834D01*
X359449Y309833D01*
X359445Y309833D01*
X358445Y309633D01*
X358431Y309626D01*
X358411Y309624D01*
X357411Y309324D01*
X357392Y309314D01*
X357366Y309307D01*
X356466Y308907D01*
X356454Y308898D01*
X356435Y308892D01*
X355535Y308392D01*
X355519Y308377D01*
X355492Y308364D01*
X354692Y307764D01*
X354685Y307756D01*
X354673Y307749D01*
X353973Y307149D01*
X353952Y307121D01*
X353916Y307088D01*
X353316Y306288D01*
X353304Y306262D01*
X353280Y306230D01*
X352880Y305430D01*
X352877Y305416D01*
X352867Y305401D01*
X352467Y304401D01*
X352462Y304370D01*
X352446Y304328D01*
X352246Y303228D01*
X352247Y303212D01*
X352241Y303192D01*
X352141Y301992D01*
X352143Y301977D01*
X352140Y301960D01*
X352140Y285398D01*
X352047Y284935D01*
X352048Y284903D01*
X352040Y284860D01*
X352040Y284498D01*
X351947Y284035D01*
X351948Y284003D01*
X351940Y283960D01*
X351940Y283607D01*
X351751Y282852D01*
X351751Y282816D01*
X351740Y282760D01*
X351740Y282507D01*
X351655Y282166D01*
X351475Y281629D01*
X351304Y281371D01*
X351296Y281351D01*
X351280Y281330D01*
X351180Y281130D01*
X351168Y281080D01*
X351147Y281032D01*
X351148Y280997D01*
X351140Y280962D01*
X351151Y280911D01*
X351153Y280859D01*
X351171Y280828D01*
X351179Y280793D01*
X351211Y280753D01*
X351236Y280707D01*
X351265Y280686D01*
X351288Y280659D01*
X351335Y280637D01*
X351378Y280607D01*
X351419Y280599D01*
X351446Y280587D01*
X351477Y280588D01*
X351520Y280580D01*
X359420Y280580D01*
X359470Y280591D01*
X359521Y280593D01*
X359553Y280611D01*
X359589Y280619D01*
X359628Y280652D01*
X359673Y280676D01*
X359694Y280706D01*
X359722Y280729D01*
X359743Y280776D01*
X359773Y280818D01*
X359781Y280860D01*
X359793Y280888D01*
X359792Y280918D01*
X359800Y280960D01*
X359800Y281009D01*
X359809Y281023D01*
X359860Y281090D01*
X359960Y281290D01*
X359964Y281305D01*
X359973Y281318D01*
X359999Y281452D01*
X360000Y281459D01*
X360000Y281460D01*
X360000Y281509D01*
X360029Y281556D01*
X360073Y281618D01*
X360075Y281630D01*
X360080Y281638D01*
X360084Y281675D01*
X360100Y281760D01*
X360100Y281870D01*
X360160Y281990D01*
X360164Y282005D01*
X360173Y282018D01*
X360199Y282152D01*
X360200Y282159D01*
X360200Y282160D01*
X360200Y282370D01*
X360260Y282490D01*
X360264Y282505D01*
X360273Y282518D01*
X360299Y282652D01*
X360300Y282659D01*
X360300Y282660D01*
X360300Y282869D01*
X361182Y282163D01*
X361196Y282157D01*
X361209Y282144D01*
X361809Y281744D01*
X361817Y281741D01*
X361824Y281734D01*
X362324Y281434D01*
X362337Y281430D01*
X362350Y281420D01*
X362950Y281120D01*
X362973Y281114D01*
X363000Y281099D01*
X363574Y280908D01*
X364150Y280620D01*
X364173Y280614D01*
X364200Y280599D01*
X364800Y280399D01*
X364825Y280397D01*
X364858Y280385D01*
X365436Y280289D01*
X366116Y280094D01*
X366135Y280093D01*
X366158Y280085D01*
X366758Y279985D01*
X366784Y279987D01*
X366820Y279980D01*
X367489Y279980D01*
X368058Y279885D01*
X368062Y279885D01*
X368066Y279884D01*
X368766Y279784D01*
X368790Y279786D01*
X368820Y279780D01*
X370420Y279780D01*
X370436Y279784D01*
G37*
G36*
X308453Y280688D02*
X308453Y280688D01*
X308488Y280686D01*
X308537Y280707D01*
X308589Y280719D01*
X308615Y280741D01*
X308647Y280755D01*
X308692Y280805D01*
X308722Y280829D01*
X308730Y280845D01*
X308744Y280862D01*
X316197Y293057D01*
X318740Y290599D01*
X318740Y281060D01*
X318751Y281010D01*
X318753Y280959D01*
X318771Y280927D01*
X318779Y280891D01*
X318812Y280852D01*
X318836Y280807D01*
X318866Y280786D01*
X318889Y280758D01*
X318936Y280737D01*
X318978Y280707D01*
X319020Y280699D01*
X319048Y280687D01*
X319078Y280688D01*
X319120Y280680D01*
X326920Y280680D01*
X326970Y280691D01*
X327021Y280693D01*
X327053Y280711D01*
X327089Y280719D01*
X327128Y280752D01*
X327173Y280776D01*
X327194Y280806D01*
X327222Y280829D01*
X327243Y280876D01*
X327273Y280918D01*
X327281Y280960D01*
X327293Y280988D01*
X327292Y281018D01*
X327300Y281060D01*
X327300Y315760D01*
X327291Y315802D01*
X327291Y315844D01*
X327271Y315885D01*
X327261Y315929D01*
X327234Y315962D01*
X327215Y316000D01*
X327173Y316035D01*
X327151Y316062D01*
X327128Y316072D01*
X327104Y316093D01*
X319304Y320393D01*
X319247Y320409D01*
X319192Y320433D01*
X319164Y320432D01*
X319137Y320440D01*
X319079Y320429D01*
X319019Y320427D01*
X318994Y320413D01*
X318967Y320408D01*
X318919Y320372D01*
X318867Y320344D01*
X318851Y320321D01*
X318828Y320304D01*
X318801Y320251D01*
X318767Y320202D01*
X318761Y320171D01*
X318750Y320149D01*
X318750Y320113D01*
X318740Y320060D01*
X318740Y300098D01*
X309593Y309525D01*
X309527Y309567D01*
X309462Y309613D01*
X309453Y309614D01*
X309447Y309618D01*
X309413Y309622D01*
X309320Y309640D01*
X300120Y309640D01*
X300092Y309634D01*
X300064Y309636D01*
X300009Y309614D01*
X299951Y309601D01*
X299929Y309583D01*
X299903Y309572D01*
X299863Y309528D01*
X299818Y309491D01*
X299806Y309465D01*
X299787Y309443D01*
X299771Y309386D01*
X299747Y309332D01*
X299748Y309304D01*
X299740Y309277D01*
X299751Y309219D01*
X299753Y309159D01*
X299767Y309134D01*
X299772Y309106D01*
X299818Y309041D01*
X299836Y309007D01*
X299846Y309000D01*
X299855Y308987D01*
X310329Y298807D01*
X298703Y281270D01*
X298677Y281200D01*
X298647Y281132D01*
X298647Y281120D01*
X298643Y281108D01*
X298650Y281034D01*
X298653Y280959D01*
X298659Y280948D01*
X298661Y280935D01*
X298701Y280872D01*
X298736Y280807D01*
X298746Y280800D01*
X298753Y280789D01*
X298817Y280750D01*
X298878Y280707D01*
X298892Y280705D01*
X298901Y280699D01*
X298939Y280695D01*
X299020Y280680D01*
X308420Y280680D01*
X308453Y280688D01*
G37*
G36*
X346264Y342404D02*
X346264Y342404D01*
X346267Y342401D01*
X346967Y342501D01*
X346968Y342502D01*
X346968Y342501D01*
X347568Y342601D01*
X348267Y342701D01*
X348272Y342706D01*
X348276Y342703D01*
X348876Y342903D01*
X348879Y342908D01*
X348882Y342906D01*
X349482Y343206D01*
X349484Y343210D01*
X349487Y343209D01*
X350687Y344009D01*
X350690Y344016D01*
X350695Y344015D01*
X351595Y344915D01*
X351596Y344922D01*
X351601Y344923D01*
X352001Y345523D01*
X352001Y345527D01*
X352004Y345528D01*
X352604Y346728D01*
X352603Y346733D01*
X352607Y346734D01*
X352807Y347334D01*
X352806Y347336D01*
X352807Y347336D01*
X352843Y347460D01*
X352857Y347509D01*
X352899Y347657D01*
X352941Y347805D01*
X352955Y347854D01*
X352997Y348002D01*
X352998Y348002D01*
X352997Y348002D01*
X353007Y348036D01*
X353006Y348041D01*
X353009Y348043D01*
X353109Y348743D01*
X353106Y348748D01*
X353109Y348750D01*
X353109Y350050D01*
X353103Y350058D01*
X353107Y350064D01*
X352908Y350761D01*
X352809Y351358D01*
X352802Y351364D01*
X352805Y351369D01*
X352505Y352069D01*
X352503Y352071D01*
X352504Y352072D01*
X352204Y352672D01*
X352197Y352675D01*
X352198Y352681D01*
X351800Y353179D01*
X351401Y353777D01*
X351394Y353780D01*
X351395Y353785D01*
X350895Y354285D01*
X350891Y354285D01*
X350891Y354288D01*
X349891Y355088D01*
X349883Y355089D01*
X349882Y355094D01*
X348682Y355694D01*
X348675Y355693D01*
X348674Y355697D01*
X347974Y355897D01*
X347969Y355896D01*
X347967Y355899D01*
X347268Y355999D01*
X346668Y356099D01*
X346663Y356096D01*
X346660Y356099D01*
X309760Y356099D01*
X309751Y356092D01*
X309742Y356086D01*
X309730Y356089D01*
X309330Y355789D01*
X309325Y355770D01*
X309313Y355761D01*
X309317Y355755D01*
X309311Y355750D01*
X309311Y342850D01*
X309324Y342832D01*
X309321Y342820D01*
X309621Y342420D01*
X309652Y342412D01*
X309660Y342401D01*
X346260Y342401D01*
X346264Y342404D01*
G37*
G36*
X229470Y280691D02*
X229470Y280691D01*
X229521Y280693D01*
X229553Y280711D01*
X229589Y280719D01*
X229628Y280752D01*
X229673Y280776D01*
X229694Y280806D01*
X229722Y280829D01*
X229743Y280876D01*
X229773Y280918D01*
X229781Y280960D01*
X229793Y280988D01*
X229792Y281018D01*
X229800Y281060D01*
X229800Y296949D01*
X229899Y298622D01*
X230094Y299987D01*
X230377Y301119D01*
X230833Y301940D01*
X231463Y302660D01*
X232284Y303116D01*
X233207Y303485D01*
X234422Y303579D01*
X235846Y303484D01*
X236968Y303110D01*
X237990Y302552D01*
X238712Y301830D01*
X239272Y300804D01*
X239747Y299473D01*
X239941Y297828D01*
X240040Y295850D01*
X240040Y281060D01*
X240051Y281010D01*
X240053Y280959D01*
X240071Y280927D01*
X240079Y280891D01*
X240112Y280852D01*
X240136Y280807D01*
X240166Y280786D01*
X240189Y280758D01*
X240236Y280737D01*
X240278Y280707D01*
X240320Y280699D01*
X240348Y280687D01*
X240378Y280688D01*
X240420Y280680D01*
X248220Y280680D01*
X248270Y280691D01*
X248321Y280693D01*
X248353Y280711D01*
X248389Y280719D01*
X248428Y280752D01*
X248473Y280776D01*
X248494Y280806D01*
X248522Y280829D01*
X248543Y280876D01*
X248573Y280918D01*
X248581Y280960D01*
X248593Y280988D01*
X248592Y281018D01*
X248600Y281060D01*
X248600Y305760D01*
X248599Y305765D01*
X248600Y305771D01*
X248500Y309271D01*
X248488Y309315D01*
X248487Y309361D01*
X248467Y309398D01*
X248456Y309438D01*
X248426Y309473D01*
X248404Y309513D01*
X248370Y309537D01*
X248342Y309569D01*
X248300Y309586D01*
X248262Y309613D01*
X248213Y309622D01*
X248182Y309635D01*
X248155Y309633D01*
X248120Y309640D01*
X240720Y309640D01*
X240670Y309629D01*
X240619Y309627D01*
X240587Y309609D01*
X240551Y309601D01*
X240512Y309568D01*
X240467Y309544D01*
X240446Y309514D01*
X240418Y309491D01*
X240397Y309444D01*
X240367Y309402D01*
X240359Y309360D01*
X240347Y309332D01*
X240348Y309302D01*
X240340Y309260D01*
X240340Y306392D01*
X240128Y306684D01*
X240114Y306695D01*
X240103Y306714D01*
X239203Y307714D01*
X239181Y307730D01*
X239158Y307757D01*
X238158Y308557D01*
X238141Y308565D01*
X238124Y308581D01*
X237024Y309281D01*
X236998Y309290D01*
X236966Y309311D01*
X235766Y309811D01*
X235742Y309815D01*
X235712Y309829D01*
X234512Y310129D01*
X234498Y310129D01*
X234483Y310135D01*
X233283Y310335D01*
X233269Y310334D01*
X233252Y310339D01*
X232052Y310439D01*
X232026Y310435D01*
X231993Y310439D01*
X229193Y310239D01*
X229165Y310231D01*
X229124Y310228D01*
X226824Y309628D01*
X226791Y309611D01*
X226735Y309592D01*
X224935Y308592D01*
X224907Y308566D01*
X224851Y308529D01*
X223451Y307129D01*
X223431Y307097D01*
X223392Y307053D01*
X222392Y305353D01*
X222382Y305318D01*
X222356Y305269D01*
X221756Y303269D01*
X221754Y303244D01*
X221743Y303211D01*
X221443Y301011D01*
X221445Y300995D01*
X221440Y300975D01*
X221340Y298475D01*
X221341Y298468D01*
X221340Y298460D01*
X221340Y281060D01*
X221351Y281010D01*
X221353Y280959D01*
X221371Y280927D01*
X221379Y280891D01*
X221412Y280852D01*
X221436Y280807D01*
X221466Y280786D01*
X221489Y280758D01*
X221536Y280737D01*
X221578Y280707D01*
X221620Y280699D01*
X221648Y280687D01*
X221678Y280688D01*
X221720Y280680D01*
X229420Y280680D01*
X229470Y280691D01*
G37*
G36*
X271347Y280081D02*
X271347Y280081D01*
X271375Y280089D01*
X271416Y280092D01*
X273716Y280692D01*
X273749Y280709D01*
X273805Y280728D01*
X275605Y281728D01*
X275633Y281754D01*
X275689Y281791D01*
X277089Y283191D01*
X277109Y283223D01*
X277148Y283267D01*
X278148Y284967D01*
X278159Y285002D01*
X278184Y285051D01*
X278784Y287051D01*
X278786Y287076D01*
X278797Y287109D01*
X279097Y289309D01*
X279095Y289325D01*
X279100Y289345D01*
X279200Y291845D01*
X279199Y291852D01*
X279200Y291860D01*
X279200Y309260D01*
X279189Y309310D01*
X279187Y309361D01*
X279169Y309393D01*
X279161Y309429D01*
X279128Y309468D01*
X279104Y309513D01*
X279074Y309534D01*
X279051Y309562D01*
X279004Y309583D01*
X278962Y309613D01*
X278920Y309621D01*
X278892Y309633D01*
X278862Y309632D01*
X278820Y309640D01*
X271120Y309640D01*
X271070Y309629D01*
X271019Y309627D01*
X270987Y309609D01*
X270951Y309601D01*
X270912Y309568D01*
X270867Y309544D01*
X270846Y309514D01*
X270818Y309491D01*
X270797Y309444D01*
X270767Y309402D01*
X270759Y309360D01*
X270747Y309332D01*
X270748Y309302D01*
X270740Y309260D01*
X270740Y293371D01*
X270641Y291698D01*
X270446Y290333D01*
X270161Y289193D01*
X269708Y288285D01*
X269078Y287656D01*
X268256Y287108D01*
X267350Y286836D01*
X266118Y286741D01*
X264694Y286836D01*
X263572Y287210D01*
X262550Y287768D01*
X261828Y288490D01*
X261268Y289516D01*
X260793Y290847D01*
X260599Y292492D01*
X260500Y294470D01*
X260500Y309260D01*
X260489Y309310D01*
X260487Y309361D01*
X260469Y309393D01*
X260461Y309429D01*
X260428Y309468D01*
X260404Y309513D01*
X260374Y309534D01*
X260351Y309562D01*
X260304Y309583D01*
X260262Y309613D01*
X260220Y309621D01*
X260192Y309633D01*
X260162Y309632D01*
X260120Y309640D01*
X252320Y309640D01*
X252270Y309629D01*
X252219Y309627D01*
X252187Y309609D01*
X252151Y309601D01*
X252112Y309568D01*
X252067Y309544D01*
X252046Y309514D01*
X252018Y309491D01*
X251997Y309444D01*
X251967Y309402D01*
X251959Y309360D01*
X251947Y309332D01*
X251948Y309302D01*
X251940Y309260D01*
X251940Y284560D01*
X251941Y284555D01*
X251940Y284549D01*
X252040Y281049D01*
X252052Y281005D01*
X252053Y280959D01*
X252073Y280922D01*
X252084Y280882D01*
X252114Y280847D01*
X252136Y280807D01*
X252170Y280783D01*
X252198Y280751D01*
X252240Y280734D01*
X252278Y280707D01*
X252327Y280698D01*
X252358Y280685D01*
X252385Y280687D01*
X252420Y280680D01*
X259820Y280680D01*
X259870Y280691D01*
X259921Y280693D01*
X259953Y280711D01*
X259989Y280719D01*
X260028Y280752D01*
X260073Y280776D01*
X260094Y280806D01*
X260122Y280829D01*
X260143Y280876D01*
X260173Y280918D01*
X260181Y280960D01*
X260193Y280988D01*
X260192Y281018D01*
X260200Y281060D01*
X260200Y283928D01*
X260412Y283636D01*
X260426Y283625D01*
X260437Y283606D01*
X261337Y282606D01*
X261359Y282590D01*
X261382Y282563D01*
X262382Y281763D01*
X262399Y281755D01*
X262416Y281739D01*
X263516Y281039D01*
X263542Y281030D01*
X263574Y281009D01*
X264774Y280509D01*
X264798Y280505D01*
X264828Y280491D01*
X266028Y280191D01*
X266042Y280191D01*
X266058Y280185D01*
X267258Y279985D01*
X267272Y279986D01*
X267288Y279981D01*
X268488Y279881D01*
X268514Y279885D01*
X268547Y279881D01*
X271347Y280081D01*
G37*
G36*
X428635Y280080D02*
X428635Y280080D01*
X428656Y280086D01*
X428685Y280085D01*
X430985Y280485D01*
X431000Y280492D01*
X431020Y280493D01*
X433220Y281093D01*
X433248Y281108D01*
X433290Y281120D01*
X433370Y281160D01*
X434131Y281540D01*
X434891Y281920D01*
X434891Y281921D01*
X435290Y282120D01*
X435317Y282142D01*
X435362Y282166D01*
X437062Y283566D01*
X437083Y283594D01*
X437122Y283629D01*
X438422Y285329D01*
X438437Y285363D01*
X438470Y285410D01*
X439370Y287510D01*
X439376Y287546D01*
X439395Y287600D01*
X439795Y290100D01*
X439790Y290180D01*
X439787Y290261D01*
X439784Y290266D01*
X439783Y290273D01*
X439742Y290342D01*
X439704Y290413D01*
X439699Y290417D01*
X439695Y290422D01*
X439628Y290467D01*
X439562Y290513D01*
X439555Y290514D01*
X439551Y290517D01*
X439520Y290521D01*
X439420Y290540D01*
X432020Y290540D01*
X431987Y290533D01*
X431953Y290534D01*
X431904Y290513D01*
X431851Y290501D01*
X431825Y290479D01*
X431794Y290466D01*
X431759Y290425D01*
X431718Y290391D01*
X431704Y290360D01*
X431682Y290334D01*
X431663Y290268D01*
X431647Y290232D01*
X431647Y290215D01*
X431641Y290194D01*
X431546Y289150D01*
X431186Y288248D01*
X430632Y287510D01*
X429989Y286867D01*
X429171Y286412D01*
X428231Y286130D01*
X427169Y285937D01*
X426103Y285840D01*
X425262Y285840D01*
X424408Y286030D01*
X423653Y286219D01*
X422917Y286587D01*
X422281Y287041D01*
X421840Y287570D01*
X421490Y288269D01*
X421403Y289057D01*
X421485Y289717D01*
X421903Y290301D01*
X422543Y290851D01*
X423476Y291410D01*
X424732Y291797D01*
X424735Y291799D01*
X424740Y291799D01*
X426224Y292294D01*
X427901Y292688D01*
X429895Y293087D01*
X429900Y293090D01*
X429907Y293090D01*
X431607Y293490D01*
X431618Y293495D01*
X431633Y293497D01*
X433233Y293997D01*
X433245Y294004D01*
X433261Y294007D01*
X434761Y294607D01*
X434780Y294620D01*
X434809Y294630D01*
X436209Y295430D01*
X436229Y295448D01*
X436261Y295466D01*
X437361Y296366D01*
X437383Y296395D01*
X437424Y296432D01*
X438324Y297632D01*
X438340Y297668D01*
X438378Y297732D01*
X438878Y299132D01*
X438882Y299167D01*
X438898Y299216D01*
X439098Y300916D01*
X439094Y300947D01*
X439099Y300990D01*
X438899Y303490D01*
X438887Y303527D01*
X438873Y303601D01*
X438073Y305601D01*
X438051Y305632D01*
X438024Y305688D01*
X436824Y307288D01*
X436794Y307313D01*
X436748Y307364D01*
X435148Y308564D01*
X435119Y308577D01*
X435083Y308604D01*
X433183Y309504D01*
X433151Y309511D01*
X433108Y309530D01*
X431008Y310030D01*
X430991Y310030D01*
X430971Y310037D01*
X428771Y310337D01*
X428756Y310335D01*
X428737Y310340D01*
X426437Y310440D01*
X426422Y310437D01*
X426403Y310440D01*
X424203Y310340D01*
X424188Y310336D01*
X424169Y310337D01*
X421969Y310037D01*
X421945Y310028D01*
X421911Y310024D01*
X419911Y309424D01*
X419889Y309412D01*
X419857Y309404D01*
X417957Y308504D01*
X417930Y308482D01*
X417882Y308457D01*
X416382Y307257D01*
X416362Y307231D01*
X416325Y307200D01*
X415025Y305600D01*
X415009Y305567D01*
X414976Y305523D01*
X414076Y303623D01*
X414068Y303585D01*
X414045Y303523D01*
X413645Y301123D01*
X413650Y301041D01*
X413653Y300959D01*
X413656Y300955D01*
X413656Y300950D01*
X413697Y300879D01*
X413736Y300807D01*
X413740Y300804D01*
X413743Y300800D01*
X413811Y300754D01*
X413878Y300707D01*
X413883Y300706D01*
X413887Y300704D01*
X413915Y300700D01*
X414020Y300680D01*
X421320Y300680D01*
X421333Y300683D01*
X421347Y300681D01*
X421417Y300702D01*
X421489Y300719D01*
X421499Y300728D01*
X421512Y300732D01*
X421566Y300783D01*
X421622Y300829D01*
X421628Y300842D01*
X421638Y300851D01*
X421693Y300985D01*
X421885Y301944D01*
X422246Y302757D01*
X422690Y303290D01*
X423230Y303740D01*
X423700Y303975D01*
X423966Y304108D01*
X424802Y304387D01*
X425641Y304480D01*
X428093Y304480D01*
X428717Y304391D01*
X429360Y304115D01*
X429895Y303848D01*
X430308Y303435D01*
X430551Y302948D01*
X430635Y302278D01*
X430469Y301535D01*
X429965Y300947D01*
X429135Y300393D01*
X428085Y299916D01*
X426815Y299526D01*
X425336Y299131D01*
X423750Y298834D01*
X423741Y298830D01*
X423728Y298829D01*
X422131Y298430D01*
X420433Y298030D01*
X420422Y298025D01*
X420407Y298023D01*
X418807Y297523D01*
X418798Y297518D01*
X418787Y297516D01*
X417187Y296916D01*
X417156Y296896D01*
X417104Y296873D01*
X415804Y295973D01*
X415793Y295961D01*
X415777Y295952D01*
X414577Y294952D01*
X414553Y294921D01*
X414504Y294871D01*
X413704Y293671D01*
X413692Y293640D01*
X413667Y293601D01*
X413067Y292101D01*
X413061Y292063D01*
X413042Y292002D01*
X412842Y290202D01*
X412846Y290168D01*
X412842Y290116D01*
X413142Y287516D01*
X413150Y287495D01*
X413150Y287484D01*
X413156Y287474D01*
X413165Y287425D01*
X413965Y285325D01*
X413987Y285292D01*
X414018Y285229D01*
X415318Y283529D01*
X415347Y283505D01*
X415389Y283458D01*
X417089Y282158D01*
X417114Y282147D01*
X417143Y282124D01*
X419043Y281124D01*
X419076Y281115D01*
X419120Y281093D01*
X421320Y280493D01*
X421336Y280493D01*
X421355Y280485D01*
X423655Y280085D01*
X423677Y280087D01*
X423704Y280080D01*
X426104Y279980D01*
X426118Y279983D01*
X426135Y279980D01*
X428635Y280080D01*
G37*
G36*
X333170Y203346D02*
X333170Y203346D01*
X333278Y203356D01*
X333291Y203362D01*
X333305Y203364D01*
X333402Y203412D01*
X333501Y203457D01*
X333514Y203468D01*
X333523Y203472D01*
X333538Y203488D01*
X333615Y203550D01*
X336200Y206135D01*
X336263Y206224D01*
X336329Y206309D01*
X336334Y206322D01*
X336342Y206334D01*
X336373Y206437D01*
X336409Y206540D01*
X336409Y206554D01*
X336413Y206567D01*
X336409Y206675D01*
X336410Y206784D01*
X336405Y206797D01*
X336405Y206811D01*
X336367Y206913D01*
X336332Y207015D01*
X336323Y207030D01*
X336319Y207039D01*
X336305Y207056D01*
X336251Y207138D01*
X333487Y210528D01*
X334044Y211610D01*
X334050Y211630D01*
X334092Y211725D01*
X334463Y212884D01*
X338814Y213327D01*
X338918Y213355D01*
X339024Y213380D01*
X339036Y213387D01*
X339049Y213390D01*
X339139Y213451D01*
X339232Y213508D01*
X339240Y213519D01*
X339252Y213527D01*
X339318Y213613D01*
X339387Y213697D01*
X339391Y213710D01*
X339400Y213721D01*
X339434Y213824D01*
X339473Y213925D01*
X339474Y213943D01*
X339478Y213952D01*
X339478Y213974D01*
X339487Y214072D01*
X339487Y217728D01*
X339470Y217835D01*
X339456Y217943D01*
X339450Y217955D01*
X339448Y217969D01*
X339396Y218065D01*
X339349Y218162D01*
X339339Y218172D01*
X339333Y218184D01*
X339253Y218258D01*
X339177Y218335D01*
X339165Y218341D01*
X339155Y218351D01*
X339056Y218396D01*
X338959Y218444D01*
X338941Y218448D01*
X338932Y218452D01*
X338911Y218454D01*
X338814Y218473D01*
X334463Y218916D01*
X334092Y220075D01*
X334083Y220092D01*
X334081Y220100D01*
X334077Y220107D01*
X334044Y220190D01*
X333487Y221272D01*
X336251Y224662D01*
X336305Y224756D01*
X336362Y224848D01*
X336365Y224861D01*
X336372Y224873D01*
X336393Y224980D01*
X336418Y225085D01*
X336416Y225099D01*
X336419Y225113D01*
X336404Y225220D01*
X336394Y225328D01*
X336388Y225341D01*
X336386Y225355D01*
X336338Y225452D01*
X336293Y225551D01*
X336282Y225564D01*
X336278Y225573D01*
X336262Y225588D01*
X336200Y225665D01*
X333615Y228250D01*
X333526Y228313D01*
X333441Y228379D01*
X333428Y228384D01*
X333416Y228392D01*
X333313Y228423D01*
X333210Y228459D01*
X333196Y228459D01*
X333183Y228463D01*
X333075Y228459D01*
X332966Y228460D01*
X332953Y228455D01*
X332939Y228455D01*
X332837Y228417D01*
X332735Y228382D01*
X332720Y228373D01*
X332711Y228369D01*
X332694Y228355D01*
X332612Y228301D01*
X329222Y225537D01*
X328140Y226094D01*
X328120Y226100D01*
X328025Y226142D01*
X326866Y226513D01*
X326423Y230864D01*
X326395Y230968D01*
X326370Y231074D01*
X326363Y231086D01*
X326360Y231099D01*
X326299Y231189D01*
X326242Y231282D01*
X326231Y231290D01*
X326223Y231302D01*
X326137Y231368D01*
X326053Y231437D01*
X326040Y231441D01*
X326029Y231450D01*
X325926Y231484D01*
X325825Y231523D01*
X325807Y231524D01*
X325798Y231528D01*
X325776Y231528D01*
X325678Y231537D01*
X322022Y231537D01*
X321915Y231520D01*
X321807Y231506D01*
X321795Y231500D01*
X321781Y231498D01*
X321685Y231446D01*
X321588Y231399D01*
X321578Y231389D01*
X321566Y231383D01*
X321492Y231303D01*
X321415Y231227D01*
X321409Y231215D01*
X321399Y231205D01*
X321354Y231106D01*
X321306Y231009D01*
X321302Y230991D01*
X321298Y230982D01*
X321296Y230961D01*
X321277Y230864D01*
X320834Y226513D01*
X319675Y226142D01*
X319657Y226132D01*
X319560Y226094D01*
X318478Y225537D01*
X315088Y228301D01*
X314994Y228355D01*
X314902Y228412D01*
X314889Y228415D01*
X314877Y228422D01*
X314770Y228443D01*
X314665Y228468D01*
X314651Y228466D01*
X314637Y228469D01*
X314530Y228454D01*
X314422Y228444D01*
X314409Y228438D01*
X314396Y228436D01*
X314298Y228388D01*
X314199Y228343D01*
X314186Y228332D01*
X314177Y228328D01*
X314162Y228312D01*
X314085Y228250D01*
X311500Y225665D01*
X311437Y225576D01*
X311371Y225491D01*
X311366Y225478D01*
X311358Y225466D01*
X311327Y225363D01*
X311291Y225260D01*
X311291Y225246D01*
X311287Y225233D01*
X311291Y225125D01*
X311290Y225016D01*
X311295Y225003D01*
X311295Y224989D01*
X311333Y224887D01*
X311368Y224785D01*
X311377Y224770D01*
X311381Y224761D01*
X311395Y224744D01*
X311449Y224662D01*
X314213Y221272D01*
X313656Y220190D01*
X313650Y220170D01*
X313608Y220075D01*
X313237Y218916D01*
X308886Y218473D01*
X308782Y218445D01*
X308676Y218420D01*
X308664Y218413D01*
X308651Y218410D01*
X308561Y218349D01*
X308468Y218292D01*
X308460Y218281D01*
X308448Y218273D01*
X308382Y218187D01*
X308314Y218103D01*
X308309Y218090D01*
X308300Y218079D01*
X308266Y217976D01*
X308227Y217875D01*
X308226Y217857D01*
X308222Y217848D01*
X308223Y217826D01*
X308213Y217728D01*
X308213Y214072D01*
X308230Y213965D01*
X308244Y213857D01*
X308250Y213845D01*
X308252Y213831D01*
X308304Y213735D01*
X308351Y213638D01*
X308361Y213628D01*
X308367Y213616D01*
X308447Y213542D01*
X308523Y213465D01*
X308535Y213459D01*
X308546Y213449D01*
X308644Y213404D01*
X308741Y213356D01*
X308759Y213352D01*
X308768Y213348D01*
X308789Y213346D01*
X308886Y213327D01*
X313237Y212884D01*
X313608Y211725D01*
X313618Y211707D01*
X313656Y211610D01*
X314213Y210528D01*
X311449Y207138D01*
X311395Y207044D01*
X311338Y206952D01*
X311335Y206939D01*
X311328Y206927D01*
X311307Y206820D01*
X311282Y206715D01*
X311284Y206701D01*
X311281Y206687D01*
X311296Y206580D01*
X311306Y206472D01*
X311312Y206459D01*
X311314Y206446D01*
X311362Y206348D01*
X311407Y206249D01*
X311418Y206236D01*
X311422Y206227D01*
X311438Y206212D01*
X311500Y206135D01*
X314085Y203550D01*
X314174Y203487D01*
X314259Y203421D01*
X314272Y203416D01*
X314284Y203408D01*
X314387Y203377D01*
X314490Y203341D01*
X314504Y203341D01*
X314517Y203337D01*
X314625Y203341D01*
X314734Y203340D01*
X314747Y203345D01*
X314761Y203345D01*
X314863Y203383D01*
X314965Y203418D01*
X314980Y203427D01*
X314989Y203431D01*
X315006Y203445D01*
X315088Y203499D01*
X318478Y206263D01*
X319560Y205706D01*
X319613Y205689D01*
X319662Y205663D01*
X319728Y205652D01*
X319792Y205631D01*
X319848Y205632D01*
X319902Y205623D01*
X319969Y205634D01*
X320036Y205635D01*
X320088Y205653D01*
X320143Y205662D01*
X320203Y205694D01*
X320266Y205717D01*
X320309Y205751D01*
X320359Y205777D01*
X320405Y205826D01*
X320457Y205868D01*
X320488Y205915D01*
X320526Y205955D01*
X320582Y206060D01*
X320590Y206073D01*
X320591Y206078D01*
X320595Y206085D01*
X322748Y211282D01*
X322768Y211365D01*
X322773Y211378D01*
X322775Y211394D01*
X322800Y211479D01*
X322799Y211500D01*
X322804Y211520D01*
X322796Y211602D01*
X322798Y211621D01*
X322793Y211641D01*
X322789Y211722D01*
X322782Y211742D01*
X322780Y211763D01*
X322749Y211832D01*
X322742Y211859D01*
X322727Y211883D01*
X322701Y211950D01*
X322688Y211966D01*
X322679Y211985D01*
X322634Y212034D01*
X322614Y212066D01*
X322583Y212091D01*
X322545Y212137D01*
X322522Y212153D01*
X322512Y212163D01*
X322491Y212175D01*
X322426Y212220D01*
X322425Y212221D01*
X322424Y212222D01*
X321525Y212728D01*
X320838Y213372D01*
X320323Y214160D01*
X320011Y215048D01*
X319919Y215985D01*
X320052Y216917D01*
X320403Y217791D01*
X320952Y218556D01*
X321666Y219169D01*
X322506Y219594D01*
X323423Y219808D01*
X324364Y219798D01*
X325276Y219564D01*
X326106Y219121D01*
X326807Y218492D01*
X327339Y217715D01*
X327670Y216834D01*
X327783Y215899D01*
X327675Y214982D01*
X327355Y214114D01*
X326841Y213345D01*
X326162Y212718D01*
X325278Y212223D01*
X325236Y212190D01*
X325194Y212167D01*
X325163Y212134D01*
X325115Y212099D01*
X325103Y212083D01*
X325087Y212070D01*
X325052Y212015D01*
X325027Y211989D01*
X325013Y211958D01*
X324972Y211901D01*
X324966Y211882D01*
X324956Y211865D01*
X324937Y211790D01*
X324927Y211767D01*
X324924Y211743D01*
X324901Y211668D01*
X324902Y211648D01*
X324897Y211628D01*
X324904Y211543D01*
X324903Y211524D01*
X324906Y211507D01*
X324909Y211424D01*
X324917Y211399D01*
X324918Y211385D01*
X324928Y211363D01*
X324952Y211282D01*
X325261Y210537D01*
X326192Y208289D01*
X326502Y207540D01*
X327105Y206085D01*
X327134Y206038D01*
X327155Y205986D01*
X327198Y205935D01*
X327234Y205878D01*
X327277Y205843D01*
X327313Y205800D01*
X327370Y205766D01*
X327422Y205723D01*
X327474Y205704D01*
X327522Y205675D01*
X327588Y205661D01*
X327651Y205637D01*
X327706Y205635D01*
X327760Y205624D01*
X327827Y205631D01*
X327894Y205629D01*
X327948Y205645D01*
X328003Y205652D01*
X328114Y205696D01*
X328128Y205700D01*
X328132Y205703D01*
X328140Y205706D01*
X329222Y206263D01*
X332612Y203499D01*
X332706Y203445D01*
X332798Y203388D01*
X332811Y203385D01*
X332823Y203378D01*
X332930Y203357D01*
X333035Y203332D01*
X333049Y203334D01*
X333063Y203331D01*
X333170Y203346D01*
G37*
G36*
X294270Y280591D02*
X294270Y280591D01*
X294321Y280593D01*
X294353Y280611D01*
X294389Y280619D01*
X294428Y280652D01*
X294473Y280676D01*
X294494Y280706D01*
X294522Y280729D01*
X294543Y280776D01*
X294573Y280818D01*
X294581Y280860D01*
X294593Y280888D01*
X294592Y280918D01*
X294600Y280960D01*
X294600Y303680D01*
X301920Y303680D01*
X301945Y303686D01*
X301971Y303683D01*
X302029Y303705D01*
X302089Y303719D01*
X302109Y303736D01*
X302133Y303745D01*
X302175Y303790D01*
X302222Y303829D01*
X302233Y303853D01*
X302250Y303872D01*
X302268Y303931D01*
X302293Y303988D01*
X302292Y304013D01*
X302300Y304038D01*
X302289Y304099D01*
X302287Y304161D01*
X302274Y304183D01*
X302270Y304209D01*
X302222Y304280D01*
X302204Y304313D01*
X302196Y304319D01*
X302189Y304329D01*
X300189Y306329D01*
X300178Y306336D01*
X300167Y306349D01*
X299490Y306930D01*
X298909Y307607D01*
X298888Y307622D01*
X298867Y307649D01*
X298190Y308230D01*
X297609Y308907D01*
X297588Y308922D01*
X297567Y308949D01*
X296867Y309549D01*
X296813Y309577D01*
X296762Y309613D01*
X296734Y309618D01*
X296714Y309629D01*
X296677Y309629D01*
X296620Y309640D01*
X294600Y309640D01*
X294600Y311460D01*
X294598Y311469D01*
X294600Y311481D01*
X294500Y313281D01*
X294490Y313315D01*
X294485Y313367D01*
X293985Y315067D01*
X293971Y315092D01*
X293960Y315130D01*
X293260Y316530D01*
X293241Y316554D01*
X293221Y316592D01*
X292221Y317892D01*
X292191Y317917D01*
X292141Y317969D01*
X290741Y318969D01*
X290717Y318979D01*
X290690Y319000D01*
X289090Y319800D01*
X289054Y319809D01*
X288998Y319832D01*
X287098Y320232D01*
X287079Y320232D01*
X287054Y320239D01*
X284854Y320439D01*
X284839Y320437D01*
X284820Y320440D01*
X283220Y320440D01*
X283190Y320433D01*
X283145Y320433D01*
X282682Y320340D01*
X282220Y320340D01*
X282190Y320333D01*
X282145Y320333D01*
X281682Y320240D01*
X280720Y320240D01*
X280670Y320229D01*
X280619Y320227D01*
X280587Y320209D01*
X280551Y320201D01*
X280512Y320168D01*
X280467Y320144D01*
X280446Y320114D01*
X280418Y320091D01*
X280397Y320044D01*
X280367Y320002D01*
X280359Y319960D01*
X280347Y319932D01*
X280348Y319902D01*
X280340Y319860D01*
X280340Y314060D01*
X280345Y314036D01*
X280343Y314011D01*
X280365Y313952D01*
X280379Y313891D01*
X280395Y313872D01*
X280404Y313849D01*
X280450Y313806D01*
X280489Y313758D01*
X280512Y313747D01*
X280531Y313730D01*
X280590Y313712D01*
X280648Y313687D01*
X280673Y313688D01*
X280697Y313680D01*
X280784Y313692D01*
X280821Y313693D01*
X280829Y313698D01*
X280840Y313699D01*
X281082Y313780D01*
X284193Y313780D01*
X284790Y313694D01*
X285208Y313444D01*
X285548Y313188D01*
X285779Y312881D01*
X285948Y312372D01*
X286043Y311709D01*
X286140Y310936D01*
X286140Y309640D01*
X281120Y309640D01*
X281070Y309629D01*
X281019Y309627D01*
X280987Y309609D01*
X280951Y309601D01*
X280912Y309568D01*
X280867Y309544D01*
X280846Y309514D01*
X280818Y309491D01*
X280797Y309444D01*
X280767Y309402D01*
X280759Y309360D01*
X280747Y309332D01*
X280748Y309302D01*
X280740Y309260D01*
X280740Y304060D01*
X280751Y304010D01*
X280753Y303959D01*
X280771Y303927D01*
X280779Y303891D01*
X280812Y303852D01*
X280836Y303807D01*
X280866Y303786D01*
X280889Y303758D01*
X280936Y303737D01*
X280978Y303707D01*
X281020Y303699D01*
X281048Y303687D01*
X281078Y303688D01*
X281120Y303680D01*
X286140Y303680D01*
X286140Y280960D01*
X286151Y280910D01*
X286153Y280859D01*
X286171Y280827D01*
X286179Y280791D01*
X286212Y280752D01*
X286236Y280707D01*
X286266Y280686D01*
X286289Y280658D01*
X286336Y280637D01*
X286378Y280607D01*
X286420Y280599D01*
X286448Y280587D01*
X286478Y280588D01*
X286520Y280580D01*
X294220Y280580D01*
X294270Y280591D01*
G37*
G36*
X348270Y280691D02*
X348270Y280691D01*
X348321Y280693D01*
X348353Y280711D01*
X348389Y280719D01*
X348428Y280752D01*
X348473Y280776D01*
X348494Y280806D01*
X348522Y280829D01*
X348543Y280876D01*
X348573Y280918D01*
X348581Y280960D01*
X348593Y280988D01*
X348592Y281018D01*
X348600Y281060D01*
X348600Y304560D01*
X348599Y304565D01*
X348600Y304571D01*
X348500Y307971D01*
X348499Y307975D01*
X348500Y307979D01*
X348477Y308059D01*
X348456Y308139D01*
X348453Y308142D01*
X348452Y308145D01*
X348396Y308207D01*
X348342Y308269D01*
X348338Y308271D01*
X348335Y308273D01*
X348203Y308331D01*
X347303Y308531D01*
X347284Y308531D01*
X347262Y308538D01*
X346378Y308636D01*
X345398Y308832D01*
X344503Y309031D01*
X344484Y309031D01*
X344462Y309038D01*
X343582Y309136D01*
X342703Y309331D01*
X342699Y309331D01*
X342695Y309333D01*
X341695Y309533D01*
X341680Y309532D01*
X341662Y309538D01*
X340762Y309638D01*
X340691Y309629D01*
X340619Y309627D01*
X340606Y309619D01*
X340590Y309617D01*
X340530Y309578D01*
X340467Y309544D01*
X340458Y309531D01*
X340445Y309523D01*
X340409Y309461D01*
X340367Y309402D01*
X340364Y309385D01*
X340357Y309373D01*
X340354Y309334D01*
X340340Y309260D01*
X340340Y305558D01*
X340328Y305584D01*
X339528Y306684D01*
X339508Y306701D01*
X339489Y306729D01*
X338489Y307729D01*
X338475Y307738D01*
X338461Y307754D01*
X337361Y308654D01*
X337333Y308668D01*
X337300Y308695D01*
X336000Y309395D01*
X335980Y309400D01*
X335957Y309415D01*
X334657Y309915D01*
X334641Y309917D01*
X334624Y309926D01*
X333224Y310326D01*
X333192Y310327D01*
X333147Y310339D01*
X331747Y310439D01*
X331735Y310437D01*
X331720Y310440D01*
X330820Y310440D01*
X330805Y310437D01*
X330790Y310439D01*
X330658Y310402D01*
X330651Y310401D01*
X330651Y310400D01*
X330650Y310400D01*
X330530Y310340D01*
X330420Y310340D01*
X330405Y310337D01*
X330390Y310339D01*
X330258Y310302D01*
X330251Y310301D01*
X330251Y310300D01*
X330250Y310300D01*
X330249Y310300D01*
X329850Y310100D01*
X329811Y310068D01*
X329767Y310044D01*
X329746Y310013D01*
X329717Y309989D01*
X329696Y309943D01*
X329667Y309902D01*
X329659Y309859D01*
X329646Y309831D01*
X329648Y309801D01*
X329640Y309760D01*
X329640Y302560D01*
X329652Y302510D01*
X329654Y302458D01*
X329671Y302426D01*
X329679Y302391D01*
X329712Y302351D01*
X329737Y302306D01*
X329767Y302285D01*
X329789Y302258D01*
X329837Y302236D01*
X329879Y302207D01*
X329915Y302201D01*
X329948Y302187D01*
X329999Y302189D01*
X330050Y302181D01*
X330091Y302192D01*
X330121Y302193D01*
X330148Y302208D01*
X330190Y302220D01*
X330353Y302301D01*
X330667Y302380D01*
X330920Y302380D01*
X330956Y302388D01*
X331012Y302391D01*
X331367Y302480D01*
X332701Y302480D01*
X334647Y302285D01*
X336254Y301812D01*
X337468Y300972D01*
X338415Y299930D01*
X339171Y298701D01*
X339650Y297170D01*
X339942Y295516D01*
X340040Y293750D01*
X340040Y281060D01*
X340051Y281010D01*
X340053Y280959D01*
X340071Y280927D01*
X340079Y280891D01*
X340112Y280852D01*
X340136Y280807D01*
X340166Y280786D01*
X340189Y280758D01*
X340236Y280737D01*
X340278Y280707D01*
X340320Y280699D01*
X340348Y280687D01*
X340378Y280688D01*
X340420Y280680D01*
X348220Y280680D01*
X348270Y280691D01*
G37*
%LPC*%
G36*
X394214Y286632D02*
X394214Y286632D01*
X392816Y287191D01*
X391783Y288037D01*
X390844Y289069D01*
X390276Y290395D01*
X389793Y291845D01*
X389599Y293395D01*
X389501Y295060D01*
X389598Y296714D01*
X389892Y298279D01*
X390279Y299827D01*
X390941Y301152D01*
X391785Y302184D01*
X392908Y303026D01*
X394314Y303588D01*
X395920Y303777D01*
X397537Y303587D01*
X398933Y303121D01*
X399944Y302295D01*
X400795Y301159D01*
X401468Y299814D01*
X401947Y298377D01*
X402141Y296726D01*
X402239Y295060D01*
X402142Y293406D01*
X401849Y291844D01*
X401463Y290395D01*
X400799Y289068D01*
X399955Y288036D01*
X398828Y287192D01*
X397522Y286632D01*
X395821Y286443D01*
X394214Y286632D01*
G37*
%LPD*%
G36*
X355727Y260756D02*
X355727Y260756D01*
X355732Y260752D01*
X356532Y260952D01*
X356552Y260977D01*
X356565Y260981D01*
X356865Y261681D01*
X356862Y261694D01*
X356869Y261700D01*
X356869Y267552D01*
X358880Y264871D01*
X359279Y264273D01*
X359294Y264267D01*
X359296Y264257D01*
X359996Y263857D01*
X360011Y263859D01*
X360015Y263854D01*
X360018Y263854D01*
X360020Y263851D01*
X360920Y263851D01*
X360939Y263865D01*
X360952Y263862D01*
X361552Y264362D01*
X361553Y264370D01*
X361559Y264370D01*
X363857Y267368D01*
X363971Y267481D01*
X363971Y261600D01*
X363980Y261587D01*
X363976Y261578D01*
X364276Y260978D01*
X364304Y260964D01*
X364309Y260952D01*
X365209Y260752D01*
X365220Y260757D01*
X365225Y260751D01*
X366225Y260851D01*
X366242Y260867D01*
X366255Y260865D01*
X366755Y261365D01*
X366756Y261376D01*
X366758Y261378D01*
X366757Y261380D01*
X366758Y261388D01*
X366769Y261394D01*
X366869Y262194D01*
X366867Y262198D01*
X366869Y262200D01*
X366869Y271600D01*
X366863Y271608D01*
X366867Y271614D01*
X366667Y272314D01*
X366646Y272329D01*
X366644Y272343D01*
X365944Y272743D01*
X365927Y272740D01*
X365920Y272749D01*
X364920Y272749D01*
X364909Y272741D01*
X364901Y272745D01*
X364201Y272445D01*
X364193Y272431D01*
X364183Y272432D01*
X363583Y271732D01*
X363582Y271729D01*
X363580Y271729D01*
X360606Y267665D01*
X359954Y268037D01*
X358160Y270529D01*
X358157Y270530D01*
X358158Y270532D01*
X356558Y272432D01*
X356540Y272436D01*
X356537Y272446D01*
X355737Y272746D01*
X355722Y272742D01*
X355715Y272749D01*
X354715Y272649D01*
X354703Y272638D01*
X354693Y272641D01*
X354093Y272241D01*
X354083Y272214D01*
X354071Y272207D01*
X353971Y271507D01*
X353974Y271502D01*
X353971Y271500D01*
X353971Y262000D01*
X353976Y261993D01*
X353972Y261988D01*
X354172Y261188D01*
X354192Y261172D01*
X354193Y261159D01*
X354793Y260759D01*
X354813Y260760D01*
X354820Y260751D01*
X355720Y260751D01*
X355727Y260756D01*
G37*
%LPC*%
G36*
X573895Y381836D02*
X573895Y381836D01*
X573883Y381846D01*
X573880Y381862D01*
X573860Y381866D01*
X573843Y381880D01*
X573829Y381873D01*
X573814Y381876D01*
X573793Y381855D01*
X573782Y381850D01*
X573781Y381844D01*
X573777Y381840D01*
X573671Y381563D01*
X573672Y381561D01*
X573670Y381559D01*
X572112Y376506D01*
X571995Y376149D01*
X569058Y376149D01*
X568994Y376306D01*
X565671Y385371D01*
X565706Y385371D01*
X565895Y385368D01*
X568544Y385368D01*
X568668Y384957D01*
X570314Y379379D01*
X570316Y379377D01*
X570316Y379373D01*
X570414Y379128D01*
X570427Y379119D01*
X570432Y379104D01*
X570453Y379101D01*
X570470Y379089D01*
X570483Y379097D01*
X570499Y379094D01*
X570518Y379117D01*
X570528Y379123D01*
X570529Y379129D01*
X570533Y379134D01*
X572351Y385357D01*
X575197Y385368D01*
X575246Y385197D01*
X577011Y379102D01*
X577021Y379094D01*
X577021Y379088D01*
X577026Y379085D01*
X577030Y379072D01*
X577049Y379069D01*
X577062Y379057D01*
X577079Y379065D01*
X577098Y379062D01*
X577113Y379080D01*
X577124Y379085D01*
X577126Y379095D01*
X577132Y379101D01*
X578927Y385167D01*
X578927Y385168D01*
X578928Y385169D01*
X578981Y385368D01*
X581856Y385368D01*
X581955Y385367D01*
X578641Y376208D01*
X578641Y376206D01*
X578641Y376205D01*
X578639Y376203D01*
X578625Y376149D01*
X576126Y376149D01*
X575662Y376149D01*
X573895Y381836D01*
G37*
%LPD*%
G36*
X378494Y185754D02*
X378494Y185754D01*
X378497Y185751D01*
X379197Y185851D01*
X379202Y185856D01*
X379206Y185853D01*
X379806Y186053D01*
X379809Y186058D01*
X379812Y186056D01*
X380412Y186356D01*
X380414Y186360D01*
X380417Y186359D01*
X381017Y186759D01*
X381020Y186766D01*
X381025Y186765D01*
X381525Y187265D01*
X381525Y187269D01*
X381528Y187269D01*
X381928Y187769D01*
X381929Y187773D01*
X381931Y187773D01*
X382331Y188373D01*
X382330Y188382D01*
X382337Y188384D01*
X382737Y189584D01*
X382735Y189591D01*
X382739Y189593D01*
X382839Y190293D01*
X382836Y190298D01*
X382839Y190300D01*
X382839Y191000D01*
X382836Y191004D01*
X382839Y191007D01*
X382739Y191707D01*
X382734Y191712D01*
X382737Y191716D01*
X382337Y192916D01*
X382329Y192921D01*
X382331Y192927D01*
X381931Y193527D01*
X381928Y193528D01*
X381928Y193531D01*
X381528Y194031D01*
X381524Y194032D01*
X381525Y194035D01*
X381025Y194535D01*
X381018Y194536D01*
X381017Y194541D01*
X380417Y194941D01*
X380416Y194941D01*
X380415Y194942D01*
X379915Y195242D01*
X379906Y195241D01*
X379904Y195247D01*
X379204Y195447D01*
X379200Y195446D01*
X379198Y195449D01*
X378598Y195549D01*
X378593Y195546D01*
X378590Y195549D01*
X377390Y195549D01*
X377381Y195542D01*
X377374Y195547D01*
X376174Y195147D01*
X376171Y195142D01*
X376168Y195144D01*
X375568Y194844D01*
X375564Y194837D01*
X375558Y194838D01*
X374959Y194338D01*
X374459Y193938D01*
X374457Y193928D01*
X374449Y193927D01*
X374049Y193327D01*
X374049Y193323D01*
X374046Y193322D01*
X373746Y192722D01*
X373747Y192717D01*
X373743Y192716D01*
X373343Y191516D01*
X373347Y191505D01*
X373341Y191500D01*
X373341Y190100D01*
X373344Y190096D01*
X373341Y190093D01*
X373441Y189393D01*
X373446Y189388D01*
X373443Y189384D01*
X373643Y188784D01*
X373648Y188781D01*
X373646Y188778D01*
X373946Y188178D01*
X373950Y188176D01*
X373949Y188173D01*
X374349Y187573D01*
X374352Y187572D01*
X374352Y187569D01*
X374752Y187069D01*
X374759Y187067D01*
X374758Y187062D01*
X375358Y186562D01*
X375364Y186562D01*
X375365Y186558D01*
X375865Y186258D01*
X375868Y186258D01*
X375868Y186256D01*
X376468Y185956D01*
X376475Y185957D01*
X376476Y185953D01*
X377176Y185753D01*
X377186Y185756D01*
X377190Y185751D01*
X378490Y185751D01*
X378494Y185754D01*
G37*
G36*
X301194Y185754D02*
X301194Y185754D01*
X301197Y185751D01*
X301897Y185851D01*
X301902Y185856D01*
X301906Y185853D01*
X302506Y186053D01*
X302509Y186058D01*
X302512Y186056D01*
X303112Y186356D01*
X303115Y186363D01*
X303121Y186362D01*
X303621Y186762D01*
X303622Y186766D01*
X303625Y186765D01*
X304625Y187765D01*
X304626Y187777D01*
X304634Y187778D01*
X305234Y188978D01*
X305233Y188984D01*
X305238Y188988D01*
X305236Y188990D01*
X305239Y188992D01*
X305339Y189592D01*
X305338Y189593D01*
X305339Y189593D01*
X305439Y190293D01*
X305436Y190298D01*
X305439Y190300D01*
X305439Y191000D01*
X305436Y191004D01*
X305439Y191007D01*
X305339Y191707D01*
X305338Y191708D01*
X305339Y191708D01*
X305239Y192308D01*
X305231Y192315D01*
X305234Y192322D01*
X304634Y193522D01*
X304627Y193525D01*
X304628Y193531D01*
X304228Y194031D01*
X304224Y194032D01*
X304225Y194035D01*
X303725Y194535D01*
X303718Y194536D01*
X303717Y194541D01*
X303117Y194941D01*
X303113Y194941D01*
X303112Y194944D01*
X302512Y195244D01*
X302507Y195243D01*
X302506Y195247D01*
X301906Y195447D01*
X301899Y195445D01*
X301897Y195449D01*
X301197Y195549D01*
X301192Y195546D01*
X301190Y195549D01*
X300090Y195549D01*
X300082Y195543D01*
X300076Y195547D01*
X299376Y195347D01*
X299375Y195346D01*
X299374Y195347D01*
X298774Y195147D01*
X298771Y195142D01*
X298768Y195144D01*
X298168Y194844D01*
X298163Y194834D01*
X298155Y194835D01*
X297657Y194337D01*
X297159Y193938D01*
X297157Y193928D01*
X297149Y193927D01*
X296749Y193327D01*
X296749Y193323D01*
X296746Y193322D01*
X296146Y192122D01*
X296147Y192119D01*
X296145Y192117D01*
X296148Y192113D01*
X296148Y192112D01*
X296141Y192108D01*
X296041Y191508D01*
X296042Y191507D01*
X296041Y191507D01*
X295941Y190807D01*
X295946Y190798D01*
X295941Y190793D01*
X296141Y189393D01*
X296146Y189388D01*
X296143Y189384D01*
X296343Y188784D01*
X296348Y188781D01*
X296346Y188778D01*
X296946Y187578D01*
X296956Y187573D01*
X296955Y187565D01*
X297955Y186565D01*
X297967Y186564D01*
X297968Y186556D01*
X299168Y185956D01*
X299173Y185957D01*
X299174Y185953D01*
X299774Y185753D01*
X299785Y185757D01*
X299790Y185751D01*
X301190Y185751D01*
X301194Y185754D01*
G37*
G36*
X348797Y185759D02*
X348797Y185759D01*
X348806Y185753D01*
X349406Y185953D01*
X349417Y185970D01*
X349428Y185969D01*
X349828Y186469D01*
X349829Y186476D01*
X349829Y186477D01*
X349829Y186481D01*
X349836Y186484D01*
X352336Y193584D01*
X352334Y193591D01*
X352339Y193593D01*
X352439Y194293D01*
X352433Y194304D01*
X352438Y194310D01*
X352338Y194810D01*
X352318Y194828D01*
X352317Y194841D01*
X351717Y195241D01*
X351706Y195240D01*
X351704Y195247D01*
X351004Y195447D01*
X350980Y195438D01*
X350968Y195444D01*
X350368Y195144D01*
X350358Y195124D01*
X350346Y195122D01*
X350046Y194522D01*
X350047Y194516D01*
X350043Y194514D01*
X350033Y194481D01*
X349836Y193841D01*
X349639Y193201D01*
X349442Y192561D01*
X349245Y191920D01*
X349048Y191280D01*
X348851Y190640D01*
X348848Y190631D01*
X348617Y190477D01*
X347437Y194215D01*
X347431Y194219D01*
X347433Y194224D01*
X347033Y194924D01*
X347017Y194931D01*
X347015Y194942D01*
X346515Y195242D01*
X346501Y195241D01*
X346497Y195249D01*
X345797Y195349D01*
X345772Y195335D01*
X345759Y195338D01*
X345259Y194938D01*
X345256Y194924D01*
X345246Y194922D01*
X344946Y194322D01*
X344947Y194317D01*
X344943Y194316D01*
X343668Y190491D01*
X343533Y190627D01*
X342037Y195016D01*
X342018Y195028D01*
X342017Y195041D01*
X341417Y195441D01*
X341387Y195439D01*
X341376Y195447D01*
X340676Y195247D01*
X340671Y195240D01*
X340666Y195243D01*
X339966Y194843D01*
X339958Y194824D01*
X339946Y194822D01*
X339746Y194422D01*
X339751Y194397D01*
X339743Y194386D01*
X339943Y193686D01*
X339944Y193685D01*
X339944Y193684D01*
X342444Y186584D01*
X342450Y186580D01*
X342448Y186575D01*
X342748Y186075D01*
X342768Y186067D01*
X342771Y186055D01*
X343471Y185755D01*
X343490Y185759D01*
X343498Y185751D01*
X344098Y185851D01*
X344113Y185867D01*
X344125Y185865D01*
X344625Y186365D01*
X344626Y186376D01*
X344628Y186378D01*
X344627Y186380D01*
X344627Y186381D01*
X344637Y186384D01*
X344837Y186984D01*
X346093Y190754D01*
X346844Y188783D01*
X347643Y186484D01*
X347651Y186479D01*
X347649Y186473D01*
X348049Y185873D01*
X348076Y185863D01*
X348083Y185851D01*
X348783Y185751D01*
X348797Y185759D01*
G37*
G36*
X315024Y260754D02*
X315024Y260754D01*
X315026Y260751D01*
X315826Y260851D01*
X315829Y260854D01*
X315832Y260852D01*
X316632Y261052D01*
X316637Y261058D01*
X316642Y261056D01*
X317442Y261456D01*
X317446Y261464D01*
X317452Y261463D01*
X318152Y262063D01*
X318153Y262065D01*
X318155Y262065D01*
X318655Y262565D01*
X318656Y262577D01*
X318664Y262578D01*
X319064Y263378D01*
X319061Y263395D01*
X319064Y263397D01*
X319059Y263403D01*
X319059Y263404D01*
X319067Y263416D01*
X318867Y264016D01*
X318857Y264022D01*
X318859Y264030D01*
X318259Y264830D01*
X318237Y264836D01*
X318232Y264848D01*
X317432Y265048D01*
X317410Y265038D01*
X317398Y265044D01*
X316798Y264744D01*
X316795Y264738D01*
X316790Y264739D01*
X315990Y264139D01*
X315302Y263648D01*
X314426Y263550D01*
X313655Y263839D01*
X313372Y264406D01*
X313563Y265168D01*
X314236Y265552D01*
X315026Y265651D01*
X315032Y265657D01*
X315037Y265654D01*
X315837Y265954D01*
X316736Y266253D01*
X316737Y266256D01*
X316739Y266255D01*
X317439Y266555D01*
X317446Y266566D01*
X317455Y266565D01*
X318055Y267165D01*
X318056Y267171D01*
X318060Y267171D01*
X318560Y267871D01*
X318560Y267877D01*
X318562Y267879D01*
X318560Y267881D01*
X318566Y267883D01*
X318866Y268683D01*
X318863Y268695D01*
X318869Y268700D01*
X318869Y269500D01*
X318867Y269503D01*
X318869Y269505D01*
X318769Y270405D01*
X318762Y270413D01*
X318765Y270419D01*
X318465Y271119D01*
X318458Y271123D01*
X318460Y271129D01*
X317960Y271829D01*
X317954Y271830D01*
X317955Y271835D01*
X317355Y272435D01*
X317342Y272437D01*
X317339Y272445D01*
X316639Y272745D01*
X316638Y272745D01*
X316637Y272746D01*
X315837Y273046D01*
X315825Y273043D01*
X315820Y273049D01*
X314020Y273049D01*
X314013Y273044D01*
X314008Y273048D01*
X313208Y272848D01*
X313206Y272846D01*
X313204Y272847D01*
X312304Y272547D01*
X312299Y272539D01*
X312293Y272541D01*
X311693Y272141D01*
X311689Y272132D01*
X311683Y272132D01*
X311083Y271432D01*
X311081Y271409D01*
X311073Y271402D01*
X311071Y271400D01*
X311071Y270800D01*
X311084Y270782D01*
X311081Y270770D01*
X311681Y269970D01*
X311691Y269967D01*
X311691Y269960D01*
X312391Y269460D01*
X312417Y269461D01*
X312427Y269451D01*
X313127Y269551D01*
X313139Y269563D01*
X313149Y269560D01*
X313843Y270056D01*
X314626Y270350D01*
X315395Y270254D01*
X315866Y269688D01*
X315677Y268932D01*
X315002Y268546D01*
X313408Y268148D01*
X313406Y268146D01*
X313404Y268147D01*
X312504Y267847D01*
X312503Y267844D01*
X312501Y267845D01*
X311801Y267545D01*
X311795Y267536D01*
X311788Y267538D01*
X311188Y267038D01*
X311186Y267029D01*
X311180Y267029D01*
X310680Y266329D01*
X310680Y266319D01*
X310674Y266317D01*
X310374Y265517D01*
X310378Y265505D01*
X310371Y265500D01*
X310371Y264600D01*
X310373Y264597D01*
X310371Y264595D01*
X310471Y263695D01*
X310475Y263690D01*
X310473Y263686D01*
X310673Y262986D01*
X310681Y262980D01*
X310678Y262974D01*
X311178Y262174D01*
X311189Y262170D01*
X311188Y262162D01*
X311788Y261662D01*
X311795Y261662D01*
X311796Y261657D01*
X312496Y261257D01*
X312501Y261258D01*
X312503Y261254D01*
X313303Y260954D01*
X313307Y260955D01*
X313308Y260952D01*
X314108Y260752D01*
X314116Y260756D01*
X314120Y260751D01*
X315020Y260751D01*
X315024Y260754D01*
G37*
G36*
X291728Y260757D02*
X291728Y260757D01*
X291734Y260753D01*
X292434Y260953D01*
X292452Y260977D01*
X292465Y260981D01*
X292737Y261614D01*
X293285Y261065D01*
X293300Y261063D01*
X293303Y261054D01*
X294103Y260754D01*
X294115Y260758D01*
X294120Y260751D01*
X295020Y260751D01*
X295024Y260754D01*
X295027Y260751D01*
X295727Y260851D01*
X295735Y260859D01*
X295742Y260856D01*
X296542Y261256D01*
X296546Y261264D01*
X296552Y261263D01*
X297252Y261863D01*
X297254Y261871D01*
X297260Y261871D01*
X298260Y263271D01*
X298260Y263285D01*
X298268Y263288D01*
X298468Y264088D01*
X298466Y264093D01*
X298469Y264095D01*
X298569Y264995D01*
X298567Y264998D01*
X298569Y265000D01*
X298569Y265800D01*
X298562Y265810D01*
X298566Y265817D01*
X297966Y267417D01*
X297954Y267425D01*
X297955Y267435D01*
X297356Y268033D01*
X296757Y268732D01*
X296744Y268735D01*
X296742Y268744D01*
X295942Y269144D01*
X295935Y269143D01*
X295934Y269147D01*
X295234Y269347D01*
X295224Y269344D01*
X295220Y269349D01*
X294320Y269349D01*
X294310Y269342D01*
X294303Y269346D01*
X293503Y269046D01*
X293498Y269039D01*
X293493Y269041D01*
X292893Y268641D01*
X292887Y268624D01*
X292876Y268622D01*
X292817Y268504D01*
X292463Y269124D01*
X292437Y269135D01*
X292432Y269148D01*
X291632Y269348D01*
X291624Y269344D01*
X291620Y269349D01*
X290720Y269349D01*
X290703Y269336D01*
X290691Y269340D01*
X289991Y268840D01*
X289983Y268813D01*
X289971Y268806D01*
X289871Y268006D01*
X289873Y268002D01*
X289871Y268000D01*
X289871Y262000D01*
X289874Y261996D01*
X289871Y261994D01*
X289971Y261194D01*
X289992Y261173D01*
X289993Y261159D01*
X290593Y260759D01*
X290613Y260760D01*
X290620Y260751D01*
X291720Y260751D01*
X291728Y260757D01*
G37*
%LPC*%
G36*
X327478Y344599D02*
X327478Y344599D01*
X326899Y345081D01*
X326605Y345669D01*
X324407Y352066D01*
X324207Y352666D01*
X324158Y352699D01*
X324155Y352695D01*
X324151Y352698D01*
X324170Y352702D01*
X324209Y352747D01*
X324202Y352753D01*
X324208Y352760D01*
X324113Y353237D01*
X324490Y353709D01*
X325462Y354098D01*
X326025Y353910D01*
X326314Y353331D01*
X326513Y352734D01*
X326514Y352734D01*
X326513Y352734D01*
X327613Y349534D01*
X327813Y348934D01*
X327827Y348925D01*
X327832Y348909D01*
X327844Y348913D01*
X327858Y348904D01*
X327860Y348902D01*
X327861Y348902D01*
X327862Y348901D01*
X327866Y348906D01*
X327901Y348932D01*
X327907Y348934D01*
X329403Y353423D01*
X329883Y353904D01*
X330550Y353999D01*
X331027Y353712D01*
X331416Y353226D01*
X332713Y349334D01*
X332721Y349329D01*
X332719Y349323D01*
X332919Y349023D01*
X332929Y349019D01*
X332933Y349009D01*
X332946Y349013D01*
X332975Y349003D01*
X332983Y349027D01*
X333007Y349035D01*
X334503Y353624D01*
X334880Y354001D01*
X335550Y354001D01*
X336229Y353710D01*
X336608Y353236D01*
X336512Y352662D01*
X336313Y352066D01*
X336332Y352009D01*
X336340Y352012D01*
X336342Y352004D01*
X336368Y351994D01*
X336320Y351978D01*
X336323Y351969D01*
X336314Y351966D01*
X334115Y345669D01*
X333819Y345079D01*
X333340Y344599D01*
X332674Y344599D01*
X332196Y344886D01*
X331905Y345371D01*
X330606Y349066D01*
X330593Y349075D01*
X330595Y349085D01*
X330295Y349385D01*
X330289Y349386D01*
X330288Y349391D01*
X330277Y349387D01*
X330270Y349388D01*
X330265Y349394D01*
X330258Y349394D01*
X330253Y349391D01*
X330236Y349393D01*
X330233Y349375D01*
X330226Y349370D01*
X330213Y349366D01*
X328915Y345471D01*
X328623Y344985D01*
X328045Y344599D01*
X327478Y344599D01*
G37*
%LPD*%
%LPC*%
G36*
X366637Y285840D02*
X366637Y285840D01*
X365559Y285938D01*
X364702Y286034D01*
X363855Y286316D01*
X363202Y286596D01*
X362645Y286967D01*
X362191Y287331D01*
X361452Y288254D01*
X361277Y288691D01*
X361081Y289280D01*
X361075Y289289D01*
X361073Y289301D01*
X360888Y289763D01*
X360795Y290323D01*
X360793Y290328D01*
X360793Y290335D01*
X360700Y290798D01*
X360700Y294104D01*
X360728Y294091D01*
X361064Y294007D01*
X361309Y293844D01*
X361340Y293832D01*
X361428Y293791D01*
X363428Y293291D01*
X363464Y293291D01*
X363520Y293280D01*
X363973Y293280D01*
X364328Y293191D01*
X364336Y293191D01*
X364345Y293187D01*
X364845Y293087D01*
X364877Y293088D01*
X364920Y293080D01*
X365373Y293080D01*
X365728Y292991D01*
X365736Y292991D01*
X365745Y292987D01*
X366237Y292889D01*
X366628Y292791D01*
X366664Y292791D01*
X366720Y292780D01*
X367173Y292780D01*
X367528Y292691D01*
X367536Y292691D01*
X367545Y292687D01*
X367819Y292632D01*
X367855Y292600D01*
X367896Y292552D01*
X367922Y292541D01*
X367938Y292526D01*
X367974Y292516D01*
X368028Y292491D01*
X368764Y292307D01*
X369009Y292144D01*
X369029Y292136D01*
X369050Y292120D01*
X369429Y291931D01*
X369678Y291765D01*
X370225Y291218D01*
X370591Y290669D01*
X370761Y290327D01*
X370849Y289977D01*
X370940Y289522D01*
X370940Y288598D01*
X370849Y288143D01*
X370761Y287793D01*
X370591Y287451D01*
X370225Y286902D01*
X369978Y286656D01*
X369729Y286490D01*
X369374Y286312D01*
X369100Y286221D01*
X369080Y286209D01*
X369063Y286205D01*
X369061Y286203D01*
X369050Y286200D01*
X368687Y286019D01*
X368373Y285940D01*
X367920Y285940D01*
X367884Y285932D01*
X367828Y285929D01*
X367473Y285840D01*
X366637Y285840D01*
G37*
%LPD*%
G36*
X344525Y260757D02*
X344525Y260757D01*
X344531Y260752D01*
X345431Y260952D01*
X345451Y260975D01*
X345464Y260978D01*
X345742Y261534D01*
X346097Y261356D01*
X346796Y260957D01*
X346805Y260959D01*
X346808Y260952D01*
X347608Y260752D01*
X347620Y260757D01*
X347625Y260751D01*
X348525Y260851D01*
X348529Y260855D01*
X348532Y260852D01*
X349332Y261052D01*
X349340Y261063D01*
X349349Y261060D01*
X350049Y261560D01*
X350051Y261569D01*
X350058Y261568D01*
X350558Y262168D01*
X350558Y262174D01*
X350562Y262174D01*
X351062Y262974D01*
X351061Y262980D01*
X351065Y262981D01*
X351365Y263681D01*
X351363Y263689D01*
X351368Y263692D01*
X351367Y263694D01*
X351369Y263695D01*
X351469Y264595D01*
X351467Y264598D01*
X351469Y264600D01*
X351469Y268000D01*
X351466Y268004D01*
X351469Y268006D01*
X351369Y268806D01*
X351350Y268825D01*
X351351Y268838D01*
X350851Y269238D01*
X350831Y269239D01*
X350824Y269249D01*
X349724Y269349D01*
X349711Y269341D01*
X349703Y269346D01*
X348903Y269046D01*
X348886Y269020D01*
X348873Y269016D01*
X348673Y268416D01*
X348676Y268408D01*
X348671Y268405D01*
X348571Y267505D01*
X348573Y267502D01*
X348571Y267500D01*
X348571Y264907D01*
X348555Y264852D01*
X348513Y264704D01*
X348499Y264655D01*
X348457Y264507D01*
X348414Y264359D01*
X348400Y264310D01*
X348377Y264230D01*
X347704Y263749D01*
X346833Y263749D01*
X346159Y264135D01*
X345869Y264811D01*
X345769Y268301D01*
X345764Y268308D01*
X345767Y268314D01*
X345567Y269014D01*
X345543Y269032D01*
X345539Y269045D01*
X344839Y269345D01*
X344826Y269342D01*
X344820Y269349D01*
X343720Y269349D01*
X343704Y269337D01*
X343693Y269341D01*
X343093Y268941D01*
X343085Y268918D01*
X343073Y268914D01*
X343066Y268890D01*
X343024Y268743D01*
X343010Y268693D01*
X342968Y268546D01*
X342925Y268398D01*
X342911Y268349D01*
X342873Y268214D01*
X342876Y268204D01*
X342871Y268200D01*
X342871Y262200D01*
X342874Y262196D01*
X342871Y262194D01*
X342971Y261394D01*
X342987Y261378D01*
X342985Y261365D01*
X343485Y260865D01*
X343508Y260862D01*
X343515Y260851D01*
X344515Y260751D01*
X344525Y260757D01*
G37*
G36*
X355498Y185757D02*
X355498Y185757D01*
X355504Y185753D01*
X356204Y185953D01*
X356223Y185978D01*
X356236Y185982D01*
X356436Y186482D01*
X356432Y186495D01*
X356439Y186500D01*
X356439Y189180D01*
X356810Y189551D01*
X359470Y189551D01*
X359841Y189180D01*
X359841Y186500D01*
X359852Y186485D01*
X359848Y186475D01*
X360148Y185975D01*
X360170Y185966D01*
X360174Y185953D01*
X360774Y185753D01*
X360785Y185757D01*
X360790Y185751D01*
X361690Y185751D01*
X361711Y185767D01*
X361725Y185765D01*
X362125Y186165D01*
X362126Y186177D01*
X362131Y186181D01*
X362128Y186186D01*
X362139Y186192D01*
X362239Y186792D01*
X362236Y186797D01*
X362239Y186800D01*
X362239Y194300D01*
X362236Y194304D01*
X362239Y194307D01*
X362139Y195007D01*
X362117Y195029D01*
X362115Y195042D01*
X361615Y195342D01*
X361597Y195340D01*
X361590Y195349D01*
X360690Y195349D01*
X360681Y195342D01*
X360674Y195347D01*
X360074Y195147D01*
X360056Y195120D01*
X360043Y195116D01*
X359843Y194516D01*
X359847Y194505D01*
X359841Y194500D01*
X359841Y191820D01*
X359470Y191449D01*
X356806Y191449D01*
X356439Y191725D01*
X356439Y194500D01*
X356432Y194509D01*
X356437Y194516D01*
X356237Y195116D01*
X356210Y195134D01*
X356206Y195147D01*
X355606Y195347D01*
X355595Y195343D01*
X355590Y195349D01*
X354890Y195349D01*
X354877Y195340D01*
X354868Y195344D01*
X354268Y195044D01*
X354256Y195020D01*
X354243Y195016D01*
X354043Y194416D01*
X354047Y194405D01*
X354041Y194400D01*
X354041Y186800D01*
X354048Y186791D01*
X354043Y186784D01*
X354243Y186184D01*
X354257Y186175D01*
X354255Y186165D01*
X354655Y185765D01*
X354682Y185762D01*
X354690Y185751D01*
X355490Y185751D01*
X355498Y185757D01*
G37*
G36*
X278199Y185758D02*
X278199Y185758D01*
X278206Y185753D01*
X278806Y185953D01*
X278819Y185973D01*
X278832Y185975D01*
X279132Y186475D01*
X279130Y186493D01*
X279139Y186500D01*
X279139Y189180D01*
X279510Y189551D01*
X282165Y189551D01*
X282441Y189184D01*
X282441Y187200D01*
X282444Y187196D01*
X282441Y187193D01*
X282541Y186493D01*
X282547Y186487D01*
X282544Y186482D01*
X282744Y185982D01*
X282770Y185966D01*
X282774Y185953D01*
X283374Y185753D01*
X283385Y185757D01*
X283390Y185751D01*
X284290Y185751D01*
X284308Y185765D01*
X284321Y185762D01*
X284821Y186162D01*
X284825Y186177D01*
X284830Y186181D01*
X284827Y186185D01*
X284828Y186192D01*
X284839Y186200D01*
X284839Y194300D01*
X284836Y194304D01*
X284839Y194307D01*
X284739Y195007D01*
X284720Y195026D01*
X284720Y195039D01*
X284320Y195339D01*
X284298Y195339D01*
X284290Y195349D01*
X283390Y195349D01*
X283381Y195342D01*
X283374Y195347D01*
X282774Y195147D01*
X282756Y195120D01*
X282743Y195116D01*
X282543Y194516D01*
X282545Y194509D01*
X282541Y194507D01*
X282441Y193807D01*
X282444Y193802D01*
X282441Y193800D01*
X282441Y191816D01*
X282165Y191449D01*
X279506Y191449D01*
X279139Y191725D01*
X279139Y194500D01*
X279132Y194509D01*
X279137Y194516D01*
X278937Y195116D01*
X278910Y195134D01*
X278906Y195147D01*
X278306Y195347D01*
X278295Y195343D01*
X278290Y195349D01*
X277490Y195349D01*
X277475Y195338D01*
X277465Y195342D01*
X276965Y195042D01*
X276956Y195020D01*
X276943Y195016D01*
X276743Y194416D01*
X276747Y194405D01*
X276741Y194400D01*
X276741Y186800D01*
X276744Y186795D01*
X276741Y186792D01*
X276841Y186192D01*
X276857Y186177D01*
X276855Y186165D01*
X277255Y185765D01*
X277282Y185762D01*
X277290Y185751D01*
X278190Y185751D01*
X278199Y185758D01*
G37*
G36*
X267208Y185765D02*
X267208Y185765D01*
X267221Y185762D01*
X267721Y186162D01*
X267725Y186177D01*
X267726Y186177D01*
X267735Y186179D01*
X268331Y187471D01*
X268710Y187851D01*
X272060Y187851D01*
X272646Y186678D01*
X272946Y186078D01*
X272966Y186068D01*
X272968Y186056D01*
X273568Y185756D01*
X273589Y185760D01*
X273598Y185751D01*
X274198Y185851D01*
X274209Y185863D01*
X274219Y185860D01*
X274919Y186360D01*
X274924Y186377D01*
X274925Y186378D01*
X274924Y186378D01*
X274924Y186379D01*
X274936Y186382D01*
X275136Y186882D01*
X275129Y186905D01*
X275137Y186916D01*
X274937Y187516D01*
X274933Y187518D01*
X274934Y187522D01*
X271634Y194322D01*
X271334Y194922D01*
X271321Y194929D01*
X271321Y194938D01*
X270821Y195338D01*
X270802Y195339D01*
X270797Y195349D01*
X270097Y195449D01*
X270079Y195439D01*
X270068Y195444D01*
X269468Y195144D01*
X269460Y195128D01*
X269449Y195127D01*
X269249Y194827D01*
X269249Y194822D01*
X269246Y194821D01*
X265646Y187321D01*
X265646Y187319D01*
X265644Y187318D01*
X265444Y186818D01*
X265455Y186781D01*
X265452Y186769D01*
X265852Y186269D01*
X265861Y186267D01*
X265861Y186260D01*
X266561Y185760D01*
X266583Y185761D01*
X266590Y185751D01*
X267190Y185751D01*
X267208Y185765D01*
G37*
G36*
X304125Y260851D02*
X304125Y260851D01*
X304129Y260855D01*
X304132Y260852D01*
X304932Y261052D01*
X304938Y261060D01*
X304944Y261057D01*
X305644Y261457D01*
X305650Y261469D01*
X305658Y261469D01*
X306058Y261969D01*
X306059Y261979D01*
X306065Y261981D01*
X306365Y262681D01*
X306364Y262687D01*
X306368Y262689D01*
X306568Y263589D01*
X306566Y263593D01*
X306567Y263594D01*
X306565Y263597D01*
X306569Y263600D01*
X306569Y266166D01*
X307838Y266654D01*
X307856Y266683D01*
X307868Y266688D01*
X308068Y267488D01*
X308064Y267496D01*
X308069Y267500D01*
X308069Y268400D01*
X308058Y268414D01*
X308063Y268424D01*
X307663Y269124D01*
X307638Y269135D01*
X307634Y269147D01*
X306946Y269344D01*
X306569Y269720D01*
X306569Y271400D01*
X306560Y271413D01*
X306564Y271422D01*
X306264Y272022D01*
X306241Y272033D01*
X306237Y272046D01*
X305437Y272346D01*
X305422Y272342D01*
X305416Y272349D01*
X304316Y272249D01*
X304298Y272233D01*
X304285Y272235D01*
X303785Y271735D01*
X303782Y271712D01*
X303771Y271706D01*
X303671Y270906D01*
X303673Y270902D01*
X303671Y270900D01*
X303671Y269255D01*
X302825Y269349D01*
X302822Y269347D01*
X302820Y269349D01*
X302020Y269349D01*
X302004Y269337D01*
X301993Y269341D01*
X301393Y268941D01*
X301384Y268916D01*
X301372Y268911D01*
X301172Y268011D01*
X301175Y268005D01*
X301174Y268004D01*
X301176Y268000D01*
X301171Y267995D01*
X301271Y266995D01*
X301289Y266976D01*
X301288Y266962D01*
X301888Y266462D01*
X301908Y266461D01*
X301914Y266451D01*
X302714Y266351D01*
X302722Y266356D01*
X302726Y266351D01*
X303486Y266446D01*
X303671Y265892D01*
X303671Y264210D01*
X303386Y263546D01*
X302515Y263449D01*
X302507Y263442D01*
X302501Y263445D01*
X301801Y263145D01*
X301784Y263116D01*
X301772Y263111D01*
X301572Y262211D01*
X301578Y262197D01*
X301572Y262189D01*
X301772Y261289D01*
X301790Y261274D01*
X301789Y261262D01*
X302289Y260862D01*
X302309Y260861D01*
X302315Y260851D01*
X303215Y260751D01*
X303222Y260755D01*
X303225Y260751D01*
X304125Y260851D01*
G37*
G36*
X330025Y260851D02*
X330025Y260851D01*
X330030Y260856D01*
X330034Y260853D01*
X330734Y261053D01*
X330739Y261060D01*
X330744Y261057D01*
X331444Y261457D01*
X331450Y261469D01*
X331458Y261469D01*
X331858Y261969D01*
X331859Y261979D01*
X331865Y261981D01*
X332165Y262681D01*
X332164Y262687D01*
X332168Y262689D01*
X332368Y263589D01*
X332366Y263593D01*
X332367Y263594D01*
X332365Y263597D01*
X332369Y263600D01*
X332369Y266166D01*
X333638Y266654D01*
X333656Y266683D01*
X333668Y266688D01*
X333868Y267488D01*
X333864Y267496D01*
X333869Y267500D01*
X333869Y268400D01*
X333861Y268411D01*
X333865Y268419D01*
X333565Y269119D01*
X333537Y269135D01*
X333532Y269148D01*
X332745Y269344D01*
X332369Y269720D01*
X332369Y271400D01*
X332360Y271413D01*
X332364Y271422D01*
X332064Y272022D01*
X332041Y272033D01*
X332037Y272046D01*
X331237Y272346D01*
X331222Y272342D01*
X331215Y272349D01*
X330215Y272249D01*
X330200Y272235D01*
X330188Y272238D01*
X329588Y271738D01*
X329583Y271713D01*
X329571Y271706D01*
X329471Y270906D01*
X329473Y270902D01*
X329471Y270900D01*
X329471Y269255D01*
X328625Y269349D01*
X328622Y269347D01*
X328620Y269349D01*
X327820Y269349D01*
X327804Y269337D01*
X327793Y269341D01*
X327193Y268941D01*
X327184Y268916D01*
X327172Y268911D01*
X326972Y268011D01*
X326975Y268004D01*
X326976Y268002D01*
X326978Y267997D01*
X326972Y267990D01*
X327172Y266990D01*
X327187Y266977D01*
X327185Y266965D01*
X327685Y266465D01*
X327708Y266462D01*
X327714Y266451D01*
X328514Y266351D01*
X328522Y266356D01*
X328526Y266351D01*
X329286Y266446D01*
X329471Y265892D01*
X329471Y264210D01*
X329186Y263546D01*
X328315Y263449D01*
X328307Y263442D01*
X328301Y263445D01*
X327601Y263145D01*
X327581Y263112D01*
X327571Y263105D01*
X327471Y262205D01*
X327475Y262199D01*
X327471Y262195D01*
X327571Y261295D01*
X327592Y261273D01*
X327593Y261259D01*
X328193Y260859D01*
X328209Y260860D01*
X328214Y260851D01*
X329014Y260751D01*
X329021Y260755D01*
X329025Y260751D01*
X330025Y260851D01*
G37*
G36*
X291398Y185757D02*
X291398Y185757D01*
X291404Y185753D01*
X292104Y185953D01*
X292110Y185962D01*
X292117Y185959D01*
X292717Y186359D01*
X292718Y186362D01*
X292721Y186362D01*
X293721Y187162D01*
X293725Y187178D01*
X293735Y187181D01*
X294035Y187881D01*
X294030Y187901D01*
X294033Y187904D01*
X294034Y187904D01*
X294034Y187905D01*
X294038Y187910D01*
X293938Y188410D01*
X293923Y188423D01*
X293925Y188435D01*
X293325Y189035D01*
X293304Y189038D01*
X293298Y189049D01*
X292698Y189149D01*
X292694Y189146D01*
X292692Y189149D01*
X292689Y189149D01*
X292679Y189141D01*
X292672Y189146D01*
X292172Y188946D01*
X292166Y188936D01*
X292158Y188938D01*
X291560Y188439D01*
X290972Y188047D01*
X290298Y187951D01*
X289725Y188238D01*
X289444Y188706D01*
X289631Y189267D01*
X290107Y189553D01*
X290797Y189651D01*
X290801Y189655D01*
X290804Y189653D01*
X291504Y189853D01*
X291508Y189858D01*
X291512Y189856D01*
X292712Y190456D01*
X292715Y190463D01*
X292721Y190462D01*
X293221Y190862D01*
X293223Y190869D01*
X293228Y190869D01*
X293628Y191369D01*
X293629Y191383D01*
X293637Y191386D01*
X293670Y191500D01*
X293684Y191549D01*
X293726Y191697D01*
X293768Y191844D01*
X293782Y191894D01*
X293824Y192041D01*
X293825Y192041D01*
X293824Y192041D01*
X293837Y192086D01*
X293836Y192089D01*
X293838Y192091D01*
X293837Y192092D01*
X293839Y192093D01*
X293939Y192793D01*
X293933Y192803D01*
X293939Y192808D01*
X293839Y193408D01*
X293831Y193415D01*
X293834Y193422D01*
X293534Y194022D01*
X293530Y194024D01*
X293531Y194027D01*
X293131Y194627D01*
X293124Y194630D01*
X293125Y194635D01*
X292725Y195035D01*
X292713Y195036D01*
X292712Y195044D01*
X292112Y195344D01*
X292107Y195343D01*
X292106Y195347D01*
X291506Y195547D01*
X291499Y195544D01*
X291496Y195549D01*
X290696Y195649D01*
X290688Y195644D01*
X290683Y195649D01*
X289983Y195549D01*
X289982Y195548D01*
X289982Y195549D01*
X289382Y195449D01*
X289380Y195446D01*
X289378Y195448D01*
X288578Y195248D01*
X288566Y195233D01*
X288555Y195235D01*
X287655Y194335D01*
X287652Y194308D01*
X287641Y194300D01*
X287641Y193800D01*
X287652Y193786D01*
X287647Y193776D01*
X288047Y193076D01*
X288066Y193068D01*
X288068Y193056D01*
X288668Y192756D01*
X288684Y192759D01*
X288690Y192751D01*
X289190Y192751D01*
X289209Y192765D01*
X289222Y192762D01*
X289814Y193256D01*
X290395Y193450D01*
X291064Y193354D01*
X291438Y192886D01*
X291345Y192329D01*
X290770Y191946D01*
X289479Y191648D01*
X289478Y191646D01*
X289476Y191647D01*
X288776Y191447D01*
X288772Y191442D01*
X288768Y191444D01*
X288168Y191144D01*
X288165Y191137D01*
X288159Y191138D01*
X287659Y190738D01*
X287657Y190731D01*
X287652Y190731D01*
X287252Y190231D01*
X287251Y190218D01*
X287243Y190216D01*
X287043Y189616D01*
X287046Y189608D01*
X287043Y189606D01*
X287045Y189603D01*
X287041Y189600D01*
X287041Y188800D01*
X287044Y188796D01*
X287041Y188793D01*
X287141Y188093D01*
X287146Y188088D01*
X287143Y188084D01*
X287343Y187484D01*
X287348Y187481D01*
X287346Y187478D01*
X287646Y186878D01*
X287659Y186871D01*
X287659Y186862D01*
X288159Y186462D01*
X288167Y186461D01*
X288168Y186456D01*
X289368Y185856D01*
X289379Y185858D01*
X289383Y185851D01*
X290083Y185751D01*
X290088Y185754D01*
X290090Y185751D01*
X291390Y185751D01*
X291398Y185757D01*
G37*
G36*
X368798Y185757D02*
X368798Y185757D01*
X368804Y185753D01*
X369504Y185953D01*
X369512Y185964D01*
X369521Y185962D01*
X370019Y186360D01*
X370617Y186759D01*
X370620Y186766D01*
X370625Y186765D01*
X371025Y187165D01*
X371027Y187178D01*
X371035Y187181D01*
X371335Y187881D01*
X371330Y187901D01*
X371333Y187904D01*
X371334Y187904D01*
X371334Y187905D01*
X371338Y187910D01*
X371238Y188410D01*
X371225Y188421D01*
X371228Y188432D01*
X370728Y189032D01*
X370704Y189037D01*
X370698Y189049D01*
X370098Y189149D01*
X370094Y189146D01*
X370092Y189149D01*
X370089Y189149D01*
X370079Y189141D01*
X370072Y189146D01*
X369572Y188946D01*
X369566Y188936D01*
X369558Y188938D01*
X368960Y188439D01*
X368372Y188047D01*
X367697Y187951D01*
X367028Y188237D01*
X366841Y188705D01*
X366934Y189267D01*
X367505Y189553D01*
X368098Y189651D01*
X368101Y189655D01*
X368104Y189653D01*
X368804Y189853D01*
X368806Y189856D01*
X368809Y189855D01*
X369509Y190155D01*
X369511Y190157D01*
X369512Y190156D01*
X370112Y190456D01*
X370115Y190463D01*
X370121Y190462D01*
X370621Y190862D01*
X370624Y190874D01*
X370632Y190875D01*
X370932Y191375D01*
X370931Y191384D01*
X370937Y191386D01*
X370970Y191500D01*
X370984Y191549D01*
X371026Y191697D01*
X371068Y191844D01*
X371082Y191894D01*
X371124Y192041D01*
X371125Y192041D01*
X371124Y192041D01*
X371137Y192086D01*
X371136Y192089D01*
X371138Y192091D01*
X371137Y192092D01*
X371139Y192093D01*
X371239Y192793D01*
X371233Y192803D01*
X371239Y192808D01*
X371139Y193408D01*
X371134Y193412D01*
X371137Y193416D01*
X370937Y194016D01*
X370929Y194021D01*
X370931Y194027D01*
X370531Y194627D01*
X370521Y194631D01*
X370521Y194638D01*
X370021Y195038D01*
X370016Y195039D01*
X370015Y195042D01*
X369515Y195342D01*
X369506Y195341D01*
X369504Y195347D01*
X368804Y195547D01*
X368799Y195546D01*
X368797Y195549D01*
X368097Y195649D01*
X368088Y195644D01*
X368083Y195649D01*
X366683Y195449D01*
X366679Y195445D01*
X366676Y195447D01*
X365976Y195247D01*
X365968Y195236D01*
X365959Y195238D01*
X365459Y194838D01*
X365458Y194834D01*
X365455Y194835D01*
X364955Y194335D01*
X364950Y194300D01*
X364942Y194290D01*
X365042Y193790D01*
X365050Y193783D01*
X365047Y193776D01*
X365447Y193076D01*
X365463Y193069D01*
X365465Y193058D01*
X365965Y192758D01*
X365983Y192760D01*
X365990Y192751D01*
X366590Y192751D01*
X366609Y192765D01*
X366622Y192762D01*
X367214Y193256D01*
X367795Y193450D01*
X368464Y193354D01*
X368835Y192890D01*
X368648Y192329D01*
X368168Y191946D01*
X366780Y191648D01*
X366777Y191645D01*
X366774Y191647D01*
X366174Y191447D01*
X366171Y191442D01*
X366168Y191444D01*
X365568Y191144D01*
X365565Y191137D01*
X365559Y191138D01*
X365059Y190738D01*
X365057Y190731D01*
X365052Y190731D01*
X364652Y190231D01*
X364651Y190218D01*
X364643Y190216D01*
X364443Y189616D01*
X364446Y189609D01*
X364441Y189606D01*
X364341Y188806D01*
X364346Y188798D01*
X364341Y188793D01*
X364441Y188093D01*
X364446Y188088D01*
X364443Y188084D01*
X364643Y187484D01*
X364651Y187479D01*
X364649Y187473D01*
X365049Y186873D01*
X365059Y186869D01*
X365059Y186862D01*
X365559Y186462D01*
X365564Y186461D01*
X365565Y186458D01*
X366065Y186158D01*
X366070Y186158D01*
X366071Y186155D01*
X366771Y185855D01*
X366779Y185857D01*
X366782Y185851D01*
X367382Y185751D01*
X367387Y185754D01*
X367390Y185751D01*
X368790Y185751D01*
X368798Y185757D01*
G37*
G36*
X322094Y185754D02*
X322094Y185754D01*
X322097Y185751D01*
X322797Y185851D01*
X322802Y185856D01*
X322806Y185853D01*
X323406Y186053D01*
X323411Y186061D01*
X323417Y186059D01*
X324017Y186459D01*
X324018Y186462D01*
X324021Y186462D01*
X324521Y186862D01*
X324523Y186872D01*
X324531Y186873D01*
X324931Y187473D01*
X324931Y187477D01*
X324934Y187478D01*
X325234Y188078D01*
X325233Y188085D01*
X325237Y188086D01*
X325256Y188151D01*
X325270Y188200D01*
X325312Y188348D01*
X325354Y188495D01*
X325368Y188545D01*
X325410Y188692D01*
X325411Y188692D01*
X325410Y188692D01*
X325437Y188786D01*
X325436Y188790D01*
X325437Y188791D01*
X325434Y188796D01*
X325439Y188800D01*
X325439Y190900D01*
X325422Y190923D01*
X325423Y190937D01*
X324424Y191836D01*
X323925Y192335D01*
X323913Y192336D01*
X323912Y192344D01*
X323312Y192644D01*
X323305Y192643D01*
X323304Y192647D01*
X322604Y192847D01*
X322600Y192846D01*
X322598Y192849D01*
X321998Y192949D01*
X321988Y192943D01*
X321983Y192949D01*
X320583Y192749D01*
X320575Y192741D01*
X320568Y192744D01*
X319968Y192444D01*
X319965Y192437D01*
X319959Y192438D01*
X319459Y192038D01*
X319458Y192034D01*
X319455Y192035D01*
X318955Y191535D01*
X318954Y191528D01*
X318949Y191527D01*
X318549Y190927D01*
X318550Y190918D01*
X318543Y190916D01*
X318343Y190316D01*
X318345Y190309D01*
X318341Y190307D01*
X318241Y189607D01*
X318244Y189602D01*
X318241Y189600D01*
X318241Y188900D01*
X318247Y188892D01*
X318243Y188886D01*
X318443Y188186D01*
X318444Y188185D01*
X318443Y188184D01*
X318643Y187584D01*
X318651Y187579D01*
X318649Y187573D01*
X319049Y186973D01*
X319059Y186969D01*
X319059Y186962D01*
X320059Y186162D01*
X320069Y186161D01*
X320071Y186155D01*
X320771Y185855D01*
X320779Y185857D01*
X320782Y185851D01*
X321382Y185751D01*
X321387Y185754D01*
X321390Y185751D01*
X322090Y185751D01*
X322094Y185754D01*
G37*
G36*
X337725Y260755D02*
X337725Y260755D01*
X337729Y260752D01*
X338829Y260952D01*
X338833Y260956D01*
X338837Y260954D01*
X339637Y261254D01*
X339647Y261270D01*
X339658Y261269D01*
X340058Y261769D01*
X340059Y261783D01*
X340067Y261786D01*
X340077Y261821D01*
X340091Y261870D01*
X340133Y262018D01*
X340134Y262018D01*
X340133Y262018D01*
X340176Y262166D01*
X340190Y262215D01*
X340232Y262363D01*
X340267Y262486D01*
X340265Y262492D01*
X340269Y262494D01*
X340369Y263294D01*
X340367Y263298D01*
X340367Y263299D01*
X340369Y263300D01*
X340369Y272800D01*
X340353Y272821D01*
X340355Y272835D01*
X339855Y273335D01*
X339832Y273338D01*
X339825Y273349D01*
X338825Y273449D01*
X338815Y273443D01*
X338809Y273448D01*
X337909Y273248D01*
X337892Y273228D01*
X337879Y273227D01*
X337479Y272627D01*
X337480Y272607D01*
X337471Y272600D01*
X337471Y264115D01*
X337092Y263546D01*
X336314Y263449D01*
X336289Y263424D01*
X336276Y263422D01*
X335976Y262822D01*
X335979Y262806D01*
X335971Y262800D01*
X335971Y261700D01*
X335977Y261692D01*
X335973Y261686D01*
X336173Y260986D01*
X336200Y260966D01*
X336204Y260953D01*
X336804Y260753D01*
X336815Y260757D01*
X336820Y260751D01*
X337720Y260751D01*
X337725Y260755D01*
G37*
%LPC*%
G36*
X319883Y344697D02*
X319883Y344697D01*
X319506Y345073D01*
X319409Y345753D01*
X319409Y347050D01*
X319380Y347088D01*
X319378Y347096D01*
X318878Y347296D01*
X318865Y347292D01*
X318860Y347299D01*
X317460Y347299D01*
X317427Y347274D01*
X317416Y347272D01*
X317016Y346472D01*
X317016Y346470D01*
X317015Y346470D01*
X316321Y344884D01*
X315850Y344601D01*
X315176Y344697D01*
X314499Y345084D01*
X314312Y345553D01*
X314322Y345589D01*
X314364Y345736D01*
X314365Y345736D01*
X314364Y345736D01*
X314407Y345884D01*
X314421Y345933D01*
X314463Y346081D01*
X314505Y346229D01*
X314507Y346234D01*
X314705Y346730D01*
X315304Y347928D01*
X315300Y347950D01*
X315304Y347953D01*
X315303Y347954D01*
X315308Y347960D01*
X315208Y348460D01*
X315196Y348471D01*
X315198Y348481D01*
X314802Y348977D01*
X314508Y349565D01*
X314409Y350253D01*
X314409Y350947D01*
X314508Y351639D01*
X314705Y352228D01*
X315071Y352777D01*
X316803Y351334D01*
X316613Y350766D01*
X316618Y350750D01*
X316611Y350743D01*
X316711Y350043D01*
X316730Y350025D01*
X316729Y350012D01*
X317229Y349612D01*
X317247Y349611D01*
X317252Y349601D01*
X317852Y349501D01*
X317857Y349504D01*
X317860Y349501D01*
X319260Y349501D01*
X319293Y349526D01*
X319304Y349528D01*
X319404Y349728D01*
X319401Y349744D01*
X319409Y349750D01*
X319409Y351709D01*
X321611Y352122D01*
X321611Y345264D01*
X321328Y344792D01*
X320656Y344600D01*
X319883Y344697D01*
G37*
%LPD*%
G36*
X328699Y185758D02*
X328699Y185758D01*
X328706Y185753D01*
X329306Y185953D01*
X329323Y185978D01*
X329336Y185982D01*
X329536Y186482D01*
X329532Y186495D01*
X329539Y186500D01*
X329539Y189193D01*
X329551Y189234D01*
X329593Y189382D01*
X329607Y189431D01*
X329649Y189579D01*
X329650Y189579D01*
X329649Y189579D01*
X329692Y189727D01*
X329706Y189776D01*
X329733Y189871D01*
X330207Y190251D01*
X330878Y190251D01*
X331453Y189963D01*
X331743Y189385D01*
X331841Y188796D01*
X331841Y186700D01*
X331844Y186695D01*
X331841Y186692D01*
X331941Y186092D01*
X331960Y186074D01*
X331960Y186061D01*
X332360Y185761D01*
X332382Y185761D01*
X332390Y185751D01*
X333390Y185751D01*
X333401Y185759D01*
X333408Y185754D01*
X333908Y185954D01*
X333923Y185978D01*
X333926Y185981D01*
X333937Y185984D01*
X334137Y186584D01*
X334133Y186595D01*
X334139Y186600D01*
X334139Y192100D01*
X334123Y192121D01*
X334125Y192135D01*
X333725Y192535D01*
X333702Y192538D01*
X333696Y192549D01*
X332896Y192649D01*
X332891Y192646D01*
X332886Y192646D01*
X332883Y192649D01*
X332183Y192549D01*
X332161Y192527D01*
X332148Y192525D01*
X331867Y192057D01*
X331512Y192145D01*
X331021Y192538D01*
X331002Y192539D01*
X330997Y192549D01*
X330297Y192649D01*
X330292Y192646D01*
X330286Y192646D01*
X330283Y192649D01*
X329583Y192549D01*
X329578Y192544D01*
X329574Y192547D01*
X328974Y192347D01*
X328969Y192339D01*
X328963Y192341D01*
X328363Y191941D01*
X328359Y191931D01*
X328352Y191931D01*
X327552Y190931D01*
X327551Y190917D01*
X327543Y190914D01*
X327535Y190886D01*
X327521Y190837D01*
X327479Y190689D01*
X327436Y190541D01*
X327422Y190492D01*
X327380Y190344D01*
X327343Y190214D01*
X327344Y190210D01*
X327341Y190208D01*
X327241Y189608D01*
X327243Y189606D01*
X327242Y189606D01*
X327244Y189604D01*
X327241Y189602D01*
X327141Y186802D01*
X327148Y186791D01*
X327143Y186784D01*
X327343Y186184D01*
X327357Y186175D01*
X327355Y186165D01*
X327755Y185765D01*
X327782Y185762D01*
X327790Y185751D01*
X328690Y185751D01*
X328699Y185758D01*
G37*
G36*
X285922Y260755D02*
X285922Y260755D01*
X285926Y260751D01*
X286726Y260851D01*
X286749Y260874D01*
X286763Y260876D01*
X287163Y261576D01*
X287160Y261593D01*
X287169Y261600D01*
X287169Y268400D01*
X287160Y268413D01*
X287164Y268422D01*
X286864Y269022D01*
X286843Y269033D01*
X286839Y269045D01*
X286139Y269345D01*
X286126Y269342D01*
X286120Y269349D01*
X285020Y269349D01*
X285004Y269337D01*
X284993Y269341D01*
X284393Y268941D01*
X284390Y268934D01*
X284385Y268935D01*
X284117Y268667D01*
X283552Y269138D01*
X283538Y269138D01*
X283536Y269147D01*
X282636Y269447D01*
X282625Y269443D01*
X282620Y269449D01*
X281820Y269449D01*
X281813Y269444D01*
X281808Y269448D01*
X281008Y269248D01*
X280991Y269226D01*
X280977Y269224D01*
X280577Y268524D01*
X280580Y268507D01*
X280571Y268500D01*
X280571Y267600D01*
X280580Y267587D01*
X280576Y267578D01*
X280976Y266778D01*
X280992Y266770D01*
X280993Y266759D01*
X281593Y266359D01*
X281621Y266361D01*
X281632Y266352D01*
X282429Y266552D01*
X283211Y266649D01*
X283981Y266265D01*
X284271Y265491D01*
X284271Y262200D01*
X284274Y262196D01*
X284271Y262194D01*
X284371Y261394D01*
X284387Y261378D01*
X284385Y261365D01*
X284885Y260865D01*
X284908Y260862D01*
X284915Y260851D01*
X285915Y260751D01*
X285922Y260755D01*
G37*
%LPC*%
G36*
X552583Y376059D02*
X552583Y376059D01*
X552583Y378189D01*
X552583Y378190D01*
X552581Y378426D01*
X553246Y378459D01*
X553250Y378462D01*
X553256Y378461D01*
X553773Y378573D01*
X553780Y378581D01*
X553798Y378585D01*
X554215Y378909D01*
X554218Y378916D01*
X554226Y378921D01*
X554543Y379330D01*
X554544Y379335D01*
X554550Y379340D01*
X554788Y379810D01*
X554787Y379818D01*
X554794Y379829D01*
X554871Y380352D01*
X554869Y380355D01*
X554871Y380358D01*
X554903Y380881D01*
X554900Y380886D01*
X554902Y380894D01*
X554825Y381417D01*
X554822Y381421D01*
X554822Y381428D01*
X554654Y381921D01*
X554651Y381924D01*
X554650Y381931D01*
X554401Y382397D01*
X554392Y382402D01*
X554384Y382417D01*
X553969Y382743D01*
X553961Y382744D01*
X553954Y382752D01*
X553480Y382954D01*
X553474Y382953D01*
X553467Y382958D01*
X552949Y383055D01*
X552943Y383053D01*
X552933Y383056D01*
X552583Y383037D01*
X552583Y385057D01*
X552590Y385449D01*
X553128Y385469D01*
X554681Y385198D01*
X555173Y385066D01*
X556492Y384223D01*
X556710Y383941D01*
X556709Y383939D01*
X556715Y383933D01*
X556717Y383921D01*
X557373Y382939D01*
X557581Y382478D01*
X557853Y380929D01*
X557838Y380419D01*
X557564Y378873D01*
X557310Y378429D01*
X556737Y377550D01*
X556382Y377194D01*
X555495Y376632D01*
X555053Y376373D01*
X553502Y376106D01*
X552985Y376049D01*
X552583Y376059D01*
G37*
%LPD*%
G36*
X313299Y185758D02*
X313299Y185758D01*
X313306Y185753D01*
X313906Y185953D01*
X313909Y185958D01*
X313912Y185956D01*
X314512Y186256D01*
X314519Y186270D01*
X314529Y186270D01*
X314829Y186670D01*
X314829Y186677D01*
X314834Y186678D01*
X315134Y187278D01*
X315132Y187289D01*
X315139Y187293D01*
X315239Y187993D01*
X315236Y187998D01*
X315239Y188000D01*
X315239Y190067D01*
X316208Y190454D01*
X316224Y190480D01*
X316237Y190484D01*
X316437Y191084D01*
X316433Y191095D01*
X316439Y191100D01*
X316439Y191900D01*
X316428Y191915D01*
X316432Y191925D01*
X316132Y192425D01*
X316110Y192434D01*
X316106Y192447D01*
X315517Y192643D01*
X315239Y192920D01*
X315239Y194300D01*
X315231Y194311D01*
X315236Y194318D01*
X315036Y194818D01*
X315008Y194835D01*
X315004Y194847D01*
X314304Y195047D01*
X314290Y195042D01*
X314284Y195049D01*
X313484Y194949D01*
X313470Y194936D01*
X313459Y194938D01*
X312959Y194538D01*
X312952Y194508D01*
X312941Y194500D01*
X312941Y192556D01*
X312196Y192649D01*
X312192Y192647D01*
X312190Y192649D01*
X311590Y192649D01*
X311585Y192646D01*
X311584Y192646D01*
X311574Y192638D01*
X311565Y192642D01*
X311065Y192342D01*
X311057Y192324D01*
X311044Y192314D01*
X311047Y192310D01*
X311041Y192307D01*
X310941Y191607D01*
X310946Y191599D01*
X310941Y191595D01*
X311041Y190695D01*
X311060Y190674D01*
X311060Y190661D01*
X311460Y190361D01*
X311477Y190361D01*
X311482Y190351D01*
X312082Y190251D01*
X312092Y190257D01*
X312097Y190251D01*
X312756Y190345D01*
X312941Y189792D01*
X312941Y188514D01*
X312660Y188045D01*
X311983Y187949D01*
X311973Y187939D01*
X311965Y187942D01*
X311465Y187642D01*
X311455Y187618D01*
X311443Y187614D01*
X311421Y187537D01*
X311407Y187488D01*
X311365Y187340D01*
X311322Y187192D01*
X311308Y187143D01*
X311266Y186995D01*
X311243Y186914D01*
X311248Y186900D01*
X311245Y186897D01*
X311241Y186893D01*
X311341Y186193D01*
X311360Y186175D01*
X311359Y186162D01*
X311859Y185762D01*
X311882Y185761D01*
X311890Y185751D01*
X313290Y185751D01*
X313299Y185758D01*
G37*
%LPC*%
G36*
X562242Y376149D02*
X562242Y376149D01*
X562248Y376241D01*
X562247Y376243D01*
X562248Y376246D01*
X562248Y385368D01*
X565163Y385368D01*
X565164Y385368D01*
X565180Y385368D01*
X565180Y376520D01*
X565180Y376519D01*
X565186Y376149D01*
X562242Y376149D01*
G37*
%LPD*%
%LPC*%
G36*
X558576Y376149D02*
X558576Y376149D01*
X558570Y376199D01*
X558570Y385368D01*
X561434Y385368D01*
X561476Y385368D01*
X561501Y376571D01*
X561502Y376571D01*
X561501Y376570D01*
X561507Y376149D01*
X558576Y376149D01*
G37*
%LPD*%
%LPC*%
G36*
X344169Y344599D02*
X344169Y344599D01*
X343700Y344787D01*
X343509Y345358D01*
X343509Y346750D01*
X343496Y346768D01*
X343499Y346780D01*
X343199Y347180D01*
X343168Y347189D01*
X343160Y347199D01*
X341863Y347199D01*
X341168Y347299D01*
X340627Y347389D01*
X341391Y349491D01*
X341748Y349402D01*
X341756Y349406D01*
X341760Y349401D01*
X343060Y349401D01*
X343078Y349414D01*
X343090Y349411D01*
X343490Y349711D01*
X343499Y349742D01*
X343509Y349750D01*
X343509Y351150D01*
X343506Y351155D01*
X343509Y351158D01*
X343412Y351739D01*
X344908Y353957D01*
X345333Y353904D01*
X345613Y353531D01*
X345711Y352847D01*
X345711Y345458D01*
X345519Y344883D01*
X345046Y344599D01*
X344169Y344599D01*
G37*
%LPD*%
G36*
X323524Y260851D02*
X323524Y260851D01*
X323542Y260867D01*
X323555Y260865D01*
X324055Y261365D01*
X324056Y261376D01*
X324058Y261378D01*
X324057Y261380D01*
X324058Y261388D01*
X324069Y261394D01*
X324169Y262194D01*
X324167Y262198D01*
X324169Y262200D01*
X324169Y267900D01*
X324166Y267904D01*
X324169Y267906D01*
X324069Y268706D01*
X324056Y268720D01*
X324058Y268731D01*
X323658Y269231D01*
X323632Y269238D01*
X323624Y269249D01*
X322524Y269349D01*
X322518Y269345D01*
X322514Y269349D01*
X321714Y269249D01*
X321691Y269226D01*
X321677Y269224D01*
X321277Y268524D01*
X321280Y268507D01*
X321271Y268500D01*
X321271Y261700D01*
X321279Y261689D01*
X321275Y261681D01*
X321575Y260981D01*
X321603Y260965D01*
X321608Y260952D01*
X322408Y260752D01*
X322419Y260757D01*
X322424Y260751D01*
X323524Y260851D01*
G37*
%LPC*%
G36*
X377994Y188149D02*
X377994Y188149D01*
X377405Y188247D01*
X376815Y188543D01*
X376228Y188934D01*
X375936Y189519D01*
X375739Y190108D01*
X375739Y190896D01*
X375837Y191485D01*
X376132Y192073D01*
X376524Y192563D01*
X377112Y192955D01*
X377698Y193151D01*
X378382Y193151D01*
X378968Y192955D01*
X379559Y192562D01*
X380049Y192071D01*
X380343Y191485D01*
X380441Y190896D01*
X380441Y189520D01*
X379757Y188837D01*
X379263Y188442D01*
X378678Y188149D01*
X377994Y188149D01*
G37*
%LPD*%
%LPC*%
G36*
X339985Y347793D02*
X339985Y347793D01*
X339394Y348187D01*
X339002Y348677D01*
X338706Y349269D01*
X338508Y349861D01*
X338409Y350553D01*
X338409Y351240D01*
X338705Y351929D01*
X339001Y352521D01*
X339493Y353013D01*
X339989Y353410D01*
X340578Y353803D01*
X341267Y353901D01*
X341268Y353902D01*
X341268Y353901D01*
X341864Y354001D01*
X344557Y354001D01*
X344798Y353971D01*
X343334Y351799D01*
X342060Y351799D01*
X342056Y351796D01*
X342053Y351799D01*
X341353Y351699D01*
X341340Y351686D01*
X341329Y351688D01*
X340829Y351288D01*
X340824Y351268D01*
X340813Y351264D01*
X340613Y350564D01*
X340620Y350544D01*
X340613Y350534D01*
X340813Y349934D01*
X340830Y349923D01*
X340829Y349912D01*
X341301Y349534D01*
X340533Y347518D01*
X339985Y347793D01*
G37*
%LPD*%
%LPC*%
G36*
X300693Y188149D02*
X300693Y188149D01*
X300005Y188248D01*
X299417Y188542D01*
X298927Y188934D01*
X298537Y189518D01*
X298439Y190107D01*
X298340Y190895D01*
X298537Y191484D01*
X298733Y192073D01*
X299221Y192562D01*
X299812Y192955D01*
X300398Y193151D01*
X301082Y193151D01*
X301668Y192955D01*
X302256Y192563D01*
X302648Y192073D01*
X302943Y191485D01*
X303041Y190896D01*
X303041Y189512D01*
X302949Y189329D01*
X302459Y188838D01*
X301865Y188443D01*
X301278Y188149D01*
X300693Y188149D01*
G37*
%LPD*%
G36*
X587798Y378359D02*
X587798Y378359D01*
X587809Y378357D01*
X588327Y378463D01*
X588333Y378469D01*
X588345Y378471D01*
X588794Y378731D01*
X588797Y378736D01*
X588805Y378738D01*
X589191Y379087D01*
X589193Y379096D01*
X589204Y379103D01*
X589461Y379565D01*
X589461Y379571D01*
X589467Y379578D01*
X589614Y380078D01*
X589612Y380081D01*
X589615Y380086D01*
X589696Y380608D01*
X589693Y380614D01*
X589696Y380624D01*
X589646Y381146D01*
X589645Y381148D01*
X589645Y381150D01*
X589565Y381672D01*
X589559Y381679D01*
X589558Y381693D01*
X589300Y382155D01*
X589296Y382157D01*
X589294Y382164D01*
X588970Y382567D01*
X588963Y382569D01*
X588958Y382578D01*
X588535Y382894D01*
X588526Y382895D01*
X588513Y382905D01*
X588005Y383034D01*
X588001Y383032D01*
X587995Y383035D01*
X587477Y383078D01*
X587470Y383074D01*
X587459Y383077D01*
X586942Y382970D01*
X586936Y382964D01*
X586923Y382963D01*
X586474Y382704D01*
X586471Y382699D01*
X586463Y382696D01*
X586078Y382346D01*
X586076Y382338D01*
X586065Y382330D01*
X585808Y381868D01*
X585809Y381862D01*
X585803Y381855D01*
X585659Y381355D01*
X585660Y381351D01*
X585657Y381347D01*
X585577Y380824D01*
X585580Y380818D01*
X585577Y380809D01*
X585627Y380286D01*
X585628Y380285D01*
X585627Y380283D01*
X585707Y379760D01*
X585713Y379754D01*
X585714Y379739D01*
X585971Y379277D01*
X585975Y379275D01*
X585976Y379268D01*
X586300Y378864D01*
X586306Y378862D01*
X586311Y378853D01*
X586733Y378535D01*
X586743Y378534D01*
X586755Y378524D01*
X587263Y378396D01*
X587268Y378397D01*
X587274Y378394D01*
X587792Y378356D01*
X587798Y378359D01*
G37*
%LPC*%
G36*
X315140Y352851D02*
X315140Y352851D01*
X315589Y353210D01*
X316185Y353607D01*
X316778Y353904D01*
X317467Y354101D01*
X320852Y354101D01*
X321421Y353911D01*
X321611Y353342D01*
X321611Y352269D01*
X319359Y351800D01*
X318768Y351899D01*
X318763Y351896D01*
X318760Y351899D01*
X318060Y351899D01*
X318055Y351896D01*
X318052Y351899D01*
X317452Y351799D01*
X317445Y351791D01*
X317438Y351794D01*
X316866Y351508D01*
X315140Y352851D01*
G37*
%LPD*%
G36*
X323525Y270551D02*
X323525Y270551D01*
X323542Y270567D01*
X323555Y270565D01*
X324155Y271165D01*
X324156Y271176D01*
X324157Y271176D01*
X324156Y271177D01*
X324159Y271192D01*
X324169Y271200D01*
X324169Y272000D01*
X324166Y272004D01*
X324169Y272006D01*
X324069Y272806D01*
X324050Y272825D01*
X324051Y272838D01*
X323551Y273238D01*
X323531Y273239D01*
X323524Y273249D01*
X322324Y273349D01*
X322310Y273340D01*
X322301Y273345D01*
X321601Y273045D01*
X321589Y273024D01*
X321576Y273022D01*
X321276Y272422D01*
X321279Y272406D01*
X321271Y272400D01*
X321271Y271400D01*
X321277Y271392D01*
X321273Y271386D01*
X321473Y270686D01*
X321500Y270666D01*
X321504Y270653D01*
X321804Y270553D01*
X321811Y270556D01*
X321814Y270551D01*
X322614Y270451D01*
X322621Y270455D01*
X322625Y270451D01*
X323525Y270551D01*
G37*
%LPC*%
G36*
X293738Y263847D02*
X293738Y263847D01*
X293063Y264330D01*
X292872Y265097D01*
X293162Y265871D01*
X293740Y266353D01*
X294610Y266449D01*
X295283Y266065D01*
X295671Y265288D01*
X295671Y264517D01*
X295290Y264041D01*
X294514Y263750D01*
X293738Y263847D01*
G37*
%LPD*%
%LPC*%
G36*
X321698Y188149D02*
X321698Y188149D01*
X321119Y188342D01*
X320737Y188820D01*
X320641Y189591D01*
X320929Y190168D01*
X321407Y190551D01*
X322078Y190551D01*
X322655Y190262D01*
X322943Y189783D01*
X323039Y189108D01*
X322751Y188532D01*
X322273Y188149D01*
X321698Y188149D01*
G37*
%LPD*%
%LPC*%
G36*
X269570Y189849D02*
X269570Y189849D01*
X269834Y190378D01*
X269834Y190379D01*
X269835Y190379D01*
X270383Y191566D01*
X270443Y191384D01*
X270446Y191383D01*
X270445Y191381D01*
X270938Y190196D01*
X270852Y189849D01*
X269570Y189849D01*
G37*
%LPD*%
D10*
X289560Y339090D02*
X304800Y339090D01*
X284988Y354838D02*
X284990Y354971D01*
X284996Y355104D01*
X285005Y355236D01*
X285019Y355369D01*
X285036Y355501D01*
X285057Y355632D01*
X285082Y355763D01*
X285111Y355892D01*
X285144Y356021D01*
X285180Y356149D01*
X285220Y356276D01*
X285264Y356402D01*
X285311Y356526D01*
X285362Y356649D01*
X285416Y356770D01*
X285474Y356890D01*
X285536Y357008D01*
X285601Y357124D01*
X285669Y357238D01*
X285740Y357350D01*
X285815Y357460D01*
X285893Y357568D01*
X285974Y357674D01*
X286058Y357777D01*
X286145Y357877D01*
X286234Y357975D01*
X286327Y358071D01*
X286423Y358164D01*
X286521Y358253D01*
X286621Y358340D01*
X286724Y358424D01*
X286830Y358505D01*
X286938Y358583D01*
X287048Y358658D01*
X287160Y358729D01*
X287274Y358797D01*
X287390Y358862D01*
X287508Y358924D01*
X287628Y358982D01*
X287749Y359036D01*
X287872Y359087D01*
X287996Y359134D01*
X288122Y359178D01*
X288249Y359218D01*
X288377Y359254D01*
X288506Y359287D01*
X288635Y359316D01*
X288766Y359341D01*
X288897Y359362D01*
X289029Y359379D01*
X289162Y359393D01*
X289294Y359402D01*
X289427Y359408D01*
X289560Y359410D01*
X304800Y359410D02*
X304933Y359408D01*
X305066Y359402D01*
X305198Y359393D01*
X305331Y359379D01*
X305463Y359362D01*
X305594Y359341D01*
X305725Y359316D01*
X305854Y359287D01*
X305983Y359254D01*
X306111Y359218D01*
X306238Y359178D01*
X306364Y359134D01*
X306488Y359087D01*
X306611Y359036D01*
X306732Y358982D01*
X306852Y358924D01*
X306970Y358862D01*
X307086Y358797D01*
X307200Y358729D01*
X307312Y358658D01*
X307422Y358583D01*
X307530Y358505D01*
X307636Y358424D01*
X307739Y358340D01*
X307839Y358253D01*
X307937Y358164D01*
X308033Y358071D01*
X308126Y357975D01*
X308215Y357877D01*
X308302Y357777D01*
X308386Y357674D01*
X308467Y357568D01*
X308545Y357460D01*
X308620Y357350D01*
X308691Y357238D01*
X308759Y357124D01*
X308824Y357008D01*
X308886Y356890D01*
X308944Y356770D01*
X308998Y356649D01*
X309049Y356526D01*
X309096Y356402D01*
X309140Y356276D01*
X309180Y356149D01*
X309216Y356021D01*
X309249Y355892D01*
X309278Y355763D01*
X309303Y355632D01*
X309324Y355501D01*
X309341Y355369D01*
X309355Y355236D01*
X309364Y355104D01*
X309370Y354971D01*
X309372Y354838D01*
X309372Y343662D02*
X309370Y343529D01*
X309364Y343396D01*
X309355Y343264D01*
X309341Y343131D01*
X309324Y342999D01*
X309303Y342868D01*
X309278Y342737D01*
X309249Y342608D01*
X309216Y342479D01*
X309180Y342351D01*
X309140Y342224D01*
X309096Y342098D01*
X309049Y341974D01*
X308998Y341851D01*
X308944Y341730D01*
X308886Y341610D01*
X308824Y341492D01*
X308759Y341376D01*
X308691Y341262D01*
X308620Y341150D01*
X308545Y341040D01*
X308467Y340932D01*
X308386Y340826D01*
X308302Y340723D01*
X308215Y340623D01*
X308126Y340525D01*
X308033Y340429D01*
X307937Y340336D01*
X307839Y340247D01*
X307739Y340160D01*
X307636Y340076D01*
X307530Y339995D01*
X307422Y339917D01*
X307312Y339842D01*
X307200Y339771D01*
X307086Y339703D01*
X306970Y339638D01*
X306852Y339576D01*
X306732Y339518D01*
X306611Y339464D01*
X306488Y339413D01*
X306364Y339366D01*
X306238Y339322D01*
X306111Y339282D01*
X305983Y339246D01*
X305854Y339213D01*
X305725Y339184D01*
X305594Y339159D01*
X305463Y339138D01*
X305331Y339121D01*
X305198Y339107D01*
X305066Y339098D01*
X304933Y339092D01*
X304800Y339090D01*
X289560Y339090D02*
X289427Y339092D01*
X289294Y339098D01*
X289162Y339107D01*
X289029Y339121D01*
X288897Y339138D01*
X288766Y339159D01*
X288635Y339184D01*
X288506Y339213D01*
X288377Y339246D01*
X288249Y339282D01*
X288122Y339322D01*
X287996Y339366D01*
X287872Y339413D01*
X287749Y339464D01*
X287628Y339518D01*
X287508Y339576D01*
X287390Y339638D01*
X287274Y339703D01*
X287160Y339771D01*
X287048Y339842D01*
X286938Y339917D01*
X286830Y339995D01*
X286724Y340076D01*
X286621Y340160D01*
X286521Y340247D01*
X286423Y340336D01*
X286327Y340429D01*
X286234Y340525D01*
X286145Y340623D01*
X286058Y340723D01*
X285974Y340826D01*
X285893Y340932D01*
X285815Y341040D01*
X285740Y341150D01*
X285669Y341262D01*
X285601Y341376D01*
X285536Y341492D01*
X285474Y341610D01*
X285416Y341730D01*
X285362Y341851D01*
X285311Y341974D01*
X285264Y342098D01*
X285220Y342224D01*
X285180Y342351D01*
X285144Y342479D01*
X285111Y342608D01*
X285082Y342737D01*
X285057Y342868D01*
X285036Y342999D01*
X285019Y343131D01*
X285005Y343264D01*
X284996Y343396D01*
X284990Y343529D01*
X284988Y343662D01*
X284988Y354838D01*
X309372Y354838D02*
X309372Y343662D01*
X304800Y359410D02*
X289560Y359410D01*
M02*
